<svg width="413" height="377" viewBox="0 0 413 377" fill="none" xmlns="http://www.w3.org/2000/svg">
<g clip-path="url(#clip0)">
<path opacity="0.1" d="M128.955 377C177.739 377 217.286 369.915 217.286 361.176C217.286 352.436 177.739 345.352 128.955 345.352C80.1715 345.352 40.6246 352.436 40.6246 361.176C40.6246 369.915 80.1715 377 128.955 377Z" fill="#6C63FF"/>
<path opacity="0.1" d="M127.526 16.6319C141.536 2.03854 163.532 -0.950449 183.556 0.227566C246.44 3.88469 303.198 39.3438 352.31 79.4623C370.087 93.9897 387.59 109.638 399.127 129.642C422.617 170.354 415.647 226.758 382.985 260.296C371.873 271.725 358.402 280.459 344.574 288.213C319.983 302.002 293.45 313.07 265.541 316.221C245.64 318.467 225.493 316.639 205.707 313.505C150.425 304.749 96.1624 285.373 50.6842 252.244C30.7383 237.729 11.9378 219.646 3.71471 196.134C-4.50839 172.622 0.739368 142.829 21.1242 128.917C29.5481 123.159 39.6197 120.565 49.4792 118.117C63.984 114.526 78.7417 110.983 91.8407 103.682C105.367 96.1347 121.386 81.5458 118.708 64.8514C115.833 46.9306 113.52 31.1988 127.526 16.6319Z" fill="#6C63FF"/>
<path d="M342.473 38.8834C344.987 58.4701 337.992 75.9689 337.992 75.9689C337.992 75.9689 326.92 61.7141 324.398 42.1274C322.988 31.1384 324.569 20.8176 326.228 13.8638C326.437 12.9607 326.864 12.1489 327.456 11.5269C328.048 10.9048 328.78 10.4994 329.563 10.3597C330.347 10.2201 331.148 10.3523 331.869 10.7402C332.59 11.1282 333.2 11.7552 333.625 12.5451C336.961 18.5935 341.064 27.8989 342.473 38.8834Z" fill="#6C63FF"/>
<path d="M389.223 70.101C391.714 70.0872 394.196 70.4581 396.606 71.2042C400.663 72.435 400.727 79.2262 396.691 80.5624C394.296 81.3689 391.822 81.8034 389.331 81.8547C380.208 81.9734 372.759 76.1888 372.759 76.1888C372.759 76.1888 380.1 70.2196 389.223 70.101Z" fill="#6C63FF"/>
<path d="M363.569 40.3252C355.078 51.3537 353.281 65.7668 353.281 65.7668C353.281 65.7668 365.25 62.2943 373.737 51.2614C377.672 46.1493 380.171 40.312 381.718 35.5208C382.011 34.6138 382.066 33.6236 381.877 32.679C381.687 31.7345 381.261 30.8793 380.654 30.2248C380.047 29.5703 379.288 29.1469 378.475 29.0095C377.662 28.8722 376.832 29.0274 376.095 29.4549C372.182 31.7274 367.503 35.2131 363.569 40.3252Z" fill="#6C63FF"/>
<path d="M374.023 38.2461H197.585C193.518 38.2461 190.221 42.1427 190.221 46.9493V301.616C190.221 306.423 193.518 310.319 197.585 310.319H374.023C378.09 310.319 381.387 306.423 381.387 301.616V46.9493C381.387 42.1427 378.09 38.2461 374.023 38.2461Z" fill="#464353"/>
<path opacity="0.1" d="M364.896 65.6919H206.712V282.873H364.896V65.6919Z" fill="#6C63FF"/>
<path d="M285.804 305.15C289.522 305.15 292.536 301.588 292.536 297.194C292.536 292.8 289.522 289.238 285.804 289.238C282.086 289.238 279.072 292.8 279.072 297.194C279.072 301.588 282.086 305.15 285.804 305.15Z" fill="white"/>
<path d="M285.804 57.9163C285.175 57.9163 284.56 57.6959 284.037 57.283C283.514 56.87 283.107 56.2831 282.866 55.5963C282.626 54.9096 282.563 54.154 282.685 53.4249C282.808 52.6959 283.111 52.0263 283.556 51.5007C284 50.9751 284.567 50.6171 285.184 50.4721C285.801 50.3271 286.44 50.4015 287.021 50.686C287.602 50.9704 288.099 51.4521 288.448 52.0702C288.797 52.6882 288.984 53.4148 288.984 54.1581C288.982 55.1542 288.646 56.1087 288.05 56.813C287.454 57.5173 286.647 57.914 285.804 57.9163Z" fill="white"/>
<path d="M285.804 50.6193C286.396 50.6193 286.975 50.8268 287.468 51.2156C287.96 51.6044 288.344 52.1571 288.57 52.8036C288.797 53.4502 288.856 54.1617 288.741 54.8481C288.625 55.5344 288.34 56.1649 287.921 56.6598C287.502 57.1547 286.969 57.4917 286.388 57.6282C285.807 57.7647 285.205 57.6947 284.658 57.4268C284.111 57.159 283.644 56.7055 283.315 56.1236C282.986 55.5417 282.81 54.8576 282.81 54.1577C282.811 53.2196 283.127 52.3203 283.688 51.657C284.249 50.9936 285.01 50.6205 285.804 50.6193ZM285.804 50.1797C285.138 50.1754 284.485 50.405 283.929 50.8394C283.373 51.2739 282.939 51.8937 282.681 52.6201C282.424 53.3466 282.354 54.1472 282.482 54.9203C282.61 55.6934 282.929 56.4042 283.399 56.9628C283.869 57.5213 284.469 57.9023 285.122 58.0576C285.775 58.2129 286.453 58.1354 287.069 57.835C287.685 57.5346 288.212 57.0247 288.583 56.3701C288.954 55.7154 289.151 54.9454 289.151 54.1577C289.154 53.6364 289.069 53.1196 288.902 52.6371C288.735 52.1546 288.489 51.7159 288.178 51.3462C287.867 50.9765 287.497 50.6832 287.089 50.483C286.682 50.2828 286.245 50.1797 285.804 50.1797Z" fill="white"/>
<path d="M245.269 132.971H215.66C214.777 132.971 214.061 133.817 214.061 134.861V183.792C214.061 184.836 214.777 185.682 215.66 185.682H245.269C246.152 185.682 246.868 184.836 246.868 183.792V134.861C246.868 133.817 246.152 132.971 245.269 132.971Z" fill="white" stroke="white" stroke-miterlimit="10"/>
<path opacity="0.5" d="M241.137 146.254H219.792C218.326 146.254 217.137 147.659 217.137 149.392V159.841C217.137 161.574 218.326 162.979 219.792 162.979H241.137C242.603 162.979 243.792 161.574 243.792 159.841V149.392C243.792 147.659 242.603 146.254 241.137 146.254Z" fill="#6C63FF"/>
<path d="M237.6 169.801H223.329C222.982 169.801 222.701 170.134 222.701 170.544V171.656C222.701 172.066 222.982 172.399 223.329 172.399H237.6C237.947 172.399 238.228 172.066 238.228 171.656V170.544C238.228 170.134 237.947 169.801 237.6 169.801Z" fill="#6C63FF"/>
<path d="M300.733 132.971H271.124C270.241 132.971 269.525 133.817 269.525 134.861V183.792C269.525 184.836 270.241 185.682 271.124 185.682H300.733C301.616 185.682 302.332 184.836 302.332 183.792V134.861C302.332 133.817 301.616 132.971 300.733 132.971Z" fill="white" stroke="white" stroke-miterlimit="10"/>
<path opacity="0.5" d="M293.332 141.204H278.697C278.397 141.204 278.154 141.491 278.154 141.845V150.426C278.154 150.78 278.397 151.067 278.697 151.067H293.332C293.632 151.067 293.875 150.78 293.875 150.426V141.845C293.875 141.491 293.632 141.204 293.332 141.204Z" fill="#6C63FF"/>
<path d="M295.295 160.311H276.484C276.137 160.311 275.855 160.644 275.855 161.054V162.166C275.855 162.576 276.137 162.909 276.484 162.909H295.295C295.643 162.909 295.924 162.576 295.924 162.166V161.054C295.924 160.644 295.643 160.311 295.295 160.311Z" fill="#6C63FF"/>
<path d="M295.295 165.155H276.484C276.137 165.155 275.855 165.488 275.855 165.898V167.01C275.855 167.42 276.137 167.753 276.484 167.753H295.295C295.643 167.753 295.924 167.42 295.924 167.01V165.898C295.924 165.488 295.643 165.155 295.295 165.155Z" fill="#6C63FF"/>
<path d="M355.948 95.5249H326.339C325.456 95.5249 324.74 96.3711 324.74 97.415V146.347C324.74 147.39 325.456 148.237 326.339 148.237H355.948C356.831 148.237 357.547 147.39 357.547 146.347V97.415C357.547 96.3711 356.831 95.5249 355.948 95.5249Z" fill="white" stroke="white" stroke-miterlimit="10"/>
<path opacity="0.5" d="M351.28 103.705H331.007C330.707 103.705 330.464 103.992 330.464 104.347V114.843C330.464 115.198 330.707 115.485 331.007 115.485H351.28C351.58 115.485 351.823 115.198 351.823 114.843V104.347C351.823 103.992 351.58 103.705 351.28 103.705Z" fill="#6C63FF"/>
<path opacity="0.5" d="M351.28 120.826H331.007C330.707 120.826 330.464 121.113 330.464 121.467V131.964C330.464 132.319 330.707 132.606 331.007 132.606H351.28C351.58 132.606 351.823 132.319 351.823 131.964V121.467C351.823 121.113 351.58 120.826 351.28 120.826Z" fill="#6C63FF"/>
<path d="M334.339 142.1H330.181C329.395 142.1 328.757 142.854 328.757 143.784V144.052C328.757 144.982 329.395 145.735 330.181 145.735H334.339C335.126 145.735 335.764 144.982 335.764 144.052V143.784C335.764 142.854 335.126 142.1 334.339 142.1Z" fill="#6C63FF"/>
<path d="M343.224 142.1H339.066C338.28 142.1 337.642 142.854 337.642 143.784V144.052C337.642 144.982 338.28 145.735 339.066 145.735H343.224C344.011 145.735 344.649 144.982 344.649 144.052V143.784C344.649 142.854 344.011 142.1 343.224 142.1Z" fill="#6C63FF"/>
<path d="M352.11 142.1H347.952C347.165 142.1 346.527 142.854 346.527 143.784V144.052C346.527 144.982 347.165 145.735 347.952 145.735H352.11C352.896 145.735 353.534 144.982 353.534 144.052V143.784C353.534 142.854 352.896 142.1 352.11 142.1Z" fill="#6C63FF"/>
<path d="M355.87 170.417H326.261C325.378 170.417 324.662 171.263 324.662 172.307V221.238C324.662 222.282 325.378 223.128 326.261 223.128H355.87C356.753 223.128 357.469 222.282 357.469 221.238V172.307C357.469 171.263 356.753 170.417 355.87 170.417Z" fill="white" stroke="white" stroke-miterlimit="10"/>
<path opacity="0.5" d="M336.456 176.579H327.738C327.438 176.579 327.195 176.866 327.195 177.221V187.718C327.195 188.072 327.438 188.359 327.738 188.359H336.456C336.755 188.359 336.999 188.072 336.999 187.718V177.221C336.999 176.866 336.755 176.579 336.456 176.579Z" fill="#6C63FF"/>
<path d="M350.473 195.533H331.662C331.314 195.533 331.033 195.865 331.033 196.276V197.388C331.033 197.798 331.314 198.131 331.662 198.131H350.473C350.82 198.131 351.102 197.798 351.102 197.388V196.276C351.102 195.865 350.82 195.533 350.473 195.533Z" fill="#6C63FF"/>
<path d="M350.473 200.786H331.662C331.314 200.786 331.033 201.118 331.033 201.529V202.641C331.033 203.051 331.314 203.383 331.662 203.383H350.473C350.82 203.383 351.102 203.051 351.102 202.641V201.529C351.102 201.118 350.82 200.786 350.473 200.786Z" fill="#6C63FF"/>
<path d="M350.473 206.038H331.662C331.314 206.038 331.033 206.371 331.033 206.781V207.893C331.033 208.303 331.314 208.636 331.662 208.636H350.473C350.82 208.636 351.102 208.303 351.102 207.893V206.781C351.102 206.371 350.82 206.038 350.473 206.038Z" fill="#6C63FF"/>
<path d="M265.743 158.07L265.241 158.355L261.172 160.667L260.8 160.874C260.775 160.888 260.748 160.895 260.721 160.896C260.694 160.897 260.666 160.891 260.641 160.879C260.616 160.868 260.592 160.85 260.573 160.827C260.554 160.804 260.539 160.777 260.528 160.747C260.524 160.717 260.524 160.688 260.528 160.659V159.292C260.528 159.23 260.508 159.171 260.471 159.127C260.434 159.083 260.384 159.059 260.331 159.059H250.442C250.389 159.059 250.339 159.034 250.301 158.991C250.264 158.947 250.242 158.888 250.241 158.826V156.896C250.242 156.834 250.264 156.775 250.301 156.731C250.339 156.687 250.389 156.663 250.442 156.663H260.342C260.395 156.662 260.445 156.636 260.482 156.592C260.519 156.548 260.54 156.488 260.54 156.426V155.028C260.536 154.999 260.536 154.969 260.54 154.94C260.55 154.91 260.566 154.883 260.585 154.861C260.605 154.839 260.628 154.821 260.653 154.81C260.678 154.798 260.706 154.793 260.733 154.794C260.76 154.795 260.787 154.803 260.811 154.817L261.183 155.023L265.241 157.358L265.743 157.648C265.777 157.666 265.805 157.696 265.825 157.734C265.846 157.771 265.856 157.814 265.856 157.859C265.856 157.903 265.846 157.946 265.825 157.984C265.805 158.021 265.777 158.051 265.743 158.07Z" fill="white" stroke="white" stroke-miterlimit="10"/>
<path d="M320.798 146.214L320.471 146.746L317.808 151.036L317.573 151.419C317.557 151.444 317.536 151.465 317.512 151.481C317.488 151.497 317.462 151.507 317.435 151.511C317.408 151.514 317.381 151.512 317.355 151.503C317.329 151.494 317.304 151.479 317.283 151.458C317.264 151.439 317.249 151.415 317.239 151.388L316.696 150.184C316.67 150.128 316.628 150.087 316.577 150.068C316.527 150.049 316.472 150.054 316.424 150.083L307.684 155.581C307.661 155.596 307.636 155.605 307.61 155.608C307.584 155.611 307.558 155.608 307.533 155.599C307.508 155.59 307.485 155.575 307.465 155.556C307.445 155.536 307.428 155.512 307.416 155.485L306.65 153.775C306.638 153.748 306.63 153.718 306.628 153.687C306.625 153.657 306.628 153.626 306.635 153.596C306.643 153.567 306.655 153.54 306.672 153.516C306.688 153.492 306.709 153.473 306.732 153.458L315.472 147.968C315.495 147.954 315.515 147.934 315.532 147.911C315.549 147.887 315.561 147.86 315.569 147.83C315.576 147.801 315.579 147.77 315.576 147.739C315.574 147.709 315.566 147.679 315.554 147.652L315 146.417C314.986 146.392 314.978 146.363 314.977 146.333C314.974 146.301 314.976 146.268 314.984 146.237C314.991 146.206 315.005 146.177 315.023 146.153C315.041 146.128 315.063 146.109 315.088 146.095C315.113 146.081 315.14 146.074 315.167 146.074H315.565L320.073 145.88L320.631 145.858C320.666 145.858 320.7 145.87 320.73 145.891C320.761 145.912 320.786 145.942 320.803 145.978C320.82 146.015 320.828 146.056 320.828 146.097C320.827 146.139 320.816 146.179 320.798 146.214Z" fill="white" stroke="white" stroke-miterlimit="10"/>
<path d="M320.768 168.746H320.214H315.71H315.312C315.285 168.746 315.258 168.74 315.233 168.727C315.208 168.714 315.186 168.695 315.167 168.672C315.149 168.648 315.134 168.621 315.125 168.59C315.116 168.56 315.113 168.528 315.115 168.496C315.116 168.467 315.122 168.438 315.133 168.412L315.632 167.177C315.643 167.149 315.65 167.119 315.651 167.089C315.653 167.058 315.649 167.027 315.64 166.998C315.632 166.969 315.618 166.942 315.601 166.92C315.583 166.897 315.562 166.878 315.539 166.865L306.613 161.801C306.565 161.774 306.528 161.725 306.511 161.666C306.494 161.606 306.497 161.541 306.52 161.485L307.226 159.749C307.237 159.72 307.253 159.695 307.272 159.674C307.291 159.653 307.314 159.637 307.339 159.627C307.363 159.616 307.389 159.612 307.416 159.614C307.442 159.616 307.467 159.625 307.491 159.639L316.417 164.707C316.465 164.733 316.519 164.736 316.569 164.715C316.619 164.695 316.66 164.652 316.684 164.597L317.198 163.335C317.211 163.299 317.233 163.268 317.26 163.244C317.287 163.221 317.319 163.206 317.352 163.202C317.386 163.197 317.42 163.203 317.451 163.219C317.482 163.235 317.508 163.26 317.529 163.291L317.778 163.656L320.578 167.841L320.924 168.359C320.95 168.394 320.966 168.436 320.972 168.481C320.977 168.527 320.971 168.573 320.954 168.614C320.938 168.655 320.911 168.69 320.878 168.713C320.845 168.737 320.807 168.748 320.768 168.746Z" fill="white" stroke="white" stroke-miterlimit="10"/>
<path d="M157.764 266.658L157.734 267.946L155.837 347.097H152.646L154.212 267.946L154.242 266.46L157.764 266.658Z" fill="#504F60"/>
<path opacity="0.1" d="M157.764 266.658L157.734 267.946L155.837 347.097H152.646L154.212 267.946L154.242 266.46L157.764 266.658Z" fill="black"/>
<path d="M176.23 333.708L173.842 333.699L138.342 333.611L136.453 333.607L137.457 329.937H175.977L176.23 333.708Z" fill="#504F60"/>
<path opacity="0.1" d="M157.764 266.658L157.734 267.946H154.212L154.242 266.46L157.764 266.658Z" fill="black"/>
<path d="M159.11 264.724H153.193V267.352H159.11V264.724Z" fill="#504F60"/>
<path opacity="0.1" d="M138.658 329.937L138.342 333.611L136.453 333.607L137.457 329.937H138.658Z" fill="black"/>
<path d="M143.754 264.675L143.653 265.814L135.78 357.607L132.172 357.409L140.47 265.814L140.563 264.772L143.754 264.675Z" fill="#504F60"/>
<path opacity="0.1" d="M176.23 333.708L173.842 333.699L173.518 329.937H175.977L176.23 333.708Z" fill="black"/>
<path d="M180.008 357.409L176.397 357.607L168.523 265.814L168.427 264.675L171.614 264.772L171.707 265.814L180.008 357.409Z" fill="#504F60"/>
<path d="M195.365 174.166H115.808V264.324H195.365V174.166Z" fill="white"/>
<path d="M211.372 174.166H99.8934C99.0451 174.166 98.3574 174.979 98.3574 175.981V262.508C98.3574 263.511 99.0451 264.324 99.8934 264.324H211.372C212.22 264.324 212.908 263.511 212.908 262.508V175.981C212.908 174.979 212.22 174.166 211.372 174.166Z" fill="white"/>
<path d="M157.135 144.017V165.788H154.034V144.017C154.034 143.53 154.197 143.064 154.488 142.72C154.779 142.377 155.173 142.184 155.584 142.184C155.996 142.184 156.39 142.377 156.681 142.72C156.972 143.064 157.135 143.53 157.135 144.017Z" fill="#504F60"/>
<path opacity="0.1" d="M157.139 163.806H154.034V165.788H157.139V163.806Z" fill="black"/>
<path d="M158.355 165.291V172.482H152.817V165.291C152.817 165.058 152.896 164.834 153.035 164.67C153.175 164.505 153.364 164.412 153.561 164.412H157.589C157.689 164.408 157.788 164.429 157.881 164.471C157.973 164.514 158.058 164.578 158.13 164.66C158.201 164.742 158.258 164.84 158.297 164.948C158.335 165.057 158.355 165.173 158.355 165.291Z" fill="#504F60"/>
<path opacity="0.1" d="M155.584 170.351C156.234 170.351 156.76 169.729 156.76 168.962C156.76 168.195 156.234 167.573 155.584 167.573C154.935 167.573 154.409 168.195 154.409 168.962C154.409 169.729 154.935 170.351 155.584 170.351Z" fill="black"/>
<path d="M155.584 170.052C156.234 170.052 156.76 169.43 156.76 168.663C156.76 167.896 156.234 167.274 155.584 167.274C154.935 167.274 154.409 167.896 154.409 168.663C154.409 169.43 154.935 170.052 155.584 170.052Z" fill="#3F3D56"/>
<path opacity="0.1" d="M158.355 171.59H152.817V172.483H158.355V171.59Z" fill="black"/>
<path opacity="0.1" d="M160.62 172.781H150.549V174.764H160.62V172.781Z" fill="black"/>
<path d="M160.62 172.184H150.549V174.166H160.62V172.184Z" fill="#504F60"/>
<path opacity="0.1" d="M135.612 261.977H177.111C177.703 261.977 178.27 262.254 178.689 262.749C179.107 263.244 179.343 263.914 179.343 264.614H133.388C133.388 263.916 133.623 263.246 134.039 262.752C134.456 262.258 135.022 261.979 135.612 261.977Z" fill="black"/>
<path opacity="0.1" d="M140.563 264.772L143.754 264.675L143.653 265.814H140.47L140.563 264.772Z" fill="black"/>
<path opacity="0.1" d="M159.11 264.724H153.193V265.814H159.11V264.724Z" fill="black"/>
<path opacity="0.1" d="M171.707 265.814H168.523L168.427 264.675L171.614 264.772L171.707 265.814Z" fill="black"/>
<path d="M135.612 262.592H177.111C177.703 262.592 178.27 262.87 178.689 263.364C179.107 263.859 179.343 264.53 179.343 265.229H133.388C133.388 264.53 133.624 263.859 134.042 263.364C134.461 262.87 135.028 262.592 135.62 262.592H135.612Z" fill="#504F60"/>
<path d="M192.587 184.755C192.671 184.739 192.757 184.747 192.838 184.777C192.92 184.808 192.994 184.86 193.056 184.929C193.117 184.999 193.164 185.085 193.193 185.179C193.222 185.274 193.232 185.376 193.223 185.476C192.683 191.63 193.029 197.933 193.613 204.073C193.885 206.882 194.253 209.854 195.305 211.937C195.372 212.063 195.402 212.213 195.388 212.361C195.375 212.51 195.319 212.648 195.231 212.755C194.937 213.025 194.568 213.155 194.197 213.12L177.598 213.229C177.514 213.23 177.431 213.208 177.355 213.165C177.279 213.122 177.212 213.06 177.16 212.982C177.107 212.904 177.071 212.813 177.053 212.715C177.035 212.618 177.036 212.517 177.055 212.421C178.39 205.695 178.104 198.355 177.569 191.379C177.304 187.946 177.152 186.104 179.32 185.863C181.552 185.625 183.783 185.515 186.015 185.296C186.55 185.243 190.842 185.093 192.587 184.755Z" fill="white" stroke="#33313F" stroke-width="3" stroke-miterlimit="10"/>
<path d="M179.886 225.058C179.801 225.043 179.715 225.05 179.634 225.081C179.553 225.111 179.478 225.163 179.417 225.233C179.355 225.302 179.308 225.388 179.279 225.483C179.25 225.577 179.24 225.679 179.25 225.779C179.789 231.933 179.443 238.236 178.855 244.377C178.588 247.185 178.219 250.157 177.167 252.245C177.099 252.37 177.07 252.519 177.084 252.667C177.097 252.815 177.153 252.952 177.241 253.058C177.535 253.328 177.904 253.458 178.275 253.423L194.874 253.537C194.958 253.536 195.041 253.513 195.117 253.47C195.192 253.426 195.258 253.363 195.311 253.285C195.363 253.206 195.399 253.116 195.418 253.018C195.436 252.921 195.436 252.821 195.417 252.724C194.082 245.999 194.368 238.658 194.904 231.682C195.168 228.249 195.32 226.408 193.152 226.166C190.984 225.924 188.689 225.819 186.457 225.599C185.922 225.546 181.63 225.397 179.886 225.058Z" fill="white" stroke="#33313F" stroke-width="3" stroke-miterlimit="10"/>
<path d="M184.761 236.381C186.69 236.275 188.622 236.303 190.548 236.465C190.673 236.479 190.79 236.543 190.88 236.647C190.969 236.751 191.025 236.889 191.039 237.036L191.222 238.834C191.231 238.874 191.232 238.916 191.224 238.957C191.216 238.997 191.2 239.035 191.177 239.067C191.136 239.101 191.086 239.117 191.036 239.111C190.225 239.137 189.414 239.027 188.607 239.111C188.105 239.159 187.607 239.273 187.119 239.339C186.296 239.425 185.468 239.443 184.642 239.392C183.479 239.416 182.319 239.247 181.195 238.891C181.195 238.891 181.262 237.401 181.262 237.26C181.262 236.566 181.243 236.504 181.849 236.487L184.761 236.381Z" stroke="#33313F" stroke-width="2" stroke-miterlimit="10" stroke-linecap="round"/>
<path d="M184.761 244.486C186.69 244.594 188.623 244.564 190.548 244.399C190.673 244.384 190.79 244.32 190.88 244.216C190.969 244.112 191.025 243.974 191.039 243.827L191.222 242.034C191.231 241.993 191.232 241.95 191.224 241.909C191.216 241.867 191.2 241.829 191.177 241.796C191.136 241.762 191.086 241.746 191.036 241.752C190.225 241.726 189.414 241.84 188.607 241.752C188.105 241.708 187.607 241.594 187.119 241.528C186.296 241.44 185.468 241.423 184.642 241.475C183.479 241.452 182.319 241.62 181.195 241.977C181.195 241.977 181.262 243.462 181.262 243.607C181.262 244.302 181.243 244.359 181.849 244.381L184.761 244.486Z" stroke="#33313F" stroke-width="2" stroke-miterlimit="10" stroke-linecap="round"/>
<path d="M184.761 247.66C186.69 247.553 188.623 247.582 190.548 247.748C190.673 247.762 190.79 247.827 190.88 247.931C190.969 248.035 191.025 248.172 191.039 248.32L191.222 250.113C191.231 250.154 191.232 250.197 191.224 250.238C191.216 250.279 191.2 250.318 191.177 250.35C191.136 250.385 191.086 250.401 191.036 250.394C190.225 250.421 189.414 250.306 188.607 250.394C188.105 250.438 187.607 250.557 187.119 250.623C186.296 250.707 185.468 250.723 184.642 250.671C183.479 250.696 182.319 250.529 181.195 250.174C181.195 250.174 181.262 248.684 181.262 248.539C181.262 247.845 181.243 247.788 181.849 247.77L184.761 247.66Z" stroke="#33313F" stroke-width="2" stroke-miterlimit="10" stroke-linecap="round"/>
<path d="M187.205 210.039C187.375 210.522 187.432 211.05 187.369 211.568C187.369 211.61 187.36 211.651 187.342 211.687C187.322 211.71 187.297 211.728 187.27 211.74C187.243 211.751 187.215 211.756 187.186 211.753L183.653 211.915C183.653 211.915 183.85 210.685 183.876 210.597C183.999 210.096 184.308 210.228 184.706 210.201L187.205 210.039Z" fill="white" stroke="#33313F" stroke-width="2" stroke-miterlimit="10" stroke-linecap="round"/>
<path d="M192.542 210.039C192.711 210.522 192.766 211.051 192.702 211.568C192.704 211.609 192.696 211.651 192.679 211.687C192.659 211.71 192.634 211.728 192.607 211.739C192.58 211.75 192.552 211.755 192.523 211.753L188.986 211.915C188.986 211.915 189.187 210.685 189.213 210.597C189.332 210.096 189.641 210.228 190.043 210.201L192.542 210.039Z" fill="white" stroke="#33313F" stroke-width="2" stroke-miterlimit="10" stroke-linecap="round"/>
<path d="M190.411 189.054L190.887 193.889C190.903 194.064 190.889 194.24 190.846 194.409C190.804 194.577 190.733 194.733 190.638 194.869C190.544 195.004 190.427 195.116 190.295 195.198C190.164 195.279 190.02 195.329 189.871 195.344C186.853 195.626 183.819 195.602 180.804 195.274C180.536 195.243 180.286 195.099 180.101 194.868C179.916 194.637 179.808 194.334 179.796 194.016C179.74 193.154 179.633 192.298 179.476 191.454C179.354 190.575 179.22 189.726 180.097 189.467C180.975 189.208 182.176 189.392 183.136 189.37C184.287 189.344 185.433 189.306 186.576 189.256C186.896 189.256 190.411 189.032 190.411 189.054Z" stroke="#33313F" stroke-width="3" stroke-miterlimit="10"/>
<path d="M190.411 206.522L190.879 201.687C190.895 201.512 190.881 201.335 190.839 201.167C190.796 200.999 190.725 200.842 190.631 200.707C190.536 200.571 190.42 200.459 190.288 200.378C190.156 200.296 190.012 200.247 189.864 200.232C186.845 199.95 183.812 199.973 180.797 200.298C180.528 200.328 180.278 200.473 180.092 200.705C179.907 200.937 179.799 201.24 179.789 201.559C179.732 202.421 179.625 203.277 179.469 204.122C179.346 205.001 179.212 205.849 180.09 206.109C180.968 206.368 182.169 206.183 183.129 206.205C184.278 206.232 185.423 206.267 186.569 206.32C186.896 206.333 190.411 206.557 190.411 206.522Z" stroke="#33313F" stroke-width="3" stroke-miterlimit="10"/>
<path d="M185.632 228.311C185.508 229.92 185.43 231.531 185.397 233.146C184.032 233.132 182.672 232.948 181.34 232.597C181.235 232.591 181.132 232.558 181.039 232.5C180.946 232.442 180.865 232.361 180.802 232.262C180.738 232.163 180.694 232.049 180.672 231.927C180.65 231.806 180.65 231.68 180.674 231.559C180.648 230.557 180.202 228.32 181.396 228.179C181.753 228.135 185.628 228.39 185.632 228.311Z" stroke="#33313F" stroke-width="2" stroke-miterlimit="10" stroke-linecap="round"/>
<path d="M119.962 206.35C120.137 206.328 120.314 206.352 120.48 206.42C120.646 206.489 120.798 206.6 120.923 206.746C121.048 206.892 121.144 207.069 121.205 207.264C121.265 207.46 121.288 207.669 121.271 207.876C120.844 213.726 121.182 219.717 121.74 225.55C121.989 228.144 122.32 230.873 123.198 232.917C123.274 233.093 123.311 233.288 123.305 233.485C123.3 233.682 123.251 233.874 123.164 234.043C123.078 234.211 122.956 234.351 122.811 234.448C122.666 234.545 122.502 234.596 122.335 234.596L105.866 234.711C105.768 234.712 105.671 234.686 105.582 234.636C105.493 234.587 105.415 234.514 105.353 234.424C105.291 234.333 105.247 234.227 105.225 234.114C105.202 234.001 105.202 233.884 105.223 233.77C106.528 227.08 106.242 219.775 105.71 212.856C105.442 209.423 105.294 207.581 107.458 207.339C109.69 207.107 111.921 206.997 114.134 206.772C114.606 206.728 117.983 206.605 119.962 206.35Z" fill="white" stroke="#33313F" stroke-width="3" stroke-miterlimit="10" stroke-linecap="round"/>
<path d="M142.872 206.241C142.782 206.224 142.69 206.233 142.603 206.265C142.516 206.298 142.437 206.354 142.372 206.429C142.306 206.504 142.256 206.596 142.225 206.697C142.195 206.799 142.185 206.907 142.195 207.014C142.727 213.137 142.381 219.432 141.797 225.55C141.53 228.359 141.161 231.317 140.113 233.405C140.039 233.553 140.014 233.728 140.043 233.896C140.072 234.064 140.152 234.213 140.269 234.315C140.55 234.526 140.881 234.624 141.214 234.596L157.768 234.711C157.858 234.711 157.948 234.686 158.03 234.639C158.111 234.592 158.183 234.523 158.238 234.438C158.294 234.353 158.332 234.255 158.351 234.149C158.369 234.044 158.367 233.936 158.344 233.832C157.024 227.12 157.306 219.788 157.842 212.843C158.106 209.41 158.259 207.568 156.094 207.326C153.862 207.093 151.631 206.983 149.399 206.759C148.853 206.72 144.65 206.575 142.872 206.241Z" fill="white" stroke="#33313F" stroke-width="3" stroke-miterlimit="10"/>
<path d="M110.103 210.236L118.523 223.511" stroke="#33313F" stroke-width="2" stroke-miterlimit="10" stroke-linecap="round"/>
<path d="M118.523 209.243L110.382 224.174" stroke="#33313F" stroke-width="2" stroke-miterlimit="10" stroke-linecap="round"/>
<path d="M147.677 210.86L152.263 218.091" stroke="#33313F" stroke-width="2" stroke-miterlimit="10" stroke-linecap="round"/>
<path d="M152.263 210.315L147.83 218.452" stroke="#33313F" stroke-width="2" stroke-miterlimit="10" stroke-linecap="round"/>
<path d="M112.885 227.753C114.815 227.646 116.748 227.674 118.675 227.836C118.8 227.852 118.916 227.917 119.005 228.021C119.094 228.124 119.151 228.261 119.166 228.408L119.345 230.205C119.354 230.246 119.355 230.288 119.347 230.33C119.34 230.371 119.325 230.409 119.304 230.443C119.261 230.473 119.212 230.488 119.163 230.487C118.352 230.513 117.537 230.399 116.73 230.487C116.228 230.531 115.733 230.645 115.243 230.711C114.419 230.797 113.591 230.814 112.766 230.764C111.603 230.788 110.444 230.619 109.322 230.262C109.299 230.262 109.389 228.777 109.389 228.632C109.389 227.937 109.366 227.88 109.972 227.858L112.885 227.753Z" stroke="#33313F" stroke-width="2" stroke-miterlimit="10" stroke-linecap="round"/>
<path d="M148.261 221.115C150.191 221.008 152.125 221.038 154.052 221.203C154.177 221.217 154.294 221.282 154.383 221.386C154.473 221.49 154.529 221.627 154.543 221.775L154.722 223.568C154.73 223.609 154.731 223.651 154.724 223.692C154.717 223.733 154.702 223.772 154.681 223.805C154.64 223.84 154.589 223.855 154.539 223.849C153.729 223.876 152.914 223.761 152.107 223.849C151.605 223.893 151.11 224.012 150.619 224.073C149.796 224.161 148.968 224.179 148.142 224.126C146.979 224.15 145.819 223.981 144.695 223.625C144.676 223.625 144.762 222.139 144.762 221.994C144.762 221.3 144.743 221.243 145.349 221.221L148.261 221.115Z" stroke="#33313F" stroke-width="2" stroke-miterlimit="10" stroke-linecap="round"/>
<path d="M151.211 226.095C149.282 225.989 147.35 226.017 145.424 226.179C145.299 226.193 145.182 226.258 145.092 226.362C145.003 226.466 144.947 226.603 144.933 226.75L144.762 228.544C144.751 228.584 144.749 228.627 144.756 228.669C144.763 228.71 144.779 228.749 144.803 228.781C144.843 228.816 144.894 228.831 144.944 228.825C145.755 228.851 146.565 228.742 147.376 228.825C147.878 228.869 148.373 228.988 148.864 229.054C149.688 229.137 150.515 229.155 151.341 229.106C152.504 229.131 153.665 228.962 154.789 228.605C154.807 228.605 154.722 227.115 154.722 226.975C154.722 226.276 154.744 226.218 154.138 226.201L151.211 226.095Z" stroke="#33313F" stroke-width="2" stroke-miterlimit="10" stroke-linecap="round"/>
<path d="M127.144 222.843C127.144 222.843 132.615 222.513 133.597 222.843" stroke="#33313F" stroke-width="3" stroke-miterlimit="10"/>
<path d="M133.604 219.361C133.604 219.361 135.988 222.179 135.988 222.843C135.988 223.506 132.901 225.827 132.901 225.827" stroke="#33313F" stroke-width="3" stroke-miterlimit="10"/>
<path d="M162.926 216.829C162.926 216.829 167.884 214.086 168.899 213.955" stroke="#33313F" stroke-width="3" stroke-miterlimit="10"/>
<path d="M167.791 210.733C167.791 210.733 170.896 212.28 171.108 212.891C171.32 213.502 169.204 217.032 169.204 217.032" stroke="#33313F" stroke-width="3" stroke-miterlimit="10"/>
<path d="M162.874 223.854C162.874 223.854 167.914 226.381 168.676 227.19" stroke="#33313F" stroke-width="3" stroke-miterlimit="10"/>
<path d="M169.963 224.056C169.963 224.056 171.079 227.823 170.818 228.42C170.558 229.018 166.939 229.511 166.939 229.511" stroke="#33313F" stroke-width="3" stroke-miterlimit="10"/>
<path d="M182.433 210.039C182.602 210.522 182.657 211.051 182.593 211.568C182.595 211.609 182.587 211.651 182.571 211.687C182.55 211.71 182.525 211.728 182.499 211.739C182.472 211.75 182.443 211.755 182.415 211.753L178.878 211.915C178.878 211.915 179.079 210.685 179.105 210.597C179.224 210.096 179.536 210.228 179.934 210.201L182.433 210.039Z" fill="white" stroke="#33313F" stroke-width="2" stroke-miterlimit="10" stroke-linecap="round"/>
<path d="M115.618 247.919L116.868 246.543L115.752 246.491L115.168 247.55L115.618 247.919Z" fill="#33313F"/>
<path d="M106.629 257.555L107.953 255.546L108.247 255.185L112.301 250.166L113.68 248.46L114.328 248.368L115.257 247.278L115.804 247.845L114.9 249.093L114.915 249.748L113.506 251.555L109.526 256.662L109.27 256.988L107.67 258.737L106.629 257.555Z" fill="#65617D"/>
<path d="M108.247 255.185L112.301 250.166L113.506 251.555L109.526 256.662L108.247 255.185Z" fill="#33313F"/>
<path d="M114.365 257.119C113.186 255.823 112.162 254.345 111.319 252.724C109.534 249.436 106.551 247.66 104.505 246.777V245.708L104.632 245.678L104.576 244.684H104.632L104.487 242.047V242.025L103.75 228.939C103.75 228.939 101.128 220.214 105.788 212.166C110.448 204.117 106.078 196.399 101.697 193.379C101.697 193.379 99.6591 180.632 101.407 177.612C99.036 175.999 96.5926 174.539 94.0878 173.238C94.0469 173.08 94.0134 172.922 93.9799 172.755C93.9316 171.568 93.8684 170.381 93.8126 169.195C93.8709 168.578 93.9666 167.967 94.099 167.366C94.1547 167.115 94.218 166.865 94.2849 166.606C96.3677 165.665 98.1619 164.003 99.4326 161.838C100.703 159.673 101.392 157.104 101.407 154.469C101.408 152.932 101.174 151.407 100.715 149.968C100.951 149.511 101.13 149.017 101.247 148.5C101.526 147.142 101.21 145.691 100.555 144.316C99.3876 141.335 96.4755 138.544 94.363 137.511C91.3356 136.061 86.7796 136.403 83.6257 136.852C81.8554 137.102 79.8359 137.801 79.1962 139.718C78.9619 140.421 78.9582 141.199 78.7945 141.916C78.1325 144.843 75.2725 146.206 73.5059 148.447C71.9438 150.425 71.2744 153.102 70.7537 155.709C69.3034 163.179 68.9574 170.89 69.7309 178.5C69.9094 180.258 70.1474 181.994 70.4003 183.735C69.3367 185.493 68.3771 188.601 68.816 193.999L65.3199 213.454L63.8657 224.86C63.8657 224.86 62.9917 229.555 66.4692 233.581C68.7007 236.148 71.3971 240.486 73.0596 243.295C72.3357 245.782 71.9772 248.397 71.9996 251.027C72.0368 252.223 72.0926 253.379 72.1632 254.478C72.3105 256.812 72.6849 259.119 73.279 261.352C73.6881 266.038 74.4952 272.029 76.0758 275.858L76.656 296.319C76.656 296.319 75.782 315.106 74.0526 318.794C72.3232 322.482 77.835 353.681 77.835 353.681V358.042L76.9052 361.268L76.6709 361.062C72.3046 367.435 76.6709 369.782 76.6709 369.782C76.6709 369.782 77.861 369.848 79.7615 369.936C79.6002 370.83 79.6954 371.762 80.0321 372.585C80.3689 373.409 80.928 374.076 81.6211 374.481C81.6211 374.481 106.365 375.822 110.735 374.481C115.105 373.141 113.937 368.442 111.605 368.767C110.716 368.899 109.403 368.622 108.12 368.231C109.478 366.363 108.392 363.835 106.659 364.073C104.33 364.407 99.0901 361.971 99.0901 361.971L99.0641 362.011C98.8968 361.936 98.7253 361.874 98.5508 361.826C96.6042 361.309 94.6813 360.674 92.7898 359.923C91.6741 357.097 89.0706 349.501 90.9302 343.611C91.7708 340.947 92.046 337.405 92.046 333.967C92.0904 323.598 93.3814 313.288 95.8804 303.348L99.3727 289.282C99.3727 289.282 104.323 272.17 104.613 267.475L104.594 260.645C108.686 263.721 111.94 262.798 114.015 261.361C114.318 261.15 114.574 260.857 114.763 260.507C114.952 260.157 115.068 259.759 115.102 259.345C115.136 258.932 115.087 258.515 114.959 258.128C114.831 257.741 114.627 257.395 114.365 257.119ZM75.5105 221.515C75.6109 221.023 75.6927 220.487 75.7634 219.92C76.4477 219.92 77.1358 219.92 77.8201 219.893C78.6713 221.937 79.0291 224.218 78.854 226.486C77.2771 225.911 74.9192 224.5 75.5105 221.537V221.515Z" fill="url(#paint0_linear)"/>
<path d="M78.2776 356.411L77.1618 360.367L80.8029 364.671L92.8493 367.98L101.534 366.987L100.972 363.343C100.805 362.561 100.459 361.849 99.9725 361.283C99.4857 360.718 98.8768 360.322 98.2124 360.139C94.642 359.145 87.8359 356.886 86.404 353.743L78.2776 356.411Z" fill="#DB8B8B"/>
<path opacity="0.1" d="M78.2776 356.411L77.1618 360.367L80.8029 364.671L92.8493 367.98L101.534 366.987L100.972 363.343C100.805 362.561 100.459 361.849 99.9725 361.283C99.4857 360.718 98.8768 360.322 98.2124 360.139C94.642 359.145 87.8359 356.886 86.404 353.743L78.2776 356.411Z" fill="black"/>
<path d="M98.7294 365.994L97.0483 363.356L98.7294 360.28C98.7294 360.28 103.769 362.684 106.012 362.354C108.254 362.025 109.359 366.657 105.171 367.981C100.983 369.304 77.1581 367.981 77.1581 367.981C77.1581 367.981 72.9555 365.664 77.1581 359.374L80.7992 362.684C80.7992 362.684 86.9619 366.64 90.0451 365.994H98.7294Z" fill="#2E3037"/>
<path d="M106.29 371.624L97.6061 372.618L85.5597 369.303L81.9075 365L82.205 363.95L82.6216 362.473L83.0307 361.027L91.1533 358.389C91.5658 359.182 92.1302 359.849 92.801 360.336C95.4379 362.468 100.18 364.011 102.962 364.78C103.077 364.815 103.196 364.855 103.308 364.903C103.896 365.135 104.426 365.538 104.848 366.076C105.27 366.614 105.57 367.269 105.721 367.98L106.29 371.624Z" fill="#DB8B8B"/>
<path opacity="0.1" d="M106.29 371.624L97.6061 372.618L85.5597 369.303L81.9075 365L82.205 363.95L85.5523 366.987C85.5523 366.987 91.7187 370.943 94.7982 370.297H103.479L101.798 367.66L103.308 364.904C103.896 365.135 104.426 365.538 104.848 366.076C105.27 366.614 105.57 367.269 105.721 367.98L106.29 371.624Z" fill="black"/>
<path d="M103.479 370.631L101.798 367.994L103.479 364.917C103.479 364.917 108.522 367.321 110.761 366.991C113 366.662 114.108 371.295 109.924 372.622C105.74 373.95 81.9075 372.622 81.9075 372.622C81.9075 372.622 77.7049 370.301 81.9075 364.011L85.5486 367.321C85.5486 367.321 91.715 371.277 94.7945 370.635L103.479 370.631Z" fill="#2E3037"/>
<path d="M96.4867 178.601C96.4867 178.601 83.0418 180.254 85.0018 173.634C85.5512 171.757 85.6931 169.747 85.4146 167.788C85.0665 165.36 84.255 163.057 83.0418 161.054L95.6461 163.371C94.8908 164.863 94.3162 166.472 93.939 168.153C92.4365 175.182 96.4867 178.601 96.4867 178.601Z" fill="#DB8B8B"/>
<path d="M73.517 254.086C73.517 254.086 73.796 268.324 76.5965 275.277L77.1581 295.471C77.1581 295.471 76.3176 314.016 74.6365 317.655C72.9554 321.295 78.2776 352.09 78.2776 352.09V357.387C78.2776 357.387 87.2408 361.343 89.7624 356.723L87.2408 317.326L88.3566 262.697L73.517 254.086Z" fill="#35323E"/>
<path opacity="0.1" d="M73.5133 254.086C73.5133 254.086 73.7922 268.324 76.5928 275.277L77.1544 295.471C77.1544 295.471 76.3139 314.016 74.6328 317.655C72.9517 321.295 78.2739 352.09 78.2739 352.09V357.387C78.2739 357.387 87.2371 361.343 89.7587 356.723L87.2371 317.326L88.3528 262.697L73.5133 254.086Z" fill="black"/>
<path d="M67.9122 208.399L66.2312 213.696L64.8328 224.953C64.6434 226.521 64.7735 228.12 65.212 229.617C65.6506 231.114 66.385 232.465 67.3544 233.559C70.7016 237.515 75.1981 245.81 75.1981 245.81L80.5202 226.939C80.5202 226.939 75.1981 225.946 76.0572 221.643C76.9164 217.34 76.6151 209.392 76.6151 209.392L67.9122 208.399Z" fill="#6C63FF"/>
<path opacity="0.1" d="M92.8122 360.328C89.2157 367.013 83.6258 363.224 82.6328 362.473L83.0419 361.027L91.1646 358.389C91.5779 359.179 92.1422 359.843 92.8122 360.328Z" fill="black"/>
<path d="M104.052 267.001C103.769 271.634 99.0083 288.539 99.0083 288.539L95.6611 302.434C93.247 312.251 91.9978 322.417 91.9493 332.64C91.9493 336.029 91.6852 339.528 90.8782 342.157C88.6467 349.44 93.1097 359.374 93.1097 359.374C89.1897 367.651 82.4654 362.011 82.4654 362.011V356.737C82.4654 356.737 77.1581 327.919 78.5603 322.293C79.9624 316.667 80.524 301.431 80.524 301.431V273.955C76.0332 268.668 73.3041 261.646 72.8364 254.175C72.7695 253.089 72.7137 251.95 72.6802 250.768C72.4534 243.296 76.7713 234.54 78.4598 231.428C78.869 230.671 79.1219 230.25 79.1219 230.25L103.851 241.845L103.906 241.871V243.001V245.507L104.052 267.001Z" fill="#35323E"/>
<path opacity="0.1" d="M95.6461 163.371C94.8908 164.863 94.3161 166.472 93.939 168.153C92.5699 168.77 91.1098 169.055 89.6455 168.993C88.1812 168.93 86.7425 168.521 85.4146 167.788C85.0665 165.36 84.255 163.057 83.0418 161.054L95.6461 163.371Z" fill="black"/>
<path d="M90.045 168.338C96.0798 168.338 100.972 162.556 100.972 155.423C100.972 148.291 96.0798 142.509 90.045 142.509C84.0103 142.509 79.1181 148.291 79.1181 155.423C79.1181 162.556 84.0103 168.338 90.045 168.338Z" fill="#DB8B8B"/>
<path opacity="0.1" d="M104.051 245.48L103.929 245.507C92.1836 248.359 77.4445 233.893 77.4445 233.893C77.8408 233.106 78.1816 232.281 78.4635 231.428C78.8726 230.671 79.1255 230.25 79.1255 230.25L103.851 241.845L103.914 243.001L104.051 245.48Z" fill="black"/>
<path d="M100.968 178.271C100.968 178.271 85.2808 167.014 80.2376 171.647L73.2344 182.241C73.2344 182.241 68.7528 183.898 69.5933 194.491L66.246 213.695L76.3287 216.676C76.3287 216.676 82.2125 223.295 77.4445 232.9C77.4445 232.9 92.2914 247.467 104.059 244.486L103.211 228.939C103.211 228.939 100.689 220.328 105.171 212.386C109.653 204.443 105.45 196.825 101.251 193.845C101.247 193.832 99.2872 181.247 100.968 178.271Z" fill="#6C63FF"/>
<path d="M101.809 245.81C101.809 245.81 107.693 247.128 110.493 252.434C111.302 254.027 112.289 255.483 113.428 256.763C113.681 257.04 113.876 257.382 113.998 257.763C114.121 258.144 114.167 258.553 114.133 258.958C114.099 259.364 113.986 259.754 113.803 260.1C113.62 260.445 113.372 260.735 113.078 260.948C110.846 262.53 107.231 263.502 102.664 259.053C94.8056 251.44 101.809 245.81 101.809 245.81Z" fill="#DB8B8B"/>
<path opacity="0.1" d="M93.1245 184.544C93.1245 184.544 87.5234 183.88 86.1213 201.098C84.7192 218.315 82.4802 222.284 82.4802 222.284C82.4802 222.284 81.0781 231.225 84.4402 236.522C87.8024 241.818 94.244 253.115 94.244 253.115C94.244 253.115 101.251 255.436 102.649 247.155L93.965 227.955C93.965 227.955 92.5666 221.331 95.9251 216.698C99.2835 212.065 101.809 181.247 93.1245 184.544Z" fill="black"/>
<path d="M93.6862 183.568C93.6862 183.568 88.0814 182.904 86.6829 200.122C85.2845 217.339 83.0419 221.308 83.0419 221.308C83.0419 221.308 81.6397 230.258 85.0019 235.532C88.364 240.807 94.8056 252.086 94.8056 252.086C94.8056 252.086 101.809 254.407 103.211 246.13L94.5267 226.926C94.5267 226.926 93.1246 220.302 96.4867 215.669C99.8489 211.036 102.363 180.254 93.6862 183.568Z" fill="#6C63FF"/>
<path opacity="0.1" d="M98.309 195.973C98.309 195.973 98.8669 206.236 96.3453 211.867C93.8237 217.498 93.8237 224.777 96.3453 228.751" fill="black"/>
<path opacity="0.1" d="M99.7074 183.401C99.7074 183.401 97.4759 180.764 91.0232 180.421C84.5704 180.078 81.781 177.784 81.781 177.784" fill="black"/>
<path opacity="0.1" d="M84.139 138.738C82.4356 138.984 80.4905 139.674 79.8768 141.569C79.65 142.263 79.6462 143.028 79.4863 143.766C78.8503 146.659 76.0982 148.004 74.3985 150.215C72.9108 152.166 72.2376 154.808 71.7504 157.379C70.3517 164.753 70.0134 172.352 70.75 179.858C71.2967 185.349 72.4124 190.751 72.7286 196.267C73.0447 201.784 72.4682 207.586 69.9169 212.219C68.8011 214.214 67.373 215.964 66.5956 218.157C68.2023 219.696 70.419 219.915 72.4868 219.999C74.8969 220.096 77.3069 220.096 79.7169 219.999C80.9814 219.946 82.3017 219.849 83.3915 219.093C84.1986 218.484 84.8625 217.643 85.3217 216.649C86.6978 213.885 87.0474 210.562 86.9879 207.353C86.9284 204.144 86.5007 200.957 86.4486 197.749C86.4226 195.99 86.5379 194.144 87.3896 192.711C88.0033 191.678 88.9368 190.984 89.7364 190.144C92.7378 187.006 93.7643 181.968 93.8647 177.234C93.9651 172.5 93.3068 167.757 93.6453 163.041C93.7754 161.19 94.3593 158.975 95.8991 158.615C96.3826 158.5 96.8995 158.615 97.3607 158.395C98.5955 157.837 98.4765 155.78 98.8261 154.276C99.224 152.584 100.444 151.278 100.786 149.573C101.593 145.569 97.2789 140.782 94.4635 139.393C91.5439 137.951 87.159 138.298 84.139 138.738Z" fill="black"/>
<path d="M83.8452 138.078C82.1418 138.324 80.1966 139.014 79.583 140.905C79.4247 141.628 79.3006 142.362 79.2111 143.102C78.5751 145.995 75.8192 147.34 74.1195 149.555C72.6318 151.502 71.9587 154.144 71.4715 156.72C70.079 164.099 69.7471 171.703 70.4896 179.212C71.0363 184.702 72.1521 190.109 72.4645 195.621C72.7769 201.133 72.2078 206.939 69.6565 211.572C68.5407 213.568 67.1126 215.317 66.3353 217.511C67.942 219.054 70.1586 219.269 72.2264 219.352C74.6365 219.449 77.0465 219.449 79.4565 219.352C80.721 219.3 82.0414 219.207 83.1311 218.447C83.9387 217.839 84.6018 216.998 85.0576 216.003C86.4374 213.238 86.7833 209.915 86.7275 206.706C86.6717 203.498 86.2366 200.311 86.1882 197.102C86.1622 195.344 86.2775 193.498 87.1255 192.069C87.7429 191.032 88.6764 190.337 89.476 189.502C92.4737 186.359 93.5039 181.322 93.6043 176.588C93.7047 171.854 93.0427 167.111 93.3811 162.395C93.515 160.548 94.0989 158.329 95.635 157.973C96.1222 157.858 96.6391 157.973 97.1003 157.748C98.3351 157.19 98.2161 155.137 98.5657 153.63C98.9599 151.937 100.18 150.636 100.526 148.931C101.333 144.922 97.0185 140.14 94.2031 138.746C91.2612 137.296 86.88 137.634 83.8452 138.078Z" fill="#35323E"/>
</g>
<defs>
<linearGradient id="paint0_linear" x1="89.4425" y1="375.097" x2="89.4425" y2="136.483" gradientUnits="userSpaceOnUse">
<stop stop-color="#808080" stop-opacity="0.25"/>
<stop offset="0.54" stop-color="#808080" stop-opacity="0.12"/>
<stop offset="1" stop-color="#808080" stop-opacity="0.1"/>
</linearGradient>
<clipPath id="clip0">
<rect width="413" height="377" fill="white"/>
</clipPath>
</defs>
</svg>
