<svg width="425" height="305" viewBox="0 0 425 305" fill="none" xmlns="http://www.w3.org/2000/svg">
<g clip-path="url(#clip0)">
<path d="M424.413 305H247.806C247.65 305 247.501 304.938 247.391 304.827C247.281 304.717 247.219 304.568 247.219 304.412C247.219 304.256 247.281 304.107 247.391 303.996C247.501 303.886 247.65 303.824 247.806 303.824H424.413C424.569 303.824 424.718 303.886 424.828 303.996C424.938 304.107 425 304.256 425 304.412C425 304.568 424.938 304.717 424.828 304.827C424.718 304.938 424.569 305 424.413 305Z" fill="#3F3D56"/>
<path d="M314.149 298.27H306.956L303.534 270.48L314.151 270.481L314.149 298.27Z" fill="#FFB8B8"/>
<path d="M301.818 296.211H315.691V304.959H293.083C293.083 303.811 293.309 302.673 293.748 301.612C294.187 300.55 294.83 299.586 295.642 298.773C296.453 297.961 297.416 297.317 298.475 296.877C299.535 296.437 300.671 296.211 301.818 296.211Z" fill="#2F2E41"/>
<path d="M366.343 290.109L359.8 293.102L345.159 269.25L354.815 264.832L366.343 290.109Z" fill="#FFB8B8"/>
<path d="M354.272 293.368L366.891 287.595L370.52 295.553L349.956 304.961C349.479 303.916 349.213 302.787 349.172 301.639C349.131 300.491 349.316 299.346 349.717 298.269C350.118 297.193 350.726 296.206 351.508 295.365C352.289 294.524 353.229 293.846 354.272 293.368Z" fill="#2F2E41"/>
<path d="M345.394 204.571C346.084 204.051 346.651 203.387 347.056 202.624C347.461 201.861 347.694 201.019 347.739 200.156C347.784 199.293 347.639 198.431 347.315 197.63C346.991 196.83 346.496 196.11 345.865 195.521L354.32 176.305L343.578 178.128L337.195 196.097C336.279 197.225 335.807 198.651 335.87 200.104C335.933 201.558 336.526 202.937 337.537 203.982C338.548 205.026 339.906 205.663 341.354 205.771C342.802 205.88 344.24 205.453 345.394 204.571Z" fill="#FFB8B8"/>
<path d="M313.691 290.943H306.819C306.152 290.94 305.511 290.687 305.023 290.232C304.535 289.778 304.236 289.155 304.185 288.49L296.918 188.258C296.89 187.874 296.946 187.488 297.082 187.128C297.219 186.768 297.432 186.442 297.707 186.173C297.982 185.904 298.313 185.699 298.676 185.571C299.039 185.444 299.425 185.397 299.807 185.434L343.07 189.662C343.714 189.725 344.313 190.023 344.752 190.499C345.192 190.975 345.441 191.596 345.454 192.244L346.287 236.457C346.291 236.697 346.337 236.934 346.424 237.158L362.726 279.502C362.852 279.829 362.912 280.178 362.902 280.528C362.892 280.879 362.813 281.224 362.668 281.543C362.524 281.862 362.318 282.15 362.062 282.389C361.805 282.627 361.504 282.813 361.176 282.934L354.212 285.504C353.607 285.727 352.942 285.721 352.341 285.487C351.741 285.252 351.246 284.806 350.951 284.232L330.924 245.229C330.815 245.017 330.736 244.791 330.687 244.558L327.266 228.048C327.167 227.569 326.901 227.141 326.515 226.841C326.13 226.542 325.65 226.389 325.163 226.411C324.675 226.433 324.211 226.629 323.854 226.962C323.497 227.296 323.271 227.746 323.215 228.231L316.314 288.599C316.24 289.244 315.932 289.84 315.449 290.272C314.965 290.704 314.339 290.943 313.691 290.943Z" fill="#2F2E41"/>
<path d="M317.113 109.886C325.071 109.886 331.523 103.424 331.523 95.4523C331.523 87.4808 325.071 81.0186 317.113 81.0186C309.154 81.0186 302.702 87.4808 302.702 95.4523C302.702 103.424 309.154 109.886 317.113 109.886Z" fill="#FFB8B8"/>
<path d="M299.66 188.836C301.505 190.111 322.289 203.829 345.979 192.918C345.672 190.268 342.715 163.664 345.297 144.052C346.522 134.747 342.823 126.126 335.148 120.401C330.979 117.306 326.062 115.38 320.904 114.822C315.745 114.264 310.531 115.094 305.799 117.226H305.799C305.41 117.401 305.018 117.582 304.624 117.771L299.66 188.836Z" fill="#6C63FF"/>
<path d="M346.203 192.7C345.838 192.7 345.476 192.623 345.141 192.476C344.807 192.328 344.507 192.112 344.26 191.842L341.108 188.397C340.801 188.06 340.586 187.65 340.484 187.206C340.381 186.762 340.394 186.299 340.522 185.861L347.742 161.386L336.757 138.281C336.275 137.265 336.157 136.115 336.423 135.022C336.657 134.063 337.176 133.198 337.911 132.54C338.646 131.882 339.563 131.463 340.541 131.338C341.518 131.213 342.511 131.388 343.388 131.839C344.264 132.291 344.984 132.998 345.451 133.867L360.301 158.001C360.879 158.938 361.218 160.004 361.288 161.103C361.359 162.203 361.159 163.303 360.706 164.307L348.613 191.143C348.434 191.542 348.158 191.89 347.811 192.156C347.464 192.422 347.056 192.597 346.624 192.666C346.485 192.688 346.344 192.699 346.203 192.7Z" fill="#6C63FF"/>
<path opacity="0.2" d="M310.325 189.57H304.567L314.617 142.202L315.197 142.278L312.962 187.058C312.928 187.736 312.636 188.375 312.145 188.843C311.654 189.31 311.002 189.571 310.325 189.57Z" fill="black"/>
<path d="M304.998 201.346C305.564 200.695 305.981 199.927 306.219 199.096C306.457 198.266 306.511 197.393 306.376 196.54C306.241 195.687 305.921 194.873 305.438 194.158C304.955 193.442 304.322 192.84 303.582 192.396L307.87 171.84L297.739 175.857L295.221 194.762C294.558 196.056 294.392 197.549 294.755 198.958C295.118 200.366 295.984 201.592 297.189 202.404C298.395 203.215 299.855 203.556 301.294 203.361C302.733 203.166 304.051 202.449 304.998 201.346Z" fill="#FFB8B8"/>
<path d="M304.417 189.629C304.318 189.629 304.218 189.624 304.119 189.613L297.979 188.929C297.316 188.853 296.705 188.529 296.27 188.021C295.835 187.514 295.607 186.86 295.633 186.192L298.173 124.614C298.253 122.683 299.033 120.847 300.366 119.45C301.7 118.052 303.496 117.19 305.419 117.023C307.341 116.856 309.259 117.397 310.813 118.544C312.366 119.69 313.449 121.365 313.859 123.254L315.496 130.794L315.488 130.847L307.022 187.376C306.93 188.002 306.616 188.575 306.138 188.988C305.66 189.402 305.049 189.63 304.417 189.629Z" fill="#6C63FF"/>
<path d="M328.986 108.177C327.491 108.434 326.262 106.351 326.076 104.885C325.89 103.42 326.423 102.017 326.481 100.561C326.539 99.1051 325.854 97.3359 324.344 96.9042C322.762 96.4516 321.294 97.7232 319.674 97.5703C317.417 97.3572 316.283 94.7109 316.01 92.5701C315.736 90.4293 315.521 87.8942 313.566 86.6734C311.617 85.4563 309.205 86.3419 306.966 86.3797C303.18 86.4438 299.327 83.5525 298.442 79.9845C298.901 80.1171 299.392 80.0925 299.835 79.9145C300.279 79.7366 300.651 79.4155 300.891 79.0021C301.081 78.561 301.12 78.0695 301.002 77.6042C300.883 77.1388 300.615 76.7256 300.238 76.4291L304.528 78.5336C303.942 77.3382 304.828 75.9766 306.047 75.5239C307.266 75.0712 308.684 75.2745 310.029 75.4838C316.748 76.5292 324.529 76.014 328.986 81.1447C332.073 84.6984 334.613 91.4608 334.266 95.8364C333.919 100.212 328.986 108.177 328.986 108.177Z" fill="#2F2E41"/>
<path d="M165.459 270.915H11.1478C10.0589 270.914 9.01491 270.48 8.24493 269.709C7.47496 268.938 7.04184 267.892 7.04062 266.802L7.95883e-06 4.12946C-0.00105483 3.58822 0.104334 3.05207 0.310154 2.55163C0.515974 2.05118 0.818193 1.59623 1.19956 1.21277C1.58093 0.829316 2.03397 0.524852 2.53282 0.316763C3.03167 0.108674 3.56655 0.00103697 4.10694 0H158.419C159.507 0.00122258 160.551 0.43502 161.321 1.20622C162.091 1.97742 162.524 3.02304 162.526 4.11368L163.801 51.6991L162.628 51.7306L161.352 4.12946C161.354 3.74251 161.279 3.35913 161.132 3.00121C160.985 2.6433 160.769 2.31787 160.497 2.04352C160.224 1.76918 159.9 1.5513 159.544 1.40233C159.187 1.25336 158.805 1.17623 158.419 1.17534H4.10694C3.32915 1.17624 2.58349 1.48611 2.03351 2.03696C1.48354 2.58781 1.17416 3.33466 1.17326 4.11368L8.21388 266.786C8.21275 267.173 8.28774 267.556 8.43459 267.914C8.58144 268.272 8.79726 268.597 9.06972 268.872C9.34218 269.146 9.66594 269.364 10.0225 269.513C10.3791 269.662 10.7614 269.739 11.1478 269.74H165.459C166.237 269.739 166.983 269.429 167.533 268.878C168.083 268.327 168.392 267.581 168.393 266.802L167.023 215.69L168.196 215.659L169.566 266.786C169.567 267.327 169.462 267.863 169.256 268.364C169.05 268.864 168.748 269.319 168.367 269.702C167.985 270.086 167.532 270.39 167.033 270.598C166.535 270.807 166 270.914 165.459 270.915Z" fill="#CCCCCC"/>
<path d="M165.692 122.219L164.518 122.251L165.123 144.809L166.296 144.778L165.692 122.219Z" fill="#CCCCCC"/>
<path d="M151.612 247.766H23.7865C22.8578 247.765 21.9674 247.395 21.3107 246.738C20.654 246.08 20.2846 245.188 20.2835 244.258L14.4514 26.6727C14.4503 26.2109 14.54 25.7535 14.7154 25.3264C14.8908 24.8993 15.1485 24.5111 15.4738 24.1838C15.7991 23.8565 16.1855 23.5966 16.6111 23.419C17.0367 23.2413 17.493 23.1494 17.9541 23.1484H145.78C146.709 23.1495 147.599 23.5195 148.256 24.1772C148.912 24.835 149.282 25.7268 149.283 26.6569L150.339 51.69L149.167 51.7393L148.11 26.6816C148.112 26.3734 148.053 26.0679 147.937 25.7824C147.821 25.497 147.65 25.2373 147.434 25.0183C147.217 24.7993 146.96 24.6251 146.676 24.506C146.392 24.3868 146.088 24.3249 145.78 24.3238H17.9541C17.3365 24.3245 16.7444 24.5706 16.3077 25.008C15.871 25.4454 15.6254 26.0384 15.6247 26.657L21.4568 244.242C21.4556 244.55 21.5149 244.854 21.6313 245.139C21.7478 245.423 21.9191 245.682 22.1355 245.9C22.3518 246.118 22.609 246.292 22.8923 246.41C23.1756 246.529 23.4795 246.59 23.7865 246.591H151.612C152.23 246.59 152.822 246.344 153.259 245.907C153.695 245.47 153.941 244.876 153.942 244.258L153.187 215.69L154.36 215.659L155.115 244.242C155.116 244.704 155.026 245.162 154.851 245.589C154.676 246.016 154.418 246.404 154.093 246.731C153.767 247.058 153.381 247.318 152.955 247.496C152.53 247.674 152.073 247.765 151.612 247.766Z" fill="#CCCCCC"/>
<path d="M151.905 122.807L150.732 122.838L151.322 145.169L152.495 145.138L151.905 122.807Z" fill="#CCCCCC"/>
<path d="M185.625 122.823H36.0078C34.9247 122.821 33.8859 122.392 33.1169 121.628C32.3479 120.864 31.9109 119.827 31.9008 118.743L29.5537 55.2406C29.5549 54.15 29.988 53.1044 30.758 52.3332C31.528 51.562 32.572 51.1282 33.6609 51.127H183.279C184.362 51.1281 185.401 51.5573 186.17 52.3212C186.938 53.0851 187.375 54.122 187.386 55.2068L189.733 118.709C189.731 119.8 189.298 120.845 188.528 121.616C187.758 122.388 186.714 122.821 185.625 122.823ZM30.7273 55.2096L33.0741 118.709C33.075 119.488 33.3844 120.235 33.9344 120.786C34.4844 121.336 35.23 121.646 36.0078 121.647H185.625C186.398 121.646 187.139 121.341 187.688 120.796C188.237 120.252 188.55 119.513 188.559 118.74L186.212 55.2406C186.211 54.4616 185.902 53.7148 185.352 53.1639C184.802 52.6131 184.056 52.3032 183.279 52.3023H33.6609C32.8884 52.3032 32.1474 52.6088 31.5984 53.153C31.0493 53.6971 30.7364 54.436 30.7273 55.2096Z" fill="#CCCCCC"/>
<path d="M213.789 216.262H64.1711C63.0881 216.261 62.0492 215.832 61.2802 215.068C60.5112 214.304 60.0742 213.267 60.0641 212.182L57.717 148.68C57.7183 147.589 58.1514 146.544 58.9213 145.773C59.6913 145.001 60.7353 144.568 61.8242 144.566H211.442C212.525 144.568 213.564 144.997 214.333 145.761C215.102 146.525 215.539 147.561 215.549 148.646L217.896 212.148C217.895 213.239 217.462 214.285 216.692 215.056C215.922 215.827 214.878 216.261 213.789 216.262ZM58.8907 148.649L61.2375 212.148C61.2384 212.927 61.5477 213.674 62.0977 214.225C62.6477 214.776 63.3934 215.086 64.1711 215.087H213.789C214.561 215.086 215.302 214.78 215.851 214.236C216.4 213.692 216.713 212.953 216.722 212.179L214.376 148.68C214.375 147.901 214.065 147.154 213.515 146.603C212.965 146.053 212.22 145.743 211.442 145.742H61.8242C61.0518 145.743 60.3108 146.048 59.7617 146.592C59.2126 147.137 58.8997 147.875 58.8907 148.649Z" fill="#CCCCCC"/>
<path d="M99.6688 158.377C98.6573 158.377 97.6872 158.779 96.972 159.496C96.2568 160.212 95.855 161.184 95.855 162.197C95.855 163.21 96.2568 164.182 96.972 164.898C97.6872 165.614 98.6573 166.017 99.6688 166.017H175.944C176.956 166.017 177.926 165.614 178.641 164.898C179.356 164.182 179.758 163.21 179.758 162.197C179.758 161.184 179.356 160.212 178.641 159.496C177.926 158.779 176.956 158.377 175.944 158.377H99.6688Z" fill="#6C63FF"/>
<path d="M99.6688 176.595C98.6573 176.595 97.6872 176.997 96.972 177.714C96.2568 178.43 95.855 179.401 95.855 180.415C95.855 181.428 96.2568 182.399 96.972 183.116C97.6872 183.832 98.6573 184.234 99.6688 184.234H175.944C176.956 184.234 177.926 183.832 178.641 183.116C179.356 182.399 179.758 181.428 179.758 180.415C179.758 179.401 179.356 178.43 178.641 177.714C177.926 176.997 176.956 176.595 175.944 176.595H99.6688Z" fill="#6C63FF"/>
<path d="M99.6688 194.812C98.6573 194.812 97.6872 195.215 96.972 195.931C96.2568 196.648 95.855 197.619 95.855 198.632C95.855 199.645 96.2568 200.617 96.972 201.333C97.6872 202.05 98.6573 202.452 99.6688 202.452H175.944C176.956 202.452 177.926 202.05 178.641 201.333C179.356 200.617 179.758 199.645 179.758 198.632C179.758 197.619 179.356 196.648 178.641 195.931C177.926 195.215 176.956 194.812 175.944 194.812H99.6688Z" fill="#6C63FF"/>
<path d="M71.5052 64.9375C70.4937 64.9375 69.5237 65.3399 68.8084 66.0563C68.0932 66.7727 67.6914 67.7443 67.6914 68.7573C67.6914 69.7704 68.0932 70.742 68.8084 71.4584C69.5237 72.1747 70.4937 72.5772 71.5052 72.5772H147.781C148.792 72.5772 149.762 72.1747 150.478 71.4584C151.193 70.742 151.595 69.7704 151.595 68.7573C151.595 67.7443 151.193 66.7727 150.478 66.0563C149.762 65.3399 148.792 64.9375 147.781 64.9375H71.5052Z" fill="#6C63FF"/>
<path d="M71.5052 83.1553C70.4937 83.1553 69.5237 83.5577 68.8084 84.2741C68.0932 84.9904 67.6914 85.962 67.6914 86.9751C67.6914 87.9882 68.0932 88.9598 68.8084 89.6762C69.5237 90.3925 70.4937 90.795 71.5052 90.795H147.781C148.792 90.795 149.762 90.3925 150.478 89.6762C151.193 88.9598 151.595 87.9882 151.595 86.9751C151.595 85.962 151.193 84.9904 150.478 84.2741C149.762 83.5577 148.792 83.1553 147.781 83.1553H71.5052Z" fill="#6C63FF"/>
<path d="M71.5052 101.373C70.4937 101.373 69.5237 101.775 68.8084 102.492C68.0932 103.208 67.6914 104.18 67.6914 105.193C67.6914 106.206 68.0932 107.178 68.8084 107.894C69.5237 108.61 70.4937 109.013 71.5052 109.013H147.781C148.792 109.013 149.762 108.61 150.478 107.894C151.193 107.178 151.595 106.206 151.595 105.193C151.595 104.18 151.193 103.208 150.478 102.492C149.762 101.775 148.792 101.373 147.781 101.373H71.5052Z" fill="#6C63FF"/>
<path d="M82.36 17.6303C85.6005 17.6303 88.2274 14.9992 88.2274 11.7536C88.2274 8.50803 85.6005 5.87695 82.36 5.87695C79.1196 5.87695 76.4927 8.50803 76.4927 11.7536C76.4927 14.9992 79.1196 17.6303 82.36 17.6303Z" fill="#E6E6E6"/>
</g>
<defs>
<clipPath id="clip0">
<rect width="425" height="305" fill="white"/>
</clipPath>
</defs>
</svg>
