<svg width="426" height="279" viewBox="0 0 426 279" fill="none" xmlns="http://www.w3.org/2000/svg">
<g clip-path="url(#clip0)">
<path d="M343.057 166.415L338.038 172.888C337.358 173.765 336.37 174.385 335.251 174.636C334.132 174.887 332.954 174.754 331.93 174.259C331.176 173.895 330.535 173.351 330.073 172.68C329.611 172.009 329.342 171.235 329.295 170.435C329.247 169.636 329.422 168.838 329.802 168.122C330.182 167.407 330.754 166.798 331.46 166.356L337.86 162.355L356.162 145.046L358.195 138.849H371.977L364.747 153.594L343.057 166.415Z" fill="#FFB8B8"/>
<path d="M192.197 166.04C191.56 166.04 190.949 166.28 190.499 166.706C190.048 167.132 189.795 167.71 189.794 168.313V276.055C189.795 276.657 190.048 277.235 190.499 277.661C190.949 278.087 191.56 278.327 192.197 278.328H346.014C346.651 278.327 347.262 278.087 347.713 277.661C348.163 277.235 348.417 276.657 348.417 276.055V168.313C348.417 167.71 348.163 167.132 347.713 166.706C347.262 166.28 346.651 166.04 346.014 166.04H192.197Z" fill="#E6E6E6"/>
<path d="M196.475 272.179H341.737V172.188H196.475V272.179Z" fill="white"/>
<path d="M321.259 200.817H233.776C232.947 200.817 232.152 201.128 231.566 201.682C230.981 202.237 230.651 202.988 230.651 203.772C230.651 204.556 230.981 205.307 231.566 205.861C232.152 206.415 232.947 206.727 233.776 206.727H321.259C322.088 206.727 322.882 206.415 323.468 205.861C324.054 205.307 324.383 204.556 324.383 203.772C324.383 202.988 324.054 202.237 323.468 201.682C322.882 201.128 322.088 200.817 321.259 200.817Z" fill="#E6E6E6"/>
<path d="M233.776 219.001C232.947 219.001 232.152 219.313 231.566 219.867C230.981 220.421 230.651 221.173 230.651 221.956C230.651 222.74 230.981 223.492 231.566 224.046C232.152 224.6 232.947 224.911 233.776 224.911H321.259C322.088 224.911 322.882 224.6 323.468 224.046C324.054 223.492 324.383 222.74 324.383 221.956C324.383 221.173 324.054 220.421 323.468 219.867C322.882 219.313 322.088 219.001 321.259 219.001H233.776Z" fill="#E6E6E6"/>
<path d="M233.776 237.186C232.948 237.187 232.154 237.498 231.569 238.052C230.984 238.606 230.656 239.357 230.656 240.14C230.656 240.924 230.984 241.675 231.569 242.229C232.154 242.783 232.948 243.094 233.776 243.095H321.259C322.087 243.094 322.881 242.783 323.466 242.229C324.051 241.675 324.379 240.924 324.379 240.14C324.379 239.357 324.051 238.606 323.466 238.052C322.881 237.498 322.087 237.187 321.259 237.186H233.776Z" fill="#E6E6E6"/>
<path d="M217.193 207.636C219.316 207.636 221.038 206.008 221.038 203.999C221.038 201.991 219.316 200.362 217.193 200.362C215.069 200.362 213.347 201.991 213.347 203.999C213.347 206.008 215.069 207.636 217.193 207.636Z" fill="#6C63FF"/>
<path d="M217.193 225.821C219.316 225.821 221.038 224.192 221.038 222.184C221.038 220.175 219.316 218.547 217.193 218.547C215.069 218.547 213.347 220.175 213.347 222.184C213.347 224.192 215.069 225.821 217.193 225.821Z" fill="#E6E6E6"/>
<path d="M217.193 244.005C219.316 244.005 221.038 242.376 221.038 240.368C221.038 238.359 219.316 236.731 217.193 236.731C215.069 236.731 213.347 238.359 213.347 240.368C213.347 242.376 215.069 244.005 217.193 244.005Z" fill="#E6E6E6"/>
<path d="M286.41 203.772C286.41 204.556 286.081 205.307 285.495 205.861C284.909 206.415 284.114 206.727 283.286 206.727H233.888C233.117 206.738 232.367 206.484 231.777 206.013C231.187 205.542 230.797 204.886 230.679 204.165C230.62 203.747 230.657 203.323 230.786 202.92C230.915 202.517 231.133 202.145 231.426 201.828C231.719 201.511 232.08 201.257 232.486 201.083C232.891 200.908 233.331 200.818 233.776 200.817H283.286C283.696 200.817 284.102 200.893 284.481 201.042C284.86 201.19 285.205 201.408 285.495 201.682C285.785 201.957 286.015 202.283 286.172 202.641C286.329 203 286.41 203.384 286.41 203.772Z" fill="#6C63FF"/>
<path d="M269.106 153.311C276.008 153.311 281.603 148.019 281.603 141.491C281.603 134.963 276.008 129.671 269.106 129.671C262.204 129.671 256.608 134.963 256.608 141.491C256.608 148.019 262.204 153.311 269.106 153.311Z" fill="#E6E6E6"/>
<path d="M269.106 147.4C272.557 147.4 275.355 144.754 275.355 141.49C275.355 138.227 272.557 135.581 269.106 135.581C265.655 135.581 262.857 138.227 262.857 141.49C262.857 144.754 265.655 147.4 269.106 147.4Z" fill="white"/>
<path d="M408.58 260.437L402.253 263.215L392.64 245.939C386.705 237.34 382.831 227.036 380.111 215.776L390.052 216.417C395.971 224.407 400.357 232.417 401.77 240.468L408.58 260.437Z" fill="#FFB8B8"/>
<path d="M392.086 218.554H379.434V197.826L389.601 196.117L392.086 218.554Z" fill="#2F2E41"/>
<path d="M375.826 140.364C369.662 139.252 363.355 139.027 357.119 139.697L360.776 122.449C361.126 120.795 362.016 119.288 363.319 118.137C364.622 116.986 366.273 116.25 368.041 116.032C369.323 115.874 370.626 115.993 371.852 116.381C373.079 116.769 374.196 117.416 375.119 118.272C376.042 119.128 376.748 120.171 377.182 121.323C377.617 122.475 377.769 123.705 377.627 124.92L375.826 140.364Z" fill="#6C63FF"/>
<path d="M366.894 104.98C372.758 104.98 377.513 100.483 377.513 94.9364C377.513 89.3896 372.758 84.8931 366.894 84.8931C361.029 84.8931 356.274 89.3896 356.274 94.9364C356.274 100.483 361.029 104.98 366.894 104.98Z" fill="#FFB8B8"/>
<path d="M383.274 106.582L369.266 115.985L365.538 99.2101L376.044 95.2568C376.47 99.6546 378.982 103.398 383.274 106.582Z" fill="#FFB8B8"/>
<path d="M377.513 93.8676C376.727 92.3368 375.744 93.3991 374.871 95.2664L373.618 90.5262L372.114 90.0522L371.112 86.2602C366.514 85.2218 362.825 87.3942 358.082 89.8076L356.274 93.8677C355.553 92.4736 355.173 90.9433 355.164 89.391C355.155 87.8388 355.517 86.3047 356.223 84.9033C356.929 83.5019 357.961 82.2695 359.241 81.2979C360.521 80.3264 362.016 79.6409 363.616 79.2927C364.403 79.1254 365.206 79.0373 366.013 79.0299C367.547 79.0148 369.069 79.2933 370.487 79.8487C371.904 80.4041 373.189 81.2249 374.263 82.2618C375.336 83.2986 376.177 84.5302 376.735 85.8823C377.292 87.2344 377.555 88.6792 377.507 90.1299L377.513 93.8676Z" fill="#2F2E41"/>
<path d="M410.414 268.631L388.797 275.3C388.064 275.448 387.3 275.355 386.631 275.036C385.961 274.717 385.427 274.191 385.117 273.546C384.798 272.879 384.737 272.128 384.945 271.423C385.153 270.718 385.618 270.106 386.257 269.693C390.52 266.932 393.918 263.988 395.475 260.651C396.915 255.117 398.543 255.105 400.312 259.233C405.197 261.966 404.408 259.777 407.45 256.377L412.14 264.773C412.338 265.128 412.45 265.52 412.469 265.92C412.487 266.321 412.41 266.72 412.245 267.09C412.08 267.459 411.83 267.789 411.513 268.055C411.197 268.322 410.821 268.519 410.414 268.631Z" fill="#2F2E41"/>
<path d="M359.325 273.472L352.094 270.48L354.686 252.962L359.776 218.554L373.559 220.264C373.262 232.212 370.123 243.944 364.376 254.588L359.325 273.472Z" fill="#FFB8B8"/>
<path d="M382.823 223.897L358.873 219.409L365.199 187.997L364.069 179.45H395.475C394.33 190.516 388.865 206.854 382.823 223.897Z" fill="#2F2E41"/>
<path d="M396.605 182.441C385.012 179.666 373.609 179.273 362.488 182.441C360.408 162.167 359.835 142.835 361.656 124.996C362.089 120.676 364.296 116.689 367.803 113.891L381.015 103.376L390.826 108.016C392.092 108.615 393.162 109.53 393.919 110.662C394.676 111.793 395.091 113.1 395.12 114.439C397.262 141.409 398.904 167.074 396.605 182.441Z" fill="#6C63FF"/>
<path d="M408.128 179.022L410.103 185.56C410.308 186.24 410.359 186.954 410.251 187.654C410.143 188.354 409.879 189.025 409.477 189.621C409.074 190.217 408.543 190.726 407.917 191.114C407.291 191.501 406.585 191.759 405.846 191.869C405.035 191.99 404.204 191.931 403.421 191.695C402.638 191.46 401.924 191.055 401.335 190.513C400.747 189.97 400.3 189.306 400.031 188.571C399.761 187.837 399.677 187.054 399.783 186.283L400.672 179.877L395.927 147.396L389.601 134.575L402.253 129.233L407.45 145.259L408.128 179.022Z" fill="#FFB8B8"/>
<path d="M357.02 278.907L334.878 274.017C334.17 273.785 333.567 273.331 333.169 272.73C332.772 272.129 332.603 271.418 332.691 270.714C332.783 269.987 333.143 269.314 333.707 268.814C334.271 268.313 335.004 268.017 335.777 267.977C340.935 267.705 345.455 266.852 348.615 264.761C352.879 260.734 354.278 261.521 353.529 265.919C356.209 270.65 356.733 268.391 361.198 266.974L360.61 276.453C360.585 276.854 360.466 277.244 360.262 277.595C360.058 277.947 359.774 278.251 359.431 278.486C359.087 278.721 358.692 278.881 358.275 278.954C357.858 279.026 357.429 279.011 357.02 278.907Z" fill="#2F2E41"/>
<path d="M404.287 130.729C398.937 131.146 393.101 134.077 387.115 137.78L382.524 120.733C382.084 119.099 382.196 117.376 382.844 115.805C383.493 114.234 384.645 112.895 386.139 111.975C387.223 111.308 388.453 110.883 389.736 110.731C391.019 110.58 392.322 110.706 393.546 111.1C394.77 111.494 395.883 112.146 396.802 113.007C397.72 113.867 398.42 114.914 398.848 116.068L404.287 130.729Z" fill="#6C63FF"/>
<path d="M2.38183 36.7178C1.75035 36.7185 1.14495 36.9561 0.698431 37.3784C0.251909 37.8007 0.000734911 38.3732 0 38.9705V145.745C0.000734911 146.343 0.251909 146.915 0.698431 147.338C1.14495 147.76 1.75035 147.997 2.38183 147.998H154.818C155.449 147.997 156.055 147.76 156.501 147.338C156.948 146.915 157.199 146.343 157.199 145.745V38.9704C157.199 38.3732 156.948 37.8006 156.501 37.3783C156.055 36.956 155.449 36.7185 154.818 36.7178L2.38183 36.7178Z" fill="#E6E6E6"/>
<path d="M5.96875 142.353H151.23V42.3633H5.96875V142.353Z" fill="white"/>
<path d="M20.2453 89.5493C19.4241 89.5493 18.6365 89.8579 18.0558 90.407C17.4752 90.9562 17.1489 91.7011 17.1489 92.4778C17.1489 93.2544 17.4752 93.9993 18.0558 94.5485C18.6365 95.0977 19.4241 95.4062 20.2453 95.4062H136.954C137.775 95.4062 138.563 95.0977 139.143 94.5485C139.724 93.9993 140.05 93.2544 140.05 92.4778C140.05 91.7011 139.724 90.9562 139.143 90.407C138.563 89.8579 137.775 89.5493 136.954 89.5493H20.2453Z" fill="#E6E6E6"/>
<path d="M20.2453 107.57C19.4241 107.57 18.6365 107.879 18.0558 108.428C17.4752 108.977 17.1489 109.722 17.1489 110.499C17.1489 111.275 17.4752 112.02 18.0558 112.569C18.6365 113.119 19.4241 113.427 20.2453 113.427H136.954C137.775 113.427 138.563 113.119 139.143 112.569C139.724 112.02 140.05 111.275 140.05 110.499C140.05 109.722 139.724 108.977 139.143 108.428C138.563 107.879 137.775 107.57 136.954 107.57H20.2453Z" fill="#E6E6E6"/>
<path d="M72.4071 126.493C71.5859 126.493 70.7984 126.801 70.2177 127.35C69.637 127.9 69.3108 128.644 69.3108 129.421C69.3108 130.198 69.637 130.943 70.2177 131.492C70.7984 132.041 71.5859 132.35 72.4071 132.35H84.7925C85.6137 132.35 86.4013 132.041 86.982 131.492C87.5627 130.943 87.8889 130.198 87.8889 129.421C87.8889 128.644 87.5627 127.9 86.982 127.35C86.4013 126.801 85.6137 126.493 84.7925 126.493H72.4071Z" fill="#6C63FF"/>
<path d="M62.0033 52.3647C61.7507 52.365 61.5085 52.46 61.3299 52.6289C61.1512 52.7978 61.0508 53.0269 61.0505 53.2658V76.1391C61.0508 76.378 61.1512 76.6071 61.3299 76.776C61.5085 76.9449 61.7507 77.0399 62.0033 77.0401H95.196C95.4486 77.0399 95.6908 76.9449 95.8694 76.776C96.048 76.6071 96.1485 76.378 96.1487 76.1391V53.2658C96.1485 53.0269 96.048 52.7978 95.8694 52.6289C95.6908 52.46 95.4486 52.365 95.196 52.3647H62.0033Z" fill="#6C63FF"/>
<path d="M78.5996 67.1289C81.4936 67.1289 83.8396 64.9101 83.8396 62.1731C83.8396 59.4361 81.4936 57.2173 78.5996 57.2173C75.7056 57.2173 73.3596 59.4361 73.3596 62.1731C73.3596 64.9101 75.7056 67.1289 78.5996 67.1289Z" fill="white"/>
<path d="M87.1743 74.7878C87.1762 75.571 86.9802 76.3434 86.6027 77.0405H70.5969C70.1891 76.2849 69.9931 75.443 70.0279 74.5953C70.0626 73.7476 70.3269 72.9225 70.7954 72.1991C71.2639 71.4756 71.9209 70.8781 72.7036 70.4636C73.4862 70.0492 74.3683 69.8317 75.2653 69.832H81.9344C82.6226 69.8317 83.3042 69.9596 83.9401 70.2085C84.576 70.4574 85.1538 70.8225 85.6404 71.2827C86.1271 71.743 86.5131 72.2895 86.7763 72.8909C87.0395 73.4923 87.1747 74.1369 87.1743 74.7878Z" fill="white"/>
<path d="M78.5996 67.1289C81.4936 67.1289 83.8396 64.9101 83.8396 62.1731C83.8396 59.4361 81.4936 57.2173 78.5996 57.2173C75.7056 57.2173 73.3596 59.4361 73.3596 62.1731C73.3596 64.9101 75.7056 67.1289 78.5996 67.1289Z" fill="white"/>
<path d="M87.1743 74.7878C87.1762 75.571 86.9802 76.3434 86.6027 77.0405H70.5969C70.1891 76.2849 69.9931 75.443 70.0279 74.5953C70.0626 73.7476 70.3269 72.9225 70.7954 72.1991C71.2639 71.4756 71.9209 70.8781 72.7036 70.4636C73.4862 70.0492 74.3683 69.8317 75.2653 69.832H81.9344C82.6226 69.8317 83.3042 69.9596 83.9401 70.2085C84.576 70.4574 85.1538 70.8225 85.6404 71.2827C86.1271 71.743 86.5131 72.2895 86.7763 72.8909C87.0395 73.4923 87.1747 74.1369 87.1743 74.7878Z" fill="white"/>
<path d="M78.5998 23.4274C85.44 23.4274 90.9852 18.183 90.9852 11.7137C90.9852 5.24441 85.44 0 78.5998 0C71.7595 0 66.2144 5.24441 66.2144 11.7137C66.2144 18.183 71.7595 23.4274 78.5998 23.4274Z" fill="#E6E6E6"/>
<path d="M78.5997 17.5706C82.0198 17.5706 84.7924 14.9484 84.7924 11.7138C84.7924 8.47914 82.0198 5.85693 78.5997 5.85693C75.1796 5.85693 72.407 8.47914 72.407 11.7138C72.407 14.9484 75.1796 17.5706 78.5997 17.5706Z" fill="#6C63FF"/>
<path d="M425.795 278.672H127.829V277.601H426L425.795 278.672Z" fill="#3F3D56"/>
</g>
<defs>
<clipPath id="clip0">
<rect width="426" height="279" fill="white"/>
</clipPath>
</defs>
</svg>
