<svg width="575" height="365" viewBox="0 0 575 365" fill="none" xmlns="http://www.w3.org/2000/svg">
<g id="editais">
<g id="undraw_Analysis_re_w2vd 1" clip-path="url(#clip0)">
<path id="Vector" d="M530.225 357.267H522.161L518.323 294.521H530.225V357.267Z" fill="#A0616A"/>
<path id="Vector_2" d="M516.4 354.96H531.952V364.762H506.608C506.608 363.475 506.862 362.2 507.354 361.011C507.846 359.822 508.567 358.741 509.476 357.831C510.386 356.921 511.465 356.199 512.653 355.706C513.841 355.213 515.114 354.96 516.4 354.96Z" fill="#2F2E41"/>
<path id="Vector_3" d="M570.456 348.78L563.047 351.967L531.249 292.865L542.184 288.161L570.456 348.78Z" fill="#A0616A"/>
<path id="Vector_4" d="M556.845 352.125L571.133 345.978L575 354.984L551.715 365.001C551.207 363.818 550.937 362.547 550.92 361.26C550.903 359.973 551.14 358.695 551.616 357.499C552.092 356.304 552.799 355.214 553.697 354.291C554.594 353.369 555.664 352.633 556.845 352.125Z" fill="#2F2E41"/>
<path id="Vector_5" d="M453.012 83.0301H313.298C312.194 83.0288 311.135 82.5893 310.355 81.8079C309.574 81.0264 309.135 79.967 309.134 78.8619V4.16819C309.135 3.06311 309.574 2.00365 310.355 1.22224C311.135 0.440824 312.194 0.0012743 313.298 0H453.012C454.116 0.0012743 455.174 0.440824 455.955 1.22224C456.736 2.00365 457.175 3.06311 457.176 4.16819V78.8619C457.175 79.967 456.736 81.0264 455.955 81.8079C455.174 82.5893 454.116 83.0288 453.012 83.0301Z" fill="#E6E6E6"/>
<path id="Vector_6" d="M337.16 52.2691C345.644 52.2691 352.522 45.384 352.522 36.8909C352.522 28.3977 345.644 21.5127 337.16 21.5127C328.675 21.5127 321.797 28.3977 321.797 36.8909C321.797 45.384 328.675 52.2691 337.16 52.2691Z" fill="white"/>
<path id="Vector_7" d="M436.084 23.1206H373.36C372.737 23.1206 372.139 22.8729 371.699 22.4319C371.258 21.991 371.011 21.3929 371.011 20.7693C371.011 20.1457 371.258 19.5476 371.699 19.1067C372.139 18.6657 372.737 18.418 373.36 18.418H436.084C436.707 18.418 437.305 18.6657 437.745 19.1067C438.186 19.5476 438.433 20.1457 438.433 20.7693C438.433 21.3929 438.186 21.991 437.745 22.4319C437.305 22.8729 436.707 23.1206 436.084 23.1206Z" fill="white"/>
<path id="Vector_8" d="M403.247 33.8696H373.36C372.737 33.8696 372.139 33.6219 371.699 33.1809C371.258 32.74 371.011 32.1419 371.011 31.5183C371.011 30.8947 371.258 30.2966 371.699 29.8557C372.139 29.4147 372.737 29.167 373.36 29.167H403.247C403.87 29.167 404.468 29.4147 404.908 29.8557C405.349 30.2966 405.596 30.8947 405.596 31.5183C405.596 32.1419 405.349 32.74 404.908 33.1809C404.468 33.6219 403.87 33.8696 403.247 33.8696Z" fill="white"/>
<path id="Vector_9" d="M424.298 44.6147H373.36C372.737 44.6147 372.139 44.367 371.699 43.926C371.258 43.4851 371.011 42.887 371.011 42.2634C371.011 41.6398 371.258 41.0417 371.699 40.6008C372.139 40.1598 372.737 39.9121 373.36 39.9121H424.298C424.92 39.9121 425.518 40.1598 425.958 40.6008C426.399 41.0417 426.646 41.6398 426.646 42.2634C426.646 42.887 426.399 43.4851 425.958 43.926C425.518 44.367 424.92 44.6147 424.298 44.6147Z" fill="white"/>
<path id="Vector_10" d="M436.084 55.3589H373.36C372.737 55.3589 372.139 55.1111 371.699 54.6702C371.258 54.2292 371.011 53.6312 371.011 53.0076C371.011 52.384 371.258 51.7859 371.699 51.3449C372.139 50.904 372.737 50.6562 373.36 50.6563H436.084C436.707 50.6562 437.305 50.904 437.745 51.3449C438.186 51.7859 438.433 52.384 438.433 53.0076C438.433 53.6312 438.186 54.2292 437.745 54.6702C437.305 55.1111 436.707 55.3589 436.084 55.3589Z" fill="white"/>
<path id="Vector_11" d="M434.119 74.7963H423.734C423.167 74.7973 422.605 74.6864 422.081 74.4698C421.557 74.2533 421.08 73.9354 420.679 73.5344C420.278 73.1334 419.959 72.6571 419.742 72.1327C419.525 71.6084 419.413 71.0464 419.413 70.4787C419.413 69.9111 419.525 69.3491 419.742 68.8248C419.959 68.3004 420.278 67.8241 420.679 67.4231C421.08 67.0221 421.557 66.7042 422.081 66.4877C422.605 66.2711 423.167 66.1602 423.734 66.1611H434.119C435.263 66.1611 436.36 66.616 437.169 67.4257C437.978 68.2354 438.433 69.3336 438.433 70.4787C438.433 71.6238 437.978 72.7221 437.169 73.5318C436.36 74.3415 435.263 74.7963 434.119 74.7963Z" fill="white"/>
<path id="Vector_12" d="M245.211 89.9864H147.659C146.889 89.9855 146.15 89.6786 145.604 89.133C145.059 88.5874 144.753 87.8476 144.752 87.076V34.923C144.753 34.1514 145.059 33.4117 145.604 32.8661C146.15 32.3205 146.889 32.0136 147.659 32.0127H245.211C245.982 32.0136 246.721 32.3205 247.266 32.8661C247.811 33.4117 248.118 34.1514 248.119 34.923V87.076C248.118 87.8476 247.811 88.5874 247.266 89.133C246.721 89.6786 245.982 89.9855 245.211 89.9864Z" fill="#F2F2F2"/>
<path id="Vector_13" d="M164.32 68.509C170.245 68.509 175.047 63.7017 175.047 57.7716C175.047 51.8415 170.245 47.0342 164.32 47.0342C158.396 47.0342 153.594 51.8415 153.594 57.7716C153.594 63.7017 158.396 68.509 164.32 68.509Z" fill="white"/>
<path id="Vector_14" d="M233.391 48.1565H189.595C189.16 48.1565 188.743 47.9836 188.435 47.6757C188.128 47.3678 187.955 46.9502 187.955 46.5148C187.955 46.0794 188.128 45.6618 188.435 45.3539C188.743 45.046 189.16 44.873 189.595 44.873H233.391C233.826 44.873 234.243 45.046 234.551 45.3539C234.858 45.6618 235.031 46.0794 235.031 46.5148C235.031 46.9502 234.858 47.3678 234.551 47.6757C234.243 47.9836 233.826 48.1565 233.391 48.1565Z" fill="white"/>
<path id="Vector_15" d="M210.464 55.6624H189.596C189.161 55.6615 188.745 55.4882 188.438 55.1804C188.131 54.8726 187.959 54.4555 187.959 54.0207C187.959 53.5858 188.131 53.1687 188.438 52.8609C188.745 52.5531 189.161 52.3798 189.596 52.3789H210.464C210.899 52.3798 211.315 52.5531 211.622 52.8609C211.929 53.1687 212.101 53.5858 212.101 54.0207C212.101 54.4555 211.929 54.8726 211.622 55.1804C211.315 55.4882 210.899 55.6615 210.464 55.6624Z" fill="white"/>
<path id="Vector_16" d="M225.162 63.1643H189.596C189.161 63.1635 188.745 62.9901 188.438 62.6824C188.131 62.3746 187.959 61.9575 187.959 61.5226C187.959 61.0877 188.131 60.6706 188.438 60.3629C188.745 60.0551 189.161 59.8817 189.596 59.8809H225.162C225.596 59.8817 226.013 60.0551 226.32 60.3629C226.626 60.6706 226.799 61.0877 226.799 61.5226C226.799 61.9575 226.626 62.3746 226.32 62.6824C226.013 62.9901 225.596 63.1635 225.162 63.1643Z" fill="white"/>
<path id="Vector_17" d="M233.392 70.6653H189.596C189.161 70.6645 188.745 70.4911 188.438 70.1833C188.131 69.8755 187.959 69.4584 187.959 69.0236C187.959 68.5887 188.131 68.1716 188.438 67.8638C188.745 67.556 189.161 67.3827 189.596 67.3818H233.392C233.607 67.3814 233.821 67.4236 234.02 67.5059C234.22 67.5882 234.401 67.7091 234.553 67.8615C234.706 68.014 234.827 68.1952 234.91 68.3946C234.992 68.594 235.035 68.8077 235.035 69.0236C235.035 69.2394 234.992 69.4532 234.91 69.6526C234.827 69.852 234.706 70.0331 234.553 70.1856C234.401 70.3381 234.22 70.459 234.02 70.5413C233.821 70.6236 233.607 70.6657 233.392 70.6653Z" fill="white"/>
<path id="Vector_18" d="M232.02 84.2383H224.768C223.97 84.2383 223.204 83.9207 222.639 83.3553C222.074 82.79 221.757 82.0232 221.757 81.2237C221.757 80.4241 222.074 79.6573 222.639 79.0919C223.204 78.5266 223.97 78.209 224.768 78.209H232.02C232.819 78.209 233.585 78.5266 234.149 79.0919C234.714 79.6573 235.032 80.4241 235.032 81.2237C235.032 82.0232 234.714 82.79 234.149 83.3553C233.585 83.9207 232.819 84.2383 232.02 84.2383Z" fill="white"/>
<path id="Vector_19" d="M412.083 170.745H229.664C228.223 170.744 226.841 170.17 225.822 169.15C224.803 168.129 224.229 166.746 224.228 165.303V67.7791C224.229 66.3363 224.803 64.953 225.822 63.9327C226.841 62.9125 228.223 62.3386 229.664 62.3369H412.083C413.524 62.3386 414.906 62.9125 415.925 63.9327C416.944 64.953 417.518 66.3363 417.519 67.7791V165.303C417.518 166.746 416.944 168.129 415.925 169.15C414.906 170.17 413.524 170.744 412.083 170.745Z" fill="#6C63FF"/>
<path id="Vector_20" d="M260.82 130.582C271.898 130.582 280.878 121.592 280.878 110.503C280.878 99.4143 271.898 90.4248 260.82 90.4248C249.742 90.4248 240.762 99.4143 240.762 110.503C240.762 121.592 249.742 130.582 260.82 130.582Z" fill="white"/>
<path id="Vector_21" d="M389.981 92.5248H308.084C307.271 92.5248 306.491 92.2013 305.916 91.6256C305.341 91.0499 305.018 90.269 305.018 89.4548C305.018 88.6406 305.341 87.8597 305.916 87.284C306.491 86.7082 307.271 86.3848 308.084 86.3848H389.981C390.384 86.3848 390.782 86.4642 391.154 86.6185C391.527 86.7727 391.865 86.9989 392.149 87.284C392.434 87.569 392.66 87.9075 392.814 88.2799C392.968 88.6524 393.048 89.0516 393.048 89.4548C393.048 89.8579 392.968 90.2572 392.814 90.6296C392.66 91.0021 392.434 91.3405 392.149 91.6256C391.865 91.9107 391.527 92.1368 391.154 92.2911C390.782 92.4454 390.384 92.5248 389.981 92.5248Z" fill="white"/>
<path id="Vector_22" d="M347.108 106.56H308.084C307.271 106.56 306.491 106.236 305.916 105.661C305.341 105.085 305.018 104.304 305.018 103.49C305.018 102.676 305.341 101.895 305.916 101.319C306.491 100.743 307.271 100.42 308.084 100.42H347.108C347.921 100.42 348.701 100.743 349.276 101.319C349.851 101.895 350.174 102.676 350.174 103.49C350.174 104.304 349.851 105.085 349.276 105.661C348.701 106.236 347.921 106.56 347.108 106.56Z" fill="white"/>
<path id="Vector_23" d="M374.592 120.588H308.084C307.271 120.588 306.491 120.265 305.916 119.689C305.341 119.113 305.018 118.332 305.018 117.518C305.018 116.704 305.341 115.923 305.916 115.347C306.491 114.772 307.271 114.448 308.084 114.448H374.592C375.405 114.448 376.185 114.772 376.76 115.347C377.335 115.923 377.659 116.704 377.659 117.518C377.659 118.332 377.335 119.113 376.76 119.689C376.185 120.265 375.405 120.588 374.592 120.588Z" fill="white"/>
<path id="Vector_24" d="M389.981 134.617H308.084C307.271 134.617 306.491 134.293 305.916 133.717C305.341 133.142 305.018 132.361 305.018 131.547C305.018 130.732 305.341 129.951 305.916 129.376C306.491 128.8 307.271 128.477 308.084 128.477H389.981C390.794 128.477 391.574 128.8 392.149 129.376C392.725 129.951 393.048 130.732 393.048 131.547C393.048 132.361 392.725 133.142 392.149 133.717C391.574 134.293 390.794 134.617 389.981 134.617Z" fill="white"/>
<path id="Vector_25" d="M387.416 159.996H373.856C373.116 159.997 372.383 159.852 371.699 159.569C371.015 159.286 370.394 158.871 369.87 158.347C369.347 157.824 368.931 157.202 368.648 156.518C368.365 155.833 368.219 155.1 368.219 154.359C368.219 153.618 368.365 152.885 368.648 152.2C368.931 151.516 369.347 150.894 369.87 150.371C370.394 149.847 371.015 149.432 371.699 149.149C372.383 148.866 373.116 148.721 373.856 148.722H387.416C388.156 148.721 388.889 148.866 389.573 149.149C390.257 149.432 390.879 149.847 391.402 150.371C391.926 150.894 392.341 151.516 392.625 152.2C392.908 152.885 393.054 153.618 393.054 154.359C393.054 155.1 392.908 155.833 392.625 156.518C392.341 157.202 391.926 157.824 391.402 158.347C390.879 158.871 390.257 159.286 389.573 159.569C388.889 159.852 388.156 159.997 387.416 159.996Z" fill="white"/>
<path id="Vector_26" d="M571.64 294.618C571.64 294.618 555.657 213.036 553.136 206.159C551.748 202.401 550.834 199.667 550.834 199.667L503.86 202.356L503.477 206.159L497.145 301.571C497.145 301.571 499.383 295.508 501.392 294.394C503.4 293.28 503.189 301.558 503.189 301.558" fill="#2F2E41"/>
<path id="Vector_27" d="M504.221 202.323H545.335C544.181 198.187 545.335 194.354 546.985 191.414C548.137 189.348 549.588 187.464 551.289 185.821L551.572 185.568L565.937 182.38L566.709 182.211C566.709 182.211 566.823 156.085 557.585 152.5C552.51 150.557 547.741 147.891 543.426 144.584C543.001 144.249 542.481 144.058 541.94 144.039L521.774 143.3C521.154 143.279 520.547 143.483 520.065 143.875C516.731 146.559 506.129 151.946 500.428 154.764C499.427 155.258 498.654 156.119 498.271 157.168C497.888 158.218 497.923 159.375 498.369 160.399C500.646 165.631 504.514 174.382 504.92 174.382C505.499 174.382 504.221 202.323 504.221 202.323Z" fill="#6C63FF"/>
<path id="Vector_28" d="M532.095 159.949L551.417 209.963C551.417 209.963 538.354 212.978 525.755 197.563L521.208 187.628L510.963 149.765L532.095 159.949Z" fill="#F6F8FB"/>
<path id="Vector_29" d="M537.224 133.174C551.707 133.174 563.448 121.421 563.448 106.924C563.448 92.4257 551.707 80.6729 537.224 80.6729C522.741 80.6729 511 92.4257 511 106.924C511 121.421 522.741 133.174 537.224 133.174Z" fill="#2F2E41"/>
<path id="Vector_30" d="M520.589 194.875C521.306 195.775 522.295 196.42 523.407 196.713C524.519 197.007 525.696 196.934 526.764 196.506L540.813 202.009L545.494 191.415L529.664 189.369C529.357 188.672 528.904 188.049 528.338 187.541C527.771 187.034 527.102 186.653 526.376 186.424C525.651 186.195 524.885 186.124 524.129 186.215C523.374 186.306 522.647 186.558 521.996 186.952C521.345 187.347 520.786 187.876 520.356 188.504C519.926 189.133 519.635 189.845 519.502 190.595C519.368 191.345 519.396 192.115 519.584 192.853C519.771 193.591 520.114 194.28 520.589 194.875Z" fill="#A0616A"/>
<path id="Vector_31" d="M533.248 139.502C542.516 139.502 550.03 131.98 550.03 122.702C550.03 113.424 542.516 105.902 533.248 105.902C523.979 105.902 516.465 113.424 516.465 122.702C516.465 131.98 523.979 139.502 533.248 139.502Z" fill="#A0616A"/>
<path id="Vector_32" d="M556.849 111.575C547.924 116.439 537.878 118.869 527.72 118.621C523.828 118.52 519.541 117.811 517.077 114.795C514.297 111.392 514.992 106.075 517.674 102.593C520.356 99.1119 524.553 97.1493 528.738 95.8183C532.699 94.559 536.943 93.7479 541.004 94.6283C543.148 95.0929 545.166 96.014 546.922 97.3291C548.678 98.6442 550.13 100.322 551.18 102.25C552.23 104.177 552.854 106.308 553.008 108.498C553.161 110.687 552.843 112.885 552.072 114.94" fill="#2F2E41"/>
<path id="Vector_33" d="M555.773 103.082C563.897 103.082 570.484 96.4888 570.484 88.3559C570.484 80.2229 563.897 73.6299 555.773 73.6299C547.648 73.6299 541.062 80.2229 541.062 88.3559C541.062 96.4888 547.648 103.082 555.773 103.082Z" fill="#2F2E41"/>
<path id="Vector_34" d="M561.042 175.27L566.704 182.211L567.858 201.054C567.858 201.054 569.344 210.648 558.387 208.338C547.43 206.027 533.328 201.534 533.328 201.534C533.328 201.534 540.832 190.646 537.483 187.527L553.191 192.614C553.191 192.614 555.846 192.034 553.765 189.723C551.685 187.413 551.318 183.248 551.318 183.248L561.042 175.27Z" fill="#6C63FF"/>
<path id="Vector_35" d="M531.969 191.582C530.878 191.948 529.699 191.953 528.605 191.596C527.512 191.238 526.562 190.538 525.898 189.598L511.113 186.592L512.923 175.15L527.33 182.028C527.965 181.61 528.683 181.332 529.434 181.213C530.186 181.095 530.954 181.138 531.688 181.34C532.421 181.542 533.103 181.898 533.688 182.385C534.273 182.871 534.748 183.477 535.081 184.162C535.413 184.847 535.596 185.595 535.617 186.357C535.638 187.118 535.496 187.875 535.202 188.577C534.907 189.279 534.467 189.91 533.909 190.429C533.352 190.947 532.69 191.34 531.969 191.582Z" fill="#A0616A"/>
<path id="Vector_36" d="M512.457 165.126C512.457 165.126 509.892 168.426 506.892 169.237C503.892 170.048 505.808 171.978 505.808 171.978L521.76 176.234C517.257 177.036 517.659 190.257 517.659 190.257C517.659 190.257 503.378 186.373 492.921 182.364C482.464 178.355 488.913 171.102 488.913 171.102L500.094 155.9L508.613 153.144L512.457 165.126Z" fill="#6C63FF"/>
<path id="Vector_37" d="M23.2998 344.719L30.9963 348.03L47.4171 319.889L36.0582 315.002L23.2998 344.719Z" fill="#FFB8B8"/>
<path id="Vector_38" d="M42.7676 361.569L18.5785 351.163L22.595 341.808L37.7877 348.344C40.1737 349.37 42.0546 351.304 43.0167 353.718C43.9787 356.133 43.9432 358.831 42.9178 361.219L42.7676 361.569L42.7676 361.569Z" fill="#2F2E41"/>
<path id="Vector_39" d="M76.3887 354.2H84.7663L88.7531 321.855H76.3887V354.2Z" fill="#FFB8B8"/>
<path id="Vector_40" d="M100.922 361.987H74.5936V351.805H91.1299C93.7269 351.805 96.2175 352.837 98.0539 354.676C99.8902 356.514 100.922 359.007 100.922 361.607V361.987L100.922 361.987Z" fill="#2F2E41"/>
<g id="Group" opacity="0.1">
<path id="Vector_41" opacity="0.1" d="M25.3906 107.431L25.8639 107.533C25.7257 107.438 25.5557 107.401 25.3906 107.431Z" fill="url(#paint0_linear)"/>
</g>
<path id="Vector_42" d="M90.537 325.237L71.2677 326.002C66.5633 322.836 51.9585 248.049 51.9585 248.049C52.0581 248.627 50.1312 322.277 50.1312 322.277H29.4001L19.2148 207.428L30.4565 211.959C30.4565 211.959 81.9332 207.78 84.3319 210.753C84.8368 211.724 90.537 325.237 90.537 325.237Z" fill="#2F2E41"/>
<path id="Vector_43" d="M47.1402 126.056C56.409 126.056 63.9229 118.535 63.9229 109.257C63.9229 99.9785 56.409 92.457 47.1402 92.457C37.8713 92.457 30.3574 99.9785 30.3574 109.257C30.3574 118.535 37.8713 126.056 47.1402 126.056Z" fill="#FFB8B8"/>
<path id="Vector_44" d="M75.5786 241.876C74.8553 240.924 74.4575 239.764 74.4444 238.568C74.4312 237.372 74.8033 236.203 75.5055 235.235L73.5342 219.672L85.3835 217.642L83.4239 234.123C84.0469 234.61 84.5591 235.224 84.9262 235.925C85.2933 236.625 85.5069 237.396 85.5528 238.186C85.5987 238.976 85.4758 239.767 85.1923 240.505C84.9089 241.244 84.4713 241.913 83.9089 242.469C83.3465 243.025 82.6721 243.454 81.9308 243.728C81.1894 244.003 80.3982 244.115 79.6099 244.059C78.8215 244.003 78.0542 243.78 77.359 243.403C76.6639 243.027 76.0569 242.506 75.5787 241.876H75.5786Z" fill="#FFB8B8"/>
<path id="Vector_45" d="M49.6826 97.9893L50.0526 98.0693C49.9439 97.9966 49.8116 97.968 49.6826 97.9893Z" fill="#E1E7EF"/>
<path id="Vector_46" d="M41.7511 102.961C45.405 103.76 49.1233 104.522 52.8551 104.274C56.5869 104.025 60.393 102.642 62.8164 99.7904C65.2397 96.9387 65.9099 92.4612 63.759 89.3984C61.2014 85.7564 56.0728 85.3198 51.6265 85.2275L37.6163 84.9367C34.8481 84.8792 31.9435 84.8522 29.4918 86.1402C25.2325 88.3779 23.7621 93.813 23.8472 98.6274C23.9599 103.231 25.066 107.757 27.0895 111.892C29.1131 116.028 32.0062 119.677 35.5707 122.589C37.4668 124.117 40.5884 125.278 42.0337 123.318C42.6638 122.463 36.5109 112.626 36.4931 111.564C36.3899 105.39 42.4478 107.905 42.3446 101.731" fill="#2F2E41"/>
<path id="Vector_47" d="M25.5783 211.666C41.5487 224.168 59.177 230.47 79.132 228.068C70.7041 198.447 68.2044 169.05 76.3344 140.055L59.5489 132.454L36.7686 131.254L23.0552 135.291C21.1261 135.86 19.4372 137.048 18.2486 138.671C17.0601 140.295 16.4377 142.265 16.4774 144.278C16.9616 169.005 19.2315 192.146 25.5783 211.666Z" fill="#E6E6E6"/>
<path id="Vector_48" d="M75.9348 230.468L86.3258 231.668L83.8928 154.43C83.7841 150.979 82.6848 147.632 80.7264 144.79C78.768 141.947 76.0334 139.729 72.8493 138.401L69.1406 136.854L70.1398 173.06L75.9348 230.468Z" fill="#E6E6E6"/>
<path id="Vector_49" d="M25 225.259C23.9592 224.671 23.1353 223.763 22.6503 222.67C22.1653 221.577 22.045 220.356 22.3072 219.189L14.3438 205.677L24.423 199.118L29.1394 215.031C29.904 215.231 30.6172 215.592 31.2313 216.09C31.8454 216.588 32.3464 217.211 32.7008 217.918C33.0552 218.626 33.2549 219.4 33.2865 220.191C33.3182 220.981 33.181 221.769 32.8843 222.503C32.5875 223.236 32.138 223.897 31.5656 224.443C30.9932 224.988 30.3112 225.406 29.5651 225.666C28.8189 225.927 28.0258 226.026 27.2386 225.955C26.4514 225.885 25.6882 225.648 25 225.259Z" fill="#FFB8B8"/>
<path id="Vector_50" d="M20.782 219.267L30.5108 212.084L19.9827 180.861L23.7795 135.055C15.5319 137.649 6.67616 144.62 5.21755 153.15L0 183.662L20.782 219.267Z" fill="#E6E6E6"/>
<path id="Vector_51" opacity="0.2" d="M24.8965 173.506L20.6143 190.651L30.3313 214.98L22.9201 191.97L24.8965 173.506Z" fill="black"/>
<path id="Vector_52" opacity="0.2" d="M67.3103 182.395L70.6158 219.133L65.0186 182.651L67.3103 182.395Z" fill="black"/>
</g>
</g>
<defs>
<linearGradient id="paint0_linear" x1="25.6273" y1="107.559" x2="25.6273" y2="107.444" gradientUnits="userSpaceOnUse">
<stop stop-color="#808080" stop-opacity="0.25"/>
<stop offset="0.54" stop-color="#808080" stop-opacity="0.12"/>
<stop offset="1" stop-color="#808080" stop-opacity="0.1"/>
</linearGradient>
<clipPath id="clip0">
<rect width="575" height="365" fill="white"/>
</clipPath>
</defs>
</svg>
