<svg width="340" height="333" viewBox="0 0 340 333" fill="none" xmlns="http://www.w3.org/2000/svg">
<g clip-path="url(#clip0)">
<path d="M230.618 89.5168C234.699 91.6383 238.687 93.8092 242.584 96.0295" stroke="#2F2E41" stroke-miterlimit="10"/>
<path d="M154.685 76.3717C172.483 80.1623 191.914 86.7061 211.489 95.9414C225.667 102.586 239.233 110.429 252.036 119.381" stroke="#2F2E41" stroke-miterlimit="10"/>
<path d="M95.4437 332.173H277.936" stroke="#3F3D56" stroke-miterlimit="10"/>
<path d="M138.032 73.5662C143.38 74.2138 148.948 75.1497 154.685 76.3717" stroke="#2F2E41" stroke-miterlimit="10"/>
<path d="M85.692 128.531C75.8111 114.288 72.4167 100.831 77.4934 90.3913C83.1085 78.8448 98.1388 72.9383 118.513 72.5033" stroke="#2F2E41" stroke-miterlimit="10"/>
<path d="M293.769 160.343C302.005 173.402 304.561 185.645 299.863 195.305C295.729 203.805 286.492 209.249 273.777 211.703" stroke="#2F2E41" stroke-miterlimit="10"/>
<path d="M252.036 119.381C260.29 125.147 268.092 131.516 275.375 138.435" stroke="#2F2E41" stroke-miterlimit="10"/>
<path d="M80.2211 55.8115C96.6226 52.3408 117.847 52.9578 141.585 57.5666" stroke="#2F2E41" stroke-miterlimit="10"/>
<path d="M318.937 160.342C326.28 170.906 330.795 181.13 331.976 190.44" stroke="#2F2E41" stroke-miterlimit="10"/>
<path d="M242.584 96.0294C249.949 100.224 256.956 104.562 263.606 109.044" stroke="#2F2E41" stroke-miterlimit="10"/>
<path d="M253.138 251.637C251.255 251.742 249.438 252.362 247.892 253.426C246.346 254.491 245.131 255.959 244.385 257.666C242.196 262.877 245.014 268.998 249.245 272.799C253.476 276.599 258.91 278.771 263.848 281.626C270.48 285.461 276.44 290.785 279.758 297.618C283.077 304.452 283.43 312.917 279.529 319.445C275.909 325.504 269.325 329.131 263.046 332.476" stroke="#3F3D56" stroke-miterlimit="10"/>
<path d="M258.715 255.79C262.985 255.79 266.447 254.134 266.447 252.091C266.447 250.048 262.985 248.391 258.715 248.391C254.444 248.391 250.982 250.048 250.982 252.091C250.982 254.134 254.444 255.79 258.715 255.79Z" fill="#57B894"/>
<path d="M264.901 280.163C269.171 280.163 272.633 278.507 272.633 276.464C272.633 274.421 269.171 272.764 264.901 272.764C260.63 272.764 257.168 274.421 257.168 276.464C257.168 278.507 260.63 280.163 264.901 280.163Z" fill="#57B894"/>
<path d="M250.761 284.08C255.031 284.08 258.493 282.424 258.493 280.381C258.493 278.338 255.031 276.681 250.761 276.681C246.49 276.681 243.028 278.338 243.028 280.381C243.028 282.424 246.49 284.08 250.761 284.08Z" fill="#57B894"/>
<path d="M272.854 304.536C277.125 304.536 280.587 302.88 280.587 300.837C280.587 298.794 277.125 297.137 272.854 297.137C268.584 297.137 265.122 298.794 265.122 300.837C265.122 302.88 268.584 304.536 272.854 304.536Z" fill="#57B894"/>
<path d="M288.32 304.536C292.59 304.536 296.052 302.88 296.052 300.837C296.052 298.794 292.59 297.137 288.32 297.137C284.049 297.137 280.587 298.794 280.587 300.837C280.587 302.88 284.049 304.536 288.32 304.536Z" fill="#57B894"/>
<path d="M211.7 107.981H216.056C216.056 107.981 220.049 138.373 217.145 141.234C214.241 144.095 206.255 145.882 205.166 141.234C204.077 136.586 205.166 119.423 205.166 119.423L211.7 107.981Z" fill="#6C63FF"/>
<path d="M183.203 112.093C197.839 112.093 209.703 98.4053 209.703 81.521C209.703 64.6368 197.839 50.9493 183.203 50.9493C168.567 50.9493 156.703 64.6368 156.703 81.521C156.703 98.4053 168.567 112.093 183.203 112.093Z" fill="#2F2E41"/>
<path d="M177.213 87.242C177.213 87.242 178.665 99.0416 174.309 101.545C169.953 104.048 179.391 118.35 179.391 118.35L190.645 121.211L198.268 110.841L196.816 100.114C196.816 100.114 188.104 91.5328 192.097 83.6664L177.213 87.242Z" fill="#FFC1C7"/>
<path opacity="0.1" d="M177.213 87.242C177.213 87.242 178.665 99.0416 174.309 101.545C169.953 104.048 179.391 118.35 179.391 118.35L190.645 121.211L198.268 110.841L196.816 100.114C196.816 100.114 188.104 91.5328 192.097 83.6664L177.213 87.242Z" fill="black"/>
<path d="M160.878 215.328C160.878 215.328 156.521 254.303 160.878 263.6C165.234 272.896 176.85 298.998 176.85 298.998L173.22 306.507L183.022 304.362L187.015 296.853C187.015 296.853 182.296 278.617 181.57 272.181C180.843 265.745 175.398 253.945 175.398 253.945L185.563 211.395L160.878 215.328Z" fill="#FFC1C7"/>
<path d="M195.364 208.813C195.364 208.813 195.727 248.145 198.268 254.247L196.816 307.523L204.803 308.574C204.803 308.574 216.419 263.878 214.604 253.151C212.789 242.424 214.967 203.808 214.967 203.808L195.364 208.813Z" fill="#FFC1C7"/>
<path d="M183.203 92.069C190.822 92.069 196.998 85.9857 196.998 78.4816C196.998 70.9775 190.822 64.8942 183.203 64.8942C175.585 64.8942 169.408 70.9775 169.408 78.4816C169.408 85.9857 175.585 92.069 183.203 92.069Z" fill="#FFC1C7"/>
<path d="M230.214 213.819C230.214 213.819 220.412 220.256 216.419 215.607C212.426 210.959 163.419 218.468 157.247 217.038C151.076 215.607 160.514 192.723 160.514 180.924C160.514 172.095 163.767 158.665 165.404 152.458C165.956 150.37 166.323 149.1 166.323 149.1C166.323 149.1 170.047 138.663 169.35 134.326C169.303 133.997 169.212 133.676 169.078 133.371C169.02 133.244 168.948 133.123 168.864 133.01C167.125 130.725 162.141 114.063 160.206 106.908C159.89 105.849 159.63 104.775 159.425 103.69C159.425 102.617 172.857 99.3991 176.215 99.2453C179.577 99.0916 180.48 103.69 180.48 103.69C181.57 104.405 186.652 116.92 186.652 116.92L191.371 105.12C191.371 105.12 191.008 102.617 190.645 102.617C190.282 102.617 196.014 99.2418 196.014 99.2418C196.014 99.2418 201.899 103.332 205.166 102.617C208.433 101.902 216.056 108.338 216.056 108.338C216.056 108.338 202.625 141.592 208.07 148.743C213.515 155.894 230.214 213.819 230.214 213.819Z" fill="#6C63FF"/>
<path d="M185.926 295.423C185.926 295.423 179.754 301.501 179.754 302.216L174.672 300.071C174.672 300.071 172.494 307.937 172.131 309.01C171.768 310.083 165.597 319.737 159.425 324.028C153.254 328.319 159.425 333.682 164.871 332.609C170.316 331.537 184.111 319.379 184.111 319.379C184.111 319.379 193.549 319.379 196.816 312.228C196.816 312.228 188.104 294.708 185.926 295.423Z" fill="#2F2E41"/>
<path d="M204.077 305.736C204.077 305.736 194.751 299.062 194.15 305.259C193.549 311.457 193.549 325.044 193.549 325.044C193.549 325.044 190.645 333.983 199.72 332.911C208.796 331.838 209.522 329.335 209.522 329.335L205.166 312.172V304.663L204.077 305.736Z" fill="#2F2E41"/>
<path opacity="0.1" d="M168.864 133.01C167.125 130.725 162.141 114.063 160.206 106.908H161.967C161.967 106.908 166.388 123.953 169.078 133.371C169.02 133.244 168.948 133.123 168.864 133.01Z" fill="black"/>
<path opacity="0.1" d="M192.823 156.609C192.823 156.609 187.741 156.967 169.227 153.391C167.937 153.147 166.661 152.836 165.404 152.458C165.956 150.37 166.323 149.1 166.323 149.1C166.323 149.1 170.047 138.663 169.35 134.326C170.218 137.329 170.864 139.357 171.042 139.446C171.768 139.804 195.001 143.737 198.268 145.167C201.536 146.598 192.823 156.609 192.823 156.609Z" fill="black"/>
<path opacity="0.1" d="M199.357 109.812C199.357 109.812 209.37 108.595 209.991 110.194C210.611 111.793 213.152 127.247 214.241 129.229C215.33 131.21 215.693 143.494 211.337 143.891C206.981 144.287 201.172 139.928 202.261 136.361C203.351 132.795 199.357 109.812 199.357 109.812Z" fill="black"/>
<path d="M194.275 142.664C194.275 142.664 209.522 144.452 212.063 142.664C214.604 140.877 225.132 140.877 222.953 145.882C220.775 150.888 201.898 151.246 201.898 151.246H191.008L194.275 142.664Z" fill="#FFC1C7"/>
<path d="M161.967 104.405H159.425C159.425 104.405 154.343 105.478 155.069 121.211C155.795 136.943 150.713 147.313 169.227 150.888C187.741 154.464 192.823 154.106 192.823 154.106C192.823 154.106 201.535 144.095 198.268 142.664C195.001 141.234 171.768 137.301 171.042 136.943C170.316 136.586 161.967 104.405 161.967 104.405Z" fill="#6C63FF"/>
<path d="M209.712 111.462C209.712 111.462 203.351 87.957 198.268 87.957C193.186 87.957 187.378 89.0297 191.734 93.678C196.09 98.3264 201.535 103.332 201.898 105.835C202.262 108.338 203.714 111.914 203.714 111.914L209.712 111.462Z" fill="#FFC1C7"/>
<path d="M200.809 109.812C200.809 109.812 210.822 108.595 211.443 110.194C212.063 111.793 214.604 127.247 215.693 129.229C216.782 131.21 217.145 143.494 212.789 143.891C208.433 144.287 202.625 139.928 203.714 136.361C204.803 132.795 200.809 109.812 200.809 109.812Z" fill="#6C63FF"/>
<path d="M179.573 78.4816C186.791 78.4816 192.642 72.7185 192.642 65.6093C192.642 58.5002 186.791 52.7371 179.573 52.7371C172.355 52.7371 166.504 58.5002 166.504 65.6093C166.504 72.7185 172.355 78.4816 179.573 78.4816Z" fill="#2F2E41"/>
<path d="M232.235 211.123C211.954 207.831 189.011 200.674 165.867 189.755C139.516 177.322 117.186 162.032 101.275 146.579" stroke="#2F2E41" stroke-miterlimit="10"/>
<path d="M150.008 196.48C131.864 187.221 115.439 176.928 101.274 166.211" stroke="#2F2E41" stroke-miterlimit="10"/>
<path d="M21.7517 51.7778C33.7648 51.7778 43.5034 42.1856 43.5034 30.353C43.5034 18.5203 33.7648 8.9281 21.7517 8.9281C9.73856 8.9281 0 18.5203 0 30.353C0 42.1856 9.73856 51.7778 21.7517 51.7778Z" fill="#6C63FF"/>
<path d="M26.8539 43.0492C38.867 43.0492 48.6056 33.457 48.6056 21.6243C48.6056 9.7917 38.867 0.199463 26.8539 0.199463C14.8408 0.199463 5.10223 9.7917 5.10223 21.6243C5.10223 33.457 14.8408 43.0492 26.8539 43.0492Z" stroke="#2F2E41" stroke-miterlimit="10"/>
<path d="M324.173 120.205C331.163 120.205 336.829 114.624 336.829 107.74C336.829 100.855 331.163 95.2744 324.173 95.2744C317.184 95.2744 311.518 100.855 311.518 107.74C311.518 114.624 317.184 120.205 324.173 120.205Z" fill="#F2F2F2"/>
<path d="M327.142 115.127C334.131 115.127 339.797 109.546 339.797 102.661C339.797 95.777 334.131 90.196 327.142 90.196C320.153 90.196 314.486 95.777 314.486 102.661C314.486 109.546 320.153 115.127 327.142 115.127Z" stroke="#2F2E41" stroke-miterlimit="10"/>
<path d="M93.3101 255.598C103.357 255.598 111.502 247.575 111.502 237.679C111.502 227.783 103.357 219.76 93.3101 219.76C83.2628 219.76 75.1178 227.783 75.1178 237.679C75.1178 247.575 83.2628 255.598 93.3101 255.598Z" fill="#F2F2F2"/>
<path d="M97.5775 248.297C107.625 248.297 115.77 240.275 115.77 230.378C115.77 220.482 107.625 212.459 97.5775 212.459C87.5301 212.459 79.3851 220.482 79.3851 230.378C79.3851 240.275 87.5301 248.297 97.5775 248.297Z" stroke="#2F2E41" stroke-miterlimit="10"/>
</g>
<defs>
<clipPath id="clip0">
<rect width="340" height="333" fill="white"/>
</clipPath>
</defs>
</svg>
