<svg width="551" height="360" viewBox="0 0 551 360" fill="none" xmlns="http://www.w3.org/2000/svg">
<g clip-path="url(#clip0)" filter="url(#filter0_d)">
<path d="M475.24 0H4V233.549H475.24V0Z" fill="#3F3D56"/>
<path opacity="0.1" d="M475.24 17.9653V11.5491H460.75V0H454.45V11.5491H24.79V0H18.49V11.5491H4V17.9653H18.49V215.583H4V221.999H18.49V233.549H24.79V221.999H454.45V233.549H460.75V221.999H475.24V215.583H460.75V17.9653H475.24ZM454.45 215.583H24.79V17.9653H454.45L454.45 215.583Z" fill="black"/>
<path d="M286.59 30.7979H212.287V102.78H286.59V30.7979Z" fill="#D0CDE1"/>
<path d="M278.146 39.397H220.73V84.1129H278.146V39.397Z" fill="#6C63FF"/>
<path d="M253.493 46.7456H233.364V67.2453H253.493V46.7456Z" fill="#F2F2F2"/>
<path d="M241.07 51.8716V76.7641H265.512V51.8716H241.07ZM264.452 75.6844H242.13V52.9513H264.452V75.6844Z" fill="#3F3D56"/>
<path d="M251.904 88.5513H220.674V90.2253H251.904V88.5513Z" fill="#F2F2F2"/>
<path d="M249.438 38.3308C251.253 38.3308 252.725 36.8319 252.725 34.9828C252.725 33.1337 251.253 31.6348 249.438 31.6348C247.622 31.6348 246.15 33.1337 246.15 34.9828C246.15 36.8319 247.622 38.3308 249.438 38.3308Z" fill="#3F3D56"/>
<path d="M314.614 134.618H240.311V206.601H314.614V134.618Z" fill="#D0CDE1"/>
<path d="M306.17 143.217H248.754V187.933H306.17V143.217Z" fill="#6C63FF"/>
<path d="M279.927 193.208H248.696V194.882H279.927V193.208Z" fill="#F2F2F2"/>
<path d="M279.927 198.23H248.696V199.904H279.927V198.23Z" fill="#F2F2F2"/>
<path d="M258.97 172.283C262.602 172.283 265.545 169.285 265.545 165.587C265.545 161.889 262.602 158.891 258.97 158.891C255.339 158.891 252.396 161.889 252.396 165.587C252.396 169.285 255.339 172.283 258.97 172.283Z" fill="#3F3D56"/>
<path d="M277.462 172.283C281.093 172.283 284.036 169.285 284.036 165.587C284.036 161.889 281.093 158.891 277.462 158.891C273.83 158.891 270.887 161.889 270.887 165.587C270.887 169.285 273.83 172.283 277.462 172.283Z" fill="#F2F2F2"/>
<path d="M295.954 172.283C299.585 172.283 302.529 169.285 302.529 165.587C302.529 161.889 299.585 158.891 295.954 158.891C292.323 158.891 289.379 161.889 289.379 165.587C289.379 169.285 292.323 172.283 295.954 172.283Z" fill="#FF6584"/>
<path d="M277.461 142.151C279.277 142.151 280.749 140.652 280.749 138.803C280.749 136.954 279.277 135.455 277.461 135.455C275.646 135.455 274.174 136.954 274.174 138.803C274.174 140.652 275.646 142.151 277.461 142.151Z" fill="#3F3D56"/>
<path d="M200.897 112.127H126.594V184.11H200.897V112.127Z" fill="#D0CDE1"/>
<path d="M192.453 120.727H135.037V165.442H192.453V120.727Z" fill="#6C63FF"/>
<path d="M159.922 162.507C167.621 162.507 173.862 156.151 173.862 148.31C173.862 140.469 167.621 134.113 159.922 134.113C152.223 134.113 145.982 140.469 145.982 148.31C145.982 156.151 152.223 162.507 159.922 162.507Z" fill="#F2F2F2"/>
<path d="M164.031 159.26C160.574 159.26 157.195 158.217 154.321 156.261C151.447 154.305 149.207 151.525 147.884 148.273C146.561 145.02 146.215 141.441 146.89 137.989C147.564 134.536 149.228 131.364 151.673 128.875C154.117 126.386 157.231 124.69 160.621 124.004C164.011 123.317 167.526 123.669 170.719 125.017C173.913 126.364 176.642 128.645 178.563 131.572C180.483 134.499 181.508 137.941 181.508 141.461C181.503 146.18 179.66 150.704 176.383 154.041C173.107 157.378 168.664 159.255 164.031 159.26ZM164.031 124.309C160.7 124.309 157.444 125.315 154.674 127.2C151.905 129.084 149.746 131.763 148.471 134.897C147.197 138.031 146.863 141.48 147.513 144.807C148.163 148.134 149.767 151.191 152.122 153.589C154.477 155.988 157.478 157.622 160.745 158.284C164.012 158.945 167.398 158.606 170.476 157.308C173.553 156.009 176.184 153.811 178.034 150.99C179.885 148.17 180.873 144.853 180.873 141.461C180.867 136.914 179.092 132.554 175.934 129.338C172.777 126.123 168.496 124.314 164.031 124.309Z" fill="#3F3D56"/>
<path d="M166.211 174.903H134.98V176.577H166.211V174.903Z" fill="#F2F2F2"/>
<path d="M178.539 169.881H134.98V171.555H178.539V169.881Z" fill="#F2F2F2"/>
<path d="M163.745 119.66C165.561 119.66 167.033 118.161 167.033 116.312C167.033 114.463 165.561 112.964 163.745 112.964C161.93 112.964 160.458 114.463 160.458 116.312C160.458 118.161 161.93 119.66 163.745 119.66Z" fill="#3F3D56"/>
<path d="M119.23 29.5146H44.9268V101.497H119.23V29.5146Z" fill="#D0CDE1"/>
<path d="M110.786 38.1138H53.3701V82.8297H110.786V38.1138Z" fill="#6C63FF"/>
<path d="M88.2541 73.1196H75.9023V76.8475H88.2541V73.1196Z" fill="#3F3D56"/>
<path d="M103.187 44.0957H60.9697V45.6933H103.187V44.0957Z" fill="#3F3D56"/>
<path d="M103.187 49.1548H60.9697V50.7524H103.187V49.1548Z" fill="#3F3D56"/>
<path d="M103.187 54.2144H60.9697V55.812H103.187V54.2144Z" fill="#3F3D56"/>
<path d="M103.187 59.2734H60.9697V60.8711H103.187V59.2734Z" fill="#3F3D56"/>
<path d="M103.187 64.3325H60.9697V65.9301H103.187V64.3325Z" fill="#3F3D56"/>
<path d="M84.5438 87.2681H53.3135V88.9421H84.5438V87.2681Z" fill="#F2F2F2"/>
<path d="M96.8716 91.4526H53.3135V93.1266H96.8716V91.4526Z" fill="#F2F2F2"/>
<path d="M82.0784 37.0476C83.894 37.0476 85.3658 35.5487 85.3658 33.6996C85.3658 31.8505 83.894 30.3516 82.0784 30.3516C80.2628 30.3516 78.791 31.8505 78.791 33.6996C78.791 35.5487 80.2628 37.0476 82.0784 37.0476Z" fill="#3F3D56"/>
<path d="M346.899 76.5384L400.711 80.565L415.929 81.7038L414.984 80.7413L417.842 122.843L419.271 143.894C419.328 144.745 419.387 145.595 419.444 146.446C419.49 147.153 419.682 147.834 418.859 148.009C417.224 148.356 415.521 148.5 413.864 148.713C410.496 149.146 407.12 149.51 403.737 149.806C390.202 150.989 376.595 151.076 363.045 150.066C359.66 149.813 356.28 149.492 352.906 149.102C351.652 148.957 350.094 148.902 349.636 147.47C349.164 145.992 349.083 144.312 348.869 142.78C347.918 135.95 347.269 129.085 346.924 122.186C346.221 108.435 346.699 94.6473 348.354 80.9812C348.557 79.3076 348.778 77.6366 349.018 75.9682C349.192 74.7565 347.371 74.2334 347.196 75.4565C345.164 89.579 344.383 103.859 344.861 118.124C345.105 125.26 345.666 132.376 346.544 139.471C346.766 141.263 347.007 143.052 347.267 144.839C347.475 146.26 347.526 147.937 348.357 149.159C349.158 150.337 350.504 150.716 351.827 150.895C353.511 151.124 355.206 151.288 356.896 151.456C370.93 152.849 385.053 153.062 399.122 152.092C402.663 151.847 406.198 151.528 409.726 151.135C411.465 150.941 413.201 150.728 414.935 150.498C415.784 150.385 416.632 150.269 417.48 150.148C418.272 150.091 419.055 149.952 419.819 149.733C421.412 149.149 421.411 147.584 421.312 146.127L420.944 140.705L420.208 129.86L417.242 86.1635L416.874 80.7413C416.867 80.4883 416.765 80.2476 416.589 80.0687C416.413 79.8897 416.177 79.786 415.929 79.7789L362.117 75.7522L346.899 74.6135C345.685 74.5227 345.691 76.4479 346.899 76.5383V76.5384Z" fill="#D0CDE1"/>
<path d="M369.96 99.2626C370.231 98.5279 369.548 100.11 369.891 99.4103C369.983 99.2242 370.068 99.0361 370.164 98.8527C370.357 98.488 370.57 98.1351 370.803 97.7957C371.035 97.4575 371.388 97.327 370.702 97.9154C370.844 97.7673 370.977 97.6104 371.1 97.4456C371.42 97.0882 371.761 96.7511 372.122 96.4363C372.381 96.2098 372.871 96.0171 371.994 96.5187C372.167 96.4195 372.328 96.271 372.494 96.1575C372.834 95.9247 373.185 95.7093 373.546 95.5113C373.727 95.4122 373.909 95.3177 374.094 95.2276C374.409 95.0746 374.932 95.022 373.943 95.2799C374.367 95.1692 374.778 94.9645 375.203 94.8417C375.564 94.7374 375.929 94.6495 376.298 94.5782C376.628 94.515 377.226 94.5628 376.1 94.5891C376.302 94.5844 376.508 94.5448 376.709 94.531C377.115 94.5028 377.522 94.4966 377.929 94.5124C378.132 94.5204 378.333 94.5409 378.536 94.5532C379.21 94.5942 377.516 94.3626 378.536 94.5604C378.936 94.6378 379.331 94.7393 379.719 94.8644C379.907 94.9467 380.101 95.0158 380.298 95.0713L379.775 94.8418C379.904 94.8986 380.031 94.958 380.157 95.02C380.531 95.2047 380.895 95.4119 381.246 95.6405C381.42 95.7543 381.588 95.8778 381.759 95.9965C382.297 96.3691 381.038 95.3693 381.801 96.0504C382.06 96.2815 382.308 96.5242 382.546 96.7785C382.688 96.931 382.827 97.0872 382.962 97.2472C383.189 97.5162 383.362 98.0075 382.889 97.1269C383.322 97.933 383.863 98.6642 384.271 99.4953C384.619 100.204 383.954 98.6148 384.218 99.3611C384.29 99.5623 384.366 99.761 384.433 99.9637C384.568 100.369 384.684 100.781 384.781 101.198C384.879 101.615 384.927 102.042 385.017 102.46C384.769 101.309 384.95 101.975 384.975 102.287C384.997 102.572 385.011 102.856 385.015 103.142C385.021 103.498 385.012 103.854 384.99 104.21C384.976 104.418 384.93 104.64 384.933 104.848C384.919 103.768 385.01 104.305 384.944 104.668C384.868 105.088 384.77 105.504 384.651 105.913C384.591 106.118 384.525 106.322 384.455 106.523C384.392 106.702 384.326 106.879 384.256 107.055C384.459 106.573 384.475 106.528 384.304 106.918C383.261 109.044 381.96 111.026 380.933 113.16C378.386 118.48 377.53 124.475 378.483 130.313C378.745 131.281 379.368 132.107 380.22 132.614C381.103 133.129 382.149 133.269 383.133 133.002C385.263 132.3 386.101 130.405 385.773 128.266C385.657 127.513 385.833 128.938 385.758 128.179C385.725 127.854 385.693 127.529 385.67 127.203C385.625 126.551 385.607 125.898 385.615 125.243C385.622 124.683 385.649 124.123 385.694 123.565C385.696 123.237 385.729 122.91 385.794 122.589C385.793 122.591 385.672 123.363 385.754 122.919C385.788 122.735 385.813 122.55 385.845 122.366C386.062 121.124 386.376 119.902 386.783 118.71C386.874 118.446 386.973 118.185 387.069 117.922C387.321 117.228 386.806 118.479 387.112 117.807C387.384 117.209 387.665 116.618 387.975 116.038C389.276 113.603 390.748 111.322 391.696 108.704C392.419 106.649 392.705 104.462 392.535 102.287C392.184 97.7973 390.315 93.2417 386.831 90.3347C385.031 88.8085 382.902 87.7367 380.618 87.2068C378.335 86.6768 375.96 86.7035 373.688 87.2848C371.195 87.8987 368.888 89.1246 366.967 90.8557C365.047 92.5868 363.571 94.7704 362.67 97.2159C361.972 99.1041 363.444 101.519 365.31 101.951C367.46 102.45 369.212 101.284 369.96 99.2627V99.2626Z" fill="#D0CDE1"/>
<path d="M383.166 145.129C383.787 145.129 384.394 144.941 384.911 144.589C385.428 144.238 385.831 143.738 386.068 143.153C386.306 142.568 386.368 141.925 386.247 141.304C386.126 140.683 385.827 140.113 385.387 139.666C384.948 139.218 384.388 138.913 383.778 138.79C383.169 138.667 382.537 138.73 381.963 138.972C381.389 139.214 380.898 139.624 380.553 140.151C380.208 140.677 380.023 141.296 380.023 141.929C380.033 142.774 380.367 143.583 380.954 144.181C381.541 144.779 382.335 145.119 383.166 145.129Z" fill="#D0CDE1"/>
<path d="M435.236 160.083L432.716 167.783C432.716 167.783 416.966 186.39 428.306 188.956C439.646 191.523 440.906 169.066 440.906 169.066L444.056 162.65L435.236 160.083Z" fill="#FFB8B8"/>
<path d="M452.875 67.0487C452.875 67.0487 449.095 66.4071 447.835 81.8059C446.575 97.2047 445.945 124.153 445.945 124.153L431.455 162.008L449.725 167.783L458.545 124.794L452.875 67.0487Z" fill="#575A89"/>
<path d="M444.685 296.106L442.795 308.297H459.805L459.175 296.106H444.685Z" fill="#FFB8B8"/>
<path d="M499.495 309.58L498.234 326.262L509.575 327.545V308.297L499.495 309.58Z" fill="#FFB8B8"/>
<path d="M451.615 136.985L437.125 221.679L440.905 298.673H460.435V228.737L479.335 192.806L494.455 237.719L498.235 312.788L519.655 308.939L514.615 235.794C514.615 235.794 510.835 138.269 507.055 136.985C503.275 135.702 451.615 136.985 451.615 136.985Z" fill="#2F2E41"/>
<path d="M446.575 304.447C446.575 304.447 446.575 298.031 441.535 301.881C436.495 305.731 430.195 312.788 430.195 312.788C430.195 312.788 406.255 326.262 423.265 328.187C440.275 330.112 450.985 319.205 450.985 319.205L452.875 321.129C452.875 321.129 462.955 319.205 462.955 316.638C462.882 314.488 462.672 312.344 462.325 310.222C462.325 310.222 461 299.339 459.458 301.572C457.915 303.806 449.095 308.297 446.575 304.447Z" fill="#2F2E41"/>
<path d="M510.205 322.413C510.205 322.413 498.865 316.638 496.345 321.771C493.825 326.904 491.935 337.17 491.935 337.17C491.935 337.17 483.745 353.21 498.235 351.927C512.725 350.644 512.095 342.303 512.095 340.378C512.095 338.453 511.465 333.962 512.095 332.037C512.725 330.112 510.205 322.413 510.205 322.413Z" fill="#2F2E41"/>
<path d="M485.32 41.705C495.062 41.705 502.96 33.6616 502.96 23.7397C502.96 13.8177 495.062 5.77441 485.32 5.77441C475.577 5.77441 467.68 13.8177 467.68 23.7397C467.68 33.6616 475.577 41.705 485.32 41.705Z" fill="#FFB8B8"/>
<path d="M473.665 32.4014L473.035 55.4995L495.715 53.5747V32.4014H473.665Z" fill="#FFB8B8"/>
<path d="M496.975 42.0259C496.975 42.0259 486.265 49.0837 483.115 50.3669C479.965 51.6501 473.035 45.234 473.035 45.234C473.035 45.234 471.145 46.5172 471.145 47.8004C471.145 49.0837 469.885 54.2166 469.885 54.2166L454.765 104.904L456.025 140.835C456.025 140.835 502.015 145.326 507.055 139.552C512.095 133.777 504.535 51.0085 504.535 51.0085L496.975 42.0259Z" fill="#D0CDE1"/>
<path opacity="0.1" d="M493.825 55.5C493.825 55.5 476.816 61.9162 471.146 56.1416C471.145 56.1416 479.335 58.0665 493.825 55.5Z" fill="black"/>
<path d="M538.556 194.731C531.626 199.222 508.946 204.997 508.946 204.997C508.946 204.997 506.47 150.684 497.606 142.118C488.792 133.591 474.403 72.1178 487.343 61.4285C487.401 61.3734 487.462 61.322 487.526 61.2745L495.716 42.026C495.716 42.026 496.976 40.1011 499.496 42.6676C501.534 44.8923 503.428 47.2498 505.166 49.7253L505.525 49.8729L522.806 56.7831L515.876 88.2224C515.876 88.2224 545.486 190.24 538.556 194.731Z" fill="#575A89"/>
<path opacity="0.1" d="M505.525 49.8729L500.756 67.6907L487.343 61.4285C487.401 61.3734 487.462 61.322 487.526 61.2745L495.715 42.026C495.715 42.026 496.975 40.1011 499.495 42.6676C501.534 44.8923 503.428 47.2498 505.165 49.7253L505.525 49.8729Z" fill="black"/>
<path d="M472.72 44.9131L470.83 66.7281L470.73 67.7226L456.34 207.242C456.34 207.242 443.74 202.751 439.33 197.618C434.92 192.485 449.41 135.381 449.41 135.381L450.67 63.52C450.67 63.52 461.847 55.5062 466.414 51.1047C467.485 50.0781 468.191 49.2504 468.31 48.7628C468.94 46.1963 472.72 44.9131 472.72 44.9131Z" fill="#575A89"/>
<path opacity="0.1" d="M472.72 44.9131L470.83 66.7281L470.73 67.7226L461.695 66.4073L466.414 51.1047C467.485 50.0781 468.191 49.2504 468.31 48.7628C468.94 46.1963 472.72 44.9131 472.72 44.9131Z" fill="black"/>
<path d="M506.425 153.026L499.495 159.442C499.495 159.442 502.645 172.916 506.425 173.558C506.425 173.558 508.945 169.708 509.575 166.5C510.205 163.292 515.875 160.084 515.875 160.084L506.425 153.026Z" fill="#FFB8B8"/>
<path d="M514.616 55.5L522.806 56.7832C522.806 56.7832 549.896 103.621 546.746 120.303C543.596 136.985 518.396 165.858 518.396 165.858L502.646 153.026L525.956 120.945L513.986 82.4479L514.616 55.5Z" fill="#575A89"/>
<path d="M467.641 25.7577C467.641 25.7577 467.641 9.91416 471.421 6.31339H475.957C475.957 6.31339 481.25 -1.60836 488.055 1.27227C494.859 4.15291 506.201 9.19402 505.444 17.1158C504.688 25.0375 502.33 30.156 502.33 30.156C502.33 30.156 501.07 30.156 498.262 25.8495C494.509 20.0949 503.176 21.8886 491.835 19.7282C480.494 17.5677 473.689 14.687 472.177 17.5677C470.665 20.4483 467.641 25.7577 467.641 25.7577Z" fill="#2F2E41"/>
<path d="M475.883 7.38857C475.883 7.38857 476.487 2.75823 478.974 1.76123L475.883 7.38857Z" fill="#2F2E41"/>
<path d="M475.872 8.34078C475.872 8.34078 474.61 3.85003 476.499 1.92432L475.872 8.34078Z" fill="#2F2E41"/>
</g>
<defs>
<filter id="filter0_d" x="0" y="0" width="551" height="360" filterUnits="userSpaceOnUse" color-interpolation-filters="sRGB">
<feFlood flood-opacity="0" result="BackgroundImageFix"/>
<feColorMatrix in="SourceAlpha" type="matrix" values="0 0 0 0 0 0 0 0 0 0 0 0 0 0 0 0 0 0 127 0"/>
<feOffset dy="4"/>
<feGaussianBlur stdDeviation="2"/>
<feColorMatrix type="matrix" values="0 0 0 0 0 0 0 0 0 0 0 0 0 0 0 0 0 0 0.25 0"/>
<feBlend mode="normal" in2="BackgroundImageFix" result="effect1_dropShadow"/>
<feBlend mode="normal" in="SourceGraphic" in2="effect1_dropShadow" result="shape"/>
</filter>
<clipPath id="clip0">
<rect width="543" height="352" fill="white" transform="translate(4)"/>
</clipPath>
</defs>
</svg>
