<svg width="300" height="164" viewBox="0 0 300 164" fill="none" xmlns="http://www.w3.org/2000/svg">
<g clip-path="url(#clip0)">
<path d="M150.963 163.134C232.31 163.134 298.255 158.768 298.255 153.383C298.255 147.998 232.31 143.632 150.963 143.632C69.6151 143.632 3.66992 147.998 3.66992 153.383C3.66992 158.768 69.6151 163.134 150.963 163.134Z" fill="#F2F2F2"/>
<path d="M145.317 46.6338C121.319 46.6338 104.089 62.0302 104.089 97.9552C104.089 138.67 121.319 149.448 145.317 149.448C169.315 149.448 187.572 137.644 187.572 97.9552C187.572 55.5295 169.315 46.6338 145.317 46.6338ZM145.475 135.933C128.853 135.933 120.17 126.182 120.17 97.9815C120.17 73.0991 129.209 59.9774 145.83 59.9774C162.452 59.9774 171.491 68.5965 171.491 97.9815C171.491 125.471 162.096 135.933 145.475 135.933Z" fill="#2F2E41"/>
<path d="M89.7189 121.05H79.7967V91.8317C79.7967 90.2798 79.1802 88.7915 78.0828 87.6941C76.9855 86.5968 75.4972 85.9803 73.9453 85.9803H71.6203C70.8519 85.9803 70.091 86.1316 69.381 86.4257C68.6711 86.7197 68.0261 87.1508 67.4827 87.6941C66.9393 88.2375 66.5083 88.8825 66.2143 89.5925C65.9202 90.3024 65.7688 91.0633 65.7688 91.8317V121.05H37.7818C37.2061 121.05 36.6401 120.901 36.1388 120.618C35.6375 120.335 35.2179 119.927 34.9207 119.434C34.6236 118.941 34.4589 118.379 34.4427 117.803C34.4265 117.228 34.5593 116.658 34.8283 116.149L64.4494 60.0855C64.8187 59.3865 65.0425 58.62 65.1074 57.8321C65.1723 57.0443 65.0768 56.2514 64.8268 55.5015C64.5768 54.7515 64.1774 54.06 63.6528 53.4686C63.1282 52.8773 62.4891 52.3984 61.7743 52.0608L60.0257 51.2351C58.6679 50.5939 57.1156 50.4993 55.69 50.9707C54.2644 51.4421 53.0745 52.4435 52.3667 53.7677L16.2398 121.35C15.6246 122.501 15.3027 123.785 15.3027 125.09C15.3027 126.132 15.508 127.164 15.9067 128.127C16.3055 129.089 16.8899 129.964 17.6267 130.701C18.3635 131.438 19.2382 132.022 20.2008 132.421C21.1635 132.82 22.1952 133.025 23.2372 133.025H65.7688V151.501C65.7688 152.422 65.9503 153.334 66.3027 154.185C66.6552 155.036 67.1719 155.809 67.8232 156.46C68.4745 157.112 69.2477 157.628 70.0986 157.981C70.9496 158.333 71.8617 158.515 72.7828 158.515H72.7828C73.7039 158.515 74.6159 158.333 75.4669 157.981C76.3179 157.628 77.0911 157.112 77.7424 156.46C78.3937 155.809 78.9103 155.036 79.2628 154.185C79.6153 153.334 79.7967 152.422 79.7967 151.501V133.025H89.7188C91.3068 133.025 92.8298 132.394 93.9527 131.271C95.0755 130.148 95.7063 128.625 95.7063 127.037C95.7064 125.449 95.0755 123.926 93.9527 122.804C92.8298 121.681 91.3068 121.05 89.7189 121.05Z" fill="#6C63FF"/>
<path d="M273.45 121.05H263.528V91.8317C263.528 90.2798 262.912 88.7915 261.814 87.6941C260.717 86.5968 259.229 85.9803 257.677 85.9803H255.352C254.583 85.9803 253.822 86.1316 253.112 86.4257C252.403 86.7197 251.758 87.1508 251.214 87.6941C250.671 88.2375 250.24 88.8825 249.946 89.5925C249.652 90.3024 249.5 91.0633 249.5 91.8317V121.05H221.513C220.938 121.05 220.372 120.901 219.87 120.618C219.369 120.335 218.949 119.927 218.652 119.434C218.355 118.941 218.19 118.379 218.174 117.803C218.158 117.228 218.291 116.658 218.56 116.149L248.181 60.0855C248.55 59.3866 248.774 58.62 248.839 57.8321C248.904 57.0443 248.808 56.2514 248.558 55.5015C248.308 54.7515 247.909 54.06 247.384 53.4686C246.86 52.8773 246.221 52.3984 245.506 52.0608L243.757 51.2351C242.399 50.5939 240.847 50.4993 239.421 50.9707C237.996 51.4421 236.806 52.4435 236.098 53.7677L199.971 121.35C199.356 122.501 199.034 123.785 199.034 125.09C199.034 127.195 199.87 129.213 201.358 130.701C202.846 132.189 204.864 133.025 206.969 133.025H249.5V151.501C249.5 153.361 250.239 155.145 251.555 156.46C252.87 157.776 254.654 158.515 256.514 158.515C258.374 158.515 260.158 157.776 261.474 156.46C262.789 155.145 263.528 153.361 263.528 151.501V133.025H273.45C275.038 133.025 276.561 132.394 277.684 131.271C278.807 130.148 279.438 128.625 279.438 127.037C279.438 125.449 278.807 123.926 277.684 122.804C276.561 121.681 275.038 121.05 273.45 121.05Z" fill="#6C63FF"/>
<path d="M92.4562 117.628H82.534V88.4099C82.534 87.6414 82.3827 86.8805 82.0886 86.1706C81.7945 85.4607 81.3635 84.8156 80.8202 84.2723C80.2768 83.7289 79.6318 83.2979 78.9218 83.0038C78.2119 82.7098 77.451 82.5584 76.6826 82.5584H74.3576C72.8057 82.5584 71.3174 83.1749 70.22 84.2723C69.1226 85.3696 68.5062 86.858 68.5062 88.4099V117.628H40.5191C39.9434 117.628 39.3774 117.479 38.8761 117.196C38.3748 116.913 37.9552 116.505 37.658 116.012C37.3609 115.519 37.1962 114.957 37.18 114.382C37.1638 113.806 37.2966 113.236 37.5656 112.727L67.1867 56.6637C67.556 55.9647 67.7799 55.1981 67.8447 54.4103C67.9096 53.6224 67.8141 52.8296 67.5641 52.0796C67.3141 51.3296 66.9148 50.6381 66.3901 50.0468C65.8655 49.4554 65.2265 48.9765 64.5116 48.6389L62.763 47.8132C61.4052 47.1721 59.8529 47.0774 58.4273 47.5488C57.0017 48.0202 55.8119 49.0216 55.104 50.3458L18.9771 117.928C18.3619 119.079 18.04 120.364 18.04 121.669V121.669C18.04 123.773 18.876 125.791 20.364 127.279C21.852 128.767 23.8702 129.603 25.9745 129.603H68.5062V148.079C68.5062 149 68.6876 149.912 69.0401 150.763C69.3925 151.614 69.9092 152.387 70.5605 153.038C71.2118 153.69 71.985 154.206 72.836 154.559C73.6869 154.911 74.599 155.093 75.5201 155.093H75.5201C77.3803 155.093 79.1643 154.354 80.4797 153.038C81.7951 151.723 82.534 149.939 82.534 148.079V129.603H92.4562C93.2425 129.603 94.0211 129.448 94.7475 129.147C95.4739 128.846 96.134 128.405 96.69 127.849C97.246 127.293 97.687 126.633 97.9879 125.907C98.2888 125.18 98.4437 124.402 98.4437 123.616V123.616C98.4437 122.829 98.2888 122.051 97.9879 121.324C97.687 120.598 97.246 119.938 96.69 119.382C96.134 118.826 95.4739 118.385 94.7475 118.084C94.0211 117.783 93.2425 117.628 92.4562 117.628V117.628Z" stroke="#3F3D56" stroke-miterlimit="10"/>
<path d="M278.582 117.628H268.66V88.4099C268.66 86.858 268.043 85.3696 266.946 84.2723C265.849 83.1749 264.36 82.5584 262.809 82.5584H260.484C259.715 82.5584 258.954 82.7098 258.244 83.0038C257.534 83.2979 256.889 83.7289 256.346 84.2723C255.803 84.8156 255.372 85.4607 255.078 86.1706C254.783 86.8805 254.632 87.6414 254.632 88.4099V117.628H226.645C226.069 117.628 225.503 117.479 225.002 117.196C224.501 116.913 224.081 116.505 223.784 116.012C223.487 115.519 223.322 114.957 223.306 114.382C223.29 113.806 223.423 113.236 223.692 112.727L253.313 56.6637C253.682 55.9647 253.906 55.1981 253.971 54.4103C254.036 53.6224 253.94 52.8296 253.69 52.0796C253.44 51.3296 253.041 50.6381 252.516 50.0468C251.991 49.4554 251.352 48.9765 250.638 48.6389L248.889 47.8132C247.531 47.1721 245.979 47.0774 244.553 47.5488C243.128 48.0202 241.938 49.0216 241.23 50.3458L205.103 117.928C204.488 119.079 204.166 120.364 204.166 121.669C204.166 123.773 205.002 125.791 206.49 127.279C207.978 128.767 209.996 129.603 212.101 129.603H254.632V148.079C254.632 149.939 255.371 151.723 256.686 153.038C258.002 154.354 259.786 155.093 261.646 155.093V155.093C263.506 155.093 265.29 154.354 266.606 153.038C267.921 151.723 268.66 149.939 268.66 148.079V129.603H278.582C279.368 129.603 280.147 129.448 280.873 129.147C281.6 128.846 282.26 128.405 282.816 127.849C283.372 127.293 283.813 126.633 284.114 125.907C284.415 125.18 284.57 124.402 284.57 123.616V123.616C284.57 122.028 283.939 120.505 282.816 119.382C281.693 118.259 280.17 117.628 278.582 117.628V117.628Z" stroke="#3F3D56" stroke-miterlimit="10"/>
<path d="M150.792 43.5547C126.794 43.5547 109.563 58.9511 109.563 94.8761C109.563 135.591 126.794 146.369 150.792 146.369C174.79 146.369 193.046 134.565 193.046 94.8761C193.046 52.4504 174.79 43.5547 150.792 43.5547ZM150.95 132.854C134.328 132.854 125.644 123.103 125.644 94.9024C125.644 70.0199 134.683 56.8983 151.305 56.8983C167.927 56.8983 176.966 65.5174 176.966 94.9024C176.966 122.392 167.571 132.854 150.95 132.854V132.854Z" stroke="#3F3D56" stroke-miterlimit="10"/>
<path d="M131.555 8.69887C133.545 8.69887 135.158 7.08604 135.158 5.09651C135.158 3.10698 133.545 1.49414 131.555 1.49414C129.566 1.49414 127.953 3.10698 127.953 5.09651C127.953 7.08604 129.566 8.69887 131.555 8.69887Z" fill="#2F2E41"/>
<path d="M140.342 26.183C145.923 26.183 150.447 20.3218 150.447 13.0915C150.447 5.86127 145.923 0 140.342 0C134.762 0 130.238 5.86127 130.238 13.0915C130.238 20.3218 134.762 26.183 140.342 26.183Z" fill="#2F2E41"/>
<path opacity="0.1" d="M140.342 22.2289C135.281 22.2289 131.089 17.4065 130.353 11.1143C130.276 11.7704 130.238 12.4305 130.238 13.0912C130.238 20.3214 134.762 26.1827 140.342 26.1827C145.923 26.1827 150.447 20.3214 150.447 13.0912C150.447 12.4305 150.409 11.7704 150.332 11.1143C149.596 17.4065 145.404 22.2289 140.342 22.2289Z" fill="black"/>
<path d="M160.903 51.4303C160.686 52.322 159.75 53.0361 158.714 53.5351C156.536 54.5841 153.848 54.8971 151.242 55.0022C150.577 55.0426 149.91 55.0302 149.247 54.9653C147.962 54.841 146.757 54.287 145.826 53.3929C145.76 53.3496 145.706 53.2901 145.668 53.2201C145.631 53.1501 145.612 53.0718 145.613 52.9924C145.615 52.9131 145.636 52.8354 145.675 52.7666C145.715 52.6978 145.771 52.64 145.839 52.5988C147.226 51.0745 149.542 50.1399 151.874 49.4669C153.643 48.9566 156.728 47.6349 158.657 47.8133C160.525 47.9861 161.177 50.3044 160.903 51.4303Z" fill="#3F3D56"/>
<path opacity="0.1" d="M160.903 51.4303C160.686 52.322 159.75 53.0361 158.714 53.5351C156.536 54.5841 153.848 54.8971 151.242 55.0022C150.577 55.0426 149.91 55.0302 149.247 54.9653C147.962 54.841 146.757 54.287 145.826 53.3929C145.76 53.3496 145.706 53.2901 145.668 53.2201C145.631 53.1501 145.612 53.0718 145.613 52.9924C145.615 52.9131 145.636 52.8354 145.675 52.7666C145.715 52.6978 145.771 52.64 145.839 52.5988C147.226 51.0745 149.542 50.1399 151.874 49.4669C153.643 48.9566 156.728 47.6349 158.657 47.8133C160.525 47.9861 161.177 50.3044 160.903 51.4303Z" fill="black"/>
<path d="M133.204 44.7666C132.539 46.0699 132.418 47.5839 132.869 48.9759C133.327 50.3573 134.185 51.5718 135.334 52.4653C138.153 54.7247 142.032 55.0356 145.645 55.0043C148.811 54.9767 151.972 54.76 155.112 54.3554C156.164 54.2621 157.198 54.0221 158.184 53.6421C159.363 53.132 160.399 52.1964 160.819 50.9823C161.239 49.7682 160.941 48.2815 159.944 47.4712C159.068 46.7593 157.86 46.6613 156.733 46.5936L150.287 46.2062C150.923 45.5616 151.771 45.1971 152.547 44.7285C153.576 44.1068 154.26 43.063 155.008 42.122C156.161 40.7442 157.415 39.4545 158.76 38.2639C158.97 39.4675 159.732 40.4558 160.628 41.2863C161.524 42.1167 162.557 42.7853 163.488 43.576C165.744 45.491 167.368 48.0902 169.741 49.8587C171.373 49.4299 172.898 48.6682 174.222 47.6215L173.3 45.9513C173.223 45.7794 173.103 45.6301 172.952 45.5177C172.691 45.3571 172.355 45.4399 172.052 45.3944C171.242 45.273 170.888 44.3378 170.57 43.583C169.698 41.5106 168.027 39.9028 166.6 38.1649C165.547 36.882 164.613 35.506 163.809 34.0539C163.33 33.1878 162.891 32.2861 162.241 31.5399C161.59 30.7938 160.679 30.2072 159.689 30.2051C158.814 30.2032 158.007 30.6473 157.256 31.0939C154.965 32.4543 152.762 33.9556 150.657 35.5892C149.556 36.4441 148.462 37.3473 147.17 37.8715C146.626 38.0922 146.053 38.2431 145.531 38.5116C144.617 38.9819 143.924 39.7777 143.177 40.4841C140.514 43.0036 136.867 44.636 133.204 44.7666Z" fill="#3F3D56"/>
<path d="M146.684 26.8331C146.655 27.6033 146.491 28.3623 146.2 29.0763C146.053 29.4323 145.834 29.7543 145.557 30.022C145.28 30.2897 144.951 30.4975 144.59 30.6323C144.077 30.7696 143.54 30.7871 143.02 30.6833C142.566 30.6359 142.129 30.4869 141.74 30.2475C141.136 29.8319 140.835 29.0903 140.725 28.3646C140.615 27.6397 140.664 26.899 140.594 26.1689C140.525 25.5792 140.413 24.9953 140.258 24.4222C140.211 24.2315 140.162 24.0417 140.115 23.852C140.068 23.6622 140.023 23.4724 139.981 23.2826C139.942 23.1043 139.906 22.925 139.875 22.7449C139.85 22.5929 139.827 22.44 139.81 22.2863C139.795 21.8304 139.719 21.3787 139.584 20.9428C139.458 20.6602 139.3 20.3928 139.113 20.1459C139.033 20.0317 138.956 19.9175 138.885 19.7989C138.679 19.4906 138.583 19.1219 138.613 18.7524C138.622 18.6953 138.636 18.6391 138.655 18.5846C138.662 18.5635 138.67 18.5424 138.678 18.5222C138.757 18.5008 138.83 18.4603 138.89 18.4044C138.95 18.3486 138.995 18.2789 139.022 18.2015C139.052 18.0353 139.038 17.864 138.981 17.7051C138.915 17.483 138.825 17.2688 138.713 17.0663C138.639 16.9328 138.388 16.692 138.387 16.5391C138.383 16.2316 138.984 15.9839 139.228 15.8626C139.97 15.4906 140.799 15.3226 141.628 15.3758C142.16 15.4119 142.736 15.5753 143.029 16.0208C143.293 16.4223 143.258 16.9424 143.37 17.409C143.382 17.4768 143.411 17.5406 143.454 17.5944C143.511 17.6466 143.583 17.6798 143.66 17.6893C143.79 17.7152 143.924 17.7205 144.056 17.7051H144.057C144.091 17.7023 144.126 17.6973 144.16 17.6901C144.365 17.6523 144.559 17.5685 144.728 17.445C144.837 17.416 144.947 17.3923 145.057 17.3738C145.062 17.3734 145.066 17.3725 145.07 17.3712C145.511 18.7603 145.568 20.2496 145.928 21.6642C146.106 22.3679 146.362 23.0629 146.398 23.7869C146.401 23.8186 146.402 23.8511 146.402 23.8836C146.408 24.1164 146.389 24.351 146.399 24.583C146.402 24.6874 146.414 24.7914 146.434 24.894C146.473 25.059 146.522 25.2215 146.581 25.3808L146.583 25.3887C146.6 25.4396 146.616 25.4915 146.629 25.5433C146.639 25.5811 146.648 25.618 146.655 25.6558L146.655 25.6584C146.721 26.0466 146.73 26.4422 146.684 26.8331Z" fill="#FBBEBE"/>
<path d="M140.518 17.7486C143.381 17.7486 145.702 15.4277 145.702 12.5648C145.702 9.70177 143.381 7.38086 140.518 7.38086C137.655 7.38086 135.334 9.70177 135.334 12.5648C135.334 15.4277 137.655 17.7486 140.518 17.7486Z" fill="#FBBEBE"/>
<path d="M173.429 40.8085C173.279 39.3942 172.776 38.0402 171.967 36.8705C172.102 37.67 172.236 38.4693 172.371 39.2683C172.204 39.3168 172.025 39.3153 171.858 39.264C171.691 39.2126 171.543 39.1137 171.431 38.9792C171.213 38.7066 171.046 38.3967 170.938 38.0645C170.349 36.6025 169.579 35.2202 168.646 33.9499C165.346 33.6749 162.083 32.3069 159.181 30.7122C156.278 29.1184 153.562 27.2074 150.697 25.5459C150.201 25.2457 149.683 24.9814 149.149 24.7551C148.253 24.3957 147.247 24.2095 146.397 23.7869C146.34 23.7587 146.283 23.7289 146.227 23.6981C146.035 23.5937 145.853 23.4717 145.684 23.3335C145.592 23.2592 145.506 23.1794 145.424 23.0945C145 22.6013 144.664 22.039 144.43 21.4321C143.974 20.4235 143.812 19.2066 143.356 18.1979C143.566 18.0024 143.801 17.8366 144.055 17.705H144.056C144.093 17.6857 144.13 17.6672 144.167 17.6497C144.347 17.5648 144.535 17.4963 144.727 17.4449C144.836 17.4159 144.946 17.3922 145.057 17.3738C145.061 17.3733 145.065 17.3724 145.07 17.3711C145.583 17.2875 146.109 17.3291 146.603 17.4924C147.325 17.7366 147.934 18.2243 148.541 18.6856C149.528 19.3804 150.474 20.1308 151.375 20.9331C151.876 21.4128 152.333 21.94 152.871 22.3758C153.319 22.7212 153.791 23.0339 154.283 23.3115C157.197 25.0477 160.112 26.7836 163.027 28.5191C164.014 29.1069 165.001 29.6947 165.966 30.3168C167.432 31.2622 168.845 32.2867 170.257 33.3103C171.089 33.913 171.92 34.5161 172.752 35.1194C173.025 35.2934 173.264 35.5148 173.459 35.7731C173.631 36.0663 173.738 36.3933 173.773 36.7317C173.982 38.0987 173.864 39.4957 173.429 40.8085Z" fill="#FBBEBE"/>
<path d="M147.969 30.7318C147.62 32.3001 146.035 33.2482 145.206 34.6258C144.176 36.3356 144.596 38.3231 144.983 40.2815C144.277 40.8904 143.57 41.4993 142.863 42.1082C142.473 42.443 142.083 42.7795 141.663 43.0756C141.05 43.4859 140.41 43.8535 139.747 44.1756C139.122 44.4972 138.496 44.8191 137.871 45.1412C137.289 45.4682 136.673 45.7293 136.033 45.9197C134.801 46.236 133.491 46.0146 132.272 45.6482C132.128 45.6105 131.99 45.554 131.861 45.4804C131.785 45.435 131.718 45.375 131.666 45.3038C131.545 45.0882 131.502 44.8383 131.542 44.5947C131.666 42.5422 132.167 40.5328 132.667 38.5383C132.935 37.3418 133.294 36.1677 133.742 35.0265C134.181 34.0486 134.687 33.1016 135.254 32.192C135.88 31.0476 136.622 29.9703 137.468 28.9771C137.88 28.5949 138.227 28.1479 138.494 27.6539C138.806 26.9422 138.686 26.126 138.749 25.3511C138.798 24.7688 138.952 24.2004 139.205 23.6738V23.6729C139.341 23.3892 139.504 23.1197 139.692 22.8681C139.777 23.0666 139.862 23.2649 139.948 23.4629C140.004 23.5929 140.059 23.7227 140.115 23.8521C140.187 24.0191 140.258 24.1854 140.329 24.3512C140.534 24.8274 140.738 25.3033 140.942 25.779C141.163 26.378 141.477 26.9382 141.874 27.4387C142.055 27.6949 142.299 27.8998 142.583 28.0333C142.867 28.1669 143.181 28.2244 143.494 28.2004C143.807 28.1764 144.108 28.0717 144.369 27.8965C144.629 27.7212 144.839 27.4815 144.979 27.2006C145.275 26.6763 145.489 26.1101 145.614 25.5215C145.787 24.8048 145.811 24.0601 145.684 23.3337C145.472 21.935 144.878 20.5063 144.445 19.2068C144.269 18.7736 144.167 18.3138 144.144 17.8467C144.145 17.7942 144.15 17.7419 144.16 17.6903C144.162 17.6772 144.165 17.6631 144.168 17.6499C144.348 17.5651 144.535 17.4966 144.727 17.4452C144.836 17.4162 144.946 17.3925 145.057 17.374C145.437 19.4335 145.818 21.493 146.2 23.5525C146.209 23.6008 146.218 23.6492 146.227 23.6984C146.282 23.9936 146.337 24.2888 146.398 24.5831C146.454 24.8502 146.514 25.1165 146.58 25.3809L146.583 25.3888C146.606 25.4785 146.63 25.5672 146.654 25.6559L146.655 25.6586C146.723 25.9011 146.798 26.1418 146.883 26.3791C147.4 27.8086 148.301 29.2478 147.969 30.7318Z" fill="#6C63FF"/>
<path d="M169.008 52.7723C168.991 53.0744 169.05 53.3759 169.178 53.65C169.502 54.2429 170.281 54.3777 170.954 54.4332C174.889 54.7566 178.848 54.636 182.756 54.0736C182.968 54.0591 183.174 53.9953 183.357 53.8872C183.913 53.4976 183.57 52.5483 182.963 52.2443C182.357 51.9404 181.637 52.0137 180.971 51.882C180.31 51.7156 179.68 51.4424 179.106 51.0734C177.756 50.2977 176.426 49.4891 175.115 48.6474C174.335 48.1463 173.414 47.6115 172.535 47.9086C170.155 48.7139 168.992 50.2044 169.008 52.7723Z" fill="#3F3D56"/>
<path d="M140 23.173V23.1739C139.994 23.2108 139.988 23.2468 139.98 23.2828C139.97 23.3426 139.959 23.4032 139.948 23.4629C139.839 24.0208 139.705 24.5761 139.551 25.1279C139.13 26.6523 138.565 28.1521 138.004 29.63C136.5 33.5926 134.995 37.5555 133.491 41.5187C133.111 42.5168 132.732 43.5158 132.301 44.4937C132.157 44.8197 132.008 45.1483 131.861 45.4804C131.332 46.6692 130.824 47.8966 130.655 49.1618C130.498 49.9945 130.48 50.8475 130.602 51.6861C130.77 52.5155 131.274 53.3256 132.062 53.6323C132.447 53.7825 132.998 53.9837 132.892 54.3835C132.835 54.6032 132.586 54.7103 132.361 54.7472C132.066 54.7944 131.763 54.7759 131.475 54.693C131.187 54.6101 130.921 54.4648 130.696 54.2675C130.275 53.8941 129.951 53.3133 129.392 53.251C129.004 53.2088 128.648 53.4407 128.293 53.6033C126.845 54.2649 125.158 53.8019 123.637 53.3318C123.756 52.7159 124.375 52.31 124.989 52.1869C125.603 52.0631 126.238 52.1509 126.865 52.1342C127.065 52.1449 127.264 52.0937 127.435 51.9875C127.588 51.8472 127.695 51.6641 127.743 51.4621C128.146 50.2664 128.446 49.0382 128.64 47.7912C128.842 46.4882 128.926 45.165 129.214 43.8778C129.438 42.8735 129.784 41.9009 130.081 40.9151C130.656 38.8853 131.127 36.8279 131.494 34.7506C131.68 33.8876 131.813 33.0141 131.892 32.135C131.942 31.4057 131.919 30.6729 131.989 29.9463C132.107 29.001 132.304 28.0672 132.578 27.1549C132.847 26.1594 133.116 25.1645 133.384 24.1702C133.782 22.6985 134.209 21.1697 135.218 20.0257C135.568 19.623 135.998 19.2965 136.479 19.0665C136.961 18.8365 137.485 18.7078 138.018 18.6885C138.218 18.6882 138.418 18.7097 138.613 18.7526C138.645 18.7605 138.678 18.7684 138.71 18.7772C138.923 18.8329 139.128 18.9174 139.318 19.0285C139.629 18.8308 139.787 18.9002 139.993 19.2051C140.174 19.5278 140.26 19.8953 140.239 20.2647C140.257 21.2397 140.177 22.2139 140 23.173Z" fill="#FBBEBE"/>
<path d="M140.342 24.3382L140.329 24.3514L140.258 24.4226L139.552 25.1281L139.206 23.674L138.019 18.6886C138.219 18.6884 138.418 18.7099 138.613 18.7528C138.622 18.6957 138.636 18.6395 138.655 18.585L138.711 18.7774L139.113 20.1463L139.875 22.7453L140.001 23.1731V23.174L140.342 24.3382Z" fill="#6C63FF"/>
<path d="M144.825 8.43374C144.824 8.89535 144.732 9.35233 144.555 9.77855C144.378 10.2048 144.118 10.5919 143.791 10.9177C143.673 11.0363 143.546 11.1461 143.412 11.2462C142.805 11.7032 142.067 11.9506 141.307 11.951H137.092C136.161 11.9495 135.268 11.5785 134.61 10.9194C133.952 10.2603 133.582 9.36689 133.582 8.43545C133.582 7.50401 133.952 6.61065 134.61 5.95151C135.268 5.29238 136.161 4.92136 137.092 4.91992H141.307C142.239 4.92235 143.132 5.29322 143.791 5.95157C144.45 6.60991 144.821 7.50225 144.825 8.43374Z" fill="#2F2E41"/>
<path d="M148.776 8.69887C150.766 8.69887 152.379 7.08604 152.379 5.09651C152.379 3.10698 150.766 1.49414 148.776 1.49414C146.787 1.49414 145.174 3.10698 145.174 5.09651C145.174 7.08604 146.787 8.69887 148.776 8.69887Z" fill="#2F2E41"/>
<path opacity="0.1" d="M148.688 1.49414C148.644 1.49414 148.6 1.49589 148.557 1.49747C149.489 1.53135 150.371 1.92536 151.018 2.59661C151.666 3.26786 152.027 4.16401 152.027 5.09651C152.027 6.02901 151.666 6.92515 151.018 7.5964C150.371 8.26765 149.489 8.66166 148.557 8.69554C148.6 8.69712 148.644 8.69887 148.688 8.69887C149.644 8.69887 150.56 8.31934 151.236 7.64376C151.911 6.96819 152.291 6.05191 152.291 5.09651C152.291 4.1411 151.911 3.22482 151.236 2.54925C150.56 1.87368 149.644 1.49414 148.688 1.49414Z" fill="black"/>
<path opacity="0.1" d="M131.556 1.49414C131.6 1.49414 131.644 1.49589 131.688 1.49747C130.756 1.53135 129.874 1.92536 129.226 2.59661C128.579 3.26786 128.217 4.16401 128.217 5.09651C128.217 6.02901 128.579 6.92515 129.226 7.5964C129.874 8.26765 130.756 8.66166 131.688 8.69554C131.644 8.69712 131.6 8.69887 131.556 8.69887C130.601 8.69803 129.686 8.31812 129.011 7.64264C128.336 6.96716 127.957 6.05137 127.957 5.09651C127.957 4.14165 128.336 3.22585 129.011 2.55037C129.686 1.87489 130.601 1.49498 131.556 1.49414Z" fill="black"/>
<path opacity="0.1" d="M143.411 11.2461C142.805 11.7032 142.066 11.9506 141.307 11.9509H137.092C136.332 11.9506 135.594 11.7032 134.987 11.2461H143.411Z" fill="black"/>
<path d="M170.632 37.3481C170.632 37.3481 171.54 39.9649 172.371 39.2681L171.709 35.8477L170.632 37.3481Z" fill="#FBBEBE"/>
<path d="M281.144 117.15C281.99 117.458 282.896 117.564 283.79 117.462C284.684 117.36 285.542 117.051 286.297 116.561C287.052 116.07 287.682 115.411 288.138 114.636C288.595 113.86 288.865 112.989 288.927 112.091C288.99 111.193 288.843 110.293 288.498 109.462C288.153 108.63 287.62 107.89 286.94 107.3C286.261 106.71 285.453 106.286 284.582 106.061C283.71 105.836 282.798 105.817 281.918 106.005L282.064 108.996L280.648 106.432C279.26 107.085 278.187 108.262 277.665 109.706C277.48 110.211 277.368 110.741 277.331 111.278C277.242 112.538 277.566 113.793 278.254 114.853C278.942 115.912 279.957 116.719 281.144 117.15Z" fill="#57B894"/>
<path d="M288.147 151.842C287.647 149.299 289.812 147.043 291.95 145.578C294.088 144.112 296.586 142.671 297.316 140.184C298.365 136.609 295.241 133.334 292.811 130.511C291.007 128.415 289.458 126.114 288.197 123.654C287.691 122.667 287.226 121.636 287.093 120.536C286.901 118.951 287.411 117.374 287.923 115.862C289.632 110.827 291.459 105.833 293.404 100.882" stroke="#3F3D56" stroke-miterlimit="10"/>
<path d="M281.383 116.38C282.229 116.687 283.135 116.794 284.029 116.692C284.923 116.589 285.782 116.281 286.536 115.79C287.291 115.3 287.921 114.641 288.378 113.865C288.834 113.089 289.104 112.218 289.167 111.32C289.229 110.423 289.082 109.523 288.737 108.691C288.392 107.86 287.859 107.12 287.179 106.53C286.5 105.94 285.692 105.516 284.821 105.291C283.949 105.066 283.038 105.047 282.157 105.234L282.303 108.225L280.888 105.662C279.499 106.314 278.426 107.492 277.904 108.935C277.719 109.441 277.607 109.97 277.57 110.507C277.481 111.768 277.805 113.023 278.493 114.082C279.181 115.142 280.196 115.949 281.383 116.38V116.38Z" stroke="#3F3D56" stroke-miterlimit="10"/>
<path d="M287.436 99.8486C287.768 98.9327 288.325 98.115 289.056 97.471C289.787 96.827 290.669 96.3773 291.619 96.1634L292.098 99.007L292.985 96.0205C294.216 96.0388 295.411 96.448 296.395 97.1891C297.378 97.9302 298.101 98.9649 298.459 100.144C298.817 101.322 298.79 102.584 298.384 103.747C297.978 104.91 297.212 105.914 296.198 106.613C295.185 107.313 293.975 107.672 292.743 107.639C291.512 107.606 290.323 107.183 289.348 106.43C288.373 105.677 287.662 104.634 287.318 103.451C286.975 102.268 287.016 101.007 287.436 99.8486H287.436Z" fill="#57B894"/>
<path d="M287.756 98.8222C288.088 97.9063 288.645 97.0887 289.376 96.4447C290.107 95.8007 290.988 95.351 291.939 95.1371L292.417 97.9807L293.304 94.9941C294.536 95.0124 295.73 95.4216 296.714 96.1627C297.698 96.9039 298.421 97.9385 298.778 99.1173C299.136 100.296 299.11 101.558 298.703 102.721C298.297 103.884 297.532 104.888 296.518 105.587C295.504 106.287 294.294 106.646 293.062 106.613C291.831 106.58 290.642 106.156 289.667 105.404C288.692 104.651 287.981 103.608 287.638 102.425C287.294 101.242 287.336 99.9802 287.756 98.8222H287.756Z" stroke="#3F3D56" stroke-miterlimit="10"/>
<path d="M291.791 130.568C293.132 131.055 294.606 131.03 295.931 130.5C297.256 129.97 298.339 128.971 298.975 127.694C299.61 126.416 299.754 124.949 299.377 123.573C299.001 122.196 298.131 121.007 296.934 120.23L296.252 122.525L295.769 119.648C295.764 119.646 295.759 119.644 295.754 119.642C295.037 119.382 294.275 119.265 293.512 119.299C292.749 119.332 292.001 119.516 291.309 119.839C290.618 120.162 289.996 120.619 289.481 121.182C288.966 121.745 288.567 122.405 288.306 123.122C288.046 123.84 287.93 124.602 287.964 125.365C287.998 126.127 288.182 126.876 288.506 127.567C288.829 128.259 289.286 128.879 289.85 129.394C290.413 129.909 291.073 130.308 291.791 130.568H291.791Z" fill="#57B894"/>
<path d="M292.067 129.528C293.409 130.014 294.882 129.99 296.207 129.46C297.532 128.93 298.615 127.931 299.251 126.654C299.887 125.376 300.03 123.909 299.653 122.533C299.277 121.156 298.407 119.967 297.21 119.19L296.529 121.485L296.045 118.608C296.04 118.606 296.035 118.604 296.03 118.602C295.313 118.342 294.551 118.225 293.788 118.259C293.026 118.292 292.277 118.476 291.586 118.799C290.894 119.122 290.273 119.579 289.757 120.142C289.242 120.705 288.843 121.365 288.583 122.082C288.322 122.8 288.206 123.562 288.24 124.325C288.274 125.087 288.459 125.836 288.782 126.527C289.106 127.218 289.562 127.839 290.126 128.354C290.69 128.869 291.349 129.268 292.067 129.528H292.067Z" stroke="#3F3D56" stroke-miterlimit="10"/>
<path d="M285.741 140.219C285.971 141.531 286.646 142.725 287.652 143.598C288.658 144.472 289.934 144.974 291.266 145.019C292.598 145.063 293.904 144.649 294.967 143.845C296.029 143.041 296.783 141.895 297.101 140.602C297.42 139.308 297.284 137.944 296.716 136.738C296.148 135.533 295.183 134.559 293.982 133.981C292.782 133.402 291.419 133.255 290.122 133.562C288.825 133.869 287.674 134.613 286.861 135.668L289.45 139.565L285.912 137.497C285.638 138.377 285.579 139.311 285.741 140.219Z" fill="#57B894"/>
<path d="M285.98 139.449C286.211 140.762 286.885 141.955 287.891 142.829C288.897 143.703 290.173 144.204 291.505 144.249C292.837 144.294 294.143 143.879 295.206 143.075C296.268 142.271 297.022 141.126 297.341 139.832C297.659 138.538 297.523 137.174 296.955 135.969C296.387 134.763 295.422 133.79 294.221 133.211C293.021 132.633 291.658 132.485 290.361 132.792C289.065 133.099 287.913 133.843 287.1 134.899L289.689 138.796L286.151 136.727C285.877 137.608 285.818 138.541 285.98 139.449V139.449Z" stroke="#3F3D56" stroke-miterlimit="10"/>
<path d="M2.51493 131.306C3.07067 131.508 3.66575 131.578 4.25325 131.511C4.84075 131.444 5.40462 131.241 5.90042 130.919C6.39621 130.597 6.81038 130.164 7.11026 129.654C7.41015 129.144 7.58757 128.572 7.62853 127.982C7.6695 127.392 7.57288 126.801 7.34631 126.255C7.11973 125.708 6.76939 125.222 6.3229 124.835C5.87641 124.447 5.34596 124.168 4.77338 124.02C4.2008 123.873 3.60174 123.86 3.0234 123.983L3.11897 125.949L2.18918 124.264C1.27664 124.693 0.571668 125.467 0.229179 126.415C0.107547 126.747 0.0336039 127.095 0.00955534 127.448C-0.0491336 128.276 0.163696 129.1 0.615792 129.797C1.06789 130.493 1.73461 131.023 2.51493 131.306Z" fill="#57B894"/>
<path d="M7.11578 154.1C6.78756 152.429 8.2098 150.947 9.61463 149.984C11.0195 149.021 12.6609 148.075 13.1403 146.44C13.8292 144.091 11.7772 141.94 10.1801 140.085C8.99516 138.708 7.9776 137.196 7.14869 135.58C6.78832 134.945 6.54286 134.251 6.42363 133.531C6.29769 132.49 6.63221 131.454 6.96921 130.461C8.09188 127.152 9.29221 123.871 10.5702 120.618" stroke="#3F3D56" stroke-miterlimit="10"/>
<path d="M2.67216 130.8C3.2279 131.002 3.82298 131.072 4.41048 131.005C4.99798 130.938 5.56185 130.735 6.05764 130.413C6.55343 130.091 6.9676 129.658 7.26748 129.148C7.56737 128.638 7.74479 128.066 7.78575 127.476C7.82671 126.886 7.7301 126.295 7.50353 125.749C7.27695 125.203 6.92661 124.716 6.48012 124.329C6.03363 123.941 5.50319 123.662 4.93061 123.515C4.35803 123.367 3.75896 123.354 3.18063 123.477L3.2762 125.443L2.34641 123.758C1.43387 124.187 0.728894 124.961 0.386406 125.909C0.264775 126.241 0.190833 126.589 0.166783 126.942C0.10809 127.77 0.320919 128.595 0.773016 129.291C1.22511 129.987 1.89184 130.517 2.67216 130.8V130.8Z" stroke="#3F3D56" stroke-miterlimit="10"/>
<path d="M6.64887 119.939C6.86697 119.337 7.23302 118.8 7.71329 118.377C8.19356 117.954 8.7726 117.658 9.39706 117.518L9.71143 119.386L10.2943 117.424C11.1035 117.436 11.888 117.705 12.5345 118.192C13.181 118.679 13.656 119.358 13.891 120.133C14.126 120.907 14.1087 121.736 13.8417 122.5C13.5748 123.265 13.0719 123.924 12.4057 124.384C11.7396 124.843 10.9446 125.079 10.1355 125.058C9.32646 125.036 8.54522 124.758 7.90459 124.263C7.26396 123.768 6.79709 123.083 6.57139 122.306C6.34568 121.529 6.37281 120.7 6.64887 119.939Z" fill="#57B894"/>
<path d="M6.85884 119.264C7.07693 118.662 7.44298 118.125 7.92325 117.702C8.40352 117.279 8.98256 116.983 9.60702 116.843L9.92139 118.711L10.5042 116.749C11.3135 116.761 12.098 117.03 12.7445 117.517C13.391 118.004 13.866 118.684 14.1009 119.458C14.3359 120.232 14.3187 121.062 14.0517 121.826C13.7847 122.59 13.2819 123.249 12.6157 123.709C11.9495 124.168 11.1545 124.404 10.3455 124.383C9.53642 124.361 8.75518 124.083 8.11455 123.588C7.47392 123.094 7.00705 122.408 6.78135 121.631C6.55564 120.854 6.58277 120.025 6.85884 119.264V119.264Z" stroke="#3F3D56" stroke-miterlimit="10"/>
<path d="M9.50998 140.123C10.3913 140.443 11.3595 140.427 12.23 140.079C13.1004 139.73 13.8123 139.074 14.2299 138.234C14.6475 137.395 14.7417 136.431 14.4944 135.527C14.2471 134.623 13.6757 133.841 12.8891 133.331L12.4412 134.839L12.1237 132.948C12.1205 132.947 12.1173 132.946 12.1139 132.945C11.6425 132.773 11.1419 132.696 10.6408 132.719C10.1396 132.741 9.64776 132.861 9.19327 133.074C8.73879 133.286 8.33059 133.586 7.99202 133.956C7.65345 134.326 7.39113 134.759 7.22007 135.231C7.049 135.702 6.97254 136.203 6.99506 136.704C7.01757 137.205 7.13862 137.697 7.35128 138.151C7.56394 138.606 7.86405 139.014 8.23445 139.352C8.60485 139.69 9.03828 139.952 9.50998 140.123Z" fill="#57B894"/>
<path d="M9.69176 139.439C10.5731 139.759 11.5413 139.743 12.4118 139.395C13.2822 139.047 13.9941 138.39 14.4117 137.551C14.8293 136.711 14.9235 135.748 14.6762 134.843C14.4289 133.939 13.8575 133.157 13.0709 132.647L12.623 134.155L12.3054 132.265C12.3023 132.263 12.2991 132.262 12.2957 132.261C11.8244 132.09 11.324 132.014 10.8231 132.036C10.3222 132.058 9.83068 132.179 9.3765 132.392C8.45925 132.821 7.74995 133.596 7.40464 134.548C7.05933 135.5 7.1063 136.55 7.53522 137.467C7.96414 138.385 8.73987 139.094 9.69176 139.439V139.439Z" stroke="#3F3D56" stroke-miterlimit="10"/>
<path d="M5.53424 146.463C5.68578 147.325 6.12921 148.109 6.79015 148.683C7.4511 149.258 8.28936 149.587 9.16437 149.617C10.0394 149.646 10.8979 149.374 11.596 148.845C12.294 148.317 12.7892 147.565 12.9984 146.714C13.2076 145.864 13.1181 144.968 12.745 144.176C12.3719 143.384 11.7377 142.744 10.949 142.364C10.1602 141.984 9.26482 141.887 8.41291 142.089C7.561 142.291 6.8044 142.78 6.27001 143.473L7.97115 146.034L5.64675 144.675C5.46653 145.253 5.42794 145.867 5.53424 146.463Z" fill="#57B894"/>
<path d="M5.69245 145.957C5.84399 146.819 6.28741 147.603 6.94835 148.178C7.6093 148.752 8.44756 149.081 9.32257 149.111C10.1976 149.14 11.0561 148.868 11.7542 148.339C12.4522 147.811 12.9474 147.059 13.1566 146.209C13.3658 145.358 13.2763 144.462 12.9032 143.67C12.5301 142.878 11.8959 142.239 11.1072 141.859C10.3184 141.479 9.42302 141.381 8.57111 141.583C7.7192 141.785 6.9626 142.274 6.42821 142.967L8.12935 145.528L5.80495 144.169C5.62473 144.747 5.58614 145.361 5.69245 145.957V145.957Z" stroke="#3F3D56" stroke-miterlimit="10"/>
<path d="M134.294 95.2489C136.915 95.2489 139.041 92.4986 139.041 89.1059C139.041 85.7132 136.915 82.9629 134.294 82.9629C131.672 82.9629 129.547 85.7132 129.547 89.1059C129.547 92.4986 131.672 95.2489 134.294 95.2489Z" fill="#2F2E41"/>
<path d="M160.122 95.3886C162.743 95.3886 164.869 92.6382 164.869 89.2455C164.869 85.8529 162.743 83.1025 160.122 83.1025C157.5 83.1025 155.375 85.8529 155.375 89.2455C155.375 92.6382 157.5 95.3886 160.122 95.3886Z" fill="#2F2E41"/>
<path d="M156.492 107.395C156.492 110.171 152.616 112.421 147.836 112.421C143.055 112.421 139.18 110.171 139.18 107.395C139.18 104.991 142.086 102.981 145.97 102.489C146.589 102.408 147.212 102.368 147.836 102.369C148.881 102.366 149.923 102.478 150.944 102.704C154.188 103.427 156.492 105.256 156.492 107.395Z" fill="#2F2E41"/>
<path d="M135.41 93.8524C138.032 93.8524 140.157 91.1021 140.157 87.7094C140.157 84.3167 138.032 81.5664 135.41 81.5664C132.788 81.5664 130.663 84.3167 130.663 87.7094C130.663 91.1021 132.788 93.8524 135.41 93.8524Z" stroke="#3F3D56" stroke-miterlimit="10"/>
<path d="M161.239 93.9921C163.861 93.9921 165.986 91.2418 165.986 87.8491C165.986 84.4564 163.861 81.7061 161.239 81.7061C158.617 81.7061 156.492 84.4564 156.492 87.8491C156.492 91.2418 158.617 93.9921 161.239 93.9921Z" stroke="#3F3D56" stroke-miterlimit="10"/>
<path d="M148.953 111.025C153.734 111.025 157.609 108.775 157.609 105.999C157.609 103.223 153.734 100.973 148.953 100.973C144.172 100.973 140.297 103.223 140.297 105.999C140.297 108.775 144.172 111.025 148.953 111.025Z" stroke="#3F3D56" stroke-miterlimit="10"/>
<path d="M151.047 103.123C151.049 103.474 150.918 103.813 150.679 104.07C150.566 104.193 150.429 104.292 150.276 104.36C150.123 104.427 149.958 104.463 149.791 104.463H146.998C146.654 104.451 146.329 104.304 146.093 104.053C145.858 103.801 145.732 103.467 145.742 103.123C145.74 102.851 145.82 102.584 145.971 102.358C146.589 102.271 147.212 102.228 147.836 102.23C148.882 102.226 149.926 102.346 150.944 102.587C151.013 102.757 151.048 102.939 151.047 103.123Z" fill="white"/>
<path d="M135.41 87.43C136.181 87.43 136.806 86.8049 136.806 86.0338C136.806 85.2628 136.181 84.6377 135.41 84.6377C134.639 84.6377 134.014 85.2628 134.014 86.0338C134.014 86.8049 134.639 87.43 135.41 87.43Z" fill="white"/>
<path d="M161.379 87.43C162.15 87.43 162.775 86.8049 162.775 86.0338C162.775 85.2628 162.15 84.6377 161.379 84.6377C160.607 84.6377 159.982 85.2628 159.982 86.0338C159.982 86.8049 160.607 87.43 161.379 87.43Z" fill="white"/>
<path opacity="0.3" d="M162.774 100.554C163.545 100.554 164.17 99.9289 164.17 99.1578C164.17 98.3868 163.545 97.7617 162.774 97.7617C162.003 97.7617 161.378 98.3868 161.378 99.1578C161.378 99.9289 162.003 100.554 162.774 100.554Z" fill="#6C63FF"/>
<path opacity="0.3" d="M128.709 100.554C129.48 100.554 130.105 99.9289 130.105 99.1578C130.105 98.3868 129.48 97.7617 128.709 97.7617C127.938 97.7617 127.312 98.3868 127.312 99.1578C127.312 99.9289 127.938 100.554 128.709 100.554Z" fill="#6C63FF"/>
</g>
<defs>
<clipPath id="clip0">
<rect width="300" height="163.133" fill="white"/>
</clipPath>
</defs>
</svg>
