<svg width="376" height="270" viewBox="0 0 376 270" fill="none" xmlns="http://www.w3.org/2000/svg">
<path d="M315.395 20.0615L309.719 23.6603L313.164 17.398C312.188 16.6205 310.981 16.1898 309.733 16.1741H309.642C309.247 16.1812 308.853 16.1531 308.464 16.09L306.54 17.3067L307.363 15.8087C305.999 15.3322 304.822 14.437 303.998 13.2512L300.556 15.4434L302.743 11.4865C300.732 9.07515 298.018 7.5918 295.03 7.5918C291.449 7.5918 288.259 9.72184 286.2 13.0356C285.591 14.0307 284.728 14.846 283.7 15.3982C282.672 15.9503 281.515 16.2193 280.348 16.1777H280.158C276.204 16.1777 273 20.657 273 26.1776C273 31.6982 276.204 36.1775 280.158 36.1775C281.026 36.1742 281.881 35.9611 282.649 35.5563C285.227 34.2155 288.614 34.1899 291.314 35.3846C292.473 35.9013 293.728 36.1683 294.997 36.1683C296.266 36.1683 297.521 35.9013 298.68 35.3846C300.039 34.7962 301.509 34.5064 302.99 34.5347C304.471 34.5631 305.929 34.909 307.264 35.549C308.027 35.9465 308.873 36.1557 309.733 36.1592C313.687 36.1592 316.891 31.6835 316.891 26.1593C316.911 24.0337 316.397 21.9371 315.395 20.0615Z" fill="#F2F2F2"/>
<path opacity="0.03" d="M304.697 34.6952C302.631 34.3038 300.495 34.5366 298.563 35.3638C297.404 35.8804 296.15 36.1474 294.882 36.1474C293.613 36.1474 292.359 35.8804 291.2 35.3638C289.83 34.7634 288.345 34.4675 286.849 34.4966C285.353 34.5256 283.881 34.8788 282.535 35.5319C281.768 35.9394 280.913 36.1539 280.045 36.1567C276.53 36.1567 273.611 32.6236 273 27.9617C273.702 27.4497 274.298 26.8071 274.756 26.0691C276.815 22.7553 280.004 20.6289 283.585 20.6289C287.166 20.6289 290.319 22.7297 292.363 26.0106C292.978 27.0006 293.838 27.8153 294.86 28.376C295.882 28.9367 297.031 29.2244 298.197 29.2112H298.289C301.098 29.1929 303.519 31.4326 304.697 34.6952Z" fill="black"/>
<path d="M103.191 175.836L100.891 174.408C100.671 174.273 100.456 174.127 100.236 173.988C105.132 173.146 109.597 170.666 112.896 166.956C116.194 163.245 118.132 158.523 118.389 153.567C118.646 148.611 117.209 143.715 114.312 139.683C111.415 135.651 107.232 132.723 102.449 131.38L102.562 140.389L97.6063 130.587H97.5442C91.7446 130.318 86.0755 132.361 81.7833 136.266C77.4911 140.171 74.9271 145.619 74.655 151.412C74.633 151.832 74.655 152.242 74.655 152.654C72.9323 150.689 71.3632 148.581 70.3281 146.272C68.2323 141.599 68.192 136.305 68.3566 129.867C68.6858 117.116 69.2381 104.263 69.955 91.4532C75.1303 90.8777 79.9307 88.4781 83.4944 84.6853C87.058 80.8926 89.1514 75.9551 89.3987 70.7593C89.428 70.0907 89.417 69.4331 89.3987 68.7754C89.3987 68.611 89.3987 68.4502 89.3731 68.2858C89.3292 67.6501 89.2707 67.0217 89.172 66.4006C89.172 66.2983 89.1354 66.1996 89.1171 66.101C89.0293 65.5749 88.9196 65.0561 88.7952 64.5446C88.7477 64.3509 88.7001 64.1609 88.6489 63.9709C88.4953 63.412 88.3271 62.8749 88.1295 62.3195C88.0637 62.1405 87.9869 61.9542 87.9174 61.7861C87.7638 61.3879 87.5955 60.9933 87.4163 60.606C87.3212 60.4014 87.2298 60.1968 87.131 59.9959C87.1018 59.9447 87.0835 59.8899 87.0542 59.8387C84.7424 55.2807 80.9054 51.6754 76.2096 49.6491C71.5137 47.6228 66.2557 47.3034 61.3487 48.7465L61.495 60.4745L56.5938 50.7852C52.5638 53.0872 49.3752 56.6148 47.4929 60.8538C45.6106 65.0928 45.1329 69.8216 46.1295 74.3508H46.1075C46.1404 74.5079 46.188 74.6577 46.2246 74.8111C46.2941 75.0998 46.3672 75.3847 46.4477 75.6697C46.5501 76.0351 46.6671 76.4004 46.7878 76.7658C46.8793 77.0362 46.967 77.3029 47.0695 77.5696C47.2194 77.9569 47.3877 78.3332 47.5559 78.7095C47.6547 78.9287 47.7425 79.1552 47.8485 79.3708C48.1265 79.9359 48.4289 80.4876 48.7556 81.0259C48.869 81.2159 48.997 81.3912 49.1214 81.5776C49.3555 81.9429 49.5895 82.3083 49.8529 82.6481C50.0102 82.8636 50.1784 83.0719 50.343 83.2802C50.5844 83.5834 50.8295 83.883 51.0745 84.1716C51.2537 84.3799 51.4403 84.5808 51.6268 84.7781C51.8975 85.0631 52.1718 85.3371 52.4571 85.6038C52.6473 85.7829 52.8228 85.9692 53.0313 86.1373C53.3532 86.4259 53.6897 86.6962 54.0299 86.963C54.2018 87.0981 54.37 87.237 54.5456 87.3685C55.0649 87.7339 55.599 88.0992 56.1513 88.4646C56.2537 88.5267 56.3671 88.5778 56.4695 88.64C56.934 88.9103 57.4021 89.1697 57.8849 89.4036C58.0934 89.5059 58.3056 89.5972 58.5177 89.6922C58.9127 89.8676 59.3114 90.0393 59.7211 90.1964L60.4526 90.4521C60.8549 90.5873 61.2646 90.7152 61.6779 90.8175C61.9193 90.8833 62.1643 90.9527 62.4094 91.0111C62.8556 91.1171 63.3128 91.2048 63.7737 91.2852L63.8615 91.3034C63.5615 96.7083 63.2933 102.114 63.0568 107.522C61.7523 104.844 59.9138 102.461 57.6542 100.518C55.3945 98.5758 52.7614 97.1149 49.9162 96.2254C47.0711 95.3359 44.0741 95.0365 41.109 95.3455C38.1439 95.6545 35.2732 96.5654 32.6732 98.0224L36.5429 108.618L28.5804 100.982C24.3116 104.881 21.7672 110.314 21.5066 116.086C21.405 118.11 21.5922 120.139 22.0625 122.11C23.0662 126.374 25.3284 130.237 28.5561 133.201C31.7837 136.165 35.8281 138.092 40.1651 138.733C44.5021 139.374 48.9319 138.699 52.8804 136.796C56.8289 134.893 60.1142 131.849 62.3106 128.058C62.3106 128.607 62.2741 129.155 62.2594 129.706C62.1131 135.384 61.9302 142.45 64.7649 148.76C66.6851 153.034 69.7721 156.509 72.8116 159.622C74.7976 161.646 76.8569 163.608 78.9673 165.504C81.0451 168.29 83.7553 170.544 86.875 172.081C90.3424 174.748 93.9341 177.258 97.6466 179.574L99.9655 181.014C102.05 182.303 104.186 183.63 106.278 185.007C105.913 184.97 105.547 184.93 105.181 184.912C100.539 184.696 95.9491 185.96 92.0739 188.521C88.1986 191.083 85.2392 194.809 83.6234 199.161L97.3101 210.264L82.2628 206.779C82.2668 210.477 83.2093 214.114 85.002 217.35C86.7948 220.586 89.3794 223.315 92.5144 225.283C95.6494 227.25 99.2325 228.392 102.929 228.601C106.626 228.81 110.315 228.08 113.652 226.479L112.654 227.739C111.981 228.575 111.316 229.405 110.66 230.231C101.758 241.495 99.2815 252.185 103.689 260.337L109.051 257.447C104.742 249.511 111.191 239.354 115.422 234.012C116.066 233.201 116.72 232.385 117.383 231.565C123.07 224.506 129.515 216.504 129.358 206.691C129.113 191.89 114.742 182.99 103.191 175.836Z" fill="#F2F2F2"/>
<path d="M321.378 68.7641V196.852C321.378 197.197 321.309 197.54 321.177 197.86C321.044 198.179 320.85 198.47 320.605 198.714C320.36 198.959 320.07 199.153 319.75 199.285C319.43 199.418 319.087 199.486 318.741 199.486H57.373C57.0268 199.486 56.6841 199.418 56.3643 199.285C56.0446 199.153 55.7541 198.959 55.5095 198.714C55.2649 198.469 55.071 198.179 54.9389 197.859C54.8068 197.54 54.739 197.197 54.7395 196.852V68.7641C54.739 68.4184 54.8068 68.0759 54.9389 67.7563C55.071 67.4367 55.2649 67.1463 55.5095 66.9017C55.7541 66.657 56.0446 66.4629 56.3643 66.3305C56.6841 66.198 57.0268 66.1299 57.373 66.1299H318.741C319.44 66.1299 320.111 66.4074 320.605 66.9014C321.1 67.3954 321.378 68.0655 321.378 68.7641Z" fill="#3F3D56"/>
<path d="M321.378 67.8873V73.8024H54.7395V67.8873C54.7395 67.4212 54.9249 66.9742 55.2548 66.6446C55.5847 66.315 56.0322 66.1299 56.4988 66.1299H319.618C320.085 66.1299 320.532 66.315 320.862 66.6446C321.192 66.9742 321.378 67.4212 321.378 67.8873Z" fill="#CBCEDA"/>
<path d="M60.5916 71.6106C61.6016 71.6106 62.4204 70.7927 62.4204 69.7838C62.4204 68.7749 61.6016 67.957 60.5916 67.957C59.5816 67.957 58.7628 68.7749 58.7628 69.7838C58.7628 70.7927 59.5816 71.6106 60.5916 71.6106Z" fill="#6C63FF"/>
<path d="M65.7122 71.6106C66.7222 71.6106 67.541 70.7927 67.541 69.7838C67.541 68.7749 66.7222 67.957 65.7122 67.957C64.7022 67.957 63.8834 68.7749 63.8834 69.7838C63.8834 70.7927 64.7022 71.6106 65.7122 71.6106Z" fill="#6C63FF"/>
<path d="M70.8328 71.6106C71.8428 71.6106 72.6616 70.7927 72.6616 69.7838C72.6616 68.7749 71.8428 67.957 70.8328 67.957C69.8228 67.957 69.004 68.7749 69.004 69.7838C69.004 70.7927 69.8228 71.6106 70.8328 71.6106Z" fill="#6C63FF"/>
<path opacity="0.2" d="M278.518 159.651V181.638L97.3942 181.736L97.2296 137.784C99.1425 143.414 103.864 144.426 112.178 134.496C132.496 110.258 160.115 103.879 181.493 103.21C196.123 102.75 210.721 105.767 224.653 111.763C230.439 114.258 253.306 116.944 268.397 118.142C271.136 118.358 273.694 119.595 275.561 121.609C277.428 123.622 278.468 126.263 278.474 129.008L278.518 159.651Z" fill="#6C63FF"/>
<path opacity="0.2" d="M278.518 138.149V181.846H97.2296V172.347C102.412 171.042 121.798 166.026 131.092 152.172C142.211 135.584 157.324 131.222 169.017 130.765C177.031 130.447 185.008 132.504 192.623 136.611C201.189 141.229 217.703 146.801 230.249 130.626C244.126 112.742 265.442 127.481 270.848 132.899C272.779 134.814 278.518 138.149 278.518 138.149Z" fill="#6C63FF"/>
<path d="M97.2296 91.8076V181.16H278.518" stroke="#6C63FF" stroke-width="2" stroke-miterlimit="10"/>
<path d="M120.071 181.16V126.688" stroke="#6C63FF" stroke-miterlimit="10"/>
<path d="M142.075 181.159V112.117" stroke="#6C63FF" stroke-miterlimit="10"/>
<path d="M164.079 181.159V105.187" stroke="#6C63FF" stroke-miterlimit="10"/>
<path d="M186.083 181.159V103.038" stroke="#6C63FF" stroke-miterlimit="10"/>
<path d="M208.088 181.159V105.428" stroke="#6C63FF" stroke-miterlimit="10"/>
<path d="M230.092 181.159V114.266" stroke="#6C63FF" stroke-miterlimit="10"/>
<path d="M252.096 181.159V118.804" stroke="#6C63FF" stroke-miterlimit="10"/>
<path d="M119.951 130.035C122.197 130.035 124.018 128.216 124.018 125.972C124.018 123.728 122.197 121.909 119.951 121.909C117.704 121.909 115.883 123.728 115.883 125.972C115.883 128.216 117.704 130.035 119.951 130.035Z" fill="#6C63FF"/>
<path d="M141.955 116.18C144.201 116.18 146.022 114.361 146.022 112.117C146.022 109.874 144.201 108.055 141.955 108.055C139.708 108.055 137.887 109.874 137.887 112.117C137.887 114.361 139.708 116.18 141.955 116.18Z" fill="#6C63FF"/>
<path d="M163.959 109.491C166.205 109.491 168.026 107.672 168.026 105.428C168.026 103.184 166.205 101.365 163.959 101.365C161.712 101.365 159.891 103.184 159.891 105.428C159.891 107.672 161.712 109.491 163.959 109.491Z" fill="#6C63FF"/>
<path d="M185.959 107.101C188.205 107.101 190.026 105.282 190.026 103.038C190.026 100.795 188.205 98.9756 185.959 98.9756C183.713 98.9756 181.892 100.795 181.892 103.038C181.892 105.282 183.713 107.101 185.959 107.101Z" fill="#6C63FF"/>
<path d="M207.963 109.491C210.209 109.491 212.03 107.672 212.03 105.428C212.03 103.184 210.209 101.365 207.963 101.365C205.717 101.365 203.896 103.184 203.896 105.428C203.896 107.672 205.717 109.491 207.963 109.491Z" fill="#6C63FF"/>
<path d="M229.967 118.566C232.213 118.566 234.034 116.747 234.034 114.503C234.034 112.259 232.213 110.44 229.967 110.44C227.721 110.44 225.9 112.259 225.9 114.503C225.9 116.747 227.721 118.566 229.967 118.566Z" fill="#6C63FF"/>
<path d="M251.971 123.345C254.217 123.345 256.038 121.526 256.038 119.283C256.038 117.039 254.217 115.22 251.971 115.22C249.725 115.22 247.904 117.039 247.904 119.283C247.904 121.526 249.725 123.345 251.971 123.345Z" fill="#6C63FF"/>
<path d="M188 270C291.83 270 376 266.565 376 262.328C376 258.09 291.83 254.655 188 254.655C84.1705 254.655 0 258.09 0 262.328C0 266.565 84.1705 270 188 270Z" fill="#3F3D56"/>
<path d="M21.0457 128.869C21.031 129.186 20.9285 129.492 20.7494 129.753C22.2125 129.71 23.5109 128.749 24.8606 128.292C24.6192 129.71 24.8606 131.39 25.0435 132.596C25.2198 133.765 25.5114 134.915 25.914 136.027C26.8393 139.998 28.5255 143.904 30.0361 147.718C30.6873 149.23 31.1776 150.806 31.4991 152.42C32.5269 158.577 28.9717 164.532 28.2987 170.732C28.2474 171.074 28.2474 171.421 28.2987 171.762C28.2382 171.826 28.1843 171.896 28.1378 171.971C25.6543 175.778 25.9761 182.15 26.4224 186.658C26.8686 191.167 28.2987 195.514 29.6484 199.844C30.0505 201.037 30.3646 202.258 30.5884 203.497C30.8028 205.194 30.8371 206.909 30.6908 208.612C30.2445 216.544 29.1253 224.546 30.4457 232.361C31.4077 238.057 33.5071 243.237 33.7375 249.007C33.9117 248.581 34.188 248.204 34.5422 247.91L34.9372 263.062C34.9191 263.203 34.9355 263.347 34.9852 263.481C35.0349 263.614 35.1163 263.734 35.2225 263.829C35.5042 264.008 35.8699 263.829 36.2028 263.782C37.1684 263.665 37.7865 264.713 38.4266 265.44C39.3885 266.536 40.8698 267.055 42.3219 267.168C43.7837 267.223 45.2464 267.091 46.6744 266.774C47.3438 266.653 48.0533 266.514 48.5544 266.043C48.8108 265.782 49.002 265.465 49.1125 265.116C49.2231 264.768 49.2499 264.398 49.1908 264.037C48.9056 261.805 46.4989 260.534 45.2882 258.63C43.8581 256.379 44.1909 253.365 42.7937 251.089C42.3146 250.311 41.6526 249.653 41.2246 248.846C41.0088 248.348 40.8386 247.832 40.7162 247.304C41.1505 247.435 41.5624 247.631 41.9379 247.885C41.8062 246.701 41.6709 245.514 41.5392 244.326L41.4807 243.815C41.3014 242.211 41.1149 240.611 40.9832 239.003C40.5333 233.713 42.0366 228.528 40.9832 223.322C40.7638 222.226 41.1149 221.082 41.4404 220.004C43.2898 213.864 44.4178 207.53 44.8017 201.13C44.9334 198.872 44.9298 196.694 45.654 194.553C46.5025 198.006 49.125 200.728 50.7746 203.896C51.7914 205.869 52.4242 208.024 53.5324 209.946C54.0664 210.881 54.7175 211.773 55.0576 212.788C55.5843 214.378 55.3063 216.102 55.0576 217.761C53.8689 226.347 54.0079 235.086 54.3883 243.745C54.027 247.059 53.2643 250.316 52.1169 253.446C51.6634 254.681 51.1696 256.12 51.8719 257.234C52.1681 257.643 52.5407 257.99 52.9691 258.257C54.0087 258.996 55.1017 259.657 56.239 260.234C56.5769 260.456 56.983 260.549 57.3838 260.497C57.6325 260.411 57.8667 260.288 58.0788 260.132C58.9676 259.598 60.1161 259.682 61.0963 260.026C62.0765 260.369 62.9617 260.943 63.9126 261.356C65.9063 262.212 68.1313 262.369 70.2256 261.801C71.1108 261.557 72.0544 261.089 72.3287 260.223C72.6031 259.357 72.0983 258.444 71.3997 257.874C70.7011 257.304 69.8379 256.997 69.0369 256.58C67.2814 255.666 65.8481 254.237 64.9294 252.485C64.3775 251.329 63.9437 250.121 63.6347 248.879C63.2104 247.388 62.7873 245.897 62.3655 244.407C62.6064 244.565 62.8361 244.739 63.0531 244.929C63.6493 237.549 64.2528 230.147 65.8365 222.913C66.5937 219.453 67.5812 215.949 67.1972 212.43C66.996 210.582 66.4181 208.795 65.8694 207.016C64.1626 201.465 62.6678 195.855 61.3852 190.187C61.8634 189.653 62.2357 189.033 62.4825 188.361C62.8941 187.109 63.1196 185.805 63.1519 184.488C63.7654 175.607 63.7409 166.694 63.0787 157.817C62.9105 155.566 62.6471 153.202 61.762 151.156H62.2814C61.6632 151.156 60.6537 145.025 60.533 144.342C60.1197 141.975 59.8308 139.593 59.4028 137.229C59.1944 136.078 58.9603 134.927 58.6713 133.794C58.4738 133.042 57.6838 128.369 57.0547 127.846C56.987 127.79 56.9103 127.746 56.8279 127.715C56.5123 126.665 55.821 125.767 54.8857 125.194C53.8726 124.624 52.6656 124.606 51.4842 124.697C51.1501 124.21 50.816 123.729 50.482 123.254C49.8682 122.467 49.3988 121.577 49.0957 120.627C49.0011 120.229 48.9448 119.823 48.9275 119.414C48.9275 119.14 48.9092 118.866 48.8982 118.592C48.8982 118.453 48.8982 118.318 48.8982 118.179C48.8855 117.906 48.8562 117.634 48.8105 117.364C48.7739 117.141 48.719 116.926 48.6605 116.707C48.6349 116.615 48.602 116.52 48.5727 116.429C48.4045 115.877 48.207 115.333 48.0607 114.777C47.6108 112.984 47.8375 111.102 47.907 109.253C47.9765 107.404 47.8558 105.446 46.8098 103.904C46.0453 102.772 44.82 101.913 44.4104 100.616C44.2165 99.9987 44.2275 99.3191 43.9422 98.7345C43.5717 98.0847 42.9798 97.5894 42.2744 97.3389C41.4477 96.9735 39.7872 96.4912 38.8984 96.9187C38.7318 97.0013 38.5847 97.1184 38.4668 97.2621C37.5268 97.3096 36.5795 97.4375 35.7529 97.0246C35.1165 96.7068 34.6556 96.1039 34.0375 95.7569C32.5744 94.9385 30.7091 95.7569 29.407 96.8237C27.3371 98.5174 25.8245 100.793 25.0654 103.356C24.4875 105.333 24.2534 107.642 22.5965 108.888C21.9089 109.403 21.0238 109.688 20.5227 110.379C20.1817 110.941 19.9927 111.581 19.974 112.238C19.8021 113.736 19.6595 115.278 20.0582 116.732C20.3581 117.828 20.947 118.807 21.3127 119.874C21.8003 121.384 21.8434 123.001 21.4368 124.534C21.0302 126.068 20.1911 127.452 19.0194 128.522C19.6238 128.897 20.3508 129.022 21.0457 128.869ZM56.2171 173.198C56.715 172.929 57.1489 172.556 57.4891 172.103C57.8293 171.651 58.0679 171.131 58.1885 170.579C58.2287 170.721 58.2617 170.864 58.2982 171.006C58.7675 172.914 58.6722 174.917 58.0239 176.771C57.5384 175.525 56.9333 174.328 56.2171 173.198ZM56.9486 165.109C56.3393 164.237 55.8244 163.302 55.4124 162.322C54.8491 160.743 54.9771 159.033 55.1125 157.345C55.1848 156.071 55.3609 154.806 55.6392 153.56C55.8008 157.437 56.242 161.296 56.9596 165.109H56.9486Z" fill="url(#paint0_linear)"/>
<path d="M42.7937 98.3037C43.4883 98.5544 44.0698 99.0457 44.4323 99.6884C44.7103 100.269 44.703 100.945 44.8932 101.559C45.2955 102.852 46.5025 103.707 47.2487 104.847C48.2655 106.378 48.3862 108.329 48.3167 110.163C48.2472 111.997 48.0277 113.872 48.4703 115.644C48.6861 116.51 49.0592 117.339 49.2018 118.219C49.3847 119.294 49.2311 120.412 49.4981 121.467C49.795 122.411 50.2569 123.294 50.8624 124.076L53.2435 127.554C52.1802 127.299 51.1334 126.979 50.1089 126.597C50.4253 127.591 51.013 128.477 51.806 129.155L50.0833 127.072C49.7342 126.593 49.3003 126.182 48.8031 125.859C48.1704 125.494 47.4242 125.443 46.7147 125.3C45.3467 125.022 43.9824 124.325 43.3131 123.108C42.4243 121.471 42.9912 119.418 42.4975 117.628C42.1317 116.32 41.2319 115.242 40.6101 114.032C39.2056 111.303 39.2898 108.081 38.8508 105.037C38.6643 103.748 38.3754 102.48 38.368 101.157C38.368 100.196 38.4631 98.3622 39.4653 97.8689C40.3468 97.4597 41.9781 97.9566 42.7937 98.3037Z" fill="#3F3D56"/>
<path d="M61.9668 242.492L63.7956 248.985C64.0983 250.219 64.5247 251.42 65.0685 252.569C65.9606 254.306 67.365 255.728 69.0918 256.643C69.8782 257.056 70.7304 257.374 71.4144 257.929C72.0984 258.484 72.5885 259.416 72.3251 260.264C72.0618 261.111 71.1291 261.59 70.2586 261.835C68.1954 262.398 66.0012 262.239 64.0407 261.385C63.108 260.972 62.2375 260.402 61.2756 260.063C60.3136 259.723 59.1798 259.635 58.3093 260.169C58.1008 260.324 57.8703 260.447 57.6253 260.534C57.2307 260.588 56.83 260.495 56.4988 260.274C55.3793 259.701 54.3046 259.044 53.2837 258.309C52.8674 258.042 52.5071 257.697 52.223 257.293C51.5281 256.197 52.0182 254.736 52.4608 253.526C53.6366 250.286 54.4021 246.912 54.7395 243.483C54.733 243.331 54.7594 243.18 54.8169 243.039C54.8743 242.898 54.9614 242.772 55.0723 242.668C55.2344 242.583 55.4161 242.543 55.599 242.551L63.4116 242.186" fill="#575A89"/>
<path d="M41.7404 248.992C42.161 249.792 42.8157 250.453 43.2839 251.224C44.6555 253.486 44.3299 256.482 45.7381 258.718C46.9268 260.61 49.2933 261.878 49.5749 264.096C49.6327 264.454 49.6063 264.82 49.4977 265.165C49.3892 265.511 49.2014 265.827 48.9495 266.087C48.4557 266.544 47.7571 266.679 47.0987 266.796C45.6967 267.113 44.2594 267.245 42.823 267.191C41.3929 267.077 39.9372 266.551 38.9935 265.47C38.3607 264.739 37.7572 263.705 36.799 263.826C36.4698 263.866 36.1113 264.048 35.8334 263.869C35.7298 263.774 35.6506 263.655 35.6022 263.523C35.5539 263.391 35.5378 263.249 35.5554 263.11L35.1238 246.497C36.5063 246.347 38.9021 245.799 40.2444 246.274C41.4002 246.679 41.2137 247.98 41.7404 248.992Z" fill="#575A89"/>
<path d="M55.3905 172.197C58.7628 176.387 59.7613 181.937 60.844 187.206C62.2387 194.001 63.9529 200.722 65.9865 207.366C66.5278 209.135 67.0838 210.91 67.2923 212.748C67.658 216.248 66.6998 219.73 65.9536 223.168C64.3991 230.362 63.8066 237.72 63.2214 245.057C62.0515 244.061 60.586 243.477 59.0511 243.396C57.5162 243.315 55.9972 243.74 54.7285 244.607C54.3335 235.762 54.1542 226.825 55.3539 218.049C55.5807 216.402 55.855 214.688 55.3539 213.11C55.0174 212.094 54.381 211.213 53.8506 210.285C52.7534 208.371 52.1389 206.23 51.1404 204.268C49.5347 201.119 46.9561 198.422 46.1222 194.981C45.4089 197.114 45.4126 199.277 45.2846 201.521C44.9131 207.888 43.8086 214.192 41.9928 220.307C41.6709 221.381 41.3271 222.499 41.5429 223.595C42.567 228.776 41.0893 233.928 41.5429 239.189C41.6745 240.786 41.8538 242.379 42.0293 243.972L42.0879 244.483L42.4829 248.02C41.0198 247.022 39.4727 247.165 37.7061 247.256C37.1099 247.256 36.5183 247.36 35.9577 247.563C35.6025 247.706 35.2798 247.919 35.0089 248.19C34.7381 248.461 34.5246 248.783 34.3813 249.138C34.1692 243.402 32.1026 238.25 31.159 232.591C29.8605 224.801 30.9578 216.844 31.4004 208.959C31.5439 207.261 31.5096 205.553 31.298 203.862C31.0776 202.624 30.7683 201.403 30.3726 200.209C29.0485 195.905 27.6404 191.583 27.2015 187.1C26.7626 182.617 26.448 176.285 28.8876 172.485C29.6411 171.316 31.4955 171.842 32.6659 171.082C33.5881 170.505 34.6025 170.09 35.6651 169.855C42.0622 168.372 48.8507 171.634 55.3905 172.197Z" fill="#3C354C"/>
<path d="M43.8435 120.192C43.9861 121.789 44.3226 123.671 45.7783 124.343C46.6049 124.708 47.5632 124.58 48.4557 124.727C50.1455 125.001 51.5354 126.298 52.3181 127.817C53.1008 129.337 53.3715 131.066 53.5544 132.764C53.7811 134.894 53.8543 137.204 52.6838 138.997C51.7402 140.459 50.1235 141.332 48.4264 141.782C46.7407 142.223 44.9784 142.288 43.2647 141.972C41.551 141.656 39.9279 140.968 38.5107 139.955C37.1562 138.899 35.9288 137.69 34.8531 136.352C32.4245 133.528 29.9775 130.433 29.4801 126.743C29.4216 126.323 29.4252 125.815 29.7691 125.567C30.0067 125.433 30.2811 125.379 30.5518 125.413L32.8817 125.454C33.4705 125.454 34.1362 125.454 34.5386 125.012C34.9409 124.569 34.9043 124.007 34.9043 123.466L34.747 116.711C34.7125 116.471 34.7686 116.228 34.9043 116.027C35.0514 115.893 35.2395 115.812 35.4383 115.797C36.7221 115.582 38.0645 115.797 39.319 115.45C40.5151 115.121 42.3914 113.751 43.2692 115.158C44.0007 116.367 43.7228 118.83 43.8435 120.192Z" fill="#FFC1C7"/>
<path opacity="0.1" d="M43.8435 120.192C43.9861 121.789 44.3226 123.671 45.7783 124.343C46.6049 124.708 47.5632 124.58 48.4557 124.727C50.1455 125.001 51.5354 126.298 52.3181 127.817C53.1008 129.337 53.3715 131.066 53.5544 132.764C53.7811 134.894 53.8543 137.204 52.6838 138.997C51.7402 140.459 50.1235 141.332 48.4264 141.782C46.7407 142.223 44.9784 142.288 43.2647 141.972C41.551 141.656 39.9279 140.968 38.5107 139.955C37.1562 138.899 35.9288 137.69 34.8531 136.352C32.4245 133.528 29.9775 130.433 29.4801 126.743C29.4216 126.323 29.4252 125.815 29.7691 125.567C30.0067 125.433 30.2811 125.379 30.5518 125.413L32.8817 125.454C33.4705 125.454 34.1362 125.454 34.5386 125.012C34.9409 124.569 34.9043 124.007 34.9043 123.466L34.747 116.711C34.7125 116.471 34.7686 116.228 34.9043 116.027C35.0514 115.893 35.2395 115.812 35.4383 115.797C36.7221 115.582 38.0645 115.797 39.319 115.45C40.5151 115.121 42.3914 113.751 43.2692 115.158C44.0007 116.367 43.7228 118.83 43.8435 120.192Z" fill="black"/>
<path d="M37.9803 119.75C42.8951 119.75 46.8792 115.77 46.8792 110.861C46.8792 105.951 42.8951 101.972 37.9803 101.972C33.0656 101.972 29.0814 105.951 29.0814 110.861C29.0814 115.77 33.0656 119.75 37.9803 119.75Z" fill="#FFC1C7"/>
<path d="M47.5486 135.588C48.9861 135.613 50.61 135.223 51.305 133.951C51.7805 133.089 51.7036 132.04 51.6122 131.061L51.0965 125.581C52.4937 125.435 53.997 125.31 55.2149 126.001C56.8352 126.918 57.4095 128.949 57.5997 130.798C57.9398 134.269 57.3875 137.773 57.5777 141.255C57.7387 144.177 58.4153 147.195 57.5521 149.998C57.1864 151.167 56.5792 152.245 56.1842 153.403C55.6904 154.864 55.5624 156.435 55.4527 157.981C55.3173 159.639 55.1893 161.357 55.7453 162.928C56.2098 164.243 57.1169 165.35 57.7643 166.581C58.825 168.62 59.0517 171.367 57.457 173.023C55.994 174.535 53.5873 174.597 51.5427 174.119C49.4981 173.64 47.5194 172.727 45.4345 172.639C41.7331 172.482 38.4339 174.882 34.8275 175.66C34.3441 175.79 33.8375 175.807 33.3462 175.712C32.9116 175.571 32.5071 175.35 32.1538 175.061L30.1714 173.636C29.7752 173.4 29.4455 173.067 29.2131 172.668C29.0471 172.225 29.0041 171.745 29.0888 171.28C29.7545 165.112 33.2475 159.194 32.238 153.074C31.9241 151.47 31.4436 149.902 30.8042 148.397C28.2914 141.974 25.2776 135.303 26.2541 128.474C26.4663 126.962 26.9125 125.416 27.9549 124.298C28.9973 123.18 30.7603 122.625 32.1099 123.341C33.4596 124.057 33.9387 125.65 34.5349 127.035C35.6838 129.727 37.5079 132.077 39.8311 133.86C40.8113 134.612 42.0001 135.573 43.2839 135.606C44.6225 135.654 46.0856 135.559 47.5486 135.588Z" fill="#FF6584"/>
<path d="M60.438 149.399C62.5959 151.792 63.0202 155.245 63.258 158.453C63.912 167.279 63.9353 176.141 63.3275 184.97C63.2965 186.28 63.076 187.578 62.6727 188.825C62.2119 190.049 61.3487 191.181 60.1344 191.671C59.3553 191.985 58.269 191.901 57.9179 191.138C57.596 190.44 58.0752 189.676 58.4373 188.982C59.269 187.422 59.5475 185.627 59.2273 183.889C58.7847 184.21 58.6275 184.791 58.4958 185.325L57.7899 188.291C56.8352 188.153 56.4768 186.987 56.3268 186.037C56.0489 184.313 55.7819 182.475 56.4731 180.871C56.8389 180.016 57.4607 179.289 57.8301 178.434C58.7628 176.286 59.1285 173.831 58.5287 171.565C56.5066 163.918 55.6242 156.014 55.9099 148.109C57.2951 148.893 58.8474 149.335 60.438 149.399Z" fill="#FFC1C7"/>
<path d="M62.4752 151.806C59.8192 151.833 57.1762 152.181 54.6041 152.844C54.2639 151.171 54.4285 149.439 54.6041 147.729L55.738 136.037C55.8221 135.172 55.6611 127.218 57.34 128.624C57.9581 129.143 58.7372 133.79 58.931 134.539C59.2236 135.665 59.4541 136.805 59.6625 137.952C60.0832 140.301 60.3685 142.672 60.7598 145.025C60.8732 145.723 61.8681 151.806 62.4752 151.806Z" fill="#FF6584"/>
<path d="M41.3746 99.5605C41.3855 99.2823 41.3224 99.0062 41.1917 98.7604C41.0759 98.6156 40.9312 98.4963 40.7669 98.4102C40.6026 98.324 40.4222 98.2728 40.2371 98.2598C38.9496 98.0589 37.5414 98.5777 36.382 97.9895C35.7529 97.6716 35.3067 97.0761 34.6958 96.729C33.2328 95.9142 31.404 96.729 30.1421 97.7922C28.104 99.4814 26.6187 101.741 25.8774 104.281C25.3068 106.247 25.0764 108.545 23.4488 109.783C22.7721 110.295 21.9016 110.58 21.4078 111.267C21.0756 111.82 20.8905 112.449 20.8702 113.093C20.7019 114.584 20.5593 116.119 20.9506 117.565C21.2469 118.661 21.8248 119.626 22.1869 120.686C22.6716 122.189 22.7161 123.8 22.3149 125.329C21.9138 126.857 21.0839 128.239 19.9229 129.312C20.5165 129.683 21.2324 129.806 21.9162 129.655C21.9009 129.969 21.8011 130.273 21.6273 130.536C23.7085 130.47 25.519 128.442 27.5562 128.884C29.1144 129.22 29.9812 130.824 31.1407 131.917C32.6366 133.32 34.9592 133.908 36.8355 133.075C38.7119 132.242 39.853 129.874 39.0557 127.982C38.1486 125.83 35.3506 124.978 34.3813 122.867C33.6315 121.223 34.1874 119.297 34.0155 117.496C33.8802 115.95 33.2109 114.507 32.7939 113.009C32.3769 111.511 32.2416 109.802 33.0902 108.501C33.9899 107.116 35.7127 106.579 37.2818 106.068C40.826 104.917 41.5063 103.134 41.3746 99.5605Z" fill="#3F3D56"/>
<path d="M39.1874 131.518C39.4397 130.276 39.6921 128.961 39.2422 127.77C38.412 125.577 35.6871 124.872 33.8034 123.451C32.7122 122.623 31.8737 121.507 31.3821 120.229C31.0419 119.33 30.9944 118.095 31.8356 117.635C32.163 117.481 32.5251 117.417 32.8854 117.448C35.8114 117.518 38.5144 119.111 40.7638 120.999C42.0732 122.096 43.3241 123.352 43.9678 124.931C44.3765 126.068 44.6227 127.258 44.6994 128.464L45.1712 132.442C45.4805 134.726 45.6637 137.026 45.7198 139.329C45.7213 140.648 45.6382 141.964 45.4711 143.272C45.3541 144.2 45.1785 145.161 44.6335 145.921C43.6204 147.338 41.6636 147.656 39.9189 147.704C39.2591 147.741 38.5973 147.699 37.9475 147.579C35.047 146.951 32.8451 142.892 35.0433 140.385C35.976 139.322 37.3732 139.289 37.9072 137.828C38.5948 135.888 38.7704 133.539 39.1874 131.518Z" fill="#FFC1C7"/>
<path d="M36.8282 132.216L39.1362 135.954C39.2734 136.146 39.3693 136.365 39.4178 136.597C39.48 137.083 39.1179 137.514 38.8289 137.912C36.8538 140.601 37.3659 144.306 37.9511 147.587C34.8009 146.593 31.9955 144.731 29.8571 142.216C27.7187 139.7 26.3343 136.633 25.8628 133.367C25.5738 131.412 25.1093 128.194 26.8467 126.922C31.0127 123.853 34.8678 129.012 36.8282 132.216Z" fill="#FF6584"/>
<path d="M48.4557 124.727C47.5632 124.581 46.605 124.727 45.7783 124.343C44.3153 123.671 43.9861 121.786 43.8435 120.193C43.8435 120.043 43.8252 119.882 43.8179 119.71C44.3398 119.176 44.9063 118.687 45.5113 118.249C46.0571 117.929 46.6375 117.673 47.2414 117.485L48.858 116.919C49.0124 117.346 49.1347 117.785 49.2238 118.231C49.4067 119.305 49.253 120.423 49.52 121.479C49.817 122.422 50.2789 123.305 50.8843 124.087L53.2654 127.565C52.8338 127.463 52.4059 127.35 51.9816 127.226C51.1513 125.965 49.9187 124.964 48.4557 124.727Z" fill="#3F3D56"/>
<path d="M371.245 140.115C370.821 138.058 370.027 136.096 369.548 134.057C369.351 132.992 369.086 131.942 368.754 130.911C368.585 130.463 368.373 130.033 368.121 129.625L368.348 129.413C367.595 128.142 367.565 126.549 367.211 125.102C366.903 123.856 366.293 122.716 365.923 121.489C365.411 119.786 365.342 117.864 364.285 116.458C363.868 115.902 363.323 115.467 362.858 114.952C362.324 114.364 361.904 113.674 361.362 113.096C359.789 111.423 357.419 110.904 355.177 110.663C352.935 110.422 350.616 110.426 348.55 109.494C347.683 109.103 346.768 108.544 345.861 108.61C345.352 108.119 344.883 107.588 344.461 107.02C343.771 106.185 343.145 105.3 342.588 104.372C343.024 103.635 343.361 102.843 343.59 102.019L343.74 101.913C344.329 101.467 344.837 100.886 345.415 100.451C345.924 100.086 346.578 99.7022 346.633 99.0519C346.688 98.4016 346.099 97.9047 345.733 97.3676C344.413 95.4422 345.872 92.428 344.519 90.5244C343.842 89.5708 342.661 89.2091 341.593 88.7451C340.13 88.1021 338.824 87.1778 337.372 86.553C335.92 85.9282 334.241 85.5884 332.778 86.1876C330.042 87.3202 329.058 91.2113 326.279 92.227C325.977 92.288 325.705 92.4489 325.507 92.6837C325.167 93.2391 324.717 96.509 324.797 97.1849C324.903 98.0801 325.119 98.5221 325.737 98.8363C325.737 99.0263 325.737 99.22 325.737 99.4136C325.737 104.065 328.963 107.926 333.217 108.723C333.625 109.152 333.972 109.635 334.249 110.159C334.464 110.714 334.588 111.3 334.614 111.894C334.462 111.821 334.293 111.786 334.124 111.792C333.854 111.83 333.6 111.947 333.394 112.126C333.188 112.306 333.039 112.541 332.965 112.804C332.813 113.341 332.752 113.899 332.786 114.455C332.809 114.627 332.792 114.802 332.736 114.966C332.68 115.131 332.587 115.28 332.464 115.402C332.329 115.483 332.178 115.53 332.021 115.541C331.456 115.646 330.884 115.705 330.309 115.716C329.358 115.716 328.338 115.478 327.5 115.942C326.663 116.406 326.282 117.404 325.88 118.306C325.297 119.598 324.529 120.798 323.601 121.869C322.577 123.052 321.304 124.174 321.015 125.741C321.012 125.778 321.012 125.815 321.015 125.851C320.214 126.216 319.395 127.093 318.821 127.535C317.719 128.387 316.661 129.293 315.65 130.25C314.622 131.24 313.236 132.468 312.599 133.79C312.275 134.356 311.842 134.852 311.326 135.252C310.284 135.928 308.938 135.569 307.764 135.19C304.509 134.141 301.235 133.081 298.199 131.477C298.05 131.374 297.868 131.329 297.687 131.35C297.588 131.381 297.499 131.439 297.431 131.518C297.407 131.48 297.38 131.443 297.351 131.408C296.532 130.524 295.244 130.465 294.791 129.114C294.665 128.685 294.575 128.246 294.524 127.802C294.237 126.51 293.773 125.263 293.145 124.097C293.053 123.857 292.896 123.647 292.691 123.491C292.498 123.398 292.277 123.382 292.073 123.446C291.869 123.511 291.698 123.651 291.594 123.838C291.384 124.22 291.302 124.659 291.36 125.091C291.389 125.566 291.458 126.118 291.129 126.457C290.997 126.582 290.836 126.672 290.661 126.721C289.604 127.064 288.441 126.757 287.453 126.242C286.466 125.727 285.577 125.011 284.6 124.466C284.084 124.184 283.552 123.933 283.006 123.714C282.443 123.48 281.66 123.326 281.345 123.863C281.093 124.295 281.345 124.846 281.638 125.255C282.128 125.962 282.699 126.609 283.339 127.185C285.241 128.883 287.636 129.83 289.867 131.013C291.813 132.047 293.65 133.271 295.354 134.667C295.288 134.88 295.247 135.099 295.233 135.321C295.234 135.753 295.325 136.179 295.5 136.573C295.675 136.968 295.93 137.322 296.25 137.612C296.882 138.173 297.593 138.638 298.36 138.993C302.232 141.002 306.134 142.959 310.065 144.864C310.314 145.009 310.593 145.099 310.88 145.127C311.678 145.146 312.186 144.283 312.826 143.786C313.466 143.29 314.289 143.151 315.061 142.891C316.432 142.42 317.621 141.525 318.795 140.641L322.537 137.813C324.421 136.392 326.352 134.89 327.932 133.136C328.131 133.555 328.415 133.928 328.766 134.232C328.459 134.916 329.099 135.624 329.252 136.362C329.307 136.847 329.32 137.336 329.293 137.824C329.358 138.535 329.48 139.24 329.658 139.932C329.838 141.061 329.921 142.204 329.907 143.348C329.907 144.623 329.947 145.905 329.966 147.177C329.991 148.828 330.017 150.498 329.669 152.109C329.197 154.301 328.042 156.384 328.133 158.635C328.199 159.055 328.158 159.484 328.012 159.884C327.058 161.711 326.304 163.724 325.276 165.522C324.973 165.958 324.727 166.432 324.545 166.932C324.417 167.454 324.469 168.003 324.691 168.492C324.284 169.221 324.055 170.036 324.022 170.87C323.952 172.935 324.783 174.889 325.181 176.924C325.547 178.791 325.547 180.706 325.602 182.609C325.884 191.517 327.628 200.322 327.99 209.226C328.161 213.331 328.039 217.443 327.625 221.531C327.358 224.169 326.963 226.8 326.816 229.452C326.396 236.978 327.968 244.432 329.53 251.812C330.003 251.258 330.665 250.899 331.388 250.807C331.198 251.538 330.946 252.488 330.682 253.189C330.301 253.242 329.935 253.374 329.607 253.577C328.696 254.158 328.385 255.349 327.855 256.313C326.696 258.414 324.417 259.492 322.548 260.935C321.652 261.626 320.748 262.681 321.03 263.803C324.267 264.742 327.793 265.575 330.906 264.282C332.171 263.759 333.356 262.893 334.713 262.849C335.745 262.817 336.798 263.266 337.785 262.959C338.03 262.893 338.245 262.745 338.393 262.539C338.509 262.313 338.564 262.062 338.554 261.808C338.638 260.091 338.63 258.37 338.532 256.653C338.447 255.192 338.597 254.095 337.409 253.891C337.113 253.157 336.894 252.394 336.754 251.615C336.754 251.472 336.721 251.322 336.703 251.173C337.03 251.175 337.357 251.148 337.679 251.092C337.878 251.058 338.075 251.012 338.268 250.953C338.206 250.701 338.151 250.446 338.1 250.193C337.998 249.686 337.917 249.178 337.851 248.67C337.785 248.162 337.738 247.647 337.701 247.135C337.701 246.876 337.672 246.62 337.661 246.361C337.639 245.846 337.632 245.331 337.635 244.812C337.639 244.293 337.635 243.778 337.672 243.259C337.709 242.74 337.723 242.221 337.76 241.703C337.848 240.405 337.976 239.108 338.104 237.822C338.477 234.045 338.852 230.269 339.23 226.496C339.34 225.364 339.453 224.227 339.468 223.091C339.482 222.411 339.45 221.732 339.373 221.056C339.179 219.419 338.663 217.768 338.641 216.153C338.635 215.883 338.644 215.614 338.671 215.346C338.696 215.075 338.741 214.806 338.806 214.542C338.839 214.396 338.883 214.249 338.927 214.107C339.018 213.818 339.12 213.537 339.212 213.248C339.259 213.106 339.303 212.96 339.344 212.814C339.493 212.196 339.582 211.566 339.611 210.932C339.611 210.72 339.636 210.508 339.647 210.296L340.097 201.389C340.17 199.96 340.291 198.418 340.851 197.143C341.091 196.581 341.443 196.072 341.886 195.649C341.772 195.346 341.886 194.834 342.2 194.754C342.569 199.301 342.523 203.872 342.065 208.411C341.904 209.836 341.666 211.25 341.6 212.682C341.461 215.839 342.16 218.963 342.405 222.112C342.65 225.261 342.405 228.506 342.405 231.703C342.379 237.201 342.987 242.682 343.59 248.144L343.956 248.385C343.956 248.867 344.011 249.393 344.003 249.846C343.991 250.004 344.007 250.162 344.051 250.314H343.897C343.543 250.344 343.202 250.46 342.903 250.65C342.603 250.841 342.355 251.102 342.178 251.41C341.816 252.036 341.553 252.714 341.399 253.42C341.22 253.941 341.145 254.492 341.18 255.042C341.319 256.083 342.204 256.869 342.438 257.892C342.866 259.744 341.048 261.742 341.875 263.445C342.401 264.541 343.729 264.844 344.888 265.034C346.659 265.323 348.674 265.553 350.068 264.38C350.446 264.052 350.749 263.646 350.954 263.189C351.159 262.732 351.263 262.236 351.256 261.735C351.256 260.398 350.463 259.207 350.115 257.921C349.625 256.116 350.357 253.69 349.585 252.024C349.522 251.848 349.425 251.687 349.3 251.549H349.563C349.501 250.939 349.438 250.325 349.373 249.722L349.987 249.408C350.62 249.09 351.351 248.849 352.01 249.097C351.765 245.959 351.695 242.492 352.419 239.437C352.983 237.026 353.992 234.739 354.46 232.305C354.826 230.3 354.852 228.239 354.859 226.197C354.859 222.404 354.859 218.586 354.223 214.871C353.967 213.38 353.601 211.853 353.879 210.362C354.062 209.379 354.508 208.473 354.771 207.509C355.386 205.254 354.936 202.832 355.302 200.519C356.172 194.995 356.633 189.23 357.295 183.68C357.625 180.535 357.737 177.37 357.632 174.21V174.173L358.945 171.616C359.885 169.789 360.839 167.933 361.41 165.971C361.607 166.247 361.766 166.548 361.882 166.866L367.653 157.286C368.028 156.72 368.324 156.105 368.535 155.46C368.666 154.996 368.71 154.51 368.809 154.038C369.069 152.814 369.691 151.711 370.188 150.571C371.598 147.274 371.967 143.626 371.245 140.115ZM362.609 144.923C362.341 146.497 361.975 148.053 361.512 149.581C360.751 152.204 359.87 154.784 358.988 157.367L358.231 159.559C357.97 160.442 357.578 161.28 357.068 162.047C356.952 162.239 356.848 162.437 356.757 162.643C355.975 159.72 356.823 156.431 356.644 153.315C356.509 150.958 355.777 148.565 356.326 146.282C356.691 144.744 357.613 143.421 358.261 141.982C358.864 140.644 359.241 139.187 359.921 137.897C359.921 137.922 359.921 137.944 359.947 137.966C360.552 139.555 361.277 141.095 362.116 142.573C362.351 142.907 362.53 143.278 362.646 143.67C362.721 144.087 362.713 144.516 362.62 144.93L362.609 144.923Z" fill="url(#paint1_linear)"/>
<path d="M294.695 129.103C294.564 128.673 294.471 128.233 294.418 127.788C294.18 126.476 293.573 125.267 292.976 124.072C292.882 123.827 292.718 123.615 292.505 123.462C292.305 123.373 292.081 123.36 291.873 123.423C291.664 123.487 291.486 123.624 291.371 123.809C291.154 124.19 291.068 124.631 291.126 125.066C291.159 125.548 291.232 126.1 290.892 126.439C290.75 126.565 290.581 126.655 290.398 126.702C289.301 127.05 288.083 126.739 287.047 126.224C286.012 125.709 285.091 124.985 284.07 124.441C283.53 124.158 282.975 123.907 282.406 123.688C281.817 123.451 281.001 123.297 280.672 123.838C280.409 124.269 280.672 124.821 280.976 125.234C281.489 125.946 282.086 126.595 282.753 127.166C284.736 128.873 287.241 129.823 289.571 131.01C292.181 132.341 294.614 133.993 296.813 135.928C297.026 135.675 297.154 135.362 297.179 135.033C297.355 134.101 298.126 132.216 297.347 131.408C296.495 130.52 295.167 130.462 294.695 129.103Z" fill="#A0616A"/>
<path d="M331.377 254.564C333.33 256.086 335.804 256.779 338.265 256.493C338.777 256.431 339.362 256.248 339.53 255.762C339.592 255.467 339.558 255.16 339.435 254.885C339.048 253.966 338.751 253.012 338.546 252.035C338.418 251.148 338.451 250.092 337.727 249.558C336.681 248.787 333.945 248.828 333.265 250.022C333.104 250.278 332.08 255.152 331.377 254.564Z" fill="#3C354C"/>
<path d="M346.114 250.253C346.089 250.349 346.084 250.45 346.102 250.549C346.119 250.647 346.157 250.741 346.213 250.823C346.27 250.906 346.344 250.975 346.429 251.027C346.515 251.078 346.611 251.111 346.71 251.122C348.39 251.642 350.132 251.933 351.889 251.988L351.523 248.473C351.531 248.395 351.52 248.316 351.494 248.241C351.467 248.167 351.425 248.099 351.37 248.043C351.314 247.987 351.247 247.943 351.174 247.915C351.1 247.887 351.021 247.876 350.942 247.882C349.932 247.713 347.811 247.03 346.842 247.381C345.752 247.776 346.136 249.204 346.114 250.253Z" fill="#3C354C"/>
<path d="M335.898 110.061C336.182 110.799 336.322 111.584 336.312 112.374C336.403 115.205 335.917 118.263 333.941 120.295C336.158 119.633 338.649 120.032 340.741 119.045C341.71 118.588 342.526 117.861 343.433 117.295C345.049 116.287 346.933 115.797 348.616 114.898C350.298 114 351.856 112.483 351.951 110.583C351.22 109.816 350.046 109.707 349.087 109.243C348.056 108.738 347.292 107.818 346.564 106.93C345.705 105.951 344.952 104.884 344.318 103.748C343.681 102.602 343.425 101.285 343.586 99.9844C341.717 100.321 340.36 101.95 338.594 102.648C337.906 102.918 337.164 103.042 336.494 103.353C335.54 103.791 333.605 105.282 333.568 106.451C333.572 107.726 335.401 108.936 335.898 110.061Z" fill="#A0616A"/>
<path opacity="0.1" d="M335.898 110.061C336.182 110.799 336.322 111.584 336.312 112.374C336.403 115.205 335.917 118.263 333.941 120.295C336.158 119.633 338.649 120.032 340.741 119.045C341.71 118.588 342.526 117.861 343.433 117.295C345.049 116.287 346.933 115.797 348.616 114.898C350.298 114 351.856 112.483 351.951 110.583C351.22 109.816 350.046 109.707 349.087 109.243C348.056 108.738 347.292 107.818 346.564 106.93C345.705 105.951 344.952 104.884 344.318 103.748C343.681 102.602 343.425 101.285 343.586 99.9844C341.717 100.321 340.36 101.95 338.594 102.648C337.906 102.918 337.164 103.042 336.494 103.353C335.54 103.791 333.605 105.282 333.568 106.451C333.572 107.726 335.401 108.936 335.898 110.061Z" fill="black"/>
<path d="M359.961 183.848C359.27 189.416 358.791 195.204 357.88 200.746C357.515 203.066 357.968 205.496 357.328 207.761C357.054 208.729 356.596 209.639 356.395 210.622C356.106 212.12 356.487 213.651 356.761 215.149C357.434 218.894 357.434 222.726 357.423 226.533C357.423 228.583 357.423 230.651 357.01 232.664C356.52 235.108 355.466 237.414 354.877 239.818C354.12 242.887 354.193 246.365 354.449 249.514C353.762 249.266 352.986 249.514 352.335 249.825C351.684 250.135 351.026 250.556 350.298 250.603C349.314 250.694 348.389 250.176 347.54 249.671C346.889 249.288 346.322 248.941 345.675 248.546C345.042 243.066 344.409 237.563 344.435 232.043C344.435 228.835 344.687 225.62 344.435 222.419C344.183 219.219 343.447 216.12 343.597 212.956C343.667 211.517 343.912 210.099 344.077 208.671C344.618 204.045 344.545 199.61 344.219 194.966C343.901 195.047 343.773 195.558 343.89 195.861C343.425 196.282 343.052 196.793 342.793 197.363C342.208 198.642 342.083 200.191 342.006 201.623L341.535 210.563C341.522 211.414 341.416 212.26 341.22 213.088C341.055 213.676 340.807 214.232 340.657 214.823C340.119 216.964 340.982 219.171 341.257 221.36C341.48 223.187 341.289 225.013 341.103 226.818L339.929 238.188C339.501 242.324 339.084 246.548 339.929 250.61C339.984 250.862 340.039 251.118 340.104 251.374C339.903 251.432 339.697 251.479 339.49 251.513C338.762 251.615 338.023 251.615 337.295 251.513C336.615 251.443 335.927 251.326 335.254 251.246C333.638 251.063 332.025 250.994 330.953 252.214C329.322 244.827 327.683 237.326 328.119 229.774C328.272 227.114 328.682 224.473 328.963 221.824C329.402 217.724 329.534 213.597 329.358 209.478C328.993 200.542 327.164 191.704 326.86 182.763C326.798 180.856 326.805 178.931 326.425 177.06C326.008 175.032 325.141 173.041 325.211 170.984C325.28 168.927 326.783 166.644 328.868 166.757C334.622 167.075 339.878 163.903 345.616 163.363C348.221 163.114 350.869 162.745 353.447 163.209C356.026 163.673 358.594 165.131 359.607 167.542C360.155 168.854 360.199 170.308 360.239 171.726C360.356 175.774 360.463 179.833 359.961 183.848Z" fill="#575A89"/>
<path d="M331.059 253.986C330.108 254.571 329.783 255.766 329.23 256.734C328.02 258.842 325.642 259.923 323.689 261.37C322.753 262.068 321.809 263.124 322.105 264.253C325.485 265.192 329.165 266.029 332.424 264.732C333.744 264.205 334.984 263.336 336.399 263.292C337.478 263.259 338.594 263.712 339.607 263.402C339.863 263.342 340.088 263.193 340.243 262.981C340.362 262.757 340.42 262.505 340.412 262.251C340.5 260.526 340.492 258.797 340.386 257.074C340.284 255.389 340.51 254.198 338.587 254.271C336.377 254.366 332.976 252.806 331.059 253.986Z" fill="#CBCEDA"/>
<path d="M347.255 250.99C346.856 250.831 346.433 250.736 346.004 250.709C345.64 250.738 345.287 250.852 344.975 251.042C344.663 251.233 344.4 251.494 344.208 251.805C343.83 252.429 343.556 253.11 343.396 253.822C343.209 254.342 343.132 254.896 343.169 255.448C343.312 256.493 344.237 257.274 344.483 258.305C344.925 260.164 343.02 262.17 343.89 263.88C344.442 264.976 345.829 265.283 347.039 265.473C348.89 265.765 350.993 265.996 352.449 264.815C352.84 264.494 353.154 264.089 353.369 263.631C353.585 263.173 353.695 262.673 353.692 262.167C353.67 260.822 352.862 259.627 352.496 258.334C351.988 256.507 352.752 254.089 351.944 252.419C351.253 250.99 348.729 251.462 347.255 250.99Z" fill="#CBCEDA"/>
<path d="M336.516 108.775C341.766 108.775 346.022 104.523 346.022 99.2789C346.022 94.0346 341.766 89.7832 336.516 89.7832C331.266 89.7832 327.01 94.0346 327.01 99.2789C327.01 104.523 331.266 108.775 336.516 108.775Z" fill="#A0616A"/>
<path d="M341.557 114.84C340.531 114.404 339.391 114.318 338.312 114.595L337.445 113.086C337.08 112.421 336.535 111.668 335.77 111.698C335.492 111.734 335.23 111.849 335.015 112.03C334.8 112.21 334.642 112.449 334.56 112.717C334.401 113.254 334.336 113.814 334.369 114.372C334.394 114.546 334.377 114.723 334.319 114.889C334.261 115.055 334.164 115.205 334.037 115.326C333.894 115.403 333.737 115.451 333.576 115.464C332.985 115.568 332.387 115.627 331.787 115.64C330.792 115.64 329.728 115.399 328.861 115.866C327.994 116.334 327.592 117.328 327.171 118.241C326.558 119.542 325.757 120.746 324.794 121.814C323.722 123.002 322.394 124.127 322.091 125.698C321.963 126.367 322.57 126.864 323.053 127.346C324.973 129.249 327.65 130.419 329.073 132.72C329.406 133.257 329.677 133.864 330.189 134.233C329.871 134.923 330.554 135.632 330.697 136.374C330.753 136.859 330.767 137.348 330.737 137.835C330.801 138.549 330.923 139.257 331.103 139.951C331.29 141.083 331.377 142.23 331.363 143.378L331.425 147.221C331.451 148.88 331.476 150.554 331.114 152.172C330.62 154.364 329.413 156.465 329.508 158.719C329.579 159.142 329.536 159.576 329.384 159.976C328.386 161.803 327.599 163.827 326.527 165.632C326.221 166.07 325.975 166.546 325.796 167.049C325.511 168.091 326.096 169.22 326.959 169.87C327.822 170.52 328.912 170.787 329.973 170.988C339.826 172.873 350.057 170.604 359.369 166.878C359.614 166.801 359.841 166.677 360.038 166.512C360.719 165.851 360.185 164.737 359.797 163.874C358.334 160.663 359.501 156.933 359.292 153.425C359.153 151.061 358.385 148.676 358.963 146.367C359.329 144.825 360.305 143.495 360.982 142.055C361.713 140.495 362.123 138.767 363.081 137.342C363.799 136.363 364.638 135.479 365.58 134.712L371.523 129.421C370.737 128.146 370.704 126.546 370.334 125.095C370.013 123.846 369.372 122.699 368.988 121.471C368.454 119.761 368.381 117.817 367.277 116.418C366.841 115.859 366.274 115.424 365.788 114.909C365.232 114.317 364.793 113.627 364.226 113.046C362.584 111.365 360.108 110.832 357.771 110.605C355.433 110.379 353.016 110.368 350.85 109.432C349.79 108.976 348.656 108.285 347.559 108.629C346.688 108.899 346.128 109.75 345.774 110.594C345.419 111.438 345.17 112.348 344.589 113.053C343.872 113.893 342.603 114.449 341.557 114.84Z" fill="#3C354C"/>
<path d="M313.272 133.794C312.928 134.364 312.476 134.86 311.941 135.256C310.844 135.932 309.45 135.574 308.225 135.194C304.827 134.138 301.407 133.078 298.236 131.467C298.079 131.362 297.89 131.317 297.702 131.339C297.555 131.386 297.427 131.478 297.336 131.602C296.838 132.154 296.379 132.742 295.965 133.36C295.527 133.933 295.252 134.613 295.167 135.329C295.17 135.765 295.266 136.195 295.448 136.592C295.63 136.988 295.895 137.341 296.224 137.627C296.886 138.191 297.625 138.657 298.419 139.012C302.464 141.028 306.536 142.993 310.635 144.905C310.898 145.051 311.188 145.14 311.488 145.168C312.321 145.186 312.852 144.32 313.517 143.823C314.183 143.326 315.057 143.188 315.851 142.925C317.285 142.453 318.532 141.555 319.754 140.667L323.66 137.831C327.083 135.347 330.679 132.64 332.175 128.698L327.42 127.134C325.994 126.662 324.494 125.946 323.013 125.672C321.915 125.46 320.595 126.907 319.772 127.525C318.615 128.382 317.503 129.298 316.44 130.269C315.386 131.233 313.938 132.468 313.272 133.794Z" fill="#3C354C"/>
<path d="M358.279 164.985C356.937 165.519 355.415 164.715 353.992 164.952C353.325 165.101 352.689 165.365 352.112 165.731L347.957 168.051C347.701 168.19 347.423 168.529 347.646 168.712C347.711 168.755 347.785 168.78 347.862 168.785C349.248 168.964 350.543 168.12 351.922 167.886C352.528 167.804 353.14 167.781 353.751 167.817C353.852 167.811 353.952 167.826 354.047 167.861C354.148 167.918 354.231 168.004 354.285 168.107C354.339 168.209 354.363 168.326 354.354 168.442C354.354 168.675 354.285 168.902 354.278 169.136C354.319 169.674 354.53 170.186 354.881 170.597C356.203 172.493 357.671 174.284 359.27 175.953C359.676 175.441 360.026 174.887 360.316 174.302L361.684 171.744C363.103 169.107 364.555 166.37 364.782 163.385C363.758 163.06 361.856 161.982 360.799 162.548C359.742 163.115 359.497 164.594 358.279 164.985Z" fill="#A0616A"/>
<path d="M335.313 97.7629C337.99 98.0479 340.434 99.312 342.829 100.554C342.42 101.197 342.939 102.122 343.667 102.341C344.395 102.56 345.192 102.249 345.81 101.8C346.428 101.351 346.937 100.77 347.559 100.339C348.093 99.9733 348.773 99.586 348.831 98.9357C348.89 98.2853 348.275 97.7848 347.891 97.2441C346.513 95.3113 348.038 92.2862 346.626 90.3753C345.916 89.4181 344.684 89.0564 343.59 88.5887C342.076 87.9457 340.697 87.0177 339.179 86.3783C337.661 85.7389 335.913 85.4065 334.384 86.013C331.524 87.1492 330.5 91.0549 327.595 92.0743C327.283 92.1357 326.999 92.2974 326.787 92.5346C326.421 93.0899 325.964 96.3745 326.056 97.0504C326.195 98.1794 326.506 98.5959 327.617 98.932C329.995 99.6408 332.767 97.4889 335.313 97.7629Z" fill="#3F3D56"/>
<path d="M369.976 128.059C370.836 128.839 371.506 129.807 371.933 130.886C372.28 131.919 372.556 132.973 372.759 134.043C373.26 136.096 374.087 138.062 374.53 140.123C375.283 143.644 374.899 147.312 373.432 150.601C372.913 151.748 372.262 152.852 371.991 154.083C371.889 154.554 371.841 155.044 371.706 155.508C371.482 156.156 371.172 156.77 370.784 157.335L364.786 166.977C364.556 166.414 364.208 165.907 363.767 165.488C363.326 165.07 362.8 164.751 362.226 164.551C361.071 164.162 359.834 164.087 358.641 164.335C359.087 163.634 359.285 162.848 359.738 162.143C359.988 161.768 360.216 161.381 360.422 160.981C360.627 160.548 360.805 160.102 360.956 159.648L361.743 157.43C362.664 154.839 363.572 152.249 364.38 149.618C364.867 148.086 365.253 146.524 365.536 144.942C365.624 144.539 365.634 144.124 365.565 143.718C365.442 143.317 365.255 142.939 365.009 142.6C364.136 141.121 363.38 139.577 362.745 137.982C362.269 136.867 361.79 135.614 362.218 134.482C362.49 133.882 362.893 133.35 363.396 132.925C365.39 131.05 367.599 129.416 369.976 128.059Z" fill="#3C354C"/>
<path opacity="0.1" d="M339.494 251.505L339.933 250.603C339.091 246.548 339.508 242.324 339.933 238.181L341.107 226.811C341.293 224.984 341.472 223.157 341.26 221.352C340.986 219.16 340.123 216.968 340.66 214.816C340.81 214.224 341.059 213.669 341.224 213.081C341.42 212.253 341.526 211.407 341.538 210.556L342.01 201.616C342.087 200.184 342.211 198.634 342.796 197.356V197.111L341.29 184.155L337.31 251.505H339.494Z" fill="black"/>
<path d="M305.262 257.092C306.359 255.079 305.116 252.609 303.693 250.815C302.27 249.021 300.544 247.161 300.581 244.863C300.635 241.575 304.128 239.635 306.919 237.888C308.991 236.596 310.902 235.062 312.61 233.318C313.326 232.647 313.918 231.856 314.359 230.979C314.937 229.693 314.922 228.232 314.885 226.825C314.761 222.134 314.528 217.447 314.187 212.763" stroke="#3F3D56" stroke-width="4" stroke-miterlimit="10"/>
<path d="M319.494 212.507C319.455 211.648 319.2 210.813 318.753 210.079C318.305 209.344 317.679 208.735 316.934 208.306L315.785 210.578L315.822 207.827C315.272 207.666 314.7 207.597 314.128 207.622C313.118 207.672 312.145 208.02 311.333 208.622C310.52 209.224 309.904 210.052 309.562 211.003C309.221 211.954 309.168 212.985 309.413 213.965C309.657 214.946 310.186 215.832 310.934 216.513C311.682 217.193 312.615 217.637 313.615 217.788C314.615 217.94 315.637 217.792 316.553 217.363C317.469 216.935 318.238 216.245 318.762 215.381C319.286 214.516 319.542 213.517 319.498 212.507H319.494Z" fill="#57B894"/>
<path d="M310.339 247.212C309.8 248.255 308.92 249.081 307.844 249.552C306.769 250.023 305.564 250.11 304.431 249.799C303.299 249.488 302.308 248.798 301.624 247.844C300.941 246.89 300.606 245.731 300.677 244.56C300.748 243.389 301.219 242.278 302.012 241.413C302.805 240.547 303.872 239.981 305.033 239.808C306.195 239.635 307.38 239.866 308.392 240.462C309.403 241.059 310.178 241.984 310.588 243.084L307.38 245.703L310.91 244.889C310.906 245.697 310.71 246.494 310.339 247.212Z" fill="#57B894"/>
<path d="M307.804 237.257C306.529 237.347 305.266 236.957 304.264 236.163C303.261 235.37 302.593 234.231 302.389 232.97C302.184 231.71 302.46 230.418 303.161 229.35C303.862 228.282 304.938 227.514 306.177 227.198L306.147 229.31L307.311 227.012C307.984 226.979 308.657 227.079 309.292 227.307C309.927 227.535 310.51 227.886 311.008 228.339C311.507 228.793 311.911 229.34 312.197 229.95C312.483 230.56 312.646 231.22 312.676 231.893C312.706 232.485 312.632 233.077 312.457 233.643C312.148 234.651 311.536 235.539 310.703 236.185C309.87 236.832 308.858 237.206 307.804 237.257Z" fill="#57B894"/>
<path d="M320.266 228.974C319.478 229.003 318.694 228.849 317.975 228.526C317.256 228.202 316.621 227.718 316.121 227.109C315.62 226.5 315.267 225.784 315.089 225.017C314.911 224.25 314.913 223.452 315.094 222.685C315.276 221.919 315.632 221.205 316.135 220.598C316.638 219.992 317.275 219.51 317.995 219.189C318.715 218.869 319.5 218.719 320.288 218.751C321.076 218.784 321.846 218.997 322.537 219.376L321.63 221.86L323.495 220.07C324.495 220.984 325.091 222.258 325.152 223.61C325.177 224.085 325.134 224.561 325.024 225.024C324.771 226.111 324.169 227.085 323.31 227.798C322.451 228.511 321.382 228.924 320.266 228.974Z" fill="#57B894"/>
<path opacity="0.1" d="M318.803 213.874C317.618 214.002 316.465 214.371 315.277 214.444C314.088 214.517 312.782 214.236 312.029 213.311C311.626 212.814 311.422 212.186 311.081 211.641C310.757 211.136 310.312 210.718 309.787 210.425C309.477 211.072 309.307 211.776 309.287 212.493C309.268 213.209 309.399 213.922 309.673 214.585C309.947 215.247 310.357 215.845 310.877 216.339C311.397 216.833 312.016 217.212 312.692 217.452C313.368 217.692 314.088 217.787 314.803 217.732C315.519 217.676 316.214 217.471 316.845 217.129C317.476 216.788 318.029 216.318 318.466 215.749C318.903 215.181 319.216 214.527 319.384 213.83C319.192 213.837 318.998 213.852 318.803 213.874Z" fill="black"/>
<path opacity="0.1" d="M320.266 228.974C319.38 229.019 318.498 228.834 317.706 228.436C316.914 228.038 316.239 227.442 315.747 226.705C315.255 225.969 314.963 225.117 314.899 224.234C314.835 223.351 315.002 222.466 315.383 221.667C315.79 221.941 316.14 222.29 316.414 222.697C316.78 223.249 317.003 223.888 317.431 224.393C318.232 225.332 319.596 225.638 320.836 225.584C322.076 225.529 323.272 225.174 324.494 225.061C324.666 225.061 324.838 225.036 325.013 225.032C324.759 226.115 324.158 227.087 323.301 227.798C322.444 228.51 321.379 228.922 320.266 228.974Z" fill="black"/>
<path opacity="0.1" d="M307.804 237.257C306.927 237.301 306.054 237.119 305.267 236.729C304.481 236.339 303.808 235.753 303.313 235.028C302.819 234.303 302.52 233.463 302.444 232.589C302.368 231.715 302.519 230.836 302.881 230.037C303.307 230.315 303.679 230.668 303.979 231.078C304.377 231.641 304.626 232.291 305.094 232.81C305.961 233.771 307.417 234.111 308.726 234.082C310.035 234.052 311.224 233.742 312.486 233.643C312.176 234.655 311.559 235.546 310.72 236.194C309.882 236.841 308.863 237.212 307.804 237.257Z" fill="black"/>
<path opacity="0.1" d="M310.339 247.213C309.784 248.452 308.758 249.421 307.488 249.906C306.217 250.39 304.806 250.35 303.565 249.796C302.324 249.241 301.354 248.216 300.869 246.947C300.384 245.679 300.424 244.269 300.979 243.029C301.403 243.306 301.783 243.645 302.106 244.034C302.596 244.626 302.918 245.302 303.481 245.861C304.531 246.891 306.224 247.322 307.735 247.355C308.605 247.359 309.475 247.312 310.339 247.213Z" fill="black"/>
<path d="M297.519 254.771C297.519 254.771 301.572 254.647 302.793 253.778C304.015 252.908 309.011 251.874 309.326 253.266C309.64 254.658 315.416 260.208 310.844 260.23C306.272 260.252 300.215 259.521 298.993 258.768C297.771 258.016 297.519 254.771 297.519 254.771Z" fill="#656380"/>
<path opacity="0.2" d="M310.924 259.748C306.349 259.784 300.295 259.017 299.077 258.286C298.148 257.72 297.779 255.696 297.654 254.761H297.519C297.519 254.761 297.775 258.027 298.982 258.78C300.189 259.532 306.257 260.267 310.833 260.241C312.153 260.241 312.607 259.763 312.581 259.068C312.409 259.478 311.908 259.737 310.924 259.748Z" fill="black"/>
<path d="M21.3603 261.111C20.263 259.098 21.5066 256.628 22.9294 254.834C24.3522 253.04 26.0786 251.181 26.042 248.883C25.9871 245.594 22.4941 243.654 19.7034 241.908C17.6312 240.616 15.7206 239.081 14.0122 237.337C13.2962 236.667 12.7043 235.875 12.2639 234.999C11.686 233.713 11.7006 232.252 11.7372 230.845C11.8615 226.154 12.0944 221.466 12.4358 216.782" stroke="#3F3D56" stroke-width="4" stroke-miterlimit="10"/>
<path d="M7.12868 216.526C7.16757 215.667 7.42255 214.832 7.87005 214.097C8.31755 213.363 8.94313 212.753 9.68899 212.324L10.8375 214.597L10.8009 211.845C11.3503 211.685 11.9225 211.615 12.4944 211.641C13.5046 211.691 14.4774 212.039 15.29 212.64C16.1026 213.242 16.7186 214.071 17.0603 215.022C17.402 215.973 17.4541 217.003 17.21 217.984C16.9659 218.965 16.4365 219.851 15.6887 220.531C14.9409 221.212 14.0081 221.656 13.008 221.807C12.0079 221.958 10.9853 221.81 10.0693 221.382C9.15322 220.953 8.38472 220.264 7.86074 219.399C7.33675 218.535 7.08075 217.535 7.12503 216.526H7.12868Z" fill="#57B894"/>
<path d="M16.2835 251.232C16.822 252.274 17.7028 253.1 18.7783 253.571C19.8539 254.042 21.0588 254.13 22.1912 253.819C23.3235 253.508 24.3145 252.818 24.998 251.864C25.6816 250.91 26.0161 249.75 25.9455 248.579C25.875 247.408 25.4037 246.297 24.6106 245.432C23.8175 244.567 22.7508 244 21.5893 243.827C20.4278 243.654 19.242 243.886 18.2308 244.482C17.2195 245.078 16.4442 246.004 16.0348 247.103L19.2425 249.708L15.7276 248.894C15.7244 249.706 15.9149 250.508 16.2835 251.232Z" fill="#57B894"/>
<path d="M18.8183 241.275C20.0938 241.365 21.3568 240.975 22.359 240.182C23.3612 239.389 24.0301 238.25 24.2342 236.989C24.4382 235.728 24.1626 234.437 23.4616 233.369C22.7606 232.3 21.6849 231.533 20.446 231.217L20.4752 233.329L19.3121 231.031C18.6386 230.998 17.9652 231.098 17.3306 231.326C16.696 231.553 16.1127 231.904 15.6141 232.358C15.1156 232.811 14.7116 233.359 14.4254 233.969C14.1392 234.578 13.9765 235.239 13.9464 235.912C13.9164 236.503 13.9907 237.096 14.1659 237.662C14.4744 238.669 15.0868 239.557 15.9196 240.204C16.7523 240.851 17.7647 241.225 18.8183 241.275Z" fill="#57B894"/>
<path d="M6.35687 232.993C7.14484 233.022 7.92885 232.869 8.64779 232.545C9.36673 232.222 10.0012 231.737 10.5017 231.128C11.0022 230.52 11.3552 229.804 11.5333 229.037C11.7114 228.269 11.7096 227.471 11.5282 226.705C11.3468 225.938 10.9907 225.224 10.4875 224.618C9.98439 224.011 9.34783 223.529 8.62749 223.209C7.90715 222.888 7.12248 222.739 6.33465 222.771C5.54682 222.803 4.77711 223.017 4.08551 223.395L4.99259 225.88L3.12723 224.089C2.12488 225.003 1.52634 226.276 1.46302 227.63C1.43867 228.105 1.48177 228.581 1.59104 229.044C1.84478 230.131 2.448 231.106 3.30857 231.82C4.16914 232.533 5.23975 232.945 6.35687 232.993Z" fill="#57B894"/>
<path opacity="0.1" d="M7.81996 217.892C9.00502 218.02 10.1572 218.389 11.3459 218.462C12.5346 218.535 13.8403 218.254 14.5938 217.33C14.9961 216.833 15.201 216.204 15.5411 215.66C15.866 215.154 16.3107 214.736 16.8359 214.443C17.1456 215.09 17.3158 215.795 17.3354 216.511C17.355 217.228 17.2235 217.941 16.9496 218.603C16.6756 219.266 16.2653 219.864 15.7452 220.358C15.2251 220.852 14.6068 221.231 13.9305 221.471C13.2542 221.711 12.535 221.806 11.8195 221.75C11.1039 221.695 10.4081 221.49 9.7771 221.148C9.14609 220.806 8.59401 220.336 8.15666 219.768C7.71931 219.199 7.40646 218.545 7.2384 217.849C7.43104 217.856 7.62489 217.87 7.81996 217.892Z" fill="black"/>
<path opacity="0.1" d="M6.35692 232.993C7.24224 233.038 8.12406 232.852 8.91609 232.454C9.70812 232.057 10.3832 231.46 10.8754 230.724C11.3675 229.988 11.6598 229.136 11.7237 228.253C11.7876 227.37 11.6209 226.485 11.2398 225.686C10.8325 225.959 10.4822 226.309 10.2084 226.716C9.84261 227.268 9.61949 227.907 9.19155 228.411C8.39054 229.35 7.02626 229.657 5.78634 229.602C4.54642 229.547 3.35039 229.193 2.12875 229.08C1.95685 229.08 1.78494 229.054 1.60938 229.05C1.86363 230.134 2.46474 231.105 3.32151 231.817C4.17829 232.528 5.24398 232.941 6.35692 232.993Z" fill="black"/>
<path opacity="0.1" d="M18.8183 241.275C19.6954 241.319 20.5692 241.138 21.3557 240.747C22.1421 240.357 22.8149 239.771 23.3093 239.046C23.8037 238.321 24.1032 237.481 24.1788 236.607C24.2545 235.733 24.1039 234.855 23.7414 234.056C23.3156 234.333 22.9438 234.686 22.6442 235.097C22.2455 235.66 21.9968 236.31 21.5469 236.829C20.68 237.79 19.2243 238.129 17.9149 238.1C16.6055 238.071 15.4168 237.76 14.1549 237.662C14.464 238.671 15.0781 239.56 15.913 240.207C16.748 240.854 17.7628 241.227 18.8183 241.275Z" fill="black"/>
<path opacity="0.1" d="M16.2836 251.231C16.8389 252.471 17.8646 253.44 19.1349 253.924C20.4053 254.409 21.8162 254.369 23.0574 253.814C24.2986 253.26 25.2683 252.235 25.7533 250.966C26.2382 249.697 26.1987 248.288 25.6433 247.048C25.2196 247.325 24.8399 247.663 24.5168 248.053C24.0267 248.644 23.7048 249.32 23.1415 249.879C22.0918 250.91 20.3984 251.341 18.8878 251.374C18.0176 251.378 17.148 251.33 16.2836 251.231Z" fill="black"/>
<path d="M29.1035 258.791C29.1035 258.791 25.0508 258.667 23.8292 257.797C22.6076 256.928 17.6113 255.894 17.2968 257.286C16.9822 258.678 11.2069 264.228 15.7789 264.249C20.3508 264.271 26.4078 263.541 27.6294 262.788C28.8511 262.035 29.1035 258.791 29.1035 258.791Z" fill="#656380"/>
<path opacity="0.2" d="M15.6983 263.767C20.274 263.804 26.3273 263.037 27.5452 262.306C28.4743 261.74 28.8437 259.716 28.968 258.78H29.1034C29.1034 258.78 28.8473 262.047 27.6403 262.799C26.4333 263.552 20.3654 264.286 15.7898 264.261C14.4694 264.261 14.0158 263.782 14.0414 263.088C14.2133 263.497 14.7144 263.756 15.6983 263.767Z" fill="black"/>
<defs>
<linearGradient id="paint0_linear" x1="45.7161" y1="267.212" x2="45.7161" y2="95.3988" gradientUnits="userSpaceOnUse">
<stop stop-color="#808080" stop-opacity="0.25"/>
<stop offset="0.54" stop-color="#808080" stop-opacity="0.12"/>
<stop offset="1" stop-color="#808080" stop-opacity="0.1"/>
</linearGradient>
<linearGradient id="paint1_linear" x1="88702" y1="144766" x2="88702" y2="56684.2" gradientUnits="userSpaceOnUse">
<stop stop-color="#808080" stop-opacity="0.25"/>
<stop offset="0.54" stop-color="#808080" stop-opacity="0.12"/>
<stop offset="1" stop-color="#808080" stop-opacity="0.1"/>
</linearGradient>
</defs>
</svg>
