<svg width="477" height="271" viewBox="0 0 477 271" fill="none" xmlns="http://www.w3.org/2000/svg">
<g clip-path="url(#clip0)">
<path d="M50.0566 249.018L49.2969 248.733C49.13 248.669 32.5147 242.288 24.7314 227.819C16.9477 213.348 20.759 195.926 20.7984 195.752L20.9778 194.959L21.7371 195.244C21.9041 195.308 38.519 201.689 46.3027 216.158C54.0864 230.629 50.2751 248.051 50.2357 248.225L50.0566 249.018ZM25.9777 227.145C32.5583 239.379 45.6882 245.65 49.0149 247.082C49.6474 243.508 51.631 229.054 45.0564 216.832C38.4824 204.611 25.3473 198.33 22.0192 196.895C21.3863 200.471 19.4034 214.923 25.9777 227.145Z" fill="#3F3D56"/>
<path d="M31.2791 223.944C45.2667 232.38 50.6538 249.136 50.6538 249.136C50.6538 249.136 33.3624 252.215 19.3748 243.779C5.38708 235.343 0 218.587 0 218.587C0 218.587 17.2914 215.508 31.2791 223.944Z" fill="#6C63FF"/>
<path d="M115.927 229.13C115.927 251.369 99.4191 250.165 79.0559 250.165C58.6927 250.165 42.1851 251.369 42.1851 229.13C42.1851 206.892 58.6927 169.633 79.0559 169.633C99.4191 169.633 115.927 206.892 115.927 229.13Z" fill="#3F3D56"/>
<path d="M445.066 249.563H18.2039V250.765H445.066V249.563Z" fill="#3F3D56"/>
<path d="M202.632 45.4944C202.612 45.4315 202.591 45.3678 202.572 45.3047C202.58 45.3323 202.591 45.359 202.599 45.3867L202.632 45.4944Z" fill="#2F2E41"/>
<path d="M134.438 193.601L121.848 205.621L111.656 194.803L127.243 186.99L134.438 193.601Z" fill="#A0616A"/>
<path d="M118.212 195.976C118.212 195.976 133.465 194.977 131.682 199.441C129.899 203.904 133.678 220.311 133.678 220.311C133.678 220.311 139.345 249.775 121.426 238.051C103.506 226.326 107.405 218.181 107.405 218.181C107.405 218.181 102.176 210.255 103.29 207.466C104.404 204.676 113.26 193.963 114.957 195.304C115.394 195.691 115.924 195.957 116.495 196.075C117.066 196.192 117.658 196.159 118.212 195.976Z" fill="#2F2E41"/>
<path d="M112.855 146.124C112.855 146.124 180.001 140.715 185.397 154.537C190.793 168.36 180.001 178.577 180.001 178.577L136.236 200.212L122.277 187.695L130.241 180.38C130.241 180.38 85.2763 188.793 84.0773 182.183C82.8782 175.572 88.8735 140.715 112.855 146.124Z" fill="#2F2E41"/>
<path d="M190.793 158.143C190.793 158.143 202.784 191.798 190.793 189.995C178.803 188.192 180.002 161.148 180.002 161.148L190.793 158.143Z" fill="#A0616A"/>
<path d="M164.114 89.3301C164.114 89.3301 171.608 93.2365 170.409 98.0444C169.21 102.852 175.205 132.901 175.205 132.901L193.191 159.345L178.203 164.754C178.203 164.754 159.018 152.133 156.02 143.118C153.023 134.103 148.826 120.281 148.826 120.281L164.114 89.3301Z" fill="#D0CDE1"/>
<path d="M160.217 75.207C171.144 75.207 180.002 66.3277 180.002 55.3745C180.002 44.4213 171.144 35.542 160.217 35.542C149.291 35.542 140.433 44.4213 140.433 55.3745C140.433 66.3277 149.291 75.207 160.217 75.207Z" fill="#A0616A"/>
<path d="M161.716 69.4976C161.716 69.4976 159.318 89.33 160.517 97.1428C161.716 104.956 136.536 68.8966 136.536 68.8966C136.536 68.8966 147.327 61.0838 147.327 58.0788C147.327 55.0739 161.716 69.4976 161.716 69.4976Z" fill="#A0616A"/>
<path d="M184.156 47.7458C182.234 47.5162 180.291 47.5297 178.372 47.786C176.436 48.0535 174.671 49.0423 173.429 50.5555C172.06 52.3919 171.606 55.1812 169.461 55.9775C168.184 56.452 166.704 56.0004 165.426 56.4726C163.891 57.0395 163.112 58.7405 162.703 60.3284C162.295 61.9162 162.058 63.6357 161.013 64.8971C159.968 66.1585 157.718 66.5824 156.793 65.2304C156.964 63.7798 156.89 62.3108 156.573 60.885C156.407 60.1732 156.067 59.5139 155.583 58.9668C155.1 58.4197 154.488 58.002 153.803 57.7512C151.447 57.0672 149.254 59.1191 147.667 60.9944C146.081 62.8696 143.956 64.9609 141.574 64.374C139.075 63.7581 138.222 60.6757 137.947 58.1104C137.319 52.2659 137.412 46.06 140.232 40.906C144.313 33.4467 153.628 29.8267 162.035 30.9962C170.441 32.1658 177.861 37.4261 183.283 43.9703C184.165 45.034 185.033 46.2027 185.222 47.5725" fill="#2F2E41"/>
<path d="M158.718 92.9365L152.124 86.3257L140.733 63.4883L110.157 73.104C110.157 73.104 99.3653 76.109 92.7705 95.3404C92.7705 95.3404 53.2018 146.424 59.7966 154.838C66.3914 163.252 67.5904 162.651 78.3819 156.04C85.1522 151.953 92.4018 148.723 99.9648 146.424L128.742 149.429L146.128 127.794C146.128 127.794 171.908 110.966 167.711 91.7345L160.517 82.1188L158.718 92.9365Z" fill="#575A89"/>
<path d="M154.222 153.335L157.819 155.739C157.819 155.739 177.603 180.379 168.011 185.187C158.419 189.995 148.826 161.148 148.826 161.148L154.222 153.335Z" fill="#A0616A"/>
<path d="M127.035 73.7713C127.75 73.8249 128.445 74.0275 129.077 74.3661C129.709 74.7046 130.264 75.1717 130.706 75.7375C133.084 78.7714 136.63 85.9065 131.44 98.0449C127.23 107.766 123.821 117.816 121.248 128.094C121.248 128.094 124.246 127.493 124.246 129.897C124.246 132.301 121.848 131.099 124.246 132.301C126.644 133.503 126.044 131.7 126.644 133.503C127.27 135.386 126.588 135.302 128.013 135.991C129.446 136.783 130.694 137.871 131.676 139.183C131.946 139.543 132.271 139.857 132.639 140.114L154.821 151.533C154.821 151.533 157.819 163.552 148.826 163.552C148.826 163.552 93.6698 147.927 94.8689 135.907C96.0412 124.156 98.3595 71.6192 127.035 73.7713Z" fill="#D0CDE1"/>
<path d="M115.253 225.453V241.079L98.4661 239.877L102.063 224.251L115.253 225.453Z" fill="#A0616A"/>
<path d="M103.262 232.665C103.262 232.665 117.051 226.054 117.051 230.862C117.051 235.669 126.644 249.492 126.644 249.492C126.644 249.492 142.831 274.733 121.848 270.527C100.864 266.32 101.464 257.305 101.464 257.305C101.464 257.305 93.6699 251.896 93.6699 248.891C93.6699 245.886 97.9181 232.641 99.9907 233.254C100.54 233.45 101.131 233.499 101.705 233.396C102.279 233.292 102.816 233.04 103.262 232.665Z" fill="#2F2E41"/>
<path d="M86.4755 147.325C86.4755 147.325 129.042 137.71 127.243 153.335C125.445 168.961 123.646 177.976 123.646 177.976L116.452 229.059L99.665 227.256L98.466 217.641C98.466 217.641 94.8688 214.035 96.6674 211.631C98.466 209.227 93.6698 185.788 93.6698 185.788C93.6698 185.788 64.8925 191.798 62.4944 174.37C60.0963 156.941 66.0916 151.532 66.0916 151.532L86.4755 147.325Z" fill="#2F2E41"/>
<path d="M358.294 203.295H250.903V204.505H358.294V203.295Z" fill="#3F3D56"/>
<path d="M358.294 211.762H250.903V212.971H358.294V211.762Z" fill="#3F3D56"/>
<path d="M358.294 220.229H250.903V221.438H358.294V220.229Z" fill="#3F3D56"/>
<path d="M277.242 172.912H253.087V192.586H277.242V172.912Z" fill="#D0CDE1"/>
<path d="M273.719 189.56H248.558V168.877H273.719V189.56ZM249.564 188.551H272.713V169.886H249.564V188.551Z" fill="#3F3D56"/>
<path d="M229.163 184.237C231.812 184.237 233.96 182.084 233.96 179.429C233.96 176.774 231.812 174.621 229.163 174.621C226.515 174.621 224.367 176.774 224.367 179.429C224.367 182.084 226.515 184.237 229.163 184.237Z" fill="#6C63FF"/>
<path d="M358.294 34.418H250.903V35.6275H358.294V34.418Z" fill="#3F3D56"/>
<path d="M358.294 42.8848H250.903V44.0943H358.294V42.8848Z" fill="#3F3D56"/>
<path d="M358.294 51.3516H250.903V52.5611H358.294V51.3516Z" fill="#3F3D56"/>
<path d="M277.242 4.03613H253.087V23.7099H277.242V4.03613Z" fill="#D0CDE1"/>
<path d="M273.719 20.6826H248.558V0H273.719V20.6826ZM249.564 19.6737H272.713V1.00891H249.564V19.6737Z" fill="#3F3D56"/>
<path d="M229.163 15.3599C231.812 15.3599 233.96 13.2073 233.96 10.552C233.96 7.8967 231.812 5.74414 229.163 5.74414C226.515 5.74414 224.367 7.8967 224.367 10.552C224.367 13.2073 226.515 15.3599 229.163 15.3599Z" fill="#6C63FF"/>
<path d="M477 131.177H369.609V132.386H477V131.177Z" fill="#3F3D56"/>
<path d="M477 139.644H369.609V140.853H477V139.644Z" fill="#3F3D56"/>
<path d="M477 148.11H369.609V149.32H477V148.11Z" fill="#3F3D56"/>
<path d="M395.948 100.794H371.793V120.468H395.948V100.794Z" fill="#D0CDE1"/>
<path d="M392.425 117.441H367.264V96.7588H392.425V117.441ZM368.27 116.433H391.419V97.7677H368.27V116.433Z" fill="#3F3D56"/>
<path d="M347.869 112.119C350.518 112.119 352.666 109.966 352.666 107.311C352.666 104.655 350.518 102.503 347.869 102.503C345.221 102.503 343.073 104.655 343.073 107.311C343.073 109.966 345.221 112.119 347.869 112.119Z" fill="#6C63FF"/>
</g>
<defs>
<clipPath id="clip0">
<rect width="477" height="271" fill="white"/>
</clipPath>
</defs>
</svg>
