<svg width="514" height="298" viewBox="0 0 514 298" fill="none" xmlns="http://www.w3.org/2000/svg">
<g clip-path="url(#clip0)">
<path d="M28.8156 297.131C20.8861 296.536 13.8853 291.31 9.90406 285.034C8.56893 282.929 7.65414 280.168 9.16607 278.165C9.59884 277.592 10.1969 277.139 10.8944 276.855C11.5919 276.572 12.3617 276.47 13.1191 276.559C13.8764 276.649 14.5919 276.927 15.1866 277.364C15.7814 277.8 16.2323 278.378 16.4898 279.033C16.0028 276.574 15.7935 274.076 15.8653 271.579C15.9262 269.464 16.3648 267.073 18.2948 265.897C20.5338 264.533 23.7612 265.616 25.3898 267.571C27.0184 269.526 27.4603 272.068 27.8512 274.496C27.5321 273.469 27.501 272.384 27.7607 271.343C28.0204 270.301 28.5627 269.336 29.3379 268.535C30.1131 267.733 31.0965 267.122 32.198 266.757C33.2996 266.391 34.4841 266.283 35.6433 266.443C38.9227 266.894 41.4918 269.481 42.4942 272.361C43.4966 275.242 43.1837 278.365 42.5385 281.329C41.782 284.804 40.5541 288.252 38.3436 291.167C36.1331 294.083 32.8497 296.433 29.0403 297.146L28.8156 297.131Z" fill="#F2F2F2"/>
<path d="M514 62.5079C514 75.4715 509.578 88.1147 501.345 98.6879C493.111 109.261 481.475 117.241 468.045 121.525C467.618 121.66 467.184 121.796 466.75 121.92V58.4036H376.931C376.957 58.0085 376.989 57.6134 377.028 57.2242H466.75V44.817C466.75 44.0351 466.409 43.2854 465.802 42.7325C465.195 42.1796 464.372 41.8689 463.514 41.8685H380.614C380.762 41.4734 380.918 41.0784 381.086 40.6891C386.702 26.9553 397.436 15.4558 411.413 8.19965C425.389 0.943474 441.72 -1.60806 457.552 0.990813C473.383 3.58969 487.709 11.1737 498.027 22.418C508.345 33.6623 513.998 47.8519 514 62.5079Z" fill="#F2F2F2"/>
<path d="M463.514 40.6895H148.3C147.099 40.6907 145.947 41.126 145.098 41.8998C144.249 42.6737 143.771 43.7229 143.77 44.8173V239.417C143.771 240.511 144.249 241.561 145.098 242.334C145.947 243.108 147.099 243.544 148.3 243.545H463.514C464.715 243.544 465.867 243.108 466.716 242.334C467.566 241.561 468.043 240.511 468.045 239.417V44.8173C468.043 43.7229 467.566 42.6737 466.716 41.8998C465.867 41.126 464.715 40.6907 463.514 40.6895ZM466.75 239.417C466.75 240.199 466.409 240.949 465.802 241.502C465.195 242.054 464.372 242.365 463.514 242.365H148.3C147.442 242.365 146.619 242.054 146.012 241.502C145.405 240.949 145.064 240.199 145.064 239.417V44.8173C145.064 44.0354 145.405 43.2857 146.012 42.7328C146.619 42.1799 147.442 41.8692 148.3 41.8688H463.514C464.372 41.8692 465.195 42.1799 465.802 42.7328C466.409 43.2857 466.75 44.0354 466.75 44.8173V239.417Z" fill="#3F3D56"/>
<path d="M467.398 57.2236H144.417V58.403H467.398V57.2236Z" fill="#3F3D56"/>
<path d="M155.42 53.0724C157.564 53.0724 159.303 51.4884 159.303 49.5343C159.303 47.5802 157.564 45.9961 155.42 45.9961C153.275 45.9961 151.536 47.5802 151.536 49.5343C151.536 51.4884 153.275 53.0724 155.42 53.0724Z" fill="#3F3D56"/>
<path d="M166.586 53.0724C168.73 53.0724 170.469 51.4884 170.469 49.5343C170.469 47.5802 168.73 45.9961 166.586 45.9961C164.441 45.9961 162.702 47.5802 162.702 49.5343C162.702 51.4884 164.441 53.0724 166.586 53.0724Z" fill="#3F3D56"/>
<path d="M177.751 53.0724C179.896 53.0724 181.634 51.4884 181.634 49.5343C181.634 47.5802 179.896 45.9961 177.751 45.9961C175.606 45.9961 173.867 47.5802 173.867 49.5343C173.867 51.4884 175.606 53.0724 177.751 53.0724Z" fill="#3F3D56"/>
<path d="M232.443 81.3779H175.485C174.284 81.3791 173.132 81.8144 172.283 82.5883C171.433 83.3622 170.955 84.4114 170.954 85.5058V137.399C170.955 138.493 171.433 139.543 172.283 140.317C173.132 141.09 174.284 141.526 175.485 141.527H232.443C233.645 141.526 234.796 141.09 235.646 140.317C236.495 139.543 236.973 138.493 236.974 137.399V85.5058C236.973 84.4114 236.495 83.3622 235.646 82.5883C234.796 81.8144 233.645 81.3791 232.443 81.3779ZM235.68 137.399C235.679 138.181 235.338 138.931 234.731 139.484C234.125 140.036 233.302 140.347 232.443 140.348H175.485C174.627 140.347 173.804 140.036 173.197 139.484C172.59 138.931 172.249 138.181 172.249 137.399V85.5058C172.249 84.7239 172.59 83.9741 173.197 83.4213C173.804 82.8684 174.627 82.5576 175.485 82.5573H232.443C233.302 82.5576 234.125 82.8684 234.731 83.4213C235.338 83.9741 235.679 84.7239 235.68 85.5058V137.399Z" fill="#3F3D56"/>
<path d="M334.71 81.6729H277.751C276.636 81.6748 275.567 82.0793 274.779 82.7977C273.99 83.5161 273.546 84.4899 273.544 85.5059V137.399C273.546 138.415 273.99 139.389 274.779 140.107C275.567 140.826 276.636 141.23 277.751 141.232H334.71C335.825 141.23 336.894 140.826 337.682 140.107C338.471 139.389 338.915 138.415 338.917 137.399V85.5059C338.915 84.4899 338.471 83.5161 337.682 82.7977C336.894 82.0793 335.825 81.6748 334.71 81.6729Z" fill="#6C63FF"/>
<path d="M436.976 81.6729H380.018C378.903 81.6748 377.834 82.0793 377.045 82.7977C376.257 83.5161 375.813 84.4899 375.811 85.5059V137.399C375.813 138.415 376.257 139.389 377.045 140.107C377.834 140.826 378.903 141.23 380.018 141.232H436.976C438.091 141.23 439.16 140.826 439.949 140.107C440.737 139.389 441.181 138.415 441.183 137.399V85.5059C441.181 84.4899 440.737 83.5161 439.949 82.7977C439.16 82.0793 438.091 81.6748 436.976 81.6729Z" fill="#E6E6E6"/>
<path d="M232.444 159.513H175.485C174.37 159.515 173.301 159.919 172.513 160.638C171.724 161.356 171.28 162.33 171.278 163.346V215.239C171.28 216.255 171.724 217.229 172.513 217.947C173.301 218.666 174.37 219.07 175.485 219.072H232.444C233.559 219.07 234.628 218.666 235.417 217.947C236.205 217.229 236.649 216.255 236.651 215.239V163.346C236.649 162.33 236.205 161.356 235.417 160.638C234.628 159.919 233.559 159.515 232.444 159.513Z" fill="#E6E6E6"/>
<path d="M334.71 159.513H277.751C276.636 159.515 275.567 159.919 274.779 160.638C273.99 161.356 273.546 162.33 273.544 163.346V215.239C273.546 216.255 273.99 217.229 274.779 217.947C275.567 218.666 276.636 219.07 277.751 219.072H334.71C335.825 219.07 336.894 218.666 337.682 217.947C338.471 217.229 338.915 216.255 338.917 215.239V163.346C338.915 162.33 338.471 161.356 337.682 160.638C336.894 159.919 335.825 159.515 334.71 159.513Z" fill="#6C63FF"/>
<path d="M436.976 159.513H380.018C378.903 159.515 377.834 159.919 377.045 160.638C376.257 161.356 375.813 162.33 375.811 163.346V215.239C375.813 216.255 376.257 217.229 377.045 217.947C377.834 218.666 378.903 219.07 380.018 219.072H436.976C438.091 219.07 439.16 218.666 439.949 217.947C440.737 217.229 441.181 216.255 441.183 215.239V163.346C441.181 162.33 440.737 161.356 439.949 160.638C439.16 159.919 438.091 159.515 436.976 159.513Z" fill="#E6E6E6"/>
<path d="M218.528 168.063H161.569C160.454 168.062 159.385 167.658 158.596 166.939C157.807 166.221 157.364 165.246 157.362 164.23V112.337C157.364 111.321 157.807 110.346 158.596 109.628C159.385 108.909 160.454 108.505 161.569 108.504H218.528C219.643 108.505 220.713 108.909 221.501 109.628C222.29 110.346 222.734 111.321 222.735 112.337V164.23C222.734 165.246 222.29 166.221 221.501 166.939C220.713 167.658 219.643 168.062 218.528 168.063Z" fill="#6C63FF"/>
<path d="M131.228 290.182L138.814 288.061L133.444 260.394L122.248 263.524L131.228 290.182Z" fill="#A0616A"/>
<path d="M155.606 290.389L131.765 297.055L128.938 288.662L143.568 284.572C144.778 284.234 146.049 284.116 147.308 284.225C148.568 284.334 149.792 284.669 150.909 285.209C152.027 285.749 153.018 286.484 153.823 287.373C154.629 288.262 155.235 289.287 155.606 290.389Z" fill="#2F2E41"/>
<path d="M66.5042 290.341L74.4396 290.341L78.2144 262.455L66.5029 262.456L66.5042 290.341Z" fill="#A0616A"/>
<path d="M89.7432 297.054L64.8039 297.055L64.8035 288.276L80.1071 288.275C81.3725 288.275 82.6254 288.502 83.7945 288.943C84.9636 289.385 86.0259 290.031 86.9206 290.846C87.8154 291.661 88.5252 292.629 89.0095 293.694C89.4938 294.759 89.7431 295.901 89.7432 297.054L89.7432 297.054Z" fill="#2F2E41"/>
<path d="M65.9351 209.508C65.2831 208.987 64.7645 208.342 64.4155 207.619C64.0666 206.896 63.896 206.112 63.9156 205.323C63.9352 204.533 64.1446 203.757 64.5291 203.049C64.9136 202.341 65.4638 201.718 66.1409 201.225L72.2933 130.642L84.8053 133.49L74.7874 202.342C75.6215 203.433 75.9873 204.765 75.8154 206.086C75.6435 207.406 74.9459 208.624 73.8548 209.507C72.7636 210.39 71.3547 210.878 69.8951 210.878C68.4354 210.878 67.0264 210.391 65.9351 209.508Z" fill="#A0616A"/>
<path d="M90.991 103.265C99.7708 103.265 106.888 96.7804 106.888 88.7814C106.888 80.7824 99.7708 74.2979 90.991 74.2979C82.2112 74.2979 75.0938 80.7824 75.0938 88.7814C75.0938 96.7804 82.2112 103.265 90.991 103.265Z" fill="#A0616A"/>
<path d="M77.167 128.47C73.58 123.984 73.4695 117.805 77.3334 113.513C79.8551 110.713 84.073 108.472 91.1151 108.472C109.886 108.472 117.005 122.035 117.005 122.035C117.005 122.035 124.772 135.008 120.242 146.802C115.711 158.596 115.711 159.775 115.711 159.775L85.9371 157.416C85.9371 157.416 90.9599 145.722 77.167 128.47Z" fill="#CCCCCC"/>
<path d="M67.9863 140.21L74.4004 121.092C74.83 119.812 75.563 118.633 76.5475 117.639C77.532 116.646 78.7441 115.861 80.098 115.341C81.4519 114.821 82.9147 114.578 84.3829 114.63C85.8511 114.682 87.289 115.026 88.5949 115.64C90.8605 116.709 92.5951 118.523 93.447 120.714C94.2989 122.905 94.2044 125.31 93.1825 127.44L85.0282 144.359L67.9863 140.21Z" fill="#CCCCCC"/>
<path d="M115.064 156.826L140.307 275.945L126.715 279.483L93.7045 201.053L78.8176 281.252L64.5779 283.021C64.5779 283.021 58.3317 176.908 85.9374 157.416L115.064 156.826Z" fill="#2F2E41"/>
<path d="M151.395 151.244C151.165 151.494 150.956 151.76 150.772 152.04L118.71 153.456L112.536 136.284L101.816 140.926L111.906 166.502L151.558 159.437C152.49 160.364 153.709 161.01 155.054 161.29C156.399 161.57 157.805 161.47 159.086 161.004C160.368 160.538 161.463 159.728 162.226 158.681C162.989 157.634 163.385 156.401 163.36 155.144C163.335 153.887 162.89 152.668 162.086 151.647C161.281 150.626 160.155 149.852 158.856 149.429C157.557 149.005 156.148 148.952 154.815 149.276C153.482 149.601 152.289 150.287 151.395 151.244Z" fill="#A0616A"/>
<path d="M97.3315 123.747C97.1597 122.418 97.3106 121.07 97.7735 119.799C98.2363 118.529 98.9999 117.367 100.01 116.394C101.02 115.422 102.252 114.664 103.62 114.174C104.987 113.683 106.456 113.472 107.922 113.556C110.468 113.705 112.857 114.73 114.604 116.425C116.351 118.119 117.325 120.355 117.33 122.679V141.158L99.8952 143.602L97.3315 123.747Z" fill="#CCCCCC"/>
<path d="M94.4868 103.397C92.1008 103.387 90.2601 101.099 90.3671 98.9269C90.474 96.7552 92.075 94.8445 94.0038 93.5648C95.9326 92.2851 98.1946 91.5056 100.346 90.5648C102.497 89.6239 104.629 88.4504 105.957 86.6443C106.759 85.4623 107.238 84.122 107.353 82.7362C107.469 81.3503 107.217 79.9596 106.619 78.6809C105.383 76.1234 103.261 74.0056 100.578 72.6517C96.5926 70.5262 91.8743 69.8465 87.3634 70.7481C82.8524 71.6498 78.8798 74.0665 76.2368 77.5169L73.5131 84.2736C70.7378 87.3141 70.2975 91.8296 72.0036 95.4658C73.7096 99.1021 77.3422 101.838 81.4413 103.139C85.6002 104.356 90.0521 104.478 94.2836 103.489" fill="#2F2E41"/>
<path d="M79.9582 80.8937C78.7874 79.1839 76.7579 78.0966 74.6599 77.4584C72.2293 76.7191 69.6442 76.5009 67.1059 76.8208C64.5676 77.1407 62.1446 77.99 60.0256 79.3026C57.9065 80.6153 56.1486 82.3558 54.8887 84.3887C53.6288 86.4216 52.9009 88.692 52.7616 91.0231C52.5393 94.7467 53.819 98.3879 54.571 102.053C55.323 105.719 55.4726 109.768 53.2542 112.902C51.5645 115.288 48.7468 116.791 45.9656 118.075C43.6476 119.144 41.1402 120.148 38.5525 119.935C35.9647 119.722 33.3638 117.854 33.4324 115.488C32.5661 117.185 31.9812 118.989 31.6967 120.842C31.5147 122.704 32.0182 124.712 33.4936 126.009C35.638 127.896 39.0357 127.758 41.9828 127.351C48.3627 126.469 54.8231 124.818 59.8635 121.147C64.9039 117.476 68.2485 111.432 66.9212 105.678C66.3667 103.275 65.0636 101.081 64.0106 98.8203C62.9576 96.5596 62.1355 94.0868 62.6193 91.6708C62.9056 90.4262 63.4883 89.2539 64.3262 88.2368C65.1642 87.2198 66.237 86.3827 67.4689 85.7846C69.9602 84.6045 72.8109 84.2106 75.5742 84.6648C77.3859 84.9357 79.6481 85.3562 80.7226 84C81.0074 83.5703 81.1528 83.076 81.1421 82.5742C81.1314 82.0724 80.9649 81.5836 80.662 81.1644C80.042 80.3351 79.2525 79.6224 78.3367 79.0653" fill="#2F2E41"/>
<path d="M199.669 298H0.770969C0.669574 298 0.569112 297.982 0.475351 297.947C0.38159 297.912 0.296372 297.86 0.224571 297.795C0.15277 297.73 0.0957997 297.652 0.0569296 297.567C0.0180595 297.482 -0.00195312 297.39 -0.00195312 297.298C-0.00195312 297.205 0.0180595 297.114 0.0569296 297.029C0.0957997 296.943 0.15277 296.866 0.224571 296.801C0.296372 296.735 0.38159 296.684 0.475351 296.649C0.569112 296.613 0.669574 296.595 0.770969 296.596H199.669C199.77 296.595 199.871 296.613 199.964 296.649C200.058 296.684 200.143 296.735 200.215 296.801C200.287 296.866 200.344 296.943 200.383 297.029C200.422 297.114 200.442 297.205 200.442 297.298C200.442 297.39 200.422 297.482 200.383 297.567C200.344 297.652 200.287 297.73 200.215 297.795C200.143 297.86 200.058 297.912 199.964 297.947C199.871 297.982 199.77 298 199.669 298Z" fill="#3F3D56"/>
</g>
<defs>
<clipPath id="clip0">
<rect width="514" height="298" fill="white"/>
</clipPath>
</defs>
</svg>
