<svg width="375" height="304" viewBox="0 0 375 304" fill="none" xmlns="http://www.w3.org/2000/svg">
<g clip-path="url(#clip0)">
<path d="M374.818 304.001H251.283V302.991H375L374.818 304.001Z" fill="#3F3D56"/>
<path d="M3.26515 6.53364C5.06871 6.53364 6.53079 5.07126 6.53079 3.26731C6.53079 1.46336 5.06871 0.000976562 3.26515 0.000976562C1.46159 0.000976562 -0.000488281 1.46336 -0.000488281 3.26731C-0.000488281 5.07126 1.46159 6.53364 3.26515 6.53364Z" fill="#E6E6E6"/>
<path d="M19.7959 6.53267C21.5995 6.53267 23.0615 5.07028 23.0615 3.26633C23.0615 1.46239 21.5995 0 19.7959 0C17.9923 0 16.5303 1.46239 16.5303 3.26633C16.5303 5.07028 17.9923 6.53267 19.7959 6.53267Z" fill="#E6E6E6"/>
<path d="M36.3267 6.53267C38.1302 6.53267 39.5923 5.07028 39.5923 3.26633C39.5923 1.46239 38.1302 0 36.3267 0C34.5231 0 33.061 1.46239 33.061 3.26633C33.061 5.07028 34.5231 6.53267 36.3267 6.53267Z" fill="#E6E6E6"/>
<path d="M52.8569 6.53267C54.6605 6.53267 56.1226 5.07028 56.1226 3.26633C56.1226 1.46239 54.6605 0 52.8569 0C51.0534 0 49.5913 1.46239 49.5913 3.26633C49.5913 5.07028 51.0534 6.53267 52.8569 6.53267Z" fill="#E6E6E6"/>
<path d="M69.3877 6.53267C71.1913 6.53267 72.6533 5.07028 72.6533 3.26633C72.6533 1.46239 71.1913 0 69.3877 0C67.5841 0 66.1221 1.46239 66.1221 3.26633C66.1221 5.07028 67.5841 6.53267 69.3877 6.53267Z" fill="#E6E6E6"/>
<path d="M85.9185 6.53267C87.722 6.53267 89.1841 5.07028 89.1841 3.26633C89.1841 1.46239 87.722 0 85.9185 0C84.1149 0 82.6528 1.46239 82.6528 3.26633C82.6528 5.07028 84.1149 6.53267 85.9185 6.53267Z" fill="#E6E6E6"/>
<path d="M102.449 6.53267C104.252 6.53267 105.714 5.07028 105.714 3.26633C105.714 1.46239 104.252 0 102.449 0C100.645 0 99.1831 1.46239 99.1831 3.26633C99.1831 5.07028 100.645 6.53267 102.449 6.53267Z" fill="#E6E6E6"/>
<path d="M118.979 6.53267C120.783 6.53267 122.245 5.07028 122.245 3.26633C122.245 1.46239 120.783 0 118.979 0C117.176 0 115.714 1.46239 115.714 3.26633C115.714 5.07028 117.176 6.53267 118.979 6.53267Z" fill="#E6E6E6"/>
<path d="M135.51 6.53267C137.314 6.53267 138.776 5.07028 138.776 3.26633C138.776 1.46239 137.314 0 135.51 0C133.707 0 132.245 1.46239 132.245 3.26633C132.245 5.07028 133.707 6.53267 135.51 6.53267Z" fill="#E6E6E6"/>
<path d="M152.041 6.53267C153.845 6.53267 155.307 5.07028 155.307 3.26633C155.307 1.46239 153.845 0 152.041 0C150.237 0 148.775 1.46239 148.775 3.26633C148.775 5.07028 150.237 6.53267 152.041 6.53267Z" fill="#E6E6E6"/>
<path d="M3.26515 23.2749C5.06871 23.2749 6.53079 21.8125 6.53079 20.0085C6.53079 18.2046 5.06871 16.7422 3.26515 16.7422C1.46159 16.7422 -0.000488281 18.2046 -0.000488281 20.0085C-0.000488281 21.8125 1.46159 23.2749 3.26515 23.2749Z" fill="#E6E6E6"/>
<path d="M19.7959 23.2749C21.5995 23.2749 23.0615 21.8125 23.0615 20.0085C23.0615 18.2046 21.5995 16.7422 19.7959 16.7422C17.9923 16.7422 16.5303 18.2046 16.5303 20.0085C16.5303 21.8125 17.9923 23.2749 19.7959 23.2749Z" fill="#E6E6E6"/>
<path d="M36.3267 23.2749C38.1302 23.2749 39.5923 21.8125 39.5923 20.0085C39.5923 18.2046 38.1302 16.7422 36.3267 16.7422C34.5231 16.7422 33.061 18.2046 33.061 20.0085C33.061 21.8125 34.5231 23.2749 36.3267 23.2749Z" fill="#E6E6E6"/>
<path d="M52.8569 23.2749C54.6605 23.2749 56.1226 21.8125 56.1226 20.0085C56.1226 18.2046 54.6605 16.7422 52.8569 16.7422C51.0534 16.7422 49.5913 18.2046 49.5913 20.0085C49.5913 21.8125 51.0534 23.2749 52.8569 23.2749Z" fill="#6C63FF"/>
<path d="M69.3877 23.2749C71.1913 23.2749 72.6533 21.8125 72.6533 20.0085C72.6533 18.2046 71.1913 16.7422 69.3877 16.7422C67.5841 16.7422 66.1221 18.2046 66.1221 20.0085C66.1221 21.8125 67.5841 23.2749 69.3877 23.2749Z" fill="#E6E6E6"/>
<path d="M85.9185 23.2749C87.722 23.2749 89.1841 21.8125 89.1841 20.0085C89.1841 18.2046 87.722 16.7422 85.9185 16.7422C84.1149 16.7422 82.6528 18.2046 82.6528 20.0085C82.6528 21.8125 84.1149 23.2749 85.9185 23.2749Z" fill="#E6E6E6"/>
<path d="M102.449 23.2749C104.252 23.2749 105.714 21.8125 105.714 20.0085C105.714 18.2046 104.252 16.7422 102.449 16.7422C100.645 16.7422 99.1831 18.2046 99.1831 20.0085C99.1831 21.8125 100.645 23.2749 102.449 23.2749Z" fill="#E6E6E6"/>
<path d="M118.979 23.2749C120.783 23.2749 122.245 21.8125 122.245 20.0085C122.245 18.2046 120.783 16.7422 118.979 16.7422C117.176 16.7422 115.714 18.2046 115.714 20.0085C115.714 21.8125 117.176 23.2749 118.979 23.2749Z" fill="#E6E6E6"/>
<path d="M135.51 23.2749C137.314 23.2749 138.776 21.8125 138.776 20.0085C138.776 18.2046 137.314 16.7422 135.51 16.7422C133.707 16.7422 132.245 18.2046 132.245 20.0085C132.245 21.8125 133.707 23.2749 135.51 23.2749Z" fill="#E6E6E6"/>
<path d="M152.041 23.2749C153.845 23.2749 155.307 21.8125 155.307 20.0085C155.307 18.2046 153.845 16.7422 152.041 16.7422C150.237 16.7422 148.775 18.2046 148.775 20.0085C148.775 21.8125 150.237 23.2749 152.041 23.2749Z" fill="#E6E6E6"/>
<path d="M3.26515 40.0161C5.06871 40.0161 6.53079 38.5537 6.53079 36.7497C6.53079 34.9458 5.06871 33.4834 3.26515 33.4834C1.46159 33.4834 -0.000488281 34.9458 -0.000488281 36.7497C-0.000488281 38.5537 1.46159 40.0161 3.26515 40.0161Z" fill="#E6E6E6"/>
<path d="M19.7959 40.0161C21.5995 40.0161 23.0615 38.5537 23.0615 36.7497C23.0615 34.9458 21.5995 33.4834 19.7959 33.4834C17.9923 33.4834 16.5303 34.9458 16.5303 36.7497C16.5303 38.5537 17.9923 40.0161 19.7959 40.0161Z" fill="#E6E6E6"/>
<path d="M36.3267 40.0161C38.1302 40.0161 39.5923 38.5537 39.5923 36.7497C39.5923 34.9458 38.1302 33.4834 36.3267 33.4834C34.5231 33.4834 33.061 34.9458 33.061 36.7497C33.061 38.5537 34.5231 40.0161 36.3267 40.0161Z" fill="#E6E6E6"/>
<path d="M52.8569 40.0161C54.6605 40.0161 56.1226 38.5537 56.1226 36.7497C56.1226 34.9458 54.6605 33.4834 52.8569 33.4834C51.0534 33.4834 49.5913 34.9458 49.5913 36.7497C49.5913 38.5537 51.0534 40.0161 52.8569 40.0161Z" fill="#E6E6E6"/>
<path d="M69.3877 40.0161C71.1913 40.0161 72.6533 38.5537 72.6533 36.7497C72.6533 34.9458 71.1913 33.4834 69.3877 33.4834C67.5841 33.4834 66.1221 34.9458 66.1221 36.7497C66.1221 38.5537 67.5841 40.0161 69.3877 40.0161Z" fill="#E6E6E6"/>
<path d="M85.9185 40.0161C87.722 40.0161 89.1841 38.5537 89.1841 36.7497C89.1841 34.9458 87.722 33.4834 85.9185 33.4834C84.1149 33.4834 82.6528 34.9458 82.6528 36.7497C82.6528 38.5537 84.1149 40.0161 85.9185 40.0161Z" fill="#E6E6E6"/>
<path d="M102.449 40.0161C104.252 40.0161 105.714 38.5537 105.714 36.7497C105.714 34.9458 104.252 33.4834 102.449 33.4834C100.645 33.4834 99.1831 34.9458 99.1831 36.7497C99.1831 38.5537 100.645 40.0161 102.449 40.0161Z" fill="#E6E6E6"/>
<path d="M118.979 40.0161C120.783 40.0161 122.245 38.5537 122.245 36.7497C122.245 34.9458 120.783 33.4834 118.979 33.4834C117.176 33.4834 115.714 34.9458 115.714 36.7497C115.714 38.5537 117.176 40.0161 118.979 40.0161Z" fill="#E6E6E6"/>
<path d="M135.51 40.0161C137.314 40.0161 138.776 38.5537 138.776 36.7497C138.776 34.9458 137.314 33.4834 135.51 33.4834C133.707 33.4834 132.245 34.9458 132.245 36.7497C132.245 38.5537 133.707 40.0161 135.51 40.0161Z" fill="#E6E6E6"/>
<path d="M152.041 40.0161C153.845 40.0161 155.307 38.5537 155.307 36.7497C155.307 34.9458 153.845 33.4834 152.041 33.4834C150.237 33.4834 148.775 34.9458 148.775 36.7497C148.775 38.5537 150.237 40.0161 152.041 40.0161Z" fill="#E6E6E6"/>
<path d="M3.26515 56.7583C5.06871 56.7583 6.53079 55.2959 6.53079 53.4919C6.53079 51.688 5.06871 50.2256 3.26515 50.2256C1.46159 50.2256 -0.000488281 51.688 -0.000488281 53.4919C-0.000488281 55.2959 1.46159 56.7583 3.26515 56.7583Z" fill="#E6E6E6"/>
<path d="M19.7959 56.7583C21.5995 56.7583 23.0615 55.2959 23.0615 53.4919C23.0615 51.688 21.5995 50.2256 19.7959 50.2256C17.9923 50.2256 16.5303 51.688 16.5303 53.4919C16.5303 55.2959 17.9923 56.7583 19.7959 56.7583Z" fill="#E6E6E6"/>
<path d="M36.3267 56.7583C38.1302 56.7583 39.5923 55.2959 39.5923 53.4919C39.5923 51.688 38.1302 50.2256 36.3267 50.2256C34.5231 50.2256 33.061 51.688 33.061 53.4919C33.061 55.2959 34.5231 56.7583 36.3267 56.7583Z" fill="#E6E6E6"/>
<path d="M52.8569 56.7583C54.6605 56.7583 56.1226 55.2959 56.1226 53.4919C56.1226 51.688 54.6605 50.2256 52.8569 50.2256C51.0534 50.2256 49.5913 51.688 49.5913 53.4919C49.5913 55.2959 51.0534 56.7583 52.8569 56.7583Z" fill="#E6E6E6"/>
<path d="M69.3877 56.7583C71.1913 56.7583 72.6533 55.2959 72.6533 53.4919C72.6533 51.688 71.1913 50.2256 69.3877 50.2256C67.5841 50.2256 66.1221 51.688 66.1221 53.4919C66.1221 55.2959 67.5841 56.7583 69.3877 56.7583Z" fill="#E6E6E6"/>
<path d="M85.9185 56.7583C87.722 56.7583 89.1841 55.2959 89.1841 53.4919C89.1841 51.688 87.722 50.2256 85.9185 50.2256C84.1149 50.2256 82.6528 51.688 82.6528 53.4919C82.6528 55.2959 84.1149 56.7583 85.9185 56.7583Z" fill="#E6E6E6"/>
<path d="M102.449 56.7583C104.252 56.7583 105.714 55.2959 105.714 53.4919C105.714 51.688 104.252 50.2256 102.449 50.2256C100.645 50.2256 99.1831 51.688 99.1831 53.4919C99.1831 55.2959 100.645 56.7583 102.449 56.7583Z" fill="#E6E6E6"/>
<path d="M118.979 56.7583C120.783 56.7583 122.245 55.2959 122.245 53.4919C122.245 51.688 120.783 50.2256 118.979 50.2256C117.176 50.2256 115.714 51.688 115.714 53.4919C115.714 55.2959 117.176 56.7583 118.979 56.7583Z" fill="#E6E6E6"/>
<path d="M135.51 56.7583C137.314 56.7583 138.776 55.2959 138.776 53.4919C138.776 51.688 137.314 50.2256 135.51 50.2256C133.707 50.2256 132.245 51.688 132.245 53.4919C132.245 55.2959 133.707 56.7583 135.51 56.7583Z" fill="#E6E6E6"/>
<path d="M152.041 56.7583C153.845 56.7583 155.307 55.2959 155.307 53.4919C155.307 51.688 153.845 50.2256 152.041 50.2256C150.237 50.2256 148.775 51.688 148.775 53.4919C148.775 55.2959 150.237 56.7583 152.041 56.7583Z" fill="#E6E6E6"/>
<path d="M3.26515 73.4995C5.06871 73.4995 6.53079 72.0371 6.53079 70.2331C6.53079 68.4292 5.06871 66.9668 3.26515 66.9668C1.46159 66.9668 -0.000488281 68.4292 -0.000488281 70.2331C-0.000488281 72.0371 1.46159 73.4995 3.26515 73.4995Z" fill="#E6E6E6"/>
<path d="M19.7959 73.4995C21.5995 73.4995 23.0615 72.0371 23.0615 70.2331C23.0615 68.4292 21.5995 66.9668 19.7959 66.9668C17.9923 66.9668 16.5303 68.4292 16.5303 70.2331C16.5303 72.0371 17.9923 73.4995 19.7959 73.4995Z" fill="#6C63FF"/>
<path d="M36.3267 73.4995C38.1302 73.4995 39.5923 72.0371 39.5923 70.2331C39.5923 68.4292 38.1302 66.9668 36.3267 66.9668C34.5231 66.9668 33.061 68.4292 33.061 70.2331C33.061 72.0371 34.5231 73.4995 36.3267 73.4995Z" fill="#E6E6E6"/>
<path d="M52.8569 73.4995C54.6605 73.4995 56.1226 72.0371 56.1226 70.2331C56.1226 68.4292 54.6605 66.9668 52.8569 66.9668C51.0534 66.9668 49.5913 68.4292 49.5913 70.2331C49.5913 72.0371 51.0534 73.4995 52.8569 73.4995Z" fill="#E6E6E6"/>
<path d="M69.3877 73.4995C71.1913 73.4995 72.6533 72.0371 72.6533 70.2331C72.6533 68.4292 71.1913 66.9668 69.3877 66.9668C67.5841 66.9668 66.1221 68.4292 66.1221 70.2331C66.1221 72.0371 67.5841 73.4995 69.3877 73.4995Z" fill="#E6E6E6"/>
<path d="M85.9185 73.4995C87.722 73.4995 89.1841 72.0371 89.1841 70.2331C89.1841 68.4292 87.722 66.9668 85.9185 66.9668C84.1149 66.9668 82.6528 68.4292 82.6528 70.2331C82.6528 72.0371 84.1149 73.4995 85.9185 73.4995Z" fill="#E6E6E6"/>
<path d="M102.449 73.4995C104.252 73.4995 105.714 72.0371 105.714 70.2331C105.714 68.4292 104.252 66.9668 102.449 66.9668C100.645 66.9668 99.1831 68.4292 99.1831 70.2331C99.1831 72.0371 100.645 73.4995 102.449 73.4995Z" fill="#E6E6E6"/>
<path d="M118.979 73.4995C120.783 73.4995 122.245 72.0371 122.245 70.2331C122.245 68.4292 120.783 66.9668 118.979 66.9668C117.176 66.9668 115.714 68.4292 115.714 70.2331C115.714 72.0371 117.176 73.4995 118.979 73.4995Z" fill="#E6E6E6"/>
<path d="M135.51 73.4995C137.314 73.4995 138.776 72.0371 138.776 70.2331C138.776 68.4292 137.314 66.9668 135.51 66.9668C133.707 66.9668 132.245 68.4292 132.245 70.2331C132.245 72.0371 133.707 73.4995 135.51 73.4995Z" fill="#E6E6E6"/>
<path d="M152.041 73.4995C153.845 73.4995 155.307 72.0371 155.307 70.2331C155.307 68.4292 153.845 66.9668 152.041 66.9668C150.237 66.9668 148.775 68.4292 148.775 70.2331C148.775 72.0371 150.237 73.4995 152.041 73.4995Z" fill="#E6E6E6"/>
<path d="M3.26515 90.2416C5.06871 90.2416 6.53079 88.7793 6.53079 86.9753C6.53079 85.1714 5.06871 83.709 3.26515 83.709C1.46159 83.709 -0.000488281 85.1714 -0.000488281 86.9753C-0.000488281 88.7793 1.46159 90.2416 3.26515 90.2416Z" fill="#E6E6E6"/>
<path d="M19.7959 90.2416C21.5995 90.2416 23.0615 88.7793 23.0615 86.9753C23.0615 85.1714 21.5995 83.709 19.7959 83.709C17.9923 83.709 16.5303 85.1714 16.5303 86.9753C16.5303 88.7793 17.9923 90.2416 19.7959 90.2416Z" fill="#E6E6E6"/>
<path d="M36.3267 90.2416C38.1302 90.2416 39.5923 88.7793 39.5923 86.9753C39.5923 85.1714 38.1302 83.709 36.3267 83.709C34.5231 83.709 33.061 85.1714 33.061 86.9753C33.061 88.7793 34.5231 90.2416 36.3267 90.2416Z" fill="#E6E6E6"/>
<path d="M52.8569 90.2416C54.6605 90.2416 56.1226 88.7793 56.1226 86.9753C56.1226 85.1714 54.6605 83.709 52.8569 83.709C51.0534 83.709 49.5913 85.1714 49.5913 86.9753C49.5913 88.7793 51.0534 90.2416 52.8569 90.2416Z" fill="#E6E6E6"/>
<path d="M69.3877 90.2416C71.1913 90.2416 72.6533 88.7793 72.6533 86.9753C72.6533 85.1714 71.1913 83.709 69.3877 83.709C67.5841 83.709 66.1221 85.1714 66.1221 86.9753C66.1221 88.7793 67.5841 90.2416 69.3877 90.2416Z" fill="#E6E6E6"/>
<path d="M85.9185 90.2416C87.722 90.2416 89.1841 88.7793 89.1841 86.9753C89.1841 85.1714 87.722 83.709 85.9185 83.709C84.1149 83.709 82.6528 85.1714 82.6528 86.9753C82.6528 88.7793 84.1149 90.2416 85.9185 90.2416Z" fill="#E6E6E6"/>
<path d="M102.449 90.2416C104.252 90.2416 105.714 88.7793 105.714 86.9753C105.714 85.1714 104.252 83.709 102.449 83.709C100.645 83.709 99.1831 85.1714 99.1831 86.9753C99.1831 88.7793 100.645 90.2416 102.449 90.2416Z" fill="#E6E6E6"/>
<path d="M118.979 90.2416C120.783 90.2416 122.245 88.7793 122.245 86.9753C122.245 85.1714 120.783 83.709 118.979 83.709C117.176 83.709 115.714 85.1714 115.714 86.9753C115.714 88.7793 117.176 90.2416 118.979 90.2416Z" fill="#E6E6E6"/>
<path d="M135.51 90.2416C137.314 90.2416 138.776 88.7793 138.776 86.9753C138.776 85.1714 137.314 83.709 135.51 83.709C133.707 83.709 132.245 85.1714 132.245 86.9753C132.245 88.7793 133.707 90.2416 135.51 90.2416Z" fill="#E6E6E6"/>
<path d="M152.041 90.2416C153.845 90.2416 155.307 88.7793 155.307 86.9753C155.307 85.1714 153.845 83.709 152.041 83.709C150.237 83.709 148.775 85.1714 148.775 86.9753C148.775 88.7793 150.237 90.2416 152.041 90.2416Z" fill="#E6E6E6"/>
<path d="M3.26515 106.983C5.06871 106.983 6.53079 105.52 6.53079 103.717C6.53079 101.913 5.06871 100.45 3.26515 100.45C1.46159 100.45 -0.000488281 101.913 -0.000488281 103.717C-0.000488281 105.52 1.46159 106.983 3.26515 106.983Z" fill="#E6E6E6"/>
<path d="M19.7959 106.983C21.5995 106.983 23.0615 105.52 23.0615 103.717C23.0615 101.913 21.5995 100.45 19.7959 100.45C17.9923 100.45 16.5303 101.913 16.5303 103.717C16.5303 105.52 17.9923 106.983 19.7959 106.983Z" fill="#E6E6E6"/>
<path d="M36.3267 106.983C38.1302 106.983 39.5923 105.52 39.5923 103.717C39.5923 101.913 38.1302 100.45 36.3267 100.45C34.5231 100.45 33.061 101.913 33.061 103.717C33.061 105.52 34.5231 106.983 36.3267 106.983Z" fill="#6C63FF"/>
<path d="M52.8569 106.983C54.6605 106.983 56.1226 105.52 56.1226 103.717C56.1226 101.913 54.6605 100.45 52.8569 100.45C51.0534 100.45 49.5913 101.913 49.5913 103.717C49.5913 105.52 51.0534 106.983 52.8569 106.983Z" fill="#E6E6E6"/>
<path d="M69.3877 106.983C71.1913 106.983 72.6533 105.52 72.6533 103.717C72.6533 101.913 71.1913 100.45 69.3877 100.45C67.5841 100.45 66.1221 101.913 66.1221 103.717C66.1221 105.52 67.5841 106.983 69.3877 106.983Z" fill="#E6E6E6"/>
<path d="M85.9185 106.983C87.722 106.983 89.1841 105.52 89.1841 103.717C89.1841 101.913 87.722 100.45 85.9185 100.45C84.1149 100.45 82.6528 101.913 82.6528 103.717C82.6528 105.52 84.1149 106.983 85.9185 106.983Z" fill="#E6E6E6"/>
<path d="M102.449 106.983C104.252 106.983 105.714 105.52 105.714 103.717C105.714 101.913 104.252 100.45 102.449 100.45C100.645 100.45 99.1831 101.913 99.1831 103.717C99.1831 105.52 100.645 106.983 102.449 106.983Z" fill="#E6E6E6"/>
<path d="M118.979 106.983C120.783 106.983 122.245 105.52 122.245 103.717C122.245 101.913 120.783 100.45 118.979 100.45C117.176 100.45 115.714 101.913 115.714 103.717C115.714 105.52 117.176 106.983 118.979 106.983Z" fill="#E6E6E6"/>
<path d="M135.51 106.983C137.314 106.983 138.776 105.52 138.776 103.717C138.776 101.913 137.314 100.45 135.51 100.45C133.707 100.45 132.245 101.913 132.245 103.717C132.245 105.52 133.707 106.983 135.51 106.983Z" fill="#E6E6E6"/>
<path d="M152.041 106.983C153.845 106.983 155.307 105.52 155.307 103.717C155.307 101.913 153.845 100.45 152.041 100.45C150.237 100.45 148.775 101.913 148.775 103.717C148.775 105.52 150.237 106.983 152.041 106.983Z" fill="#E6E6E6"/>
<path d="M3.26515 123.725C5.06871 123.725 6.53079 122.263 6.53079 120.459C6.53079 118.655 5.06871 117.192 3.26515 117.192C1.46159 117.192 -0.000488281 118.655 -0.000488281 120.459C-0.000488281 122.263 1.46159 123.725 3.26515 123.725Z" fill="#E6E6E6"/>
<path d="M19.7959 123.725C21.5995 123.725 23.0615 122.263 23.0615 120.459C23.0615 118.655 21.5995 117.192 19.7959 117.192C17.9923 117.192 16.5303 118.655 16.5303 120.459C16.5303 122.263 17.9923 123.725 19.7959 123.725Z" fill="#E6E6E6"/>
<path d="M36.3267 123.725C38.1302 123.725 39.5923 122.263 39.5923 120.459C39.5923 118.655 38.1302 117.192 36.3267 117.192C34.5231 117.192 33.061 118.655 33.061 120.459C33.061 122.263 34.5231 123.725 36.3267 123.725Z" fill="#E6E6E6"/>
<path d="M52.8569 123.725C54.6605 123.725 56.1226 122.263 56.1226 120.459C56.1226 118.655 54.6605 117.192 52.8569 117.192C51.0534 117.192 49.5913 118.655 49.5913 120.459C49.5913 122.263 51.0534 123.725 52.8569 123.725Z" fill="#E6E6E6"/>
<path d="M69.3877 123.725C71.1913 123.725 72.6533 122.263 72.6533 120.459C72.6533 118.655 71.1913 117.192 69.3877 117.192C67.5841 117.192 66.1221 118.655 66.1221 120.459C66.1221 122.263 67.5841 123.725 69.3877 123.725Z" fill="#E6E6E6"/>
<path d="M85.9185 123.725C87.722 123.725 89.1841 122.263 89.1841 120.459C89.1841 118.655 87.722 117.192 85.9185 117.192C84.1149 117.192 82.6528 118.655 82.6528 120.459C82.6528 122.263 84.1149 123.725 85.9185 123.725Z" fill="#E6E6E6"/>
<path d="M102.449 123.725C104.252 123.725 105.714 122.263 105.714 120.459C105.714 118.655 104.252 117.192 102.449 117.192C100.645 117.192 99.1831 118.655 99.1831 120.459C99.1831 122.263 100.645 123.725 102.449 123.725Z" fill="#E6E6E6"/>
<path d="M118.979 123.725C120.783 123.725 122.245 122.263 122.245 120.459C122.245 118.655 120.783 117.192 118.979 117.192C117.176 117.192 115.714 118.655 115.714 120.459C115.714 122.263 117.176 123.725 118.979 123.725Z" fill="#E6E6E6"/>
<path d="M135.51 123.725C137.314 123.725 138.776 122.263 138.776 120.459C138.776 118.655 137.314 117.192 135.51 117.192C133.707 117.192 132.245 118.655 132.245 120.459C132.245 122.263 133.707 123.725 135.51 123.725Z" fill="#E6E6E6"/>
<path d="M152.041 123.725C153.845 123.725 155.307 122.263 155.307 120.459C155.307 118.655 153.845 117.192 152.041 117.192C150.237 117.192 148.775 118.655 148.775 120.459C148.775 122.263 150.237 123.725 152.041 123.725Z" fill="#E6E6E6"/>
<path d="M3.26515 140.466C5.06871 140.466 6.53079 139.004 6.53079 137.2C6.53079 135.396 5.06871 133.934 3.26515 133.934C1.46159 133.934 -0.000488281 135.396 -0.000488281 137.2C-0.000488281 139.004 1.46159 140.466 3.26515 140.466Z" fill="#E6E6E6"/>
<path d="M19.7959 140.466C21.5995 140.466 23.0615 139.004 23.0615 137.2C23.0615 135.396 21.5995 133.934 19.7959 133.934C17.9923 133.934 16.5303 135.396 16.5303 137.2C16.5303 139.004 17.9923 140.466 19.7959 140.466Z" fill="#E6E6E6"/>
<path d="M36.3267 140.466C38.1302 140.466 39.5923 139.004 39.5923 137.2C39.5923 135.396 38.1302 133.934 36.3267 133.934C34.5231 133.934 33.061 135.396 33.061 137.2C33.061 139.004 34.5231 140.466 36.3267 140.466Z" fill="#E6E6E6"/>
<path d="M52.8569 140.466C54.6605 140.466 56.1226 139.004 56.1226 137.2C56.1226 135.396 54.6605 133.934 52.8569 133.934C51.0534 133.934 49.5913 135.396 49.5913 137.2C49.5913 139.004 51.0534 140.466 52.8569 140.466Z" fill="#E6E6E6"/>
<path d="M69.3877 140.466C71.1913 140.466 72.6533 139.004 72.6533 137.2C72.6533 135.396 71.1913 133.934 69.3877 133.934C67.5841 133.934 66.1221 135.396 66.1221 137.2C66.1221 139.004 67.5841 140.466 69.3877 140.466Z" fill="#E6E6E6"/>
<path d="M85.9185 140.466C87.722 140.466 89.1841 139.004 89.1841 137.2C89.1841 135.396 87.722 133.934 85.9185 133.934C84.1149 133.934 82.6528 135.396 82.6528 137.2C82.6528 139.004 84.1149 140.466 85.9185 140.466Z" fill="#E6E6E6"/>
<path d="M102.449 140.466C104.252 140.466 105.714 139.004 105.714 137.2C105.714 135.396 104.252 133.934 102.449 133.934C100.645 133.934 99.1831 135.396 99.1831 137.2C99.1831 139.004 100.645 140.466 102.449 140.466Z" fill="#E6E6E6"/>
<path d="M118.979 140.466C120.783 140.466 122.245 139.004 122.245 137.2C122.245 135.396 120.783 133.934 118.979 133.934C117.176 133.934 115.714 135.396 115.714 137.2C115.714 139.004 117.176 140.466 118.979 140.466Z" fill="#E6E6E6"/>
<path d="M135.51 140.466C137.314 140.466 138.776 139.004 138.776 137.2C138.776 135.396 137.314 133.934 135.51 133.934C133.707 133.934 132.245 135.396 132.245 137.2C132.245 139.004 133.707 140.466 135.51 140.466Z" fill="#E6E6E6"/>
<path d="M152.041 140.466C153.845 140.466 155.307 139.004 155.307 137.2C155.307 135.396 153.845 133.934 152.041 133.934C150.237 133.934 148.775 135.396 148.775 137.2C148.775 139.004 150.237 140.466 152.041 140.466Z" fill="#E6E6E6"/>
<path d="M3.26515 157.208C5.06871 157.208 6.53079 155.746 6.53079 153.942C6.53079 152.138 5.06871 150.676 3.26515 150.676C1.46159 150.676 -0.000488281 152.138 -0.000488281 153.942C-0.000488281 155.746 1.46159 157.208 3.26515 157.208Z" fill="#E6E6E6"/>
<path d="M19.7959 157.208C21.5995 157.208 23.0615 155.746 23.0615 153.942C23.0615 152.138 21.5995 150.676 19.7959 150.676C17.9923 150.676 16.5303 152.138 16.5303 153.942C16.5303 155.746 17.9923 157.208 19.7959 157.208Z" fill="#E6E6E6"/>
<path d="M36.3267 157.208C38.1302 157.208 39.5923 155.746 39.5923 153.942C39.5923 152.138 38.1302 150.676 36.3267 150.676C34.5231 150.676 33.061 152.138 33.061 153.942C33.061 155.746 34.5231 157.208 36.3267 157.208Z" fill="#E6E6E6"/>
<path d="M52.8569 157.208C54.6605 157.208 56.1226 155.746 56.1226 153.942C56.1226 152.138 54.6605 150.676 52.8569 150.676C51.0534 150.676 49.5913 152.138 49.5913 153.942C49.5913 155.746 51.0534 157.208 52.8569 157.208Z" fill="#E6E6E6"/>
<path d="M69.3877 157.208C71.1913 157.208 72.6533 155.746 72.6533 153.942C72.6533 152.138 71.1913 150.676 69.3877 150.676C67.5841 150.676 66.1221 152.138 66.1221 153.942C66.1221 155.746 67.5841 157.208 69.3877 157.208Z" fill="#E6E6E6"/>
<path d="M85.9185 157.208C87.722 157.208 89.1841 155.746 89.1841 153.942C89.1841 152.138 87.722 150.676 85.9185 150.676C84.1149 150.676 82.6528 152.138 82.6528 153.942C82.6528 155.746 84.1149 157.208 85.9185 157.208Z" fill="#E6E6E6"/>
<path d="M102.449 157.208C104.252 157.208 105.714 155.746 105.714 153.942C105.714 152.138 104.252 150.676 102.449 150.676C100.645 150.676 99.1831 152.138 99.1831 153.942C99.1831 155.746 100.645 157.208 102.449 157.208Z" fill="#E6E6E6"/>
<path d="M118.979 157.208C120.783 157.208 122.245 155.746 122.245 153.942C122.245 152.138 120.783 150.676 118.979 150.676C117.176 150.676 115.714 152.138 115.714 153.942C115.714 155.746 117.176 157.208 118.979 157.208Z" fill="#E6E6E6"/>
<path d="M135.51 157.208C137.314 157.208 138.776 155.746 138.776 153.942C138.776 152.138 137.314 150.676 135.51 150.676C133.707 150.676 132.245 152.138 132.245 153.942C132.245 155.746 133.707 157.208 135.51 157.208Z" fill="#E6E6E6"/>
<path d="M152.041 157.208C153.845 157.208 155.307 155.746 155.307 153.942C155.307 152.138 153.845 150.676 152.041 150.676C150.237 150.676 148.775 152.138 148.775 153.942C148.775 155.746 150.237 157.208 152.041 157.208Z" fill="#E6E6E6"/>
<path d="M191.914 29.1914C193.009 29.1914 194.059 29.6265 194.833 30.4009C195.608 31.1754 196.043 32.2258 196.043 33.321V198.504C196.043 199.046 195.936 199.583 195.728 200.084C195.521 200.585 195.217 201.04 194.833 201.424C194.45 201.807 193.995 202.111 193.494 202.319C192.993 202.526 192.456 202.633 191.914 202.633H73.4207C72.8785 202.633 72.3416 202.526 71.8407 202.319C71.3398 202.111 70.8846 201.807 70.5013 201.424C70.1179 201.04 69.8138 200.585 69.6063 200.084C69.3988 199.583 69.292 199.046 69.292 198.504V33.321C69.292 32.2257 69.727 31.1754 70.5013 30.4009C71.2755 29.6265 72.3257 29.1914 73.4207 29.1914H191.914" fill="#E6E6E6"/>
<path d="M73.9014 198.023H191.433V33.8018H73.9014V198.023Z" fill="white"/>
<path d="M165.284 59.7832C165.392 59.7832 165.499 59.8046 165.6 59.8461C165.7 59.8876 165.791 59.9484 165.867 60.0251C165.944 60.1018 166.005 60.1928 166.047 60.2931C166.088 60.3933 166.109 60.5007 166.109 60.6091V62.261C166.109 62.48 166.022 62.6901 165.867 62.845C165.713 62.9998 165.503 63.0869 165.284 63.0869H100.05C99.9419 63.0869 99.8345 63.0655 99.7343 63.024C99.6342 62.9825 99.5431 62.9217 99.4665 62.845C99.3898 62.7683 99.329 62.6772 99.2875 62.577C99.246 62.4768 99.2246 62.3694 99.2246 62.261V60.6091C99.2246 60.5007 99.246 60.3933 99.2875 60.2931C99.329 60.1928 99.3898 60.1018 99.4665 60.0251C99.5431 59.9484 99.6342 59.8876 99.7343 59.8461C99.8345 59.8046 99.9419 59.7832 100.05 59.7832H165.284" fill="#E6E6E6"/>
<path d="M165.284 67.6299C165.503 67.6299 165.713 67.7169 165.867 67.8718C166.022 68.0267 166.109 68.2368 166.109 68.4558V70.1076C166.109 70.3267 166.022 70.5367 165.867 70.6916C165.713 70.8465 165.503 70.9335 165.284 70.9335H100.05C99.9419 70.9335 99.8345 70.9122 99.7343 70.8707C99.6342 70.8292 99.5431 70.7683 99.4665 70.6916C99.3898 70.6149 99.329 70.5239 99.2875 70.4237C99.246 70.3235 99.2246 70.2161 99.2246 70.1076V68.4558C99.2246 68.3473 99.246 68.2399 99.2875 68.1397C99.329 68.0395 99.3898 67.9485 99.4665 67.8718C99.5431 67.7951 99.6342 67.7343 99.7343 67.6927C99.8345 67.6512 99.9419 67.6299 100.05 67.6299H165.284" fill="#E6E6E6"/>
<path d="M165.284 75.4756C165.503 75.4756 165.713 75.5626 165.867 75.7175C166.022 75.8724 166.109 76.0824 166.109 76.3015V77.9533C166.109 78.1724 166.022 78.3824 165.867 78.5373C165.713 78.6922 165.503 78.7792 165.284 78.7792H100.05C99.8314 78.7792 99.6213 78.6922 99.4665 78.5373C99.3116 78.3824 99.2246 78.1724 99.2246 77.9533V76.3015C99.2246 76.0824 99.3116 75.8724 99.4665 75.7175C99.6213 75.5626 99.8314 75.4756 100.05 75.4756H165.284" fill="#6C63FF"/>
<path d="M165.284 83.4932C165.503 83.4932 165.713 83.5802 165.867 83.7351C166.022 83.8899 166.109 84.1 166.109 84.3191V85.9709C166.109 86.19 166.022 86.4 165.867 86.5549C165.713 86.7098 165.503 86.7968 165.284 86.7968H100.05C99.9419 86.7968 99.8345 86.7755 99.7343 86.7339C99.6342 86.6924 99.5431 86.6316 99.4665 86.5549C99.3898 86.4782 99.329 86.3872 99.2875 86.287C99.246 86.1868 99.2246 86.0794 99.2246 85.9709V84.3191C99.2246 84.2106 99.246 84.1032 99.2875 84.003C99.329 83.9028 99.3898 83.8118 99.4665 83.7351C99.5431 83.6584 99.6342 83.5975 99.7343 83.556C99.8345 83.5145 99.9419 83.4932 100.05 83.4932H165.284" fill="#E6E6E6"/>
<path d="M165.284 91.3398C165.503 91.3398 165.713 91.4269 165.867 91.5818C166.022 91.7366 166.109 91.9467 166.109 92.1658V93.8176C166.109 93.926 166.088 94.0334 166.047 94.1337C166.005 94.2339 165.944 94.3249 165.867 94.4016C165.791 94.4783 165.7 94.5391 165.6 94.5806C165.499 94.6221 165.392 94.6435 165.284 94.6435H100.05C99.9419 94.6435 99.8345 94.6221 99.7343 94.5806C99.6342 94.5391 99.5431 94.4783 99.4665 94.4016C99.3898 94.3249 99.329 94.2339 99.2875 94.1337C99.246 94.0334 99.2246 93.926 99.2246 93.8176V92.1658C99.2246 92.0573 99.246 91.9499 99.2875 91.8497C99.329 91.7495 99.3898 91.6584 99.4665 91.5818C99.5431 91.5051 99.6342 91.4442 99.7343 91.4027C99.8345 91.3612 99.9419 91.3398 100.05 91.3398H165.284" fill="#E6E6E6"/>
<path d="M165.284 99.1855C165.503 99.1855 165.713 99.2726 165.867 99.4275C166.022 99.5823 166.109 99.7924 166.109 100.011V101.663C166.109 101.882 166.022 102.092 165.867 102.247C165.713 102.402 165.503 102.489 165.284 102.489H100.05C99.8314 102.489 99.6213 102.402 99.4665 102.247C99.3116 102.092 99.2246 101.882 99.2246 101.663V100.011C99.2246 99.7924 99.3116 99.5823 99.4665 99.4275C99.6213 99.2726 99.8314 99.1855 100.05 99.1855H165.284" fill="#E6E6E6"/>
<path d="M100.467 125.58C100.213 125.58 99.9696 125.681 99.7898 125.861C99.6101 126.041 99.509 126.285 99.5088 126.539V171.083C99.5091 171.337 99.6102 171.581 99.7899 171.76C99.9696 171.94 100.213 172.041 100.467 172.042H164.756C165.011 172.041 165.254 171.94 165.434 171.76C165.614 171.581 165.715 171.337 165.715 171.083V126.539C165.715 126.285 165.614 126.041 165.434 125.861C165.254 125.681 165.011 125.58 164.756 125.58H100.467Z" fill="#6C63FF"/>
<path d="M132.882 77.2717L132.207 77.0924L146.934 21.6797H232.358V22.3782H147.471L132.882 77.2717Z" fill="#3F3D56"/>
<path d="M239.338 29.3592C237.888 29.3592 236.471 28.9293 235.266 28.1238C234.061 27.3184 233.121 26.1735 232.567 24.834C232.012 23.4945 231.867 22.0206 232.15 20.5986C232.432 19.1767 233.13 17.8705 234.155 16.8453C235.18 15.8201 236.486 15.1219 237.908 14.8391C239.33 14.5562 240.803 14.7014 242.142 15.2562C243.482 15.8111 244.626 16.7506 245.432 17.9561C246.237 19.1616 246.667 20.5789 246.667 22.0287C246.664 23.9722 245.892 25.8355 244.518 27.2098C243.144 28.584 241.281 29.357 239.338 29.3592ZM239.338 15.3964C238.026 15.3964 236.744 15.7854 235.654 16.5141C234.563 17.2429 233.713 18.2787 233.212 19.4907C232.71 20.7026 232.578 22.0361 232.834 23.3227C233.09 24.6092 233.722 25.791 234.649 26.7185C235.576 27.6461 236.758 28.2778 238.044 28.5337C239.33 28.7896 240.664 28.6582 241.875 28.1562C243.087 27.6543 244.123 26.8042 244.851 25.7135C245.58 24.6228 245.969 23.3405 245.969 22.0287C245.967 20.2703 245.267 18.5845 244.024 17.3412C242.781 16.0978 241.096 15.3984 239.338 15.3964Z" fill="#3F3D56"/>
<path d="M239.337 24.8205C240.879 24.8205 242.129 23.5702 242.129 22.0279C242.129 20.4856 240.879 19.2354 239.337 19.2354C237.795 19.2354 236.545 20.4856 236.545 22.0279C236.545 23.5702 237.795 24.8205 239.337 24.8205Z" fill="#6C63FF"/>
<path d="M130.582 172L131.256 172.18L116.423 227.565L31 227.401L31.0014 226.703L115.888 226.866L130.582 172Z" fill="#3F3D56"/>
<path d="M24.051 218.826C25.5005 218.829 26.9167 219.262 28.1204 220.069C29.3241 220.877 30.2612 222.024 30.8134 223.364C31.3655 224.705 31.5078 226.179 31.2223 227.601C30.9368 229.022 30.2363 230.327 29.2094 231.35C28.1824 232.373 26.8752 233.069 25.453 233.349C24.0308 233.629 22.5574 233.481 21.2193 232.924C19.8812 232.366 18.7384 231.425 17.9354 230.218C17.1324 229.011 16.7052 227.592 16.708 226.143C16.714 224.199 17.4904 222.337 18.867 220.966C20.2436 219.594 22.1079 218.825 24.051 218.826ZM24.0242 232.789C25.3357 232.792 26.6185 232.405 27.7103 231.678C28.8022 230.952 29.6541 229.917 30.1583 228.706C30.6625 227.496 30.7964 226.162 30.543 224.875C30.2896 223.588 29.6603 222.405 28.7347 221.476C27.8091 220.547 26.6288 219.913 25.343 219.654C24.0573 219.396 22.7237 219.525 21.5111 220.024C20.2985 220.524 19.2613 221.372 18.5306 222.461C17.7999 223.551 17.4085 224.832 17.406 226.144C17.4046 227.902 18.1007 229.589 19.3414 230.835C20.5821 232.081 22.2662 232.784 24.0242 232.789Z" fill="#3F3D56"/>
<path d="M24.0371 228.949C25.5791 228.949 26.8291 227.699 26.8291 226.157C26.8291 224.615 25.5791 223.364 24.0371 223.364C22.4951 223.364 21.2451 224.615 21.2451 226.157C21.2451 227.699 22.4951 228.949 24.0371 228.949Z" fill="#6C63FF"/>
<path d="M295.646 287.927H290.72L291.6 260.652L304.618 261.356L295.646 287.927Z" fill="#FFB8B8"/>
<path d="M296.319 303.601C294.832 304.28 293.586 298.781 292.332 300.014C288.824 303.462 285.2 304.213 280.517 302.707L280.409 302.689C280.126 302.598 279.865 302.451 279.641 302.256C279.417 302.061 279.235 301.823 279.106 301.556C278.976 301.289 278.903 300.998 278.889 300.702C278.875 300.405 278.922 300.109 279.026 299.831C279.151 299.498 279.355 299.201 279.62 298.964C279.885 298.728 280.203 298.559 280.548 298.473L284.279 297.54L290.137 287.236L296.117 286.832C297.45 288.532 298.38 290.512 298.838 292.624C299.296 294.735 299.269 296.923 298.759 299.023C298.216 301.238 297.379 303.118 296.319 303.601Z" fill="#2F2E41"/>
<path d="M342.444 284.321L337.863 286.133L328.652 260.447L341.017 256.312L342.444 284.321Z" fill="#FFB8B8"/>
<path d="M348.833 298.649C347.7 299.828 344.52 295.172 343.807 296.78C341.813 301.277 338.718 303.309 333.811 303.631L333.703 303.654C333.407 303.674 333.11 303.633 332.83 303.534C332.55 303.435 332.293 303.281 332.075 303.08C331.856 302.879 331.681 302.636 331.559 302.365C331.437 302.094 331.372 301.801 331.367 301.505C331.36 301.149 331.44 300.798 331.6 300.481C331.759 300.163 331.993 299.889 332.282 299.682L335.408 297.442L337.067 285.706L342.479 283.13C344.344 284.22 345.937 285.719 347.139 287.515C348.341 289.31 349.121 291.354 349.419 293.494C349.729 295.754 349.641 297.81 348.833 298.649Z" fill="#2F2E41"/>
<path d="M327.49 152.624L319.927 154.569C319.355 154.716 318.757 154.733 318.178 154.619C317.598 154.505 317.051 154.262 316.577 153.909C316.103 153.556 315.715 153.101 315.439 152.578C315.164 152.055 315.01 151.477 314.987 150.887C314.966 150.344 315.057 149.802 315.254 149.296C315.452 148.79 315.751 148.33 316.134 147.944C316.517 147.559 316.976 147.256 317.481 147.056C317.986 146.855 318.526 146.76 319.069 146.778L325.731 146.993L338.567 142.318L326.435 133.268L327.842 120.599L351.486 139.585C351.908 139.923 352.255 140.345 352.506 140.824C352.757 141.303 352.907 141.829 352.945 142.368C353.01 143.275 352.758 144.176 352.233 144.918C351.708 145.66 350.942 146.197 350.065 146.437C344.525 150.96 336.454 152.345 327.49 152.624Z" fill="#FFB8B8"/>
<path d="M310.249 105.113C317.05 105.113 322.564 99.5985 322.564 92.7958C322.564 85.9932 317.05 80.4785 310.249 80.4785C303.448 80.4785 297.935 85.9932 297.935 92.7958C297.935 99.5985 303.448 105.113 310.249 105.113Z" fill="#FFB8B8"/>
<path d="M325.379 109.688L308.842 116.375C309.328 111.146 307.957 105.913 304.972 101.594L318.694 98.4268C318.515 102.619 320.782 106.366 325.379 109.688Z" fill="#FFB8B8"/>
<path d="M328.37 138.371C315.039 139.438 307.748 137.667 296.527 131.156L300.749 121.302C300.538 119.819 300.739 118.305 301.331 116.928C301.923 115.552 302.883 114.365 304.106 113.499L308.49 110.393L321.86 106.521L322.46 106.551C324.239 106.64 325.924 107.375 327.2 108.617C328.476 109.86 329.255 111.525 329.392 113.301C332.296 121.983 332.315 130.376 328.37 138.371Z" fill="#6C63FF"/>
<path d="M325.731 158.958L297.231 155.79L295.12 146.64C290.44 139.575 292.483 133.103 297.935 126.933C307.872 133.312 317.096 136.068 330.305 133.971C326.792 142.516 323.548 150.913 325.731 158.958Z" fill="#2F2E41"/>
<path d="M347.897 265.591L325.203 264.359L317.814 205.588L311.833 264.007L284.917 262.775C293.127 224.37 298.831 187.91 297.231 154.383L325.379 156.846C334.919 166.907 339.655 182.967 342.444 202.068C345.232 221.17 347.479 243.314 347.897 265.591Z" fill="#2F2E41"/>
<path d="M323.806 81.5827C326.144 81.5827 328.039 79.6872 328.039 77.349C328.039 75.0108 326.144 73.1152 323.806 73.1152C321.468 73.1152 319.573 75.0108 319.573 77.349C319.573 79.6872 321.468 81.5827 323.806 81.5827Z" fill="#2F2E41"/>
<path d="M319.444 76.3125C319.514 75.2383 319.99 74.2311 320.776 73.4959C321.562 72.7607 322.599 72.3529 323.675 72.3555C323.588 72.3444 323.501 72.3309 323.412 72.3251C322.292 72.2531 321.189 72.6291 320.346 73.3706C319.503 74.112 318.988 75.158 318.916 76.2785C318.844 77.3991 319.22 78.5024 319.962 79.3456C320.703 80.1889 321.749 80.7032 322.869 80.7752C322.958 80.7809 323.046 80.7787 323.134 80.7789C322.066 80.6436 321.09 80.1063 320.405 79.2765C319.719 78.4467 319.376 77.3867 319.444 76.3125Z" fill="#2F2E41"/>
<path d="M319.42 78.1208C315.645 74.9885 304.818 78.9695 304.119 81.0754C299.014 81.7712 295.149 84.7502 295.149 90.0472V90.0472C298.184 91.2908 301.636 91.1376 305.367 90.0472C311.315 94.8956 311.723 100.99 308.105 107.991L312.556 108.08L318.072 100.016L318.336 108.196L328.537 107.991V96.269C328.57 92.3716 327.673 88.5225 325.921 85.0412C324.331 81.9522 321.864 80.1485 319.42 78.1208Z" fill="#2F2E41"/>
<path d="M309.921 98.831C311.039 98.831 311.945 97.562 311.945 95.9965C311.945 94.4311 311.039 93.1621 309.921 93.1621C308.803 93.1621 307.897 94.4311 307.897 95.9965C307.897 97.562 308.803 98.831 309.921 98.831Z" fill="#FFB8B8"/>
<path d="M294.438 204.7C294.627 204.7 294.808 204.775 294.941 204.908C295.074 205.042 295.149 205.223 295.149 205.411V233.849C295.149 234.038 295.074 234.218 294.941 234.352C294.808 234.485 294.627 234.56 294.438 234.56H274.038C273.85 234.56 273.669 234.485 273.536 234.352C273.403 234.218 273.328 234.038 273.328 233.849V205.411C273.328 205.223 273.403 205.042 273.536 204.908C273.669 204.775 273.85 204.7 274.038 204.7H294.438Z" fill="#6C63FF"/>
<path d="M297.231 194.15L297.92 206.094C297.964 206.862 297.837 207.631 297.547 208.345C297.257 209.058 296.812 209.698 296.244 210.218C295.676 210.738 295 211.125 294.264 211.351C293.527 211.577 292.75 211.636 291.989 211.524C288.955 211.077 288.886 208.11 289.63 205.134L292.463 193.798C299.414 168.87 301.291 144.402 300.939 120.54C300.925 119.73 301.074 118.927 301.379 118.177C301.684 117.427 302.137 116.747 302.712 116.177C303.287 115.608 303.971 115.161 304.724 114.863C305.476 114.565 306.281 114.423 307.09 114.445C307.879 114.467 308.656 114.646 309.376 114.971C310.096 115.295 310.744 115.758 311.284 116.334C311.824 116.91 312.245 117.587 312.522 118.327C312.799 119.066 312.928 119.853 312.9 120.642C311.916 148.663 307.83 174.109 297.231 194.15Z" fill="#FFB8B8"/>
</g>
<defs>
<clipPath id="clip0">
<rect width="375" height="304" fill="white"/>
</clipPath>
</defs>
</svg>
