<svg width="545" height="374" viewBox="0 0 545 374" fill="none" xmlns="http://www.w3.org/2000/svg">
<g clip-path="url(#clip0)">
<path opacity="0.1" d="M317.673 74.5924C285.611 73.4172 255.074 62.7436 225.934 51.089C196.795 39.4344 167.893 26.4667 136.598 20.2792C116.47 16.2989 93.4481 15.7369 77.2335 26.8652C61.6233 37.595 56.5801 56.0656 53.8702 73.2231C51.8291 86.1295 50.6302 99.7104 56.2184 111.794C60.1024 120.184 66.9885 127.235 71.7543 135.272C88.3355 163.231 76.6142 197.709 58.6508 225.009C50.229 237.818 40.4447 250.045 33.94 263.667C27.4354 277.289 24.4283 292.918 30.1205 306.826C35.7582 320.622 49.1985 330.963 63.7585 338.244C93.3292 353.031 128.161 357.266 162.151 359.663C237.368 364.971 312.982 362.672 388.397 360.373C416.308 359.52 444.339 358.656 471.794 354.206C487.042 351.733 502.781 347.809 513.854 338.341C527.903 326.319 531.386 305.958 521.968 290.885C506.175 265.598 462.52 259.319 451.467 232.177C445.394 217.243 451.631 200.601 460.464 186.75C479.408 157.033 511.159 130.96 512.828 96.987C513.978 73.6574 498.714 50.292 475.113 39.2505C450.377 27.6776 416.071 29.1338 397.83 48.2891C379.014 67.991 345.986 75.5785 317.673 74.5924Z" fill="#6C63FF"/>
<path d="M84.8428 374C104.873 374 121.111 370.779 121.111 366.806C121.111 362.833 104.873 359.612 84.8428 359.612C64.8122 359.612 48.5742 362.833 48.5742 366.806C48.5742 370.779 64.8122 374 84.8428 374Z" fill="#6C63FF"/>
<path d="M84.2335 369.453C86.5647 369.453 88.4544 366.9 88.4544 363.75C88.4544 360.601 86.5647 358.048 84.2335 358.048C81.9024 358.048 80.0127 360.601 80.0127 363.75C80.0127 366.9 81.9024 369.453 84.2335 369.453Z" fill="#3F3D56"/>
<path d="M84.2335 362.483C86.5647 362.483 88.4544 359.93 88.4544 356.781C88.4544 353.632 86.5647 351.079 84.2335 351.079C81.9024 351.079 80.0127 353.632 80.0127 356.781C80.0127 359.93 81.9024 362.483 84.2335 362.483Z" fill="#3F3D56"/>
<path d="M84.2335 355.514C86.5647 355.514 88.4544 352.961 88.4544 349.812C88.4544 346.663 86.5647 344.11 84.2335 344.11C81.9024 344.11 80.0127 346.663 80.0127 349.812C80.0127 352.961 81.9024 355.514 84.2335 355.514Z" fill="#3F3D56"/>
<path d="M84.2335 348.55C86.5647 348.55 88.4544 345.997 88.4544 342.848C88.4544 339.698 86.5647 337.146 84.2335 337.146C81.9024 337.146 80.0127 339.698 80.0127 342.848C80.0127 345.997 81.9024 348.55 84.2335 348.55Z" fill="#3F3D56"/>
<path d="M84.2335 341.581C86.5647 341.581 88.4544 339.028 88.4544 335.878C88.4544 332.729 86.5647 330.176 84.2335 330.176C81.9024 330.176 80.0127 332.729 80.0127 335.878C80.0127 339.028 81.9024 341.581 84.2335 341.581Z" fill="#3F3D56"/>
<path d="M84.2335 334.611C86.5647 334.611 88.4544 332.058 88.4544 328.909C88.4544 325.76 86.5647 323.207 84.2335 323.207C81.9024 323.207 80.0127 325.76 80.0127 328.909C80.0127 332.058 81.9024 334.611 84.2335 334.611Z" fill="#3F3D56"/>
<path d="M84.2335 327.642C86.5647 327.642 88.4544 325.089 88.4544 321.94C88.4544 318.791 86.5647 316.238 84.2335 316.238C81.9024 316.238 80.0127 318.791 80.0127 321.94C80.0127 325.089 81.9024 327.642 84.2335 327.642Z" fill="#3F3D56"/>
<path d="M100.042 274.254C100.621 273.497 101.147 272.7 101.618 271.868L90.5206 269.988L102.519 270.079C103.671 267.497 104.3 264.698 104.366 261.856C104.433 259.014 103.936 256.188 102.906 253.551L86.81 262.165L101.672 250.924C100.28 248.448 98.4085 246.294 96.1743 244.595C93.94 242.897 91.3908 241.691 88.6853 241.052C85.9797 240.414 83.1756 240.357 80.4476 240.884C77.7196 241.411 75.126 242.512 72.8282 244.117C70.5304 245.723 68.5776 247.799 67.0912 250.217C65.6048 252.634 64.6168 255.341 64.1885 258.169C63.7602 260.998 63.9008 263.886 64.6016 266.656C65.3024 269.426 66.5484 272.017 68.2621 274.269C67.3632 275.45 66.5892 276.726 65.9535 278.076L80.3599 285.791L65.0023 280.477C63.9219 283.764 63.6542 287.278 64.2235 290.698C64.7927 294.119 66.1809 297.339 68.2621 300.067C65.9149 303.144 64.4547 306.84 64.0484 310.733C63.6421 314.626 64.3061 318.558 65.9645 322.079C67.6229 325.601 70.2087 328.571 73.4264 330.648C76.644 332.726 80.3635 333.827 84.1596 333.827C87.9557 333.827 91.6753 332.726 94.8929 330.648C98.1105 328.571 100.696 325.601 102.355 322.079C104.013 318.558 104.677 314.626 104.271 310.733C103.865 306.84 102.404 303.144 100.057 300.067C102.862 296.39 104.387 291.847 104.387 287.168C104.387 282.489 102.862 277.946 100.057 274.269L100.042 274.254Z" fill="#6C63FF"/>
<path opacity="0.1" d="M63.937 287.145C63.931 291.824 65.4567 296.368 68.2669 300.041C65.9197 303.118 64.4595 306.814 64.0532 310.707C63.6469 314.6 64.3109 318.532 65.9693 322.053C67.6277 325.575 70.2135 328.545 73.4312 330.622C76.6488 332.7 80.3683 333.802 84.1644 333.802C87.9605 333.802 91.6801 332.7 94.8977 330.622C98.1153 328.545 100.701 325.575 102.36 322.053C104.018 318.532 104.682 314.6 104.276 310.707C103.869 306.814 102.409 303.118 100.062 300.041C102.757 296.5 63.937 284.81 63.937 287.145Z" fill="black"/>
<path d="M260.558 279.992C260.866 284.079 262.391 288.31 265.602 290.721C268.812 293.133 273.92 293.087 276.372 289.848C277.195 288.631 277.801 287.273 278.16 285.837C280.226 279.103 281.692 271.735 279.428 265.067C274.321 264.725 268.401 262.247 264.566 266.6C261.47 270.146 260.202 275.265 260.558 279.992Z" fill="#3F3D56"/>
<path d="M284.269 238.794C283.59 244.737 282.435 250.653 282.554 256.637C282.599 258.946 282.837 261.235 282.842 263.555C282.85 269.578 281.312 275.496 278.383 280.707C278.075 281.32 277.662 281.87 277.164 282.332C275.99 283.313 274.222 283.231 272.904 282.48C271.616 281.654 270.57 280.483 269.877 279.092C266.186 272.573 266.082 264.648 264.621 257.255C263.501 251.599 261.539 246.116 260.831 240.394C260.37 236.71 260.44 232.954 259.706 229.316C259.483 228.218 258.859 226.568 258.448 224.948C258.072 223.502 257.863 222.081 258.25 221.106C259.038 219.108 261.619 219.884 263.298 220.007C269.212 220.459 275.151 220.444 281.063 219.961C281.648 219.915 282.312 219.89 282.723 220.319C282.902 220.535 283.037 220.787 283.119 221.06C283.59 222.388 283.95 223.755 284.194 225.147C285.012 229.597 284.784 234.262 284.269 238.794Z" fill="#FABDBD"/>
<g opacity="0.1">
<path opacity="0.1" d="M281.99 219.961C281.685 219.928 281.378 219.928 281.073 219.961C278.239 220.196 275.401 220.313 272.567 220.329C275.708 220.336 278.849 220.213 281.99 219.961Z" fill="black"/>
<path opacity="0.1" d="M273.905 282.48C272.617 281.654 271.571 280.483 270.878 279.092C267.187 272.573 267.083 264.648 265.621 257.255C264.502 251.598 262.54 246.116 261.831 240.393C261.371 236.709 261.44 232.954 260.707 229.316C260.484 228.218 259.86 226.567 259.449 224.948C259.072 223.502 258.864 222.081 259.25 221.105C259.414 220.705 259.691 220.365 260.044 220.128C260.397 219.891 260.811 219.769 261.232 219.777C259.979 219.69 258.755 219.843 258.26 221.105C257.873 222.081 258.081 223.502 258.458 224.948C258.869 226.567 259.493 228.218 259.716 229.316C260.449 232.954 260.38 236.709 260.841 240.393C261.549 246.121 263.511 251.603 264.631 257.255C266.092 264.648 266.196 272.583 269.887 279.092C270.58 280.483 271.626 281.654 272.914 282.48C273.705 282.931 274.611 283.12 275.51 283.021C274.947 282.945 274.402 282.762 273.905 282.48Z" fill="black"/>
</g>
<path d="M303 270.13C300.027 276.262 300.523 284.948 300.523 284.948C301.018 305.385 293.092 348.305 293.092 348.305H286.156C286.156 348.305 285.165 300.787 286.156 296.699C287.147 292.612 285.66 278.305 284.174 258.379C283.069 243.561 286.077 230.134 287.692 224.242C288.246 222.199 288.633 221.08 288.633 221.08C288.633 221.08 300.027 203.708 306.467 211.883C307.954 213.783 308.741 217.621 309.014 222.464C309.896 238.447 305.278 265.424 303 270.13Z" fill="#FABDBD"/>
<path opacity="0.1" d="M309.014 222.465C308.742 217.621 307.964 213.779 306.468 211.883C305.031 210.064 303.347 209.512 301.603 209.752C302.954 209.984 304.166 210.748 304.981 211.883C306.468 213.784 307.255 217.621 307.528 222.465C308.41 238.447 303.792 265.425 301.514 270.13C298.541 276.262 299.037 284.948 299.037 284.948C299.532 305.385 291.605 348.305 291.605 348.305H293.092C293.092 348.305 301.018 305.385 300.523 284.948C300.523 284.948 300.027 276.262 303 270.13C305.279 265.425 309.896 238.447 309.014 222.465Z" fill="black"/>
<path d="M282.549 346.44C281.996 346.888 281.517 347.426 281.132 348.034C280.246 349.761 281.504 351.825 282.852 353.199C284.199 354.574 285.824 356.045 285.824 358.002C285.824 359.576 284.67 360.925 283.377 361.763C282.683 362.212 281.811 362.785 281.955 363.633C282.005 363.847 282.094 364.05 282.217 364.231C283.327 365.983 285.294 367.01 287.285 367.399C289.277 367.787 291.333 367.618 293.359 367.45C293.663 367.461 293.959 367.355 294.191 367.153C294.338 366.95 294.416 366.702 294.414 366.448C294.513 365.365 294.449 364.221 294.91 363.245C295.554 361.911 297.035 361.231 297.882 360.036C299.071 358.401 298.908 356.127 298.457 354.14C297.466 349.812 295.261 344.876 291.952 341.877C288.118 338.433 285.111 343.951 282.549 346.44Z" fill="#3F3D56"/>
<path d="M297.56 88.8991C300.324 84.6378 299.606 78.6802 296.782 74.4394C293.958 70.1986 289.42 67.5314 284.739 65.8096C278.427 63.4899 271.467 62.6979 264.982 64.4402C259.82 65.8249 255.183 68.7219 250.318 70.9599C241.711 74.9204 232.353 76.841 222.932 76.5802C212.474 76.2788 201.015 73.5146 192.242 79.4109C176.181 90.1866 183.325 119.515 168.13 131.527C164.033 134.766 158.876 136.182 154.319 138.68C149.761 141.179 145.441 145.527 145.55 150.851C145.599 153.406 146.689 155.843 148.027 158.004C153.724 167.319 164.375 173.082 175.041 172.975C185.707 172.867 196.116 167.017 202.264 158.014C203.805 155.761 205.162 153.252 207.396 151.75C211.855 148.736 217.73 150.846 223.051 151.295C234.896 152.292 246.746 143.12 249.104 131.088C250.095 125.953 249.922 119.816 253.93 116.592C257.165 113.991 261.717 114.548 265.819 114.104C273.32 113.302 279.24 108.484 283.312 102.189C285.18 99.3019 285.398 95.853 287.944 93.5793C290.689 91.0808 294.934 92.9253 297.56 88.8991Z" fill="#3F3D56"/>
<g opacity="0.1">
<path opacity="0.1" d="M213.024 77.5661C217.369 77.689 221.713 77.3466 225.989 76.5442C224.81 76.58 223.621 76.58 222.437 76.5442C214.228 76.3092 205.405 74.5618 197.746 76.6668C202.799 76.7179 208.026 77.423 213.024 77.5661Z" fill="black"/>
<path opacity="0.1" d="M197.478 152.766C195.244 154.269 193.887 156.777 192.346 159.031C187.61 165.886 180.689 170.807 172.792 172.933C173.372 172.959 173.952 172.974 174.536 172.969C185.212 172.862 195.611 167.012 201.759 158.009C203.299 155.756 204.657 153.247 206.891 151.745L207.278 151.499C203.78 151.004 200.347 150.83 197.478 152.766Z" fill="black"/>
<path opacity="0.1" d="M296.282 74.4238C293.463 70.2034 288.92 67.5158 284.239 65.7939C277.927 63.4742 270.967 62.6823 264.482 64.4246C264.333 64.4604 264.19 64.5064 264.046 64.5472C267.727 64.759 271.359 65.5232 274.826 66.8158C279.507 68.5377 284.05 71.2253 286.869 75.4456C289.688 79.666 290.411 85.6645 287.647 89.9053C285.021 93.9469 280.776 92.1024 277.997 94.5907C275.45 96.8644 275.232 100.313 273.364 103.2C269.862 108.601 264.987 112.908 258.918 114.543C261.004 114.288 263.204 114.318 265.284 114.093C272.785 113.291 278.705 108.473 282.777 102.178C284.645 99.2913 284.863 95.8425 287.409 93.5688C290.188 91.0805 294.434 92.925 297.06 88.8834C299.829 84.6222 299.111 78.6441 296.282 74.4238Z" fill="black"/>
<path opacity="0.1" d="M255.877 115.115C251.8 115.554 247.247 115.003 243.987 117.603C239.979 120.827 240.172 126.964 239.162 132.099C237.423 141.076 230.358 148.48 221.971 151.234L222.561 151.29C234.406 152.286 246.256 143.115 248.614 131.082C249.605 125.947 249.431 119.811 253.439 116.587C254.36 115.877 255.404 115.356 256.516 115.054C256.293 115.059 256.09 115.095 255.877 115.115Z" fill="black"/>
</g>
<path d="M375.577 70.6073C375.577 70.6073 363.687 95.1325 359.724 104.329C355.76 113.526 319.596 127.322 314.642 127.833C313.313 128.021 312.075 128.636 311.105 129.591C308.306 132.145 306.715 136.519 306.715 136.519C306.715 136.519 308.697 150.314 306.22 173.307C306.17 173.751 306.126 174.196 306.086 174.625C303.926 196.504 308.449 201.664 308.449 201.664C308.449 201.664 260.395 220.569 261.881 196.044C262.347 188.323 262.278 182.683 261.817 177.967C261.313 173.139 260.36 168.372 258.973 163.732C257.799 159.496 256.397 154.852 254.946 148.526C254.247 145.37 253.326 142.271 252.191 139.252C252.156 139.16 252.122 139.068 252.092 138.982C249.615 132.641 247.138 130.592 245.721 129.928C244.383 129.328 243.108 128.588 241.916 127.72C237.339 124.312 227.515 116.674 218.766 107.651C206.876 95.388 194.987 66.2642 194.987 66.2642C194.987 66.2642 191.519 49.4031 199.445 35.6077C207.372 21.8122 203.904 62.6876 203.904 62.6876C203.904 62.6876 218.271 82.6144 221.739 91.8114C223.522 96.5427 226.356 98.9646 228.674 100.222C232.505 102.278 236.172 104.642 239.642 107.293C241.988 109.121 244.453 110.78 247.019 112.259C252.558 115.325 259.191 118.784 264.72 119.694C265.583 119.841 266.456 119.918 267.331 119.923C267.746 119.937 268.158 119.852 268.536 119.675C268.914 119.498 269.248 119.233 269.51 118.902C270.997 117.098 270.962 113.215 270.62 110.021C270.438 108.367 270.166 106.724 269.808 105.101C269.808 105.101 285.908 94.6267 285.413 107.4C285.336 108.812 285.463 110.227 285.789 111.6C286.053 112.86 286.636 114.026 287.48 114.978C288.323 115.929 289.396 116.633 290.59 117.016C292.523 117.601 294.569 117.67 296.535 117.215C297.148 117.107 297.74 116.899 298.288 116.597C299.775 115.575 314.637 110.977 319.096 110.466C323.554 109.955 345.847 98.7142 345.847 98.7142L370.122 63.9701C370.122 63.9701 369.627 43.5324 379.535 35.3573C389.443 27.1822 375.577 70.6073 375.577 70.6073Z" fill="#FABDBD"/>
<g opacity="0.1">
<path opacity="0.1" d="M306.086 171.559C305.653 175.665 305.463 179.794 305.516 183.924C305.566 181.226 305.739 178.145 306.086 174.625C306.125 174.196 306.17 173.751 306.22 173.307C307.086 165.438 307.5 157.523 307.458 149.604C307.382 156.5 306.968 163.388 306.22 170.241C306.19 170.686 306.125 171.13 306.086 171.559Z" fill="black"/>
<path opacity="0.1" d="M270.323 104.774C269.991 104.973 269.827 105.096 269.827 105.096C270.309 107.282 270.627 109.502 270.778 111.738C270.878 109.406 270.725 107.071 270.323 104.774Z" fill="black"/>
<path opacity="0.1" d="M204.137 59.9132C204.38 56.3366 204.741 49.9243 204.672 44.2222C204.588 51.8454 203.929 59.622 203.929 59.622L204.137 59.9132Z" fill="black"/>
<path opacity="0.1" d="M261.916 195.446C261.916 195.645 261.916 195.844 261.881 196.044C260.395 220.569 308.449 201.664 308.449 201.664C307.887 200.881 307.463 200.003 307.196 199.068C299.958 201.725 263.585 214.08 261.916 195.446Z" fill="black"/>
<path opacity="0.1" d="M375.577 67.5413C375.577 67.5413 363.687 92.0666 359.724 101.264C355.76 110.461 319.596 124.256 314.642 124.767C313.313 124.955 312.075 125.57 311.105 126.525C308.306 129.079 306.715 133.453 306.715 133.453C306.715 133.453 306.834 134.286 306.978 135.87C307.533 134.557 308.96 131.542 311.105 129.59C312.075 128.635 313.313 128.02 314.642 127.833C319.596 127.322 355.76 113.526 359.724 104.329C363.687 95.1322 375.577 70.607 375.577 70.607C375.577 70.607 383.954 44.3701 383.032 36.522C382.27 46.5773 375.577 67.5413 375.577 67.5413Z" fill="black"/>
<path opacity="0.1" d="M261.816 174.901C261.312 170.073 260.36 165.306 258.973 160.666C257.799 156.43 256.397 151.786 254.945 145.46C254.246 142.304 253.326 139.205 252.191 136.187C252.156 136.095 252.121 136.003 252.092 135.916C249.615 129.575 247.138 127.526 245.721 126.862C244.383 126.262 243.108 125.522 241.916 124.655C237.338 121.247 227.515 113.608 218.766 104.585C206.876 92.3223 194.986 63.1986 194.986 63.1986C194.547 60.7399 194.302 58.2486 194.253 55.749C194.132 59.2711 194.378 62.7963 194.986 66.2642C194.986 66.2642 206.876 95.388 218.766 107.651C227.515 116.674 237.338 124.312 241.916 127.72C243.117 128.59 244.402 129.329 245.75 129.928C247.162 130.592 249.634 132.641 252.121 138.982C252.151 139.068 252.186 139.16 252.22 139.252C253.351 142.271 254.266 145.37 254.96 148.526C256.412 154.852 257.814 159.496 258.988 163.732C260.375 168.372 261.327 173.139 261.831 177.967C262.039 180.102 262.163 182.427 262.198 185.043C262.258 181.658 262.131 178.271 261.816 174.901Z" fill="black"/>
</g>
<path d="M310.881 152.706C310.125 153.995 309.463 155.341 308.9 156.732C308.152 158.878 308.147 161.213 308.008 163.487C307.81 166.677 307.34 169.844 306.601 172.949C306.482 173.521 306.316 174.082 306.106 174.625C305.958 174.991 305.763 175.335 305.526 175.647C305.262 175.98 304.951 176.271 304.605 176.51C304.073 176.876 303.511 177.192 302.925 177.456C296.029 180.777 288.509 183.71 280.984 182.565C277.802 181.991 274.724 180.923 271.853 179.397C269.129 178.033 266.047 176.413 263.223 177.548C262.79 177.775 262.323 177.925 261.841 177.992C261.748 177.994 261.655 177.985 261.564 177.967C260.632 177.783 260.632 174.543 260.419 173.588C259.607 169.919 259.483 166.946 258.998 163.757C258.74 161.994 258.34 160.256 257.804 158.561C255.822 152.379 255.223 145.787 255.223 139.309C255.223 138.987 252.993 139.309 252.25 139.278C252.062 139.278 251.958 139.247 252.002 139.181C252.045 139.117 252.095 139.059 252.151 139.007C252.41 138.79 252.713 138.635 253.038 138.552L253.622 138.374C256.684 137.48 260.063 137.107 262.351 134.884C264.729 132.59 265.324 128.926 265.22 125.575C265.19 124.496 264.68 121.88 264.764 119.709C265.627 119.856 266.5 119.933 267.375 119.939C267.79 119.953 268.202 119.867 268.58 119.69C268.958 119.513 269.292 119.248 269.555 118.917C270.381 120.567 271.096 122.274 271.695 124.026C272.537 126.162 273.181 128.41 274.415 130.342C276.396 133.489 280.052 135.558 283.689 135.242C287.325 134.925 290.708 132.043 291.357 128.344C291.927 125.099 290.604 120.429 290.634 117.057C292.567 117.642 294.613 117.711 296.579 117.256C296.663 117.465 296.734 117.678 296.792 117.895C297.907 121.84 299.393 126.367 303.133 127.767C305.551 128.666 308.409 127.991 310.644 129.299C310.815 129.401 310.981 129.514 311.139 129.637C311.655 130.032 312.099 130.518 312.452 131.072C313.37 132.635 313.915 134.4 314.042 136.223C314.614 141.919 313.513 147.662 310.881 152.706Z" fill="#6C63FF"/>
<path opacity="0.1" d="M285.789 111.595C283.318 112.577 280.657 112.946 278.022 112.672C275.387 112.398 272.851 111.488 270.62 110.016C270.437 108.362 270.166 106.719 269.808 105.096C269.808 105.096 285.908 94.6215 285.413 107.395C285.336 108.807 285.463 110.222 285.789 111.595Z" fill="black"/>
<path d="M279.71 111.738C289.013 111.738 296.554 103.961 296.554 94.3662C296.554 84.7719 289.013 76.9941 279.71 76.9941C270.408 76.9941 262.867 84.7719 262.867 94.3662C262.867 103.961 270.408 111.738 279.71 111.738Z" fill="#FABDBD"/>
<path d="M250.239 137.541C250.239 137.541 282.935 116.081 384.494 139.073C486.052 162.066 545.005 143.672 545.005 143.672V167.686C545.005 167.686 431.062 180.46 387.466 167.686C343.87 154.913 281.811 147.545 260.078 167.323L250.239 137.541Z" fill="#F86D70"/>
<path opacity="0.1" d="M250.239 137.541C250.239 137.541 282.935 116.081 384.494 139.073C486.052 162.066 545.005 143.672 545.005 143.672V167.686C545.005 167.686 431.062 180.46 387.466 167.686C343.87 154.913 281.811 147.545 260.078 167.323L250.239 137.541Z" fill="black"/>
<path d="M251.229 138.563C251.229 138.563 282.935 117.103 384.493 140.095C486.051 163.088 544.014 144.694 544.014 144.694L544.509 166.664C544.509 166.664 431.557 179.438 387.961 166.664C344.366 153.891 282.802 144.99 261.068 164.769L251.229 138.563Z" fill="#F86D70"/>
<path d="M239.31 171.569C239.31 171.569 206.614 193.029 105.056 170.037C3.49769 147.044 8.45174 165.438 8.45174 165.438V141.424C8.45174 141.424 58.4876 128.65 102.083 141.424C145.679 154.197 207.738 161.565 229.472 141.787L239.31 171.569Z" fill="#F86D70"/>
<path opacity="0.1" d="M239.31 171.569C239.31 171.569 206.614 193.029 105.056 170.037C3.49769 147.044 8.45174 165.438 8.45174 165.438V141.424C8.45174 141.424 58.4876 128.65 102.083 141.424C145.679 154.197 207.738 161.565 229.472 141.787L239.31 171.569Z" fill="black"/>
<path d="M238.319 170.548C238.319 170.548 206.613 192.007 105.055 169.015C3.49732 146.022 9.44218 164.416 9.44218 164.416L8.94678 142.446C8.94678 142.446 57.9919 129.672 101.588 142.446C145.183 155.219 206.747 164.12 228.481 144.341L238.319 170.548Z" fill="#F86D70"/>
<path d="M265.225 97.2424C264.729 94.0541 263.967 90.0381 266.553 88.214C267.475 87.6372 268.541 87.3529 269.619 87.3965C274.974 87.3403 280.092 91.1877 285.343 90.0636C287.014 89.7024 288.549 88.851 289.762 87.6118C290.975 86.3725 291.816 84.7982 292.182 83.0782C292.548 81.3581 292.425 79.5655 291.827 77.916C291.229 76.2664 290.182 74.8302 288.811 73.7799C286.745 72.196 284.134 71.6237 281.608 71.0872C274.965 69.677 268.029 68.2719 261.47 70.0653C254.911 71.8587 248.916 77.9236 249.441 84.8827C249.689 88.214 251.334 91.2388 253.053 94.0797C254.361 96.2358 259.453 106.342 261.926 106.496C265.413 106.705 265.567 99.327 265.225 97.2424Z" fill="#3F3D56"/>
<path d="M306.963 192.978C306.963 192.978 272.78 201.664 261.386 192.978C261.386 192.978 256.432 212.905 257.918 223.124C257.918 223.124 282.193 224.657 284.67 226.189C284.67 226.189 285.165 222.102 287.642 224.146C287.642 224.146 296.064 213.927 311.422 223.124C311.422 223.124 314.394 199.109 306.963 192.978Z" fill="#6C63FF"/>
<path opacity="0.1" d="M288.821 73.7803C288.469 73.5169 288.099 73.2779 287.716 73.0649C288.739 74.2636 289.438 75.7179 289.744 77.2827C290.051 78.8474 289.954 80.4677 289.463 81.9816C288.972 83.4955 288.104 84.85 286.947 85.9097C285.789 86.9694 284.382 87.6972 282.866 88.0202C277.615 89.1443 272.497 85.2969 267.142 85.3531C266.064 85.3095 264.998 85.5938 264.076 86.1706C261.49 87.9947 262.247 92.0107 262.743 95.199C263.07 97.2836 262.936 104.662 259.458 104.462H259.399C260.355 105.663 261.247 106.475 261.935 106.506C265.403 106.705 265.547 99.3529 265.22 97.2427C264.725 94.0545 263.967 90.0385 266.553 88.2144C267.475 87.6376 268.541 87.3533 269.619 87.3969C274.974 87.3407 280.092 91.1881 285.343 90.064C287.014 89.7028 288.549 88.8514 289.762 87.6122C290.975 86.3729 291.816 84.7986 292.182 83.0785C292.548 81.3585 292.425 79.5659 291.827 77.9163C291.229 76.2668 290.182 74.8305 288.811 73.7803H288.821Z" fill="black"/>
<g opacity="0.1">
<path opacity="0.1" d="M42.7832 49.5102C42.7832 49.5102 5.74173 33.4462 0.88676 62.4166C0.88676 62.4166 -1.64476 66.9282 1.87757 70.6581C1.87757 70.6581 2.63554 68.6603 6.21732 70.7297C7.49594 71.4548 8.85275 72.0224 10.2598 72.4209C12.1612 72.9618 14.1816 72.8506 16.0164 72.1041C16.0164 72.1041 28.1984 71.4245 38.4434 54.9875C38.4434 54.9875 42.8327 52.1875 43.0556 51.1401L35.7137 51.6511C35.7137 51.6511 36.2735 57.1948 33.2367 60.521C33.2367 60.521 35.9367 51.9218 34.6387 51.6766C34.3761 51.6255 30.7597 52.1211 30.7597 52.1211C30.7597 52.1211 31.696 61.7575 26.7964 66.7443C26.7964 66.7443 31.3443 56.9393 29.3626 52.2948L23.9479 53.3729C23.9479 53.3729 25.4341 63.51 20.0738 69.4114C20.0738 69.4114 24.4779 58.9882 22.7787 53.6897L17.5869 55.4882C17.5869 55.4882 18.8402 65.4107 14.3568 70.3056C14.3568 70.3056 18.2705 57.7313 16.4276 55.9992C16.4276 55.9992 11.7609 57.951 10.7602 59.0648C10.7602 59.0648 11.5033 66.218 8.64976 68.7727C8.64976 68.7727 10.4035 60.0867 9.53653 59.7291C9.53653 59.7291 4.11185 63.9392 2.46215 67.572C2.46215 67.572 4.52303 62.0232 8.85287 58.886C8.85287 58.886 5.2166 58.2524 2.41261 59.821C2.41261 59.821 4.29019 56.1371 10.1657 57.8846C10.1657 57.8846 14.5203 54.778 15.3922 54.8189C15.3922 54.8189 9.83377 52.2642 5.81604 52.5759C5.81604 52.5759 10.1211 50.0211 16.7546 54.2926L21.9266 52.3613C21.9266 52.3613 14.7482 48.565 11.1466 48.5803C11.1466 48.5803 15.9322 46.6745 23.2741 51.9883L28.57 50.8693C28.57 50.8693 22.6251 47.1139 18.6173 46.2402C18.6173 46.2402 23.4277 45.4584 30.1008 50.6138L33.7272 50.297C33.7272 50.297 29.3379 47.635 28.0102 46.9861C26.6825 46.3372 26.7419 45.9132 26.7419 45.9132C29.902 46.479 32.8471 47.9403 35.2481 50.1336C35.2481 50.1336 42.7485 49.9854 42.7832 49.5102Z" fill="#6C63FF"/>
</g>
<g opacity="0.1">
<path opacity="0.1" d="M41.4161 20.7135C41.4161 20.7135 28.268 -10.5919 9.39804 3.76557C9.39804 3.76557 5.40012 4.96118 5.43479 9.23266C5.43479 9.23266 6.99037 8.49179 7.97127 11.8231C8.33802 13.0062 8.83676 14.1413 9.45748 15.2056C10.2785 16.6372 11.5287 17.7544 13.0194 18.3888C13.0194 18.3888 20.6289 25.1434 35.8081 21.3982C35.8081 21.3982 39.9645 22.3179 40.6779 21.8223L36.036 17.8063C36.036 17.8063 33.3112 21.4289 29.6551 21.6077C29.6551 21.6077 36.0112 18.0822 35.3721 17.1727C35.2433 16.9888 32.8257 15.1596 32.8257 15.1596C32.8257 15.1596 28.055 21.434 22.4222 21.5311C22.4222 21.5311 30.5419 18.3734 31.9291 14.4545L28.1194 11.8998C28.1194 11.8998 23.3932 18.7924 16.9579 19.1501C16.9579 19.1501 25.3303 15.5735 27.2475 11.4042L23.1703 9.42171C23.1703 9.42171 18.4342 16.064 13.0789 16.3143C13.0789 16.3143 22.3479 11.1436 22.2043 9.03339C22.2043 9.03339 18.355 7.44947 17.1363 7.54144C17.1363 7.54144 13.6337 12.2166 10.5077 12.0837C10.5077 12.0837 16.3486 7.9502 16.0266 7.22977C16.0266 7.22977 10.478 6.5451 7.49072 7.74071C7.49072 7.74071 11.7809 5.65606 16.086 6.34072C16.086 6.34072 14.2778 3.82178 11.7562 3.12178C11.7562 3.12178 14.9069 2.03347 17.4335 6.52466C17.4335 6.52466 21.7336 7.23487 22.234 7.76625C22.234 7.76625 20.3514 2.9685 17.7753 0.807209C17.7753 0.807209 21.7386 1.8291 23.3239 8.25165L27.4605 10.1473C27.4605 10.1473 25.2956 3.6736 23.1208 1.57362C23.1208 1.57362 27.0196 3.24952 28.4464 10.7195L32.2065 13.1669C32.2065 13.1669 30.745 7.44436 28.8526 4.5933C28.8526 4.5933 32.1421 6.94875 33.2617 13.9333L35.5901 15.8749C35.5901 15.8749 34.4507 11.7158 34.0197 10.5509C33.5887 9.38595 33.8611 9.17135 33.8611 9.17135C35.4232 11.3658 36.3647 13.9639 36.5809 16.6771C36.5809 16.6771 41.1485 20.9792 41.4161 20.7135Z" fill="#6C63FF"/>
</g>
</g>
<defs>
<clipPath id="clip0">
<rect width="545" height="374" fill="white"/>
</clipPath>
</defs>
</svg>
