<svg width="531" height="311" viewBox="0 0 531 311" fill="none" xmlns="http://www.w3.org/2000/svg">
<path d="M476.585 60.7617H367.755V247.548H476.585V60.7617Z" fill="#E6E6E6"/>
<path d="M377.92 237.984H466.419V70.3262H377.92V237.984Z" fill="white"/>
<path d="M437.771 106.285H411.925V108.543H437.771V106.285Z" fill="#E6E6E6"/>
<path d="M456.972 114.098H411.925V116.356H456.972V114.098Z" fill="#E6E6E6"/>
<path d="M456.928 121.909H411.925V124.167H456.928V121.909Z" fill="#E6E6E6"/>
<path d="M406.569 106.318H387.367V124.384H406.569V106.318Z" fill="#E6E6E6"/>
<path d="M437.771 145.105H411.925V147.364H437.771V145.105Z" fill="#E6E6E6"/>
<path d="M456.972 152.917H411.925V155.175H456.972V152.917Z" fill="#E6E6E6"/>
<path d="M456.928 160.729H411.925V162.988H456.928V160.729Z" fill="#E6E6E6"/>
<path d="M406.569 145.139H387.367V163.205H406.569V145.139Z" fill="#E6E6E6"/>
<path d="M437.771 183.925H411.925V186.183H437.771V183.925Z" fill="#E6E6E6"/>
<path d="M456.972 191.737H411.925V193.996H456.972V191.737Z" fill="#E6E6E6"/>
<path d="M456.928 199.55H411.925V201.808H456.928V199.55Z" fill="#E6E6E6"/>
<path d="M406.569 183.959H387.367V202.025H406.569V183.959Z" fill="#E6E6E6"/>
<path d="M172.817 60.7617H63.9863V247.548H172.817V60.7617Z" fill="#E6E6E6"/>
<path d="M74.1523 237.984H162.652V70.3262H74.1523V237.984Z" fill="white"/>
<path d="M134.003 106.285H108.157V108.543H134.003V106.285Z" fill="#E6E6E6"/>
<path d="M153.205 114.098H108.157V116.356H153.205V114.098Z" fill="#E6E6E6"/>
<path d="M153.161 121.909H108.157V124.167H153.161V121.909Z" fill="#E6E6E6"/>
<path d="M102.8 106.318H83.5986V124.384H102.8V106.318Z" fill="#E6E6E6"/>
<path d="M134.003 145.105H108.157V147.364H134.003V145.105Z" fill="#E6E6E6"/>
<path d="M153.205 152.917H108.157V155.175H153.205V152.917Z" fill="#E6E6E6"/>
<path d="M153.161 160.729H108.157V162.988H153.161V160.729Z" fill="#E6E6E6"/>
<path d="M102.8 145.139H83.5986V163.205H102.8V145.139Z" fill="#E6E6E6"/>
<path d="M134.003 183.925H108.157V186.183H134.003V183.925Z" fill="#E6E6E6"/>
<path d="M153.205 191.737H108.157V193.996H153.205V191.737Z" fill="#E6E6E6"/>
<path d="M153.161 199.55H108.157V201.808H153.161V199.55Z" fill="#E6E6E6"/>
<path d="M102.8 183.959H83.5986V202.025H102.8V183.959Z" fill="#E6E6E6"/>
<path d="M265.5 262.738C412.132 262.738 531 258.204 531 252.611C531 247.018 412.132 242.484 265.5 242.484C118.868 242.484 0 247.018 0 252.611C0 258.204 118.868 262.738 265.5 262.738Z" fill="#E6E6E6"/>
<path d="M344.37 0H196.203V254.3H344.37V0Z" fill="#3F3D56"/>
<path d="M202.605 247.829H337.966V6.46973H202.605V247.829Z" fill="white"/>
<path d="M291.526 61.9775H256.338V65.052H291.526V61.9775Z" fill="#6C63FF"/>
<path d="M317.668 72.6133H256.338V75.6878H317.668V72.6133Z" fill="#E6E6E6"/>
<path d="M317.608 83.249H256.338V86.3235H317.608V83.249Z" fill="#E6E6E6"/>
<path d="M249.046 62.0234H222.904V86.6195H249.046V62.0234Z" fill="#6C63FF"/>
<path d="M291.526 114.829H256.338V117.904H291.526V114.829Z" fill="#6C63FF"/>
<path d="M317.668 125.465H256.338V128.539H317.668V125.465Z" fill="#E6E6E6"/>
<path d="M317.608 136.101H256.338V139.175H317.608V136.101Z" fill="#E6E6E6"/>
<path d="M249.046 114.875H222.904V139.471H249.046V114.875Z" fill="#6C63FF"/>
<path d="M291.526 167.681H256.338V170.755H291.526V167.681Z" fill="#6C63FF"/>
<path d="M317.668 178.316H256.338V181.391H317.668V178.316Z" fill="#E6E6E6"/>
<path d="M317.608 188.952H256.338V192.027H317.608V188.952Z" fill="#E6E6E6"/>
<path d="M249.046 167.727H222.904V192.323H249.046V167.727Z" fill="#6C63FF"/>
<path d="M216.17 180.317L214.376 187.631C214.376 187.631 214.974 204.509 210.19 202.821C205.407 201.133 206.603 186.505 206.603 186.505L210.788 179.191L216.17 180.317Z" fill="#FFB8B8"/>
<path d="M189.56 100.145C196.165 100.145 201.519 95.1072 201.519 88.8928C201.519 82.6784 196.165 77.6406 189.56 77.6406C182.955 77.6406 177.601 82.6784 177.601 88.8928C177.601 95.1072 182.955 100.145 189.56 100.145Z" fill="#FFB8B8"/>
<path d="M180.292 91.9863L179.096 108.302L194.045 109.99C194.045 109.99 194.045 96.4872 195.241 94.7994C196.437 93.1115 180.292 91.9863 180.292 91.9863Z" fill="#FFB8B8"/>
<path d="M213.479 113.085L194.115 105.37C194.115 105.37 184.865 98.6543 179.439 103.619L177.002 106.896C177.002 106.896 155.476 114.773 155.476 120.962L163.847 151.905C163.847 151.905 159.063 169.346 166.239 170.471L205.107 173.847C205.107 173.847 210.489 167.658 205.705 159.782L207.499 141.215L213.479 113.085Z" fill="#575A89"/>
<path d="M200.323 113.648L213.479 113.085C213.479 113.085 217.664 114.21 220.654 124.9C223.644 135.589 224.242 153.03 224.242 153.03L217.066 184.536L208.097 183.411L211.685 153.03L205.705 132.776L200.323 113.648Z" fill="#575A89"/>
<path d="M162.652 117.022L156.166 118.923C156.166 118.923 150.693 126.587 150.693 130.525C150.693 134.463 148.301 164.282 148.301 164.282L163.848 188.474L168.632 176.659L159.064 161.469L166.838 142.903L162.652 117.022Z" fill="#575A89"/>
<path d="M206.901 172.721L163.909 169.162C163.909 169.162 159.662 194.663 160.26 204.79C160.858 214.917 161.456 230.67 161.456 230.67L156.672 299.308L175.209 297.058L177.601 240.234L185.374 209.291L194.344 248.673L200.324 299.308L216.469 297.621L211.087 236.296C211.087 236.296 215.871 181.16 206.901 172.721Z" fill="#2F2E41"/>
<path d="M212.881 294.808L218.263 296.495C218.263 296.495 229.624 293.682 226.635 300.996C223.645 308.31 215.273 307.185 215.273 307.185C215.273 307.185 205.108 314.499 200.922 308.873L203.314 297.058L212.881 294.808Z" fill="#2F2E41"/>
<path d="M169.229 294.808L174.611 296.495C174.611 296.495 185.972 293.682 182.982 300.996C179.992 308.31 171.621 307.185 171.621 307.185C171.621 307.185 161.455 314.499 157.27 308.873L159.661 297.058L169.229 294.808Z" fill="#2F2E41"/>
<path d="M180.292 98.7378C180.292 98.7378 167.735 90.2986 174.312 80.1717C178.876 73.1461 188.331 73.7023 193.695 74.7018C195.14 74.9528 196.498 75.5306 197.653 76.3855C198.808 77.2404 199.725 78.3467 200.324 79.6091C201.221 81.5782 201.221 83.5473 197.633 83.5473C190.457 83.5473 194.045 88.6108 194.045 88.6108C194.045 88.6108 189.262 89.736 190.457 93.6743C191.653 97.6126 180.292 98.7378 180.292 98.7378Z" fill="#2F2E41"/>
</svg>
