<svg width="480" height="297" viewBox="0 0 480 297" fill="none" xmlns="http://www.w3.org/2000/svg">
<g clip-path="url(#clip0)">
<path d="M427.431 111.074C417.034 111.074 406.87 107.817 398.225 101.714C389.58 95.6119 382.842 86.9382 378.863 76.7901C374.885 66.6421 373.844 55.4754 375.872 44.7023C377.9 33.9292 382.907 24.0334 390.259 16.2664C397.611 8.49944 406.978 3.21006 417.175 1.06715C427.373 -1.07575 437.942 0.0240631 447.548 4.22753C457.154 8.43099 465.364 15.5493 471.14 24.6823C476.917 33.8153 480 44.5529 480 55.537C479.984 70.2612 474.441 84.3776 464.585 94.7892C454.73 105.201 441.368 111.057 427.431 111.074ZM427.431 0.867789C417.196 0.867789 407.191 4.07409 398.681 10.0812C390.172 16.0884 383.539 24.6265 379.622 34.616C375.706 44.6055 374.681 55.5977 376.678 66.2025C378.674 76.8073 383.603 86.5484 390.84 94.194C398.077 101.84 407.297 107.046 417.335 109.156C427.373 111.265 437.778 110.183 447.234 106.045C456.689 101.907 464.771 94.8999 470.457 85.9096C476.144 76.9193 479.178 66.3496 479.178 55.537C479.163 41.0429 473.706 27.1471 464.005 16.8982C454.304 6.64923 441.15 0.884188 427.431 0.867789Z" fill="#3F3D56"/>
<path d="M427.608 83.5834C442.186 83.5834 454.004 71.098 454.004 55.6965C454.004 40.295 442.186 27.8096 427.608 27.8096C413.029 27.8096 401.211 40.295 401.211 55.6965C401.211 71.098 413.029 83.5834 427.608 83.5834Z" fill="#F2F2F2"/>
<path d="M429.349 55.7607H26.3843V269.632H429.349V55.7607Z" fill="#3F3D56"/>
<path opacity="0.1" d="M290.71 117.592H139.599V227.062H290.71V117.592Z" fill="black"/>
<path d="M463.736 27.7443C469.614 27.7443 474.38 22.7099 474.38 16.4996C474.38 10.2893 469.614 5.25488 463.736 5.25488C457.858 5.25488 453.092 10.2893 453.092 16.4996C453.092 22.7099 457.858 27.7443 463.736 27.7443Z" fill="#6C63FF"/>
<path d="M38.3778 68.9379C41.0272 68.9379 43.175 66.6688 43.175 63.8698C43.175 61.0708 41.0272 58.8018 38.3778 58.8018C35.7283 58.8018 33.5806 61.0708 33.5806 63.8698C33.5806 66.6688 35.7283 68.9379 38.3778 68.9379Z" fill="#6C63FF"/>
<path d="M53.2489 68.9379C55.8983 68.9379 58.0461 66.6688 58.0461 63.8698C58.0461 61.0708 55.8983 58.8018 53.2489 58.8018C50.5994 58.8018 48.4517 61.0708 48.4517 63.8698C48.4517 66.6688 50.5994 68.9379 53.2489 68.9379Z" fill="#6C63FF"/>
<path d="M68.1204 68.9379C70.7699 68.9379 72.9176 66.6688 72.9176 63.8698C72.9176 61.0708 70.7699 58.8018 68.1204 58.8018C65.471 58.8018 63.3232 61.0708 63.3232 63.8698C63.3232 66.6688 65.471 68.9379 68.1204 68.9379Z" fill="#6C63FF"/>
<path d="M82.5119 135.329H72.9175V145.465H82.5119V135.329Z" fill="#6C63FF"/>
<path d="M374.661 223.514H365.066V233.65H374.661V223.514Z" fill="white"/>
<path d="M340.833 153.035L333.375 159.411L339.409 167.291L346.868 160.915L340.833 153.035Z" fill="#6C63FF"/>
<path d="M307.021 290.918H5.75684V119.618H6.71622V289.905H307.021V290.918Z" fill="#3F3D56"/>
<path d="M312.777 297C311.544 297 310.338 296.614 309.313 295.89C308.287 295.166 307.488 294.137 307.016 292.933C306.544 291.729 306.42 290.404 306.661 289.126C306.901 287.848 307.495 286.674 308.368 285.753C309.24 284.832 310.351 284.204 311.561 283.95C312.771 283.696 314.024 283.826 315.164 284.325C316.304 284.823 317.278 285.668 317.963 286.751C318.648 287.835 319.014 289.109 319.014 290.412C319.012 292.158 318.354 293.833 317.185 295.068C316.016 296.303 314.431 296.998 312.777 297ZM312.777 284.837C311.734 284.837 310.713 285.164 309.846 285.776C308.978 286.389 308.302 287.26 307.902 288.278C307.503 289.297 307.398 290.418 307.602 291.499C307.805 292.581 308.308 293.574 309.046 294.354C309.784 295.133 310.724 295.664 311.748 295.879C312.772 296.095 313.833 295.984 314.797 295.562C315.761 295.14 316.585 294.426 317.165 293.509C317.745 292.592 318.054 291.514 318.054 290.412C318.053 288.934 317.496 287.517 316.507 286.472C315.518 285.426 314.176 284.839 312.777 284.837Z" fill="#3F3D56"/>
<path d="M6.23636 120.125C5.00292 120.125 3.79719 119.739 2.77163 119.015C1.74606 118.291 0.946732 117.262 0.474717 116.058C0.00270218 114.854 -0.120799 113.529 0.119833 112.251C0.360464 110.973 0.954419 109.799 1.82659 108.878C2.69876 107.957 3.80997 107.329 5.01971 107.075C6.22944 106.821 7.48337 106.951 8.62291 107.45C9.76246 107.948 10.7364 108.793 11.4217 109.876C12.107 110.96 12.4727 112.234 12.4727 113.537C12.4709 115.283 11.8133 116.958 10.6441 118.193C9.47496 119.428 7.88978 120.123 6.23636 120.125ZM6.23636 107.962C5.19268 107.962 4.17245 108.289 3.30466 108.901C2.43688 109.514 1.76052 110.385 1.36113 111.403C0.961728 112.422 0.857228 113.543 1.06084 114.624C1.26445 115.706 1.76703 116.699 2.50502 117.479C3.24301 118.258 4.18326 118.789 5.20688 119.004C6.23051 119.22 7.29152 119.109 8.25575 118.687C9.21998 118.265 10.0441 117.551 10.624 116.634C11.2038 115.717 11.5133 114.639 11.5133 113.537C11.5117 112.059 10.9552 110.642 9.96596 109.597C8.97669 108.551 7.6354 107.964 6.23636 107.962Z" fill="#3F3D56"/>
<path d="M96.4236 256.962L92.1397 269.632H82.5117V256.709C83.2217 240.496 91.8327 232.874 92.1013 232.641C85.6299 239.234 86.3495 262.03 86.3495 262.03C90.667 242.265 94.5047 241.758 94.5047 241.758C92.1829 245.442 90.9836 262.203 90.9116 263.247C91.1994 259.724 96.4236 256.962 96.4236 256.962Z" fill="#F2F2F2"/>
<path d="M394.329 258.686V269.633H386.927L383.296 258.884C383.296 258.884 387.436 261.073 387.666 263.866C387.609 263.004 386.659 249.746 384.817 246.827C384.817 246.827 387.863 247.227 391.288 262.903C391.288 262.903 391.854 244.825 386.726 239.595C386.942 239.782 393.768 245.823 394.329 258.686Z" fill="#F2F2F2"/>
<path d="M264.781 227.058H253.113L253.035 226.048L252.185 214.78V214.775L251.302 203.06L256.686 178.897L261.262 183.731V206.757C261.262 206.757 263.952 211.022 263.414 212.159C262.876 213.296 262.338 213.296 262.876 214.146C263.414 215.001 263.952 215.569 263.414 216.138C263.152 216.507 263.01 216.956 263.01 217.418C263.01 217.879 263.152 218.328 263.414 218.698C263.952 219.266 265.028 220.116 264.219 220.971C263.414 221.822 262.338 221.253 263.414 224.381C263.611 224.96 263.858 225.517 264.153 226.048C264.345 226.396 264.555 226.734 264.781 227.058Z" fill="#D0CDE1"/>
<path d="M228.835 149.189L227.221 166.246L243.635 168.805L244.846 158.997L246.057 149.189H228.835Z" fill="#FFB9B9"/>
<path opacity="0.1" d="M228.835 149.189L227.221 166.246L243.635 168.805L244.846 158.997L246.057 149.189H228.835Z" fill="black"/>
<path d="M237.849 154.733C244.983 154.733 250.766 148.624 250.766 141.088C250.766 133.552 244.983 127.442 237.849 127.442C230.716 127.442 224.933 133.552 224.933 141.088C224.933 148.624 230.716 154.733 237.849 154.733Z" fill="#FFB9B9"/>
<path d="M205.21 227.059C205.165 226.959 205.116 226.855 205.066 226.742C204.972 226.529 204.869 226.299 204.758 226.048C204.044 224.364 203.169 221.969 203.674 221.253C204.483 220.117 204.75 218.98 204.212 218.411C203.674 217.843 202.06 218.98 203.674 217.557C205.288 216.138 205.826 216.988 205.288 215.283C204.75 213.578 203.674 214.433 204.75 213.578C205.826 212.728 206.635 213.01 206.097 212.159C205.559 211.304 204.483 211.304 205.559 210.736C206.635 210.168 207.444 210.736 207.173 209.313C206.902 207.894 206.635 208.462 207.173 207.894C207.313 207.747 207.802 206.315 208.455 204.271C210.282 198.496 213.362 187.844 213.362 187.423C213.362 186.855 209.058 168.949 209.058 168.949L207.173 167.808C207.173 167.808 198.832 173.778 196.142 187.141C193.448 200.501 191.567 203.915 191.567 203.915C191.567 203.915 188.877 204.484 190.758 206.471C192.643 208.462 192.643 208.176 191.029 209.313C189.415 210.45 188.339 208.176 189.415 210.45C190.491 212.728 191.834 212.159 190.758 213.578C189.682 215.001 187.801 215.001 188.877 216.138C189.953 217.275 187.801 219.835 189.144 220.971C190.491 222.108 191.029 222.39 191.029 224.382C191.029 224.94 191.072 225.497 191.156 226.048C191.202 226.389 191.268 226.726 191.353 227.059C191.415 227.323 191.476 227.523 191.517 227.649L205.21 227.059Z" fill="#D0CDE1"/>
<path d="M205.21 227.059H206.307L206.364 226.655L205.066 226.742L200.348 227.059L191.518 227.649L205.21 227.059Z" fill="#3F3D56"/>
<path d="M210.939 215.001L208.52 206.189L208.454 204.271L207.173 167.808L223.05 161.842L225.74 159.564C225.74 159.564 226.278 153.025 227.087 152.457C227.379 152.253 227.847 152.492 228.467 153.047C229.556 154.023 231.116 155.971 233.006 158.145C235.967 161.555 242.156 160.987 244.037 159.85C244.279 159.701 244.53 159.569 244.788 159.455C246.14 158.865 246.727 159.282 246.727 159.282C248.074 160.419 244.846 164.115 244.846 164.115C244.846 164.115 245.922 166.671 252.916 169.231C259.914 171.791 261.261 183.731 261.261 183.731C261.261 183.731 252.916 207.608 253.187 209.313C253.417 210.775 252.464 213.908 252.185 214.775V214.78C252.14 214.919 252.111 215.001 252.111 215.001L252.723 226.048L252.781 227.059H212.077C211.956 226.707 211.803 226.369 211.621 226.048C211.576 225.97 211.526 225.887 211.477 225.805C209.058 221.822 210.939 215.001 210.939 215.001Z" fill="#D0CDE1"/>
<path d="M224.843 142.835C224.843 142.835 223.502 140.71 224.018 138.421C224.326 137.121 224.448 135.78 224.379 134.442C224.379 134.442 225.462 130.736 226.546 128.665C227.629 126.594 227.113 125.722 230.518 125.068C233.923 124.414 232.53 119.727 241.506 124.796C241.809 125.242 242.23 125.584 242.717 125.778C243.204 125.972 243.734 126.01 244.24 125.886C246.098 125.504 246.768 128.229 246.768 128.229C246.768 128.229 248.006 127.466 248.471 128.556C248.935 129.646 252.245 127.902 252.245 135.259C252.245 142.617 248.478 149.189 248.478 149.189C248.478 149.189 248.754 136.813 242.615 135.559C236.476 134.306 229.873 130.654 228.274 135.341C227.411 137.972 226.259 140.487 224.843 142.835Z" fill="#2F2E41"/>
<path d="M248.613 145.778C249.282 145.778 249.824 145.014 249.824 144.072C249.824 143.13 249.282 142.366 248.613 142.366C247.944 142.366 247.402 143.13 247.402 144.072C247.402 145.014 247.944 145.778 248.613 145.778Z" fill="#FFB9B9"/>
<path d="M139.597 109.481V227.059H316.134V109.481H139.597ZM315.178 226.048H140.558V110.497H315.178V226.048Z" fill="white"/>
</g>
<defs>
<clipPath id="clip0">
<rect width="480" height="297" fill="white"/>
</clipPath>
</defs>
</svg>
