<svg width="420" height="293" viewBox="0 0 420 293" fill="none" xmlns="http://www.w3.org/2000/svg">
<path d="M420 108.494H243.458V113.397H420V108.494Z" fill="#E6E6E6"/>
<path d="M302.777 67.4844H258.053V109.831H302.777V67.4844Z" fill="#E6E6E6"/>
<path d="M293.832 75.9536H266.998V101.362H293.832V75.9536Z" fill="#CCCCCC"/>
<path d="M369.627 67.4844H358.328V109.831H369.627V67.4844Z" fill="#E6E6E6"/>
<path d="M369.627 74.1704H358.328V79.0737H369.627V74.1704Z" fill="#CCCCCC"/>
<path d="M369.627 95.5669H358.328V100.47H369.627V95.5669Z" fill="#CCCCCC"/>
<path d="M352.208 67.4844H340.909V109.831H352.208V67.4844Z" fill="#E6E6E6"/>
<path d="M352.208 74.1704H340.909V79.0737H352.208V74.1704Z" fill="#CCCCCC"/>
<path d="M352.208 95.5669H340.909V100.47H352.208V95.5669Z" fill="#CCCCCC"/>
<path d="M379.362 67.309L369.236 72.0557L389.08 110.006L399.206 105.259L379.362 67.309Z" fill="#E6E6E6"/>
<path d="M382.495 73.3012L372.37 78.0479L374.667 82.4421L384.793 77.6954L382.495 73.3012Z" fill="#CCCCCC"/>
<path d="M392.522 92.476L382.396 97.2227L384.694 101.617L394.819 96.8703L392.522 92.476Z" fill="#CCCCCC"/>
<path d="M274.765 84.4824L280.455 93.8136L286.145 103.145H274.765H263.386L269.075 93.8136L274.765 84.4824Z" fill="#E6E6E6"/>
<path d="M284.651 86.2651L290.341 95.5964L296.031 104.928H284.651H273.272L278.962 95.5964L284.651 86.2651Z" fill="#E6E6E6"/>
<path d="M288.653 83.5316C290.473 83.5316 291.949 82.1346 291.949 80.4113C291.949 78.688 290.473 77.291 288.653 77.291C286.833 77.291 285.358 78.688 285.358 80.4113C285.358 82.1346 286.833 83.5316 288.653 83.5316Z" fill="#E6E6E6"/>
<path d="M243.459 46.0879L420 46.0879V41.1846L243.459 41.1846V46.0879Z" fill="#E6E6E6"/>
<path d="M360.682 42.522L405.406 42.522V0.175198L360.682 0.175198V42.522Z" fill="#E6E6E6"/>
<path d="M369.627 34.0527H396.461V8.64466L369.627 8.64466V34.0527Z" fill="#CCCCCC"/>
<path d="M293.832 42.522H305.13V0.175198H293.832V42.522Z" fill="#E6E6E6"/>
<path d="M293.832 11.7646L305.13 11.7646V6.86134L293.832 6.86134V11.7646Z" fill="#CCCCCC"/>
<path d="M293.832 33.1611H305.13V28.2578H293.832V33.1611Z" fill="#CCCCCC"/>
<path d="M311.251 42.522H322.549V0.175198H311.251V42.522Z" fill="#E6E6E6"/>
<path d="M311.251 11.7646L322.549 11.7646V6.86134L311.251 6.86134V11.7646Z" fill="#CCCCCC"/>
<path d="M311.251 33.1611H322.549V28.2578H311.251V33.1611Z" fill="#CCCCCC"/>
<path d="M264.253 37.9506L274.378 42.6973L294.222 4.74693L284.096 0.000269574L264.253 37.9506Z" fill="#E6E6E6"/>
<path d="M278.665 10.3866L288.791 15.1333L291.089 10.739L280.963 5.99239L278.665 10.3866Z" fill="#CCCCCC"/>
<path d="M268.64 29.5614L278.765 34.3081L281.063 29.9139L270.937 25.1672L268.64 29.5614Z" fill="#CCCCCC"/>
<path d="M388.693 17.1729L383.004 26.5041L377.314 35.8353H388.693H400.073L394.383 26.5041L388.693 17.1729Z" fill="#E6E6E6"/>
<path d="M378.807 18.9561L373.117 28.2873L367.428 37.6185H378.807H390.187L384.497 28.2873L378.807 18.9561Z" fill="#E6E6E6"/>
<path d="M374.805 16.2225C376.625 16.2225 378.101 14.8255 378.101 13.1022C378.101 11.3789 376.625 9.98193 374.805 9.98193C372.985 9.98193 371.51 11.3789 371.51 13.1022C371.51 14.8255 372.985 16.2225 374.805 16.2225Z" fill="#E6E6E6"/>
<path d="M243.459 180.706L420 180.706V175.803L243.459 175.803V180.706Z" fill="#E6E6E6"/>
<path d="M360.682 177.14H405.406V134.793H360.682V177.14Z" fill="#E6E6E6"/>
<path d="M369.627 168.671H396.461V143.263H369.627V168.671Z" fill="#CCCCCC"/>
<path d="M293.832 177.14H305.13V134.793H293.832V177.14Z" fill="#E6E6E6"/>
<path d="M293.832 146.383H305.13V141.48H293.832V146.383Z" fill="#CCCCCC"/>
<path d="M293.832 167.779H305.13V162.876H293.832V167.779Z" fill="#CCCCCC"/>
<path d="M311.251 177.14H322.549V134.793H311.251V177.14Z" fill="#E6E6E6"/>
<path d="M311.251 146.383H322.549V141.48H311.251V146.383Z" fill="#CCCCCC"/>
<path d="M311.251 167.779H322.549V162.876H311.251V167.779Z" fill="#CCCCCC"/>
<path d="M264.253 172.569L274.378 177.315L294.222 139.365L284.096 134.618L264.253 172.569Z" fill="#E6E6E6"/>
<path d="M278.665 145.005L288.791 149.751L291.089 145.357L280.963 140.611L278.665 145.005Z" fill="#CCCCCC"/>
<path d="M268.64 164.18L278.765 168.926L281.063 164.532L270.937 159.785L268.64 164.18Z" fill="#CCCCCC"/>
<path d="M388.693 151.791L383.004 161.122L377.314 170.454H388.693H400.073L394.383 161.122L388.693 151.791Z" fill="#E6E6E6"/>
<path d="M378.807 153.574L373.117 162.905L367.428 172.237H378.807H390.187L384.497 162.905L378.807 153.574Z" fill="#E6E6E6"/>
<path d="M374.805 150.841C376.625 150.841 378.101 149.444 378.101 147.72C378.101 145.997 376.625 144.6 374.805 144.6C372.985 144.6 371.51 145.997 371.51 147.72C371.51 149.444 372.985 150.841 374.805 150.841Z" fill="#E6E6E6"/>
<path d="M207.966 293C322.823 293 415.932 286.738 415.932 279.015C415.932 271.291 322.823 265.029 207.966 265.029C93.1096 265.029 0 271.291 0 279.015C0 286.738 93.1096 293 207.966 293Z" fill="#E6E6E6"/>
<path d="M370.439 286.846C336.529 281.132 299.446 282.082 260.548 286.846C278.278 272.675 293.579 258.503 275.85 244.331C310.433 251.086 315.277 250.403 353.747 244.331C344.824 258.503 361.516 272.675 370.439 286.846Z" fill="#6C63FF"/>
<path opacity="0.2" d="M370.439 286.846C336.529 281.132 299.446 282.082 260.548 286.846C278.278 272.675 293.579 258.503 275.85 244.331C310.433 251.086 315.277 250.403 353.747 244.331C344.824 258.503 361.516 272.675 370.439 286.846Z" fill="black"/>
<path d="M362.168 280.8C333.363 276.239 301.862 276.997 268.82 280.8C283.88 269.488 296.878 258.176 281.818 246.864C311.195 252.256 315.309 251.71 347.989 246.864C340.409 258.176 354.588 269.488 362.168 280.8Z" fill="#6C63FF"/>
<path d="M351.197 262.574C359.673 262.574 366.545 256.067 366.545 248.041C366.545 240.015 359.673 233.508 351.197 233.508C342.72 233.508 335.848 240.015 335.848 248.041C335.848 256.067 342.72 262.574 351.197 262.574Z" fill="#2F2E41"/>
<path d="M281.522 231.185L292.156 232.863L297.474 247.408L282.113 256.359L264.388 231.185H280.931H281.522Z" fill="#A0616A"/>
<path d="M311.653 253.561C325.358 253.561 336.468 243.042 336.468 230.066C336.468 217.09 325.358 206.571 311.653 206.571C297.949 206.571 286.839 217.09 286.839 230.066C286.839 243.042 297.949 253.561 311.653 253.561Z" fill="#A0616A"/>
<path d="M174.585 144.476C174.585 144.476 114.322 150.63 103.688 149.511C93.053 148.392 88.3265 147.273 88.3265 147.273C88.3265 147.273 81.2367 156.224 84.7816 160.14C86.7669 162.396 89.1693 164.292 91.8714 165.734C91.8714 165.734 98.3703 164.055 103.097 165.734C107.823 167.412 155.679 174.684 163.951 167.971C172.222 161.258 174.585 144.476 174.585 144.476Z" fill="#2F2E41"/>
<path d="M178.721 269.225C178.721 269.225 139.137 258.596 132.047 211.606V207.13C132.047 207.13 124.215 220.14 121.412 222.794C118.163 225.871 106.642 253.562 107.233 256.359C107.824 259.156 107.233 260.275 107.233 260.275L90.0991 258.596V253.562C90.0991 253.562 99.2567 227.549 99.8475 221.395C100.438 215.242 122.594 172.447 122.594 172.447C122.594 172.447 130.865 156.224 145.045 172.447C159.224 188.67 160.406 199.858 160.406 199.858L178.721 233.423L178.721 269.225Z" fill="#2F2E41"/>
<path d="M90.0988 145.595L71.1928 139.441C71.1928 139.441 53.4684 127.134 57.6041 139.441C61.7398 151.749 80.6458 178.6 85.9631 175.803C91.2804 173.006 97.6753 166.063 96.2503 165.059C94.8253 164.056 85.3723 156.783 90.0988 145.595Z" fill="#2F2E41"/>
<path d="M92.3843 250.259L77.1225 257.316C77.1225 257.316 58.6663 260.005 68.9592 265.046C79.252 270.086 107.646 275.463 109.066 270.759C110.486 266.054 109.922 258.245 108.429 258.453C106.936 258.66 96.6434 259.669 92.3843 250.259Z" fill="#2F2E41"/>
<path d="M171.04 232.304C171.04 232.304 163.36 263.631 176.357 270.344C189.355 277.057 280.34 278.176 287.43 265.868C294.52 253.561 290.975 253.561 290.975 253.561L272.069 233.423L287.43 232.304C287.43 232.304 287.43 227.829 282.113 227.269C276.796 226.71 260.253 221.116 246.073 225.031C231.894 228.947 223.622 217.2 223.622 217.2L171.04 232.304Z" fill="#575A89"/>
<path d="M160.997 134.407L150.953 186.432L220.078 178.601L232.485 131.61L160.997 134.407Z" fill="#3F3D56"/>
<path d="M163.064 136.365L154.793 182.796L217.714 175.804L229.826 133.568L163.064 136.365Z" fill="white"/>
<path d="M153.316 186.991L150.952 186.432L149.771 188.669L168.677 238.457L170.455 237.814L171.04 234.542L153.316 186.991Z" fill="#B3B3B3"/>
<path d="M150.953 185.873L169.859 237.898L241.347 227.829L220.078 178.601L150.953 185.873Z" fill="#D0CDE1"/>
<path d="M160.406 184.195V186.992L212.988 181.398L212.397 178.601L160.406 184.195Z" fill="#3F3D56"/>
<path d="M161.587 189.789L169.859 211.606L223.623 205.452L214.17 184.754L161.587 189.789Z" fill="#3F3D56"/>
<path d="M228.94 220.556L227.168 216.081C227.168 216.081 213.579 193.704 206.489 198.18C199.399 202.655 221.259 224.472 221.259 224.472H228.349L228.94 220.556Z" fill="#A0616A"/>
<path d="M184.038 223.913L182.266 217.2C182.266 217.2 177.539 196.502 185.811 197.62C194.082 198.739 196.445 218.319 196.445 218.319L195.855 222.794L184.038 223.913Z" fill="#A0616A"/>
<path d="M198.218 221.115C198.218 221.115 182.857 218.878 182.266 222.234C181.675 225.591 178.721 275.938 193.491 277.616C208.261 279.294 281.522 286.566 273.842 269.225C266.161 251.883 254.345 254.121 254.345 254.121L204.126 259.155L198.218 221.115Z" fill="#575A89"/>
<path d="M244.596 227.549L228.94 217.2L218.601 224.752L231.599 238.178L244.596 227.549Z" fill="#575A89"/>
<path opacity="0.2" d="M202.649 237.619L205.012 258.876L245.778 256.639L210.329 256.079L202.649 237.619Z" fill="black"/>
<path d="M323.903 262.306C340.218 262.306 353.444 249.783 353.444 234.335C353.444 218.888 340.218 206.365 323.903 206.365C307.588 206.365 294.362 218.888 294.362 234.335C294.362 249.783 307.588 262.306 323.903 262.306Z" fill="#2F2E41"/>
<path d="M171.927 152.588L208.557 151.38L212.102 138.603L174.29 139.683L171.927 152.588Z" fill="#6C63FF"/>
<path d="M162.474 159.86L218.01 158.182L218.6 155.944L163.064 157.796L162.474 159.86Z" fill="#E6E6E6"/>
<path d="M161.292 165.454L216.829 163.776L217.419 161.538L161.883 163.39L161.292 165.454Z" fill="#E6E6E6"/>
<path d="M160.701 169.929L216.237 168.251L216.828 166.014L161.292 167.865L160.701 169.929Z" fill="#E6E6E6"/>
</svg>
