<svg width="386" height="292" viewBox="0 0 386 292" fill="none" xmlns="http://www.w3.org/2000/svg">
<g clip-path="url(#clip0)">
<path opacity="0.1" d="M4.1665 138.071C10.2737 161.898 23.2039 182.494 43.6391 192.476C86.1247 213.226 181.882 202.523 253.359 190.241C290.341 183.887 322.825 166.364 346.436 141.672L4.1665 138.071Z" fill="#6C63FF"/>
<path opacity="0.1" d="M379 25.9217H339.782C337.916 25.9217 336.389 24.5291 336.389 22.8275C336.389 21.1259 337.913 19.7333 339.782 19.7333H346.568C344.702 19.7333 343.175 18.3407 343.175 16.6391C343.175 14.9374 344.698 13.5483 346.568 13.5483H341.726C339.86 13.5483 338.333 12.1557 338.333 10.4541C338.333 8.75243 339.857 7.35986 341.726 7.35986H362.195C357.652 5.43066 352.356 4.06187 346.229 3.34521C290.413 -3.19984 270.483 1.1273 263.443 5.5801C254.691 11.1874 244.957 15.0819 234.756 17.0569C200.318 23.5408 135.915 31.3425 77.5405 14.557C48.5281 6.21864 26.9664 20.3311 14.0396 43.8722H385.81C385.325 37.0248 383.872 30.7006 381.206 25.1677C380.576 25.6599 379.799 25.9255 379 25.9217Z" fill="#6C63FF"/>
<path opacity="0.1" d="M0.838042 88.3398C-0.666755 102.197 -0.153603 116.2 2.36144 129.91L346.697 141.403C356.184 131.48 364.237 120.276 370.62 108.118L0.838042 88.3398ZM137.018 117.995H130.232C132.095 117.995 133.625 119.387 133.625 121.089C133.625 122.79 132.098 124.18 130.232 124.18H91.0307C89.168 124.18 87.6378 122.79 87.6378 121.089C87.6378 119.387 89.1646 117.995 91.0307 117.995H97.8164C95.9537 117.995 94.4236 116.602 94.4236 114.9C94.4236 113.199 95.9504 111.806 97.8164 111.806H92.968C91.1053 111.806 89.5752 110.417 89.5752 108.715C89.5752 107.014 91.102 105.621 92.968 105.621H132.186C134.052 105.621 135.579 107.014 135.579 108.715C135.579 110.417 134.056 111.806 132.186 111.806H137.018C138.884 111.806 140.411 113.199 140.411 114.9C140.411 116.602 138.894 117.995 137.018 117.995Z" fill="#6C63FF"/>
<path opacity="0.1" d="M385.827 44.0869L9.89674 52.4321C5.31637 63.1616 2.28653 75.2905 0.888672 87.8643H379.238C381.701 80.507 383.529 72.9515 384.7 65.281C385.827 57.8903 386.278 50.744 385.827 44.0869ZM77.218 71.4321H70.4323C72.295 71.4321 73.8252 72.8246 73.8252 74.5263C73.8252 76.2279 72.2984 77.6205 70.4323 77.6205H31.2175C29.3548 77.6205 27.8247 76.2279 27.8247 74.5263C27.8247 72.8246 29.3515 71.4321 31.2175 71.4321H38.0033C36.1406 71.4321 34.6104 70.0429 34.6104 68.3413C34.6104 66.6396 36.1372 65.2471 38.0033 65.2471H33.1549C31.2922 65.2471 29.762 63.8545 29.762 62.1529C29.762 60.4512 31.2888 59.0587 33.1549 59.0587H72.373C74.2391 59.0587 75.7659 60.4512 75.7659 62.1529C75.7659 63.8545 74.2425 65.2471 72.373 65.2471H77.218C79.0807 65.2471 80.6109 66.6396 80.6109 68.3413C80.6109 70.0429 79.0807 71.4321 77.218 71.4321Z" fill="#6C63FF"/>
<path opacity="0.1" d="M225.402 260.454C239.499 260.454 250.927 257.885 250.927 254.717C250.927 251.549 239.499 248.98 225.402 248.98C211.305 248.98 199.877 251.549 199.877 254.717C199.877 257.885 211.305 260.454 225.402 260.454Z" fill="#6C63FF"/>
<path opacity="0.1" d="M284.713 276.719C310.144 276.719 330.761 275.025 330.761 272.935C330.761 270.845 310.144 269.151 284.713 269.151C259.281 269.151 238.665 270.845 238.665 272.935C238.665 275.025 259.281 276.719 284.713 276.719Z" fill="#6C63FF"/>
<path opacity="0.1" d="M99.8249 272.935C125.257 272.935 145.873 270.367 145.873 267.199C145.873 264.03 125.257 261.462 99.8249 261.462C74.3933 261.462 53.7769 264.03 53.7769 267.199C53.7769 270.367 74.3933 272.935 99.8249 272.935Z" fill="#6C63FF"/>
<path opacity="0.1" d="M170.034 244.218C189.169 244.218 204.682 241.65 204.682 238.482C204.682 235.314 189.169 232.745 170.034 232.745C150.898 232.745 135.386 235.314 135.386 238.482C135.386 241.65 150.898 244.218 170.034 244.218Z" fill="#6C63FF"/>
<path d="M195.925 102.007C195.192 97.0684 190.71 85.5441 190.71 85.5441C190.632 85.2044 190.544 84.8648 190.445 84.5251C187.266 73.5884 182.865 72.6374 182.865 72.6374L167.102 69.2409C167.234 69.3235 167.35 69.4308 167.441 69.5568C167.358 69.5645 167.276 69.5769 167.194 69.5941C166.472 68.7411 165.995 67.7082 165.813 66.6052C165.782 66.4422 165.755 66.2656 165.735 66.0991C166.867 64.9944 167.75 63.6601 168.325 62.1857C168.9 60.7113 169.153 59.1309 169.067 57.5506C168.982 55.9702 168.56 54.4264 167.829 53.0228C167.099 51.6191 166.077 50.388 164.832 49.4121C164.666 49.2831 164.493 49.1574 164.327 49.0385C165.07 48.2472 165.094 47.1467 164.537 46.0462C163.295 43.4649 160.595 41.8312 157.819 41.033C155.699 40.425 153.409 40.228 151.298 40.8937C150.101 41.2741 149.008 41.9127 147.885 42.4799C145.792 43.526 143.474 44.3548 141.91 46.0768C141.544 46.4776 141.204 46.9904 141.313 47.5203C141.394 47.9143 141.707 48.22 141.907 48.5698C142.358 49.3544 142.246 50.3428 141.937 51.1987C141.629 52.0546 141.177 52.8494 140.964 53.7257C140.75 54.602 140.831 55.6345 141.489 56.2629C141.805 56.5067 142.133 56.7335 142.473 56.9422C142.834 57.2495 143.15 57.6049 143.413 57.9985C144.037 58.8363 144.659 59.6775 145.279 60.5221C146.154 61.6415 146.936 62.8309 147.617 64.0782C148.082 64.9953 148.441 65.9735 149.062 66.7954C149.244 67.0353 149.453 67.2541 149.683 67.4475L149.5 67.3762C149.77 67.6511 150.093 67.8679 150.449 68.0133C150.806 68.1587 151.188 68.2297 151.573 68.2219C151.607 68.2219 151.637 68.2219 151.668 68.2219C151.81 68.2189 151.945 68.1632 152.048 68.0657C152.048 68.1812 152.048 68.2967 152.048 68.4053C152.085 69.6179 152.079 70.9086 151.994 72.1211L151.848 72.0464C151.631 71.9387 151.389 71.8949 151.149 71.9202C150.908 71.9454 150.68 72.0387 150.491 72.189L135.979 83.8458C135.979 83.8458 132.824 88.1661 133.265 95.6249L130.72 106.81C130.72 106.81 127.541 116.299 129.988 123.075C132.434 129.851 133.852 133.727 133.852 133.727C133.852 133.727 134.829 141.427 136.298 142.055C137.767 142.683 138.402 143.023 138.402 143.023L138.694 144.864C138.694 144.864 138.792 145.044 138.965 145.346C140.034 147.207 143.993 153.776 146.294 153.073C146.583 154.857 146.708 156.664 146.667 158.47L148.944 173.771C148.944 173.771 150.531 177.932 150.433 180.113C150.335 182.293 152.286 185.401 152.286 185.401C151.1 187.573 150.753 190.105 151.308 192.517C152.238 196.592 153.412 215.368 153.412 215.368L155.108 219.92L155.061 225.255C154.922 226.126 154.559 226.945 154.009 227.633C152.91 228.829 152.991 230.211 150.341 231.845C147.692 233.478 146.012 234.097 146.012 236.26C146.009 236.562 145.982 236.863 145.931 237.16C145.686 238.75 145.211 239.612 150.084 240.074C155.807 240.618 159.624 236.882 159.624 236.882C159.624 236.882 160.466 235.353 164.429 234.735C164.429 234.735 165.786 234.664 165.857 233.465C165.884 233.05 165.877 232.259 165.857 231.386C165.793 229.725 165.633 227.786 165.423 227.691C165.158 227.572 164.697 225.901 164.537 225.296H165.64C165.64 225.296 166.658 217.596 165.64 212.61C164.622 207.624 165.541 204.089 165.541 204.089L165.345 190.92C165.345 190.92 163.988 189.467 165.053 186.899C166.118 184.331 165.053 171.649 165.053 171.649C165.053 171.649 165.446 167.097 166.57 166.031C167.693 164.964 166.624 159.363 166.57 159.071L168.571 165.793C168.571 165.793 169.45 179.155 171.313 181.573L171.849 187.626C171.849 187.626 175.662 193.196 174.93 196.195C174.197 199.194 175.713 210.043 175.713 210.043V221.132C175.713 221.132 174 225.585 176.392 227.185L177.41 227.144C177.07 227.46 176.809 227.935 176.412 228.346C175.954 228.818 175.693 230.615 175.547 232.161C175.425 233.468 175.384 234.592 175.384 234.592C175.384 234.592 176.402 236.223 178.319 236.335C180.236 236.447 186.554 241.256 186.554 241.256C186.554 241.256 192.793 241.256 194.408 240.917L194.503 240.893C195.021 240.73 195.457 240.373 195.721 239.898C196.045 239.346 196.149 238.692 196.013 238.067C195.813 237.113 195.056 236.066 193.38 235.177C189.21 232.976 188.589 230.914 188.589 230.914L185.851 226.801H186.241C186.241 226.801 186 222.443 188.979 217.552L188.786 196.008C188.786 196.008 190.007 188.6 187.907 184.579C187.907 184.579 187.734 180.32 189.139 179.012C190.544 177.705 187.269 164.489 187.269 164.489C187.269 164.489 186.591 157.394 185.794 150.92C189.095 154.055 192.518 142.768 193.095 140.761H193.18L193.142 140.615C193.166 140.52 193.18 140.472 193.18 140.472C193.18 140.472 192.447 137.864 192.983 138.394C193.519 138.923 194.842 136.94 194.842 136.94C194.842 136.94 194.646 126.142 196.946 120.701C199.246 115.26 195.925 102.007 195.925 102.007ZM186.085 108.878L186.102 108.847C186.442 115.44 186.038 129.508 186.038 129.508C186.038 129.508 185.583 131.312 185.098 133.435L184.759 120.069L184.419 107.479L186.085 108.878ZM143.976 104.333C143.976 104.333 145.639 125.151 143.976 128.153C143.505 129.009 143.108 130.531 142.779 132.266C142.229 130.823 141.065 127.433 141.483 125.636C142.022 123.313 140.407 117.21 140.407 117.067C140.407 116.924 140.261 113.67 141.425 111.184C142.589 108.698 141.825 107.621 141.825 107.621C141.825 107.621 142.802 103.545 143.976 104.333Z" fill="url(#paint0_linear)"/>
<path d="M148.028 151.219C146.579 157.594 140.818 147.955 139.505 145.642C139.335 145.339 139.24 145.163 139.24 145.163L139.865 142.232L143.166 140.873C143.689 141.146 144.184 141.469 144.645 141.838C146.453 143.261 149.144 146.28 148.028 151.219Z" fill="#A46D6A"/>
<path d="M192.722 140.788C192.722 140.788 192.722 140.836 192.685 140.931C192.685 140.971 192.657 141.026 192.641 141.084C192.074 143.074 188.715 154.279 185.471 151.168C181.922 147.771 183.646 139.919 183.646 139.919H183.67L191.134 139.154L192.613 140.676L192.722 140.788Z" fill="#A46D6A"/>
<path d="M188.402 195.93L188.592 217.328C185.664 222.185 185.905 226.498 185.905 226.498L176.256 226.879C173.901 225.292 175.577 220.874 175.577 220.874V209.855C175.577 209.855 174.088 199.092 174.807 196.11C175.527 193.128 171.784 187.618 171.784 187.618L171.255 181.61C169.43 179.209 168.564 165.945 168.564 165.945L166.607 159.248C166.661 159.536 167.679 165.127 166.607 166.156C165.535 167.185 165.117 171.73 165.117 171.73C165.117 171.73 166.172 184.324 165.117 186.868C164.062 189.412 165.402 190.859 165.402 190.859L165.596 203.932C165.596 203.932 164.683 207.44 165.691 212.389C166.698 217.338 165.691 224.983 165.691 224.983H155.339L155.386 219.647L153.71 215.13C153.71 215.13 152.557 196.483 151.644 192.445C151.098 190.052 151.438 187.541 152.601 185.38C152.601 185.38 150.684 182.306 150.779 180.143C150.874 177.979 149.3 173.852 149.3 173.852L147.067 158.667C147.129 155.744 146.756 152.829 145.961 150.016C144.665 145.689 142.745 140.017 142.745 140.017L144.913 140.21L155.851 141.185C155.851 141.185 182.448 139.395 183.639 140.883C183.89 141.369 184.06 141.893 184.141 142.435C185.335 147.805 186.913 164.628 186.913 164.628C186.913 164.628 190.129 177.748 188.749 179.046C187.368 180.343 187.537 184.568 187.537 184.568C189.607 188.559 188.402 195.93 188.402 195.93Z" fill="#444053"/>
<path d="M165.918 233.098C165.843 234.29 164.517 234.361 164.517 234.361C160.628 234.973 159.801 236.488 159.801 236.488C159.801 236.488 156.068 240.2 150.44 239.66C145.656 239.198 146.121 238.346 146.368 236.766C146.416 236.472 146.442 236.174 146.446 235.876C146.446 233.713 148.102 233.098 150.694 231.461C153.286 229.824 153.215 228.469 154.294 227.28C155.373 226.091 155.485 223.785 155.485 223.785C156.706 221.655 159.804 224.124 159.804 224.124C159.95 224.878 164.554 224.773 164.554 224.773C164.554 224.773 165.165 227.225 165.48 227.368C165.687 227.463 165.843 229.386 165.904 231.036C165.938 231.902 165.945 232.687 165.918 233.098Z" fill="#B07473"/>
<path opacity="0.1" d="M165.918 233.098C165.843 234.29 164.517 234.361 164.517 234.361C160.628 234.973 159.801 236.488 159.801 236.488C159.801 236.488 156.068 240.2 150.44 239.66C145.656 239.198 146.121 238.345 146.368 236.766C148.506 237.296 152.591 238.036 154.976 236.739C158.291 234.939 160.669 233.682 160.669 233.682L165.908 231.043C165.938 231.902 165.945 232.687 165.918 233.098Z" fill="black"/>
<path d="M195.222 239.514C194.967 239.986 194.539 240.34 194.028 240.502L193.936 240.526C192.352 240.865 186.228 240.865 186.228 240.865C186.228 240.865 180.036 236.073 178.163 235.964C176.29 235.856 175.282 234.232 175.282 234.232C175.282 234.232 175.32 233.118 175.438 231.821C175.584 230.285 175.839 228.502 176.29 228.034C177.118 227.167 177.308 225.996 179.17 226.736C179.17 226.736 181.83 222.042 184.965 225.67L188.209 230.594C188.209 230.594 188.82 232.632 192.928 234.844C194.571 235.727 195.304 236.766 195.51 237.714C195.641 238.329 195.538 238.97 195.222 239.514Z" fill="#B07473"/>
<path opacity="0.1" d="M195.222 239.514C194.856 239.823 194.452 240.156 194.028 240.503L193.936 240.527C192.352 240.866 186.228 240.866 186.228 240.866C186.228 240.866 180.036 236.074 178.163 235.965C176.29 235.856 175.282 234.233 175.282 234.233C175.282 234.233 175.32 233.119 175.438 231.821C177.345 232.392 180.232 233.401 181.006 234.488C182.193 236.142 185.8 238.451 185.8 238.451C185.8 238.451 192.525 237.803 195.51 237.714C195.641 238.329 195.538 238.971 195.222 239.514Z" fill="black"/>
<path d="M169.053 71.7984L160.198 81.1693C160.198 81.1693 149.466 80.3779 151.339 77.2056C152.292 75.5889 152.442 72.206 152.357 69.2646C152.279 66.4286 151.987 64.0136 151.987 64.0136C151.987 64.0136 167.038 56.5142 165.898 63.5076C165.652 64.8253 165.638 66.1759 165.857 67.4984C166.498 71.0308 169.053 71.7984 169.053 71.7984Z" fill="#A46D6A"/>
<path opacity="0.1" d="M165.884 63.5076C165.638 64.8253 165.625 66.1759 165.843 67.4985C164.814 68.5428 163.587 69.3716 162.235 69.9366C160.882 70.5017 159.431 70.7916 157.965 70.7897C155.929 70.7897 153.727 69.1152 152.082 68.1472C152.004 65.3077 151.987 64.0136 151.987 64.0136C151.987 64.0136 167.038 56.5142 165.884 63.5076Z" fill="black"/>
<path d="M169.053 59.109C169.054 61.6246 168.202 64.066 166.635 66.0333C165.069 68.0005 162.882 69.377 160.432 69.9372C157.982 70.4975 155.415 70.2083 153.151 69.117C150.886 68.0257 149.059 66.1971 147.969 63.9306C146.879 61.6641 146.59 59.0941 147.149 56.6415C147.708 54.189 149.083 51.9993 151.048 50.4311C153.013 48.8629 155.452 48.0092 157.964 48.0098C160.477 48.0104 162.916 48.8652 164.88 50.4343C166.181 51.474 167.232 52.7936 167.955 54.2953C168.677 55.7969 169.053 57.4422 169.053 59.109Z" fill="#A46D6A"/>
<path opacity="0.1" d="M184.141 142.436C181.379 149.015 163.614 149.15 163.614 149.15V141.977L162.539 141.906C163.004 143.961 161.887 148.97 161.887 148.97C147.848 150.954 144.424 142.945 144.424 142.945L144.913 140.204L155.852 141.179C155.852 141.179 182.448 139.389 183.639 140.877C183.891 141.365 184.061 141.892 184.141 142.436Z" fill="black"/>
<path d="M163.614 148.284V141.111L162.539 141.043C163.004 143.081 161.887 148.108 161.887 148.108C151.322 149.599 146.769 145.435 145.164 143.281C144.875 142.91 144.627 142.51 144.424 142.086L148.713 117.937L149.731 82.3957L151.268 76.1597L151.624 73.1674V73.1335H151.661L152.754 73.6022L159.292 76.4315L166.719 70.8171L166.827 70.7389L167.197 70.457L167.811 70.9495L169.338 72.1757L174.234 103.828C174.234 103.828 182.716 128.197 184.304 138.034C184.369 138.428 184.419 138.794 184.46 139.138C185.509 148.118 163.614 148.284 163.614 148.284Z" fill="#6C63FF"/>
<path d="M160.086 77.7625C160.434 77.7625 160.717 77.4797 160.717 77.1308C160.717 76.7819 160.434 76.499 160.086 76.499C159.737 76.499 159.455 76.7819 159.455 77.1308C159.455 77.4797 159.737 77.7625 160.086 77.7625Z" fill="#67647E"/>
<path d="M160.378 83.5301C160.726 83.5301 161.009 83.2473 161.009 82.8984C161.009 82.5494 160.726 82.2666 160.378 82.2666C160.029 82.2666 159.747 82.5494 159.747 82.8984C159.747 83.2473 160.029 83.5301 160.378 83.5301Z" fill="#67647E"/>
<path d="M161.009 92.867C161.357 92.867 161.64 92.5842 161.64 92.2353C161.64 91.8864 161.357 91.6035 161.009 91.6035C160.66 91.6035 160.377 91.8864 160.377 92.2353C160.377 92.5842 160.66 92.867 161.009 92.867Z" fill="#67647E"/>
<path d="M162.05 102.924C162.399 102.924 162.681 102.641 162.681 102.292C162.681 101.943 162.399 101.66 162.05 101.66C161.701 101.66 161.419 101.943 161.419 102.292C161.419 102.641 161.701 102.924 162.05 102.924Z" fill="#67647E"/>
<path d="M162.681 112.366C163.03 112.366 163.312 112.083 163.312 111.734C163.312 111.385 163.03 111.103 162.681 111.103C162.333 111.103 162.05 111.385 162.05 111.734C162.05 112.083 162.333 112.366 162.681 112.366Z" fill="#67647E"/>
<path d="M163.312 122.423C163.661 122.423 163.943 122.14 163.943 121.791C163.943 121.442 163.661 121.159 163.312 121.159C162.964 121.159 162.681 121.442 162.681 121.791C162.681 122.14 162.964 122.423 163.312 122.423Z" fill="#67647E"/>
<path d="M163.061 132.372C163.41 132.372 163.692 132.089 163.692 131.74C163.692 131.391 163.41 131.108 163.061 131.108C162.713 131.108 162.43 131.391 162.43 131.74C162.43 132.089 162.713 132.372 163.061 132.372Z" fill="#67647E"/>
<path opacity="0.1" d="M152.045 121.449C152.045 121.449 151.339 130.697 150.043 133.388C148.747 136.078 148.17 143.625 148.17 143.625L145.161 143.285C144.872 142.914 144.624 142.513 144.421 142.089L148.709 117.94L149.727 82.3993L151.268 76.16L151.624 73.1677L151.665 73.1507C151.833 73.0712 152.017 73.0314 152.203 73.0343C152.389 73.0373 152.571 73.0829 152.737 73.1677L152.879 73.2424C152.836 73.3647 152.796 73.4903 152.757 73.6194C151.583 77.2978 151.146 84.0772 151.146 84.0772C151.146 84.0772 152.842 96.4778 153.018 102.245C153.195 108.012 152.045 121.449 152.045 121.449Z" fill="black"/>
<path opacity="0.1" d="M144.645 141.848C144.612 141.925 144.574 142 144.53 142.072C143.363 144.045 140.404 145.299 139.505 145.642C139.335 145.339 139.24 145.163 139.24 145.163L139.865 142.232L143.166 140.873C143.689 141.15 144.184 141.476 144.645 141.848Z" fill="black"/>
<path d="M136.648 94.6504L133.91 96.2841L131.416 107.387C131.416 107.387 128.295 116.806 130.693 123.534C133.092 130.263 134.487 134.114 134.487 134.114C134.487 134.114 135.447 141.756 136.889 142.381C138.331 143.006 138.952 143.343 138.952 143.343L139.24 145.17C139.24 145.17 143.149 143.842 144.53 141.502C145.91 139.161 143.512 133.35 143.512 133.35C143.512 133.35 141.449 128.398 141.978 126.092C142.507 123.786 140.92 117.73 140.92 117.601C140.92 117.471 140.777 114.235 141.937 111.759C143.098 109.282 142.324 108.226 142.324 108.226L141.602 101.161L136.648 94.6504Z" fill="#67647E"/>
<path opacity="0.1" d="M184.369 140.357C184.369 140.357 177.118 143.095 174.814 140.697C172.511 138.299 172.748 127.046 172.748 127.046C172.748 127.046 170.543 106.283 169.148 102.873C167.754 99.4631 168.47 74.8522 168.47 74.8522C168.47 74.8522 167.533 71.6696 166.716 70.8375C166.664 70.784 166.606 70.7372 166.542 70.6982L166.824 70.7594L167.808 70.97L169.335 72.1961L174.231 103.848C174.231 103.848 182.713 128.218 184.301 138.054L184.369 140.357Z" fill="black"/>
<path opacity="0.1" d="M192.722 141.077H192.641C191.728 141.196 183.673 142.17 183.639 140.492C183.638 140.298 183.648 140.105 183.67 139.912L191.134 139.147L192.613 140.669C192.641 140.768 192.661 140.853 192.681 140.92L192.722 141.077Z" fill="black"/>
<path d="M184.993 83.5303L190.286 86.295C190.286 86.295 194.697 97.7276 195.402 102.629C195.402 102.629 198.67 115.76 196.42 121.16C194.171 126.56 194.357 137.28 194.357 137.28C194.357 137.28 193.061 139.25 192.532 138.723C192.003 138.197 192.725 140.788 192.725 140.788C192.725 140.788 183.676 141.991 183.639 140.211C183.602 138.431 185.716 129.926 185.716 129.926C185.716 129.926 186.292 109.693 185.475 106.521C184.657 103.349 184.993 83.5303 184.993 83.5303Z" fill="#67647E"/>
<path opacity="0.1" d="M169.199 105.081C169.199 105.081 166.22 112.384 165.26 112.866C164.3 113.348 165.453 115.267 165.453 115.267C165.453 115.267 170.878 107.676 169.199 105.081Z" fill="black"/>
<path opacity="0.1" d="M167.421 79.4638C167.455 79.3246 163.869 82.986 162.909 83.5396C161.949 84.0932 166.414 83.5057 167.421 79.4638Z" fill="black"/>
<path opacity="0.1" d="M157.436 104.503C157.436 104.503 151.963 108.045 152.686 109.448C153.409 110.851 157.436 104.503 157.436 104.503Z" fill="black"/>
<path opacity="0.1" d="M167.374 156.215C167.374 156.215 172.032 159.214 179.279 159.951L167.374 156.215Z" fill="black"/>
<path opacity="0.1" d="M156.188 163.426C156.188 163.426 160.507 168.86 162.478 168.999C164.449 169.139 156.188 163.426 156.188 163.426Z" fill="black"/>
<path opacity="0.1" d="M162.237 184.722C162.043 184.817 159.787 189.623 157.487 189.769C155.186 189.915 162.237 184.722 162.237 184.722Z" fill="black"/>
<path opacity="0.1" d="M182.255 195.251C182.255 195.251 186.537 194.289 187.49 197.363C187.49 197.353 187.202 196.392 182.255 195.251Z" fill="black"/>
<path opacity="0.1" d="M179.374 212.831C179.374 212.831 184.562 211.771 185.664 213.215C186.767 214.658 179.374 212.831 179.374 212.831Z" fill="black"/>
<path opacity="0.1" d="M164.7 215.29C164.7 215.338 159.421 216.35 159.611 217.022C159.801 217.695 165.243 217.6 165.437 216.54C165.471 216.409 165.48 216.273 165.461 216.14C165.443 216.006 165.398 215.877 165.33 215.761C165.261 215.645 165.17 215.543 165.062 215.462C164.954 215.381 164.831 215.323 164.7 215.29Z" fill="black"/>
<path opacity="0.1" d="M177.647 219.849C177.647 219.849 186.323 218.789 185.79 220.616C185.258 222.444 177.647 219.849 177.647 219.849Z" fill="black"/>
<path opacity="0.1" d="M132.23 112.865C132.278 113.008 137.944 113.779 138.711 115.606C138.711 115.606 133.143 113.008 132.264 113.008" fill="black"/>
<path opacity="0.1" d="M140.2 127.715C140.2 127.715 135.494 129.206 135.83 131.451C136.166 133.696 135.352 130.412 140.2 127.715Z" fill="black"/>
<path opacity="0.1" d="M138.008 139.154C138.008 139.154 139.722 136.8 141.354 137.232C142.986 137.663 138.008 139.154 138.008 139.154Z" fill="black"/>
<path opacity="0.1" d="M164.88 50.4344C164.715 50.5944 164.53 50.7326 164.33 50.8453C162.973 51.6367 162.6 52.8561 161.955 54.2622C161.355 55.5495 160.693 56.9115 159.482 57.6417C157.918 58.586 155.858 58.2395 154.233 59.0615C153.512 59.4375 152.919 60.0211 152.532 60.7373C152.145 61.4535 151.981 62.2693 152.062 63.0795C152.165 63.7047 152.319 64.3204 152.523 64.9204C152.893 66.2195 153.06 67.568 153.018 68.9181C153.022 68.9576 153.022 68.9974 153.018 69.037C151.628 68.3415 150.399 67.3611 149.412 66.1595C148.424 64.9579 147.7 63.5618 147.286 62.0619C146.872 60.562 146.778 58.9918 147.01 57.4531C147.242 55.9145 147.794 54.4418 148.631 53.1306C149.468 51.8194 150.571 50.6991 151.869 49.8422C153.166 48.9854 154.629 48.4112 156.162 48.157C157.696 47.9027 159.266 47.9741 160.77 48.3664C162.274 48.7588 163.679 49.4633 164.893 50.4344H164.88Z" fill="black"/>
<path d="M164.591 47.0921C163.373 44.5311 160.724 42.9076 157.999 42.1162C155.919 41.5151 153.66 41.3181 151.597 41.9804C150.419 42.354 149.351 42.9993 148.248 43.553C146.192 44.5923 143.932 45.4142 142.385 47.1227C142.022 47.5201 141.707 48.0295 141.798 48.556C141.876 48.9466 142.182 49.2353 142.378 49.5953C142.823 50.3765 142.718 51.3581 142.409 52.2072C142.1 53.0564 141.662 53.8443 141.452 54.7172C141.242 55.5901 141.323 56.6125 141.968 57.234C142.256 57.5092 142.626 57.6824 142.938 57.9133C143.291 58.2184 143.6 58.5704 143.858 58.9595L145.69 61.4661C146.55 62.5769 147.318 63.7573 147.983 64.995C148.438 65.9053 148.791 66.8767 149.402 67.6885C150.012 68.5002 150.962 69.1523 151.973 69.064C152.052 69.066 152.129 69.0495 152.2 69.0159C152.271 68.9823 152.333 68.9324 152.38 68.8704C152.418 68.791 152.436 68.7035 152.431 68.6157C152.476 67.2706 152.312 65.9266 151.946 64.6316C151.742 64.0318 151.588 63.416 151.485 62.7907C151.407 61.9807 151.572 61.1659 151.958 60.4502C152.345 59.7345 152.936 59.1504 153.656 58.7727C155.285 57.9507 157.344 58.2971 158.905 57.3563C160.12 56.6227 160.781 55.2607 161.378 53.9598C162.033 52.5537 162.396 51.3343 163.753 50.5429C165.111 49.7516 165.267 48.4405 164.591 47.0921Z" fill="#302D37"/>
<path opacity="0.1" d="M159.625 228.557C159.625 228.557 161.321 230.72 160.88 231.953C160.439 233.186 159.625 228.557 159.625 228.557Z" fill="black"/>
<path opacity="0.1" d="M182.577 233.971C182.577 233.971 182.954 231.07 184.464 231.043C185.973 231.016 186.048 230.887 187.202 231.332C188.355 231.777 189.438 232.466 189.091 232.568C188.745 232.67 187.107 230.911 185.424 231.811C184.374 232.386 183.414 233.114 182.577 233.971Z" fill="black"/>
<path opacity="0.1" d="M154.562 80.0693L159.312 76.7374C159.312 76.7374 152.363 72.6276 151.536 73.205C150.708 73.7824 150.138 78.9791 150.138 78.9791L154.562 80.0693Z" fill="black"/>
<path d="M154.542 79.8546L159.292 76.4581C159.292 76.4581 152.343 72.3483 151.516 72.9257C150.688 73.5031 150.118 78.9851 150.118 78.9851L154.542 79.8546Z" fill="#E1E7EF"/>
<path d="M154.542 79.8546L159.292 76.4581C159.292 76.4581 152.343 72.3483 151.516 72.9257C150.688 73.5031 150.118 78.9851 150.118 78.9851L154.542 79.8546Z" fill="#6C63FF"/>
<path d="M152.303 72.953L152.16 72.8816C151.948 72.7734 151.709 72.729 151.473 72.7537C151.236 72.7784 151.012 72.8712 150.827 73.0209L136.577 84.5927C136.577 84.5927 133.479 88.8825 133.91 96.2835L142.314 108.202C142.314 108.202 143.274 104.167 144.424 104.934C144.424 104.934 146.056 125.602 144.424 128.581C142.792 131.559 142.073 142.71 142.073 142.71L147.593 143.335C147.593 143.335 148.17 135.788 149.466 133.098C150.762 130.408 151.468 121.159 151.468 121.159C151.468 121.159 152.635 107.723 152.442 101.956C152.248 96.1884 150.569 83.7878 150.569 83.7878C150.569 83.7878 151.04 76.5193 152.303 72.953Z" fill="#67647E"/>
<path opacity="0.1" d="M166.498 77.9633L160.578 75.7691C160.578 75.7691 168.117 67.5021 169.06 72.0874L166.498 77.9633Z" fill="black"/>
<path d="M166.498 77.6742L160.578 75.4801C160.578 75.4801 168.117 67.213 169.06 71.7983L166.498 77.6742Z" fill="#E1E7EF"/>
<path d="M166.498 77.6742L160.578 75.4801C160.578 75.4801 168.117 67.213 169.06 71.7983L166.498 77.6742Z" fill="#6C63FF"/>
<path opacity="0.1" d="M166.305 70.64C166.391 70.6263 166.478 70.6458 166.549 70.6944L166.305 70.64Z" fill="black"/>
<path d="M166.875 70.0665L182.584 73.463C182.584 73.463 186.907 74.4242 190.028 85.2862C193.149 96.1482 185.753 109.456 185.753 109.456L184.121 108.067L184.939 139.786C184.939 139.786 177.688 142.524 175.384 140.126C173.081 137.728 173.321 126.465 173.321 126.465C173.321 126.465 171.113 105.706 169.718 102.292C168.324 98.879 169.04 74.2748 169.04 74.2748C169.04 74.2748 167.757 69.8763 166.875 70.0665Z" fill="#67647E"/>
<path opacity="0.1" d="M181.247 90.2792C181.026 90.483 180.769 100.081 181.729 107.387C182.316 111.836 183.223 116.237 184.443 120.556L183.018 91.2879C183.018 91.2879 181.919 89.6542 181.247 90.2792Z" fill="black"/>
<path opacity="0.1" d="M179.327 82.0117C179.71 82.2529 181.393 86.2403 180.623 87.8741C179.853 89.5078 179.327 82.0117 179.327 82.0117Z" fill="black"/>
<path opacity="0.1" d="M164.5 47.0923C163.729 45.5721 162.527 44.3128 161.046 43.4717C162.148 44.2613 163.037 45.3114 163.635 46.5285C164.313 47.8871 164.113 49.2457 162.793 49.9896C161.473 50.7334 161.063 52.0003 160.418 53.4064C159.818 54.6937 159.156 56.0557 157.942 56.8029C156.381 57.7471 154.321 57.3973 152.693 58.2193C151.973 58.5983 151.382 59.1831 150.996 59.8992C150.609 60.6153 150.444 61.4304 150.521 62.2407C150.626 62.8649 150.781 63.4795 150.986 64.0782C151.356 65.3774 151.523 66.7258 151.482 68.0759C151.485 68.164 151.466 68.2515 151.427 68.3306C151.38 68.393 151.319 68.4431 151.249 68.4768C151.179 68.5105 151.101 68.5268 151.023 68.5242C150.616 68.5554 150.208 68.4793 149.839 68.3035C150.106 68.5685 150.425 68.7761 150.775 68.9133C151.125 69.0506 151.499 69.1147 151.875 69.1016C151.936 69.1105 151.999 69.1051 152.057 69.0859C152.116 69.0666 152.17 69.034 152.214 68.9905C152.258 68.9471 152.291 68.8941 152.311 68.8356C152.331 68.777 152.338 68.7147 152.33 68.6533C152.374 67.3033 152.208 65.9546 151.838 64.6556C151.631 64.0563 151.475 63.4405 151.373 62.8147C151.295 62.0048 151.46 61.1899 151.847 60.4742C152.233 59.7585 152.824 59.1744 153.544 58.7967C155.173 57.9747 157.232 58.3212 158.793 57.3803C160.008 56.6467 160.669 55.2847 161.267 53.9838C161.921 52.5777 162.284 51.3583 163.642 50.567C164.999 49.7756 165.179 48.4407 164.5 47.0923Z" fill="black"/>
<path d="M261.152 89.7459C256.477 89.6542 252.351 86.3494 250.014 82.311C249.4 81.3501 249.015 80.2614 248.887 79.1284C248.903 78.871 248.946 78.616 249.016 78.3676C249.159 77.9886 249.272 77.5991 249.355 77.2026C249.374 77.0447 249.374 76.8851 249.355 76.7271C249.355 76.7271 249.355 76.7271 249.355 76.7C249.467 75.8406 248.962 75.0017 248.337 74.4141C247.713 73.8265 246.929 73.3952 246.278 72.811C244.269 71.0448 243.659 68.2121 243.621 65.5153V65.3726C243.645 64.2178 243.737 63.0596 243.727 61.9048C243.742 61.2493 243.714 60.5934 243.642 59.9417C243.448 58.3079 242.827 56.6437 241.545 55.6009C238.2 52.8837 232.574 55.713 229.11 53.1453C228.269 52.5169 227.587 51.5897 226.565 51.3451C225.795 51.1583 224.995 51.4097 224.241 51.661C221.69 52.5033 218.843 53.6106 217.846 56.0764C217.276 57.4928 217.435 59.1095 216.913 60.5428C216.573 61.504 215.925 62.3294 215.454 63.2396C215.067 63.9249 214.879 64.7049 214.911 65.4915C214.869 65.8988 214.926 66.3101 215.077 66.6905C215.254 67.149 215.54 67.558 215.908 67.8827C215.775 68.1663 215.609 68.4331 215.413 68.6774C214.762 69.4756 213.761 70.036 213.082 70.8308C211.827 72.2879 211.874 74.2681 212.492 75.9799C213.109 77.6917 214.226 79.2507 214.996 80.9184C215.335 81.6419 215.593 82.4502 215.25 83.1703C215.009 83.6696 214.511 84.05 214.124 84.4813C213.558 85.1164 213.202 85.9114 213.106 86.757C205.469 88.5028 205.462 94.647 205.462 94.647L201.336 105.034C201.336 105.034 200.674 106.783 199.897 109.092L195.015 108.216L198.408 113.902C197.767 116.218 197.312 118.365 197.461 119.445C197.461 119.445 195.945 126.577 198.642 127.824L204.593 130.504C204.851 130.662 205.128 130.787 205.418 130.874L205.659 130.983C205.745 131.025 205.84 131.047 205.937 131.047C206.033 131.047 206.128 131.025 206.215 130.983H206.232H206.296C206.412 130.99 206.528 130.973 206.636 130.932C206.768 130.86 206.873 130.747 206.934 130.609C206.932 130.598 206.932 130.586 206.934 130.575L208.716 130.059L210.225 131.849C210.904 132.328 211.583 132.742 212.224 133.116L209.886 156.355C209.886 156.355 209.509 187.263 208.369 194.307C207.949 196.915 207.945 198.695 208.105 199.904L208.061 199.979C208.342 201.966 209.079 202.357 209.079 202.357V202.329C209.092 202.34 209.107 202.349 209.123 202.357C209.466 201.454 209.874 200.578 210.344 199.735C210.344 199.901 210.344 200.074 210.344 200.244C210.32 202.866 210.239 206.538 209.968 208.925C209.506 213.001 211.148 226.434 211.148 226.434L211.715 238.662C211.807 240.738 211.326 242.799 210.324 244.619C208.967 247.061 207.233 250.499 207.107 252.024C207.101 252.106 207.101 252.189 207.107 252.271L204.196 255.777C204.196 255.777 203.06 257.536 205.628 258.246C207.009 258.63 209.391 258.246 211.304 257.794C212.14 257.602 212.885 257.131 213.419 256.46C213.953 255.789 214.245 254.957 214.246 254.099C214.73 252.415 215.546 250.845 216.648 249.483L217.126 252.299L220.329 253.093L220.74 245.377C220.905 244.944 220.98 244.481 220.96 244.018C221.591 238.529 219.474 239.022 219.474 239.022C219.531 239.07 219.567 239.138 219.576 239.212L219.474 239.025C218.175 236.457 218.796 232.232 218.796 232.232C218.796 232.232 220.492 220.005 221.072 216.775C221.49 214.492 221.317 207.02 221.178 202.849C221.178 202.676 221.178 202.509 221.161 202.343C226.128 202.279 232.215 202.112 236.486 201.698V202.2L235.699 231.088C235.645 232.929 235.271 234.748 234.593 236.461C234.593 236.495 234.569 236.525 234.556 236.559C233.619 238.979 233.091 241.537 232.992 244.13L232.625 253.301V253.555C231.987 253.8 230.98 254.51 230.952 256.568C230.908 259.584 236.218 258.579 236.218 258.579C241.525 258.579 241.569 253.049 241.569 253.049C241.569 253.049 241.735 247.978 241.989 244.585C242.244 241.192 241.189 241.939 241.189 241.939L241.107 251.592C241.107 251.616 241.107 251.64 241.107 251.667V243.206L241.189 241.98V241.946V241.685L241.857 231.73C241.857 231.73 246.746 215.141 247.503 211.959C248.042 209.696 247.818 202.883 247.642 199.116C247.642 198.943 247.642 198.777 247.615 198.617C249.131 198.481 250.472 198.468 251.008 198.468H251.255C251.255 198.468 251.004 171.826 250.37 161.786C249.735 151.745 248.728 142.558 246.2 139.793C244.673 138.122 242.546 132.963 241.111 129.142C244.128 130.448 247.259 131.471 250.465 132.199C258.469 133.877 257.373 126.921 257.373 126.921L256.562 113.766H256.616C256.586 110.32 256.291 106.882 255.734 103.481C255.31 100.873 254.662 98.176 253.671 96.009C254.54 95.6694 255.398 95.306 256.239 94.9323C258.414 93.9711 260.864 92.6091 261.176 90.2622H261.071C261.113 90.0927 261.14 89.92 261.152 89.7459ZM211.538 108.766C211.555 110.125 211.504 112.482 211.423 115.087L208.882 111.691L211.43 107.554L211.538 108.766ZM246.648 120.803L242.414 119.445C243.164 118.272 244.042 117.186 245.029 116.205L245.396 115.865L245.264 115.892L245.467 115.705L245.589 115.678L245.396 115.865L245.627 115.817C245.881 116.882 246.374 117.875 247.069 118.721C248.589 120.382 246.651 120.803 246.651 120.803H246.648Z" fill="url(#paint1_linear)"/>
<path d="M220.927 243.073L220.431 252.475L217.272 251.683L216.607 247.774L220.927 243.073Z" fill="#A27772"/>
<path opacity="0.1" d="M220.927 243.073L220.431 252.475L217.272 251.683L216.607 247.774L220.927 243.073Z" fill="black"/>
<path d="M232.52 253.721L237.338 254.72L240.911 251.561V242.659L240.992 241.443V241.406V241.148L241.657 231.254C241.657 231.254 246.478 214.784 247.228 211.622C247.757 209.38 247.537 202.614 247.36 198.875C247.289 197.343 247.228 196.317 247.228 196.317L236.591 193.739L236.368 201.925L235.591 230.605C235.537 232.433 235.169 234.238 234.501 235.941L234.464 236.039C233.539 238.441 233.018 240.98 232.92 243.552L232.561 252.672V252.923L232.52 253.721Z" fill="#CC818C"/>
<path opacity="0.1" d="M232.52 253.721L237.338 254.72L240.911 251.561V250.804C240.899 250.971 240.846 251.133 240.757 251.276C240.667 251.418 240.544 251.536 240.398 251.619L240.347 251.649C238.688 252.528 236.808 252.9 234.939 252.719L233.059 252.56C232.888 252.576 232.72 252.617 232.561 252.682V252.933L232.52 253.721Z" fill="black"/>
<path d="M240.347 251.897L240.398 251.87C240.555 251.782 240.686 251.654 240.777 251.499C240.868 251.344 240.916 251.167 240.917 250.987L240.995 241.406C240.995 241.406 242.034 240.662 241.783 244.031C241.531 247.401 241.369 252.434 241.369 252.434C241.369 252.434 241.328 257.923 236.093 257.923C236.093 257.923 230.857 258.921 230.898 255.926C230.939 252.93 233.059 252.808 233.059 252.808L234.939 252.971C236.808 253.151 238.689 252.778 240.347 251.897Z" fill="#B07473"/>
<path d="M207.426 251.684C207.548 253.847 213.907 252.597 213.907 252.597L218.185 244.283C218.185 244.283 221.758 241.535 219.97 239.124C219.874 238.992 219.787 238.855 219.708 238.713C219.708 238.713 219.708 238.713 219.692 238.692C219.654 238.631 219.62 238.567 219.586 238.499C218.304 235.951 218.935 231.774 218.935 231.774C218.935 231.774 220.594 219.628 221.178 216.425C221.588 214.163 221.418 206.741 221.283 202.591C221.228 200.865 221.178 199.707 221.178 199.707L210.622 196.878C210.622 196.878 210.622 198.196 210.622 200.03C210.599 202.635 210.517 206.279 210.249 208.65C209.795 212.682 211.413 226.033 211.413 226.033L211.973 238.183C212.07 240.241 211.6 242.286 210.616 244.096C209.292 246.521 207.562 249.938 207.443 251.449C207.431 251.527 207.426 251.605 207.426 251.684Z" fill="#CC818C"/>
<path opacity="0.1" d="M207.426 251.684C207.548 253.848 213.907 252.598 213.907 252.598L218.185 244.283C218.185 244.283 221.758 241.535 219.97 239.124C219.874 238.993 219.787 238.855 219.708 238.713C219.651 239.973 218.27 243.128 218.27 243.128C218.27 243.128 214.738 250.203 213.615 251.823C212.492 253.443 207.613 251.521 207.43 251.453C207.423 251.53 207.421 251.607 207.426 251.684Z" fill="black"/>
<path d="M219.586 238.489C219.586 238.489 221.676 238.003 221.052 243.451C221.076 244.07 220.935 244.684 220.645 245.231C220.355 245.778 219.925 246.239 219.4 246.566C217.903 247.506 215.596 249.531 214.429 253.467C214.43 254.317 214.144 255.141 213.617 255.807C213.09 256.473 212.354 256.941 211.528 257.135C209.642 257.577 207.29 257.964 205.93 257.584C203.395 256.877 204.518 255.131 204.518 255.131L207.426 251.677C207.426 251.677 212.495 253.674 213.615 252.051C214.734 250.427 218.27 243.359 218.27 243.359C218.27 243.359 220.207 238.947 219.586 238.489Z" fill="#B07473"/>
<path opacity="0.1" d="M236.592 194.748L236.368 202.934C239.201 202.658 241.23 202.275 241.576 201.735C242.326 200.573 245.047 200.084 247.361 199.884C247.289 198.352 247.228 197.326 247.228 197.326L236.592 194.748Z" fill="black"/>
<path opacity="0.1" d="M210.623 201.025C210.893 200.47 211.292 199.988 211.786 199.619C212.906 198.997 212.784 203.613 212.784 203.613C212.784 203.613 216.516 203.647 221.283 203.586C221.229 201.861 221.178 200.699 221.178 200.699L210.623 197.873C210.623 197.873 210.643 199.184 210.623 201.025Z" fill="black"/>
<path d="M209.418 202.118C209.418 202.118 210.667 198.722 211.793 198.117C212.92 197.513 212.791 202.108 212.791 202.108C212.791 202.108 240.212 202.36 241.582 200.237C242.953 198.114 250.93 198.24 250.93 198.24C250.93 198.24 250.682 171.788 250.058 161.809C249.434 151.83 248.439 142.717 245.946 139.973C244.334 138.196 242.04 132.449 240.622 128.618C239.852 126.526 239.34 125.001 239.34 125.001L213.167 126.495L212.953 128.618L210.175 156.442C210.175 156.442 209.801 187.136 208.678 194.123C207.555 201.11 209.418 202.118 209.418 202.118Z" fill="#444053"/>
<g opacity="0.1">
<path opacity="0.1" d="M239.452 200.237C240.809 198.117 248.799 198.24 248.799 198.24C248.799 198.24 248.552 171.788 247.927 161.809C247.303 151.83 246.309 142.717 243.815 139.973C242.197 138.19 239.91 132.449 238.492 128.618C237.844 126.859 237.379 125.504 237.25 125.116L239.286 125.001C239.286 125.001 239.798 126.526 240.572 128.618C241.99 132.449 244.28 138.196 245.892 139.973C248.385 142.717 249.383 151.826 250.004 161.809C250.625 171.791 250.879 198.24 250.879 198.24C250.879 198.24 242.902 198.117 241.528 200.237C240.358 202.047 220.18 202.132 214.324 202.115C221.839 202.098 238.393 201.874 239.452 200.237Z" fill="black"/>
<path opacity="0.1" d="M209.662 198.117C210.168 197.835 210.419 198.616 210.544 199.564C210.091 200.386 209.698 201.239 209.367 202.118C209.367 202.118 208.644 201.727 208.349 199.74C208.763 199.031 209.221 198.361 209.662 198.117Z" fill="black"/>
</g>
<path d="M217.507 61.0012C215.695 63.4738 217.527 66.9892 215.583 69.3939C214.942 70.1887 213.954 70.7525 213.286 71.5337C212.048 72.9806 212.095 74.9472 212.702 76.6454C213.31 78.3437 214.399 79.8925 215.172 81.55C215.512 82.2666 215.763 83.0716 215.423 83.7849C215.186 84.2808 214.694 84.6578 214.311 85.0857C213.062 86.4817 213.028 88.4211 213.7 90.065C214.372 91.7089 215.654 93.1218 216.92 94.5144C217.418 95.0612 218.05 95.6658 218.881 95.6488C219.318 95.6156 219.741 95.477 220.112 95.2447C222.991 93.7728 225.191 91.2463 226.256 88.1911C227.32 85.1359 227.166 81.7875 225.826 78.843C224.774 76.3194 223.02 73.9011 223.003 71.2348C223.003 69.1188 224.089 67.0979 224.282 64.9921C224.516 62.4311 223.003 58.3655 219.916 57.248C220.119 58.892 218.426 59.7309 217.507 61.0012Z" fill="#585268"/>
<path opacity="0.1" d="M217.507 61.0012C215.695 63.4738 217.527 66.9892 215.583 69.3939C214.942 70.1887 213.954 70.7525 213.286 71.5337C212.048 72.9806 212.095 74.9472 212.702 76.6454C213.31 78.3437 214.399 79.8925 215.172 81.55C215.512 82.2666 215.763 83.0716 215.423 83.7849C215.186 84.2808 214.694 84.6578 214.311 85.0857C213.062 86.4817 213.028 88.4211 213.7 90.065C214.372 91.7089 215.654 93.1218 216.92 94.5144C217.418 95.0612 218.05 95.6658 218.881 95.6488C219.318 95.6156 219.741 95.477 220.112 95.2447C222.991 93.7728 225.191 91.2463 226.256 88.1911C227.32 85.1359 227.166 81.7875 225.826 78.843C224.774 76.3194 223.02 73.9011 223.003 71.2348C223.003 69.1188 224.089 67.0979 224.282 64.9921C224.516 62.4311 223.003 58.3655 219.916 57.248C220.119 58.892 218.426 59.7309 217.507 61.0012Z" fill="black"/>
<path opacity="0.1" d="M237.6 150.943C233.973 151.134 230.559 152.696 227.384 154.462C224.208 156.228 221.134 158.229 217.717 159.482" fill="black"/>
<path opacity="0.1" d="M235.346 159.499C231.758 159.842 228.415 161.47 225.931 164.084C225.049 165.018 224.289 166.064 223.369 166.961C221.962 168.336 220.223 169.323 218.321 169.824" fill="black"/>
<path opacity="0.1" d="M236.089 166.011C233.196 166.815 230.577 168.396 228.516 170.582C227.96 171.184 227.454 171.826 226.898 172.427C223.895 175.653 219.654 177.365 215.559 178.985" fill="black"/>
<path d="M235.781 75.7146C235.861 78.616 236.11 81.5102 236.527 84.3825C236.866 86.4204 237.341 88.2545 238.023 89.0662C240.018 91.4438 228.303 94.6195 228.303 94.6195L221.385 89.2531C221.385 89.2531 226.868 84.1991 224.313 79.2707C221.758 74.3424 235.781 75.7146 235.781 75.7146Z" fill="#CC818C"/>
<path opacity="0.1" d="M212.947 128.618H240.616C239.845 126.526 239.333 125.001 239.333 125.001L213.161 126.495L212.947 128.618Z" fill="black"/>
<path d="M211.166 128.12H240.748C239.917 125.141 240.748 122.386 241.932 120.267C242.762 118.782 243.806 117.427 245.03 116.245L245.233 116.059L255.561 113.769L256.118 113.647C256.118 113.647 256.203 94.8475 249.553 92.2661C242.903 89.6848 238.916 86.1966 238.916 86.1966L229.779 89.0225L223.047 85.626C220.886 87.9526 215.152 87.0389 215.152 87.0389C205.764 88.119 205.764 95.1905 205.764 95.1905C205.764 95.1905 211.247 107.999 211.664 107.999C212.082 107.999 211.166 128.12 211.166 128.12Z" fill="#6C63FF"/>
<path opacity="0.1" d="M221.378 116.167C221.378 116.167 215.346 114.828 213.293 112.488L221.378 116.167Z" fill="black"/>
<path opacity="0.1" d="M251.795 109.153L244.799 114.893C244.85 115.35 244.927 115.804 245.03 116.252L245.233 116.065L255.561 113.776L251.795 109.153Z" fill="black"/>
<path opacity="0.1" d="M232.853 126.122C232.853 126.122 234.383 126.985 236.728 128.119H240.748C239.917 125.141 240.748 122.386 241.932 120.267L234.845 117.971C237.257 120.216 232.853 126.122 232.853 126.122Z" fill="black"/>
<path d="M209.917 92.9346L205.764 95.1796L201.692 105.495C201.692 105.495 197.455 116.805 197.869 119.801C197.869 119.801 196.376 126.872 199.032 128.119L205.954 131.257C206.076 131.311 206.212 131.326 206.343 131.299C206.474 131.272 206.594 131.205 206.685 131.108C206.776 131.01 206.835 130.886 206.853 130.753C206.871 130.621 206.847 130.486 206.785 130.367C205.798 128.496 204.712 125.568 206.446 123.958L204.451 119.801L211.661 107.988L214.07 103.912L209.917 92.9346Z" fill="#6C63FF"/>
<path opacity="0.1" d="M219.156 113.806C219.515 115.273 220.73 117.542 224.75 118.388L229.161 122.005L233.853 124.135L235.767 125.001L236.578 119.135L234.736 118.116L232.588 116.941C232.588 116.941 227.743 108.154 220.072 111.846C219.715 112.015 219.429 112.304 219.261 112.661C219.094 113.019 219.057 113.424 219.156 113.806Z" fill="black"/>
<path d="M219.407 113.307C219.766 114.777 220.978 117.043 224.998 117.889L229.409 121.506L234.105 123.636L236.015 124.502L236.826 118.636L234.983 117.617L232.853 116.452C232.853 116.452 228.004 107.665 220.333 111.374C219.98 111.541 219.695 111.824 219.527 112.176C219.358 112.528 219.316 112.927 219.407 113.307Z" fill="#CC818C"/>
<path opacity="0.1" d="M228.052 83.3223C233.971 83.3223 238.77 78.5186 238.77 72.5928C238.77 66.6671 233.971 61.8633 228.052 61.8633C222.132 61.8633 217.333 66.6671 217.333 72.5928C217.333 78.5186 222.132 83.3223 228.052 83.3223Z" fill="black"/>
<path d="M228.052 83.0753C233.971 83.0753 238.77 78.2715 238.77 72.3457C238.77 66.42 233.971 61.6162 228.052 61.6162C222.132 61.6162 217.333 66.42 217.333 72.3457C217.333 78.2715 222.132 83.0753 228.052 83.0753Z" fill="#CC818C"/>
<path opacity="0.1" d="M234.691 95.2714L231.468 89.0015C231.468 89.0015 236.184 87.0926 236.527 84.8815C236.87 82.6704 241.046 87.473 240.144 89.066C239.241 90.659 234.691 95.2714 234.691 95.2714Z" fill="black"/>
<path d="M234.691 94.7721L231.468 88.5022C231.468 88.5022 236.184 86.5933 236.527 84.3822C236.87 82.1711 241.046 86.9771 240.144 88.5667C239.241 90.1562 234.691 94.7721 234.691 94.7721Z" fill="#6C63FF"/>
<path d="M208.312 110.971L226.121 134.94C226.121 134.94 219.556 138.516 210.514 132.114L206.609 127.454L195.46 108.641L208.312 110.971Z" fill="#F6F8FB"/>
<path d="M204.807 124.002L206.429 123.958C206.429 123.958 216.336 114.332 218.769 119.203C221.201 124.074 212.597 128.625 212.597 128.625L209.981 130.038L206.571 131.057L204.39 128.126L204.807 124.002Z" fill="#CC818C"/>
<path opacity="0.1" d="M207.199 129.202C207.348 129.756 207.491 130.367 207.24 130.88C207.18 131.017 207.076 131.131 206.945 131.203C206.837 131.245 206.721 131.261 206.605 131.25C205.747 131.177 204.948 130.782 204.369 130.143C203.801 129.507 203.314 128.802 202.921 128.044C202.48 127.273 202.022 126.421 202.178 125.544C202.354 124.59 203.196 123.928 204.02 123.391C205.662 122.304 205.716 123.571 206.076 124.97C206.436 126.37 206.822 127.789 207.199 129.202Z" fill="black"/>
<path d="M206.951 129.202C207.097 129.756 207.243 130.367 206.992 130.88C206.932 131.017 206.828 131.131 206.697 131.203C206.589 131.244 206.473 131.261 206.358 131.25C205.499 131.179 204.699 130.783 204.122 130.143C203.551 129.508 203.063 128.803 202.67 128.044C202.228 127.273 201.77 126.421 201.93 125.544C202.103 124.59 202.948 123.928 203.769 123.391C205.414 122.304 205.465 123.571 205.828 124.97C206.191 126.37 206.571 127.789 206.951 129.202Z" fill="#6C63FF"/>
<path opacity="0.1" d="M211.664 107.988L212.492 106.585L211.769 109.19L211.664 107.988Z" fill="black"/>
<path opacity="0.1" d="M234.118 123.636L236.028 124.502L236.839 118.636L234.997 117.617C236.269 119.078 235.156 121.778 234.118 123.636Z" fill="black"/>
<path opacity="0.1" d="M241.786 116.826C241.786 116.826 235.618 117.203 232.999 115.519L241.786 116.826Z" fill="black"/>
<g opacity="0.1">
<path opacity="0.1" d="M241.019 120.766C241.849 119.279 242.893 117.923 244.117 116.741C244.41 116.556 244.715 116.391 245.03 116.245L254.645 114.268L255.201 114.146C255.201 114.146 255.286 95.3462 248.64 92.7648C244.911 91.3456 241.416 89.3753 238.271 86.9195L239 86.6953C239 86.6953 242.987 90.1869 249.637 92.7648C256.287 95.3428 256.199 114.146 256.199 114.146H255.201L245.362 116.031C245.362 116.031 244.938 116.442 244.809 116.561C243.575 117.798 242.517 119.199 241.664 120.725C240.362 123.145 240.066 125.981 240.839 128.618H239.822C239 125.64 239.849 122.885 241.019 120.766Z" fill="black"/>
<path opacity="0.1" d="M214.758 87.5821C214.918 87.5583 215.07 87.5346 215.237 87.5176C215.911 87.6134 216.591 87.6689 217.272 87.684C216.433 87.7072 215.593 87.6731 214.758 87.5821Z" fill="black"/>
<path opacity="0.1" d="M228.863 89.5209L222.776 86.4369C222.897 86.3378 223.01 86.2299 223.115 86.1143L229.467 89.3307L228.863 89.5209Z" fill="black"/>
</g>
<path d="M252.036 108.641L256.107 113.633L256.938 127.192C256.938 127.192 258.017 134.094 250.126 132.43C242.234 130.765 233.1 125.623 233.1 125.623C233.1 125.623 237.511 119.717 235.095 117.472L246.397 121.133C246.397 121.133 248.307 120.715 246.811 119.054C245.314 117.393 245.05 114.394 245.05 114.394L252.036 108.641Z" fill="#6C63FF"/>
<path opacity="0.1" d="M253.875 122.964L256.118 125.542C255.541 125.364 255.025 125.029 254.629 124.573C254.232 124.118 253.971 123.56 253.875 122.964Z" fill="black"/>
<path opacity="0.1" d="M250.051 122.546L253.542 127.036L251.798 127.454L250.051 122.546Z" fill="black"/>
<path opacity="0.1" d="M215.25 67.4204C214.867 66.4796 215.162 65.3825 215.623 64.4961C216.085 63.6096 216.719 62.7706 217.065 61.8162C217.578 60.3965 217.422 58.7899 217.981 57.4008C218.969 54.9383 221.775 53.8379 224.289 52.9853C225.032 52.7374 225.822 52.4894 226.582 52.6729C227.6 52.914 228.262 53.8379 229.093 54.4594C232.506 57.0068 238.057 54.2013 241.358 56.8981C242.62 57.917 243.235 59.5847 243.425 61.2049C243.615 62.825 243.425 64.4689 243.404 66.1026C243.35 68.9624 243.886 72.0906 246.023 73.9859C246.668 74.5565 247.428 74.9844 248.059 75.5754C248.69 76.1664 249.186 76.9918 249.077 77.8477C248.994 78.2407 248.88 78.6268 248.738 79.0025C248.314 80.4936 248.948 82.0593 249.722 83.4179C252.029 87.4156 256.097 90.7102 260.708 90.8019C260.399 93.1319 257.994 94.4837 255.839 95.4381C253.125 96.6575 250.234 97.853 247.245 97.7002C244.256 97.5474 241.138 95.6317 240.615 92.6836C240.435 91.6646 240.459 90.4385 239.597 89.9086C239.068 89.586 238.383 89.6675 237.813 89.4263C236.988 89.0867 236.581 88.1594 236.31 87.3069C235.754 85.5479 235.455 83.7173 235.424 81.8725C235.387 79.6852 235.675 77.2974 234.437 75.4973C233.29 73.8296 231.254 72.9839 229.931 71.4521C228.71 70.0323 227.383 68.3205 225.381 68.0556C222.613 67.665 216.885 71.4317 215.25 67.4204Z" fill="black"/>
<path d="M215.25 66.9214C214.867 65.9806 215.162 64.8835 215.623 63.997C216.085 63.1105 216.719 62.2716 217.065 61.3172C217.578 59.8975 217.422 58.2909 217.981 56.9018C218.969 54.4359 221.775 53.3354 224.289 52.4863C225.032 52.2384 225.822 51.9904 226.582 52.1738C227.6 52.415 228.262 53.3388 229.093 53.9604C232.506 56.5078 238.057 53.7023 241.358 56.3991C242.62 57.418 243.235 59.0857 243.425 60.7092C243.615 62.3328 243.425 63.9699 243.404 65.6036C243.35 68.4634 243.886 71.5916 246.023 73.4868C246.668 74.0575 247.428 74.4854 248.059 75.0764C248.69 75.6674 249.186 76.4927 249.077 77.3487C248.994 77.7417 248.88 78.1278 248.738 78.5035C248.314 79.9945 248.948 81.5603 249.722 82.9189C252.036 86.903 256.087 90.2078 260.698 90.2995C260.389 92.6295 257.983 93.9813 255.829 94.9391C253.115 96.1551 250.224 97.3506 247.235 97.1978C244.246 97.0449 241.128 95.1293 240.605 92.1812C240.425 91.1622 240.449 89.9361 239.587 89.4062C239.058 89.0835 238.373 89.1651 237.803 88.9239C236.978 88.5843 236.571 87.657 236.3 86.8045C235.743 85.0455 235.445 83.2149 235.414 81.3701C235.377 79.1828 235.665 76.795 234.427 74.9949C233.28 73.3272 231.244 72.4815 229.921 70.9497C228.699 69.5299 227.373 67.8181 225.371 67.5532C222.613 67.166 216.885 70.9395 215.25 66.9214Z" fill="#585268"/>
<path opacity="0.1" d="M222.857 94.4938L229.002 89.501C229.002 89.501 224.794 87.2185 224.292 85.2724C223.79 83.3262 220.424 86.1962 220.767 87.942C221.11 89.6878 222.857 94.4938 222.857 94.4938Z" fill="black"/>
<path d="M223.098 93.7434L229.242 88.7539C229.242 88.7539 225.035 86.4715 224.553 84.5253C224.072 82.5791 220.686 85.4491 221.028 87.1949C221.371 88.9407 223.098 93.7434 223.098 93.7434Z" fill="#6C63FF"/>
<path opacity="0.1" d="M229.483 93.4206C229.753 93.4206 229.972 93.2016 229.972 92.9315C229.972 92.6613 229.753 92.4424 229.483 92.4424C229.213 92.4424 228.995 92.6613 228.995 92.9315C228.995 93.2016 229.213 93.4206 229.483 93.4206Z" fill="black"/>
<path opacity="0.1" d="M229.483 96.1374C229.753 96.1374 229.972 95.9184 229.972 95.6483C229.972 95.3781 229.753 95.1592 229.483 95.1592C229.213 95.1592 228.995 95.3781 228.995 95.6483C228.995 95.9184 229.213 96.1374 229.483 96.1374Z" fill="black"/>
<path opacity="0.1" d="M229.483 98.8512C229.753 98.8512 229.972 98.6323 229.972 98.3621C229.972 98.092 229.753 97.873 229.483 97.873C229.213 97.873 228.995 98.092 228.995 98.3621C228.995 98.6323 229.213 98.8512 229.483 98.8512Z" fill="black"/>
<g opacity="0.1">
<path opacity="0.1" d="M217.731 59.9853C218.216 58.6505 218.111 57.1526 218.565 55.8076C218.355 56.105 218.18 56.4266 218.046 56.7654C217.483 58.1682 217.642 59.7747 217.127 61.1809L217.093 61.2624C217.344 60.8572 217.558 60.4297 217.731 59.9853Z" fill="black"/>
<path opacity="0.1" d="M256.494 93.6071C253.78 94.823 250.889 96.0186 247.9 95.8658C244.911 95.7129 241.793 93.7973 241.271 90.8525C241.091 89.8336 241.114 88.6041 240.253 88.0742C239.723 87.7516 239.038 87.8331 238.468 87.5919C237.644 87.2523 237.236 86.325 236.965 85.4725C236.408 83.7135 236.11 81.8829 236.079 80.0381C236.042 77.8542 236.334 75.4664 235.095 73.6629C233.945 71.9952 231.91 71.1529 230.586 69.6177C229.365 68.2013 228.038 66.4861 226.036 66.2212C223.292 65.8476 217.554 69.6177 215.933 65.603C215.672 64.8444 215.71 64.0151 216.038 63.2832C215.919 63.4836 215.804 63.684 215.698 63.8878C215.237 64.7912 214.945 65.8747 215.329 66.8156C216.961 70.8234 222.688 67.0567 225.433 67.4337C227.434 67.7054 228.761 69.4207 229.982 70.8302C231.306 72.3654 233.341 73.2078 234.488 74.8788C235.73 76.679 235.438 79.0667 235.475 81.2507C235.506 83.0955 235.805 84.9261 236.361 86.685C236.632 87.541 237.04 88.458 237.864 88.8045C238.434 89.0456 239.119 88.9675 239.649 89.2868C240.524 89.8166 240.5 91.0563 240.667 92.0651C241.196 95.0099 244.311 96.9255 247.296 97.0783C250.282 97.2312 253.159 96.039 255.89 94.8197C257.858 93.9434 260.05 92.7308 260.64 90.7439C259.697 92.0345 258.028 92.9244 256.494 93.6071Z" fill="black"/>
</g>
<path d="M316.456 112.777C309.274 108.64 306.559 107.621 306.546 107.621L306.397 107.516C305.614 106.914 304.993 106.127 304.588 105.227C304.58 105.063 304.58 104.898 304.588 104.734C304.586 104.75 304.586 104.766 304.588 104.782C304.7 102.591 306.257 100.597 307.733 98.8582L311.51 94.4121C311.939 93.9722 312.27 93.4468 312.483 92.8701C312.56 92.5603 312.594 92.2415 312.585 91.9225C312.585 91.7934 312.585 91.6644 312.585 91.5353C312.565 90.4314 312.534 89.3242 312.494 88.2203C312.46 87.2557 312.212 86.0398 311.248 85.8428C310.746 85.7409 310.081 85.9209 309.817 85.5031C309.727 85.3258 309.704 85.122 309.752 84.9291C309.75 84.9449 309.75 84.9609 309.752 84.9767V84.9223C309.939 84.1772 310.058 83.4167 310.108 82.6501C310.129 82.2599 310.076 81.8692 309.952 81.4987C309.396 79.8989 307.472 79.24 305.772 78.9377C304.072 78.6354 302.166 78.3773 301.1 77.0459C300.815 76.6016 300.505 76.1741 300.171 75.7654C299.679 75.3282 299.079 75.0314 298.434 74.9061C296.324 74.3857 294.101 74.5792 292.113 75.4563C291.292 75.8231 290.467 76.319 289.565 76.2647C288.662 76.2103 287.827 75.5582 286.905 75.402C285.412 75.1472 283.983 76.2443 283.247 77.5451C282.811 78.3165 282.578 79.1859 282.568 80.0721V80.2216C282.547 81.1751 282.895 82.1001 283.539 82.8029C284.183 83.4822 285.14 83.9306 285.408 84.8102C285.517 85.1669 285.49 85.5541 285.588 85.9175C285.599 85.9626 285.612 86.0068 285.629 86.05L285.581 86.1145C284.041 88.0871 283.205 90.5192 283.206 93.023C283.223 95.4548 284.012 97.8184 285.458 99.7722C286.905 101.726 288.935 103.169 291.254 103.892C291.254 104.004 291.254 104.116 291.254 104.231C291.254 105.59 290.864 107.006 289.694 108.035L279.518 112.104C279.518 112.104 273.384 111.374 271.172 120.348C270.818 121.837 270.69 123.371 270.792 124.899C270.873 126.258 270.687 128.635 269.095 131.716C266.581 136.648 267.155 147.968 272.298 149.089C277.153 150.149 279.053 149.707 279.254 149.656V149.853C279.172 151.979 278.402 170.3 275.603 172.515C274.829 173.129 274.972 173.533 275.603 173.822C275.603 173.822 275.603 173.941 275.586 174.162C275.501 175.52 275.07 180.615 273.211 183.509C271.036 186.871 271.263 206.265 271.263 206.265L269.781 217.698C269.781 217.698 270.693 224.759 269.781 225.992C268.963 227.089 267.877 253.212 267.65 258.877H267.555C267.106 258.906 266.67 259.046 266.287 259.282C265.904 259.519 265.584 259.847 265.356 260.236C264.155 262.189 259.948 265.799 259.948 265.799C259.036 267.097 255.66 268.34 253.875 268.924C253.64 269.001 253.412 269.101 253.196 269.223C252.528 269.587 251.992 270.153 251.663 270.84C251.545 271.043 251.47 271.269 251.442 271.502C251.414 271.736 251.434 271.973 251.5 272.198C251.955 273.316 261.445 274.104 263.847 272.979C265.733 272.1 273.211 270.942 276.315 270.486C276.879 270.415 277.403 270.159 277.805 269.756C278.207 269.354 278.463 268.829 278.534 268.265C278.564 268.07 278.554 267.872 278.505 267.681C278.456 267.49 278.369 267.311 278.249 267.154C277.656 266.417 277.354 264.403 277.232 263.079C277.484 262.976 277.719 262.836 277.93 262.664C277.671 258.593 278.248 254.511 279.627 250.671C281.914 244.619 282.599 233.41 282.029 226.125C282.029 226.125 289.001 196.086 294.491 193.284C294.576 193.393 297.239 196.813 297.579 207.407C297.918 218.167 301.806 225.228 301.806 225.228C301.806 225.228 300.089 243.498 301.806 250.335L299.563 261.119C299.397 260.98 299.292 260.871 299.292 260.871C299.292 260.871 299.36 261.17 299.451 261.649L299.404 261.88L299.502 261.9C299.757 263.259 300.133 265.599 299.977 266.995C299.889 267.779 299.669 268.856 299.519 269.912C299.282 271.573 299.217 273.183 300.089 273.536C301.521 274.114 309.929 274.895 311.354 273.047C311.674 272.671 311.883 272.212 311.956 271.723C312.029 271.233 311.964 270.733 311.768 270.279C311.665 270.025 311.525 269.787 311.354 269.573C311.354 269.573 309.121 265.922 309.752 263.347C309.81 263.095 309.817 262.835 309.771 262.581C309.724 262.326 309.627 262.085 309.484 261.869C309.583 260.606 310.091 254.757 311.408 249.792C312.84 244.398 315.856 232.571 313.637 224.797C313.553 224.491 313.458 224.192 313.352 223.9C312.071 219.655 311.643 215.198 312.093 210.786C311.27 207.02 311.27 203.12 312.093 199.354C313.467 193.077 314.428 186.912 314.428 186.912C314.428 186.912 315.184 178.618 314.523 173.533C314.523 173.425 314.492 173.316 314.478 173.194L314.838 173.112C314.838 173.112 312.894 164.482 312.209 158.99C312.046 157.692 311.835 156.052 311.605 154.299C312.237 154.194 312.86 154.039 313.467 153.834C319.639 151.704 321.583 132.436 321.583 132.436V126.322C321.583 126.322 323.66 116.924 316.456 112.777ZM270.463 261.625C270.273 261.53 270.161 261.465 270.161 261.465L270.463 261.625Z" fill="url(#paint2_linear)"/>
<path d="M312.731 224.023C315.408 231.729 312.283 244.239 310.831 249.836C309.379 255.434 308.934 262.125 308.934 262.125C303.244 263.018 299.115 261.9 299.115 261.9L301.46 250.397C299.784 243.583 301.46 225.375 301.46 225.375C301.46 225.375 297.666 218.337 297.331 207.614C296.991 197.061 294.402 193.648 294.321 193.543C288.967 196.334 282.161 226.271 282.161 226.271C282.717 233.53 282.046 244.701 279.817 250.726C278.463 254.556 277.894 258.62 278.144 262.675C277.363 263.354 276.278 263.449 275.09 263.259C271.904 262.743 268.084 259.995 268.084 259.995C268.084 259.995 269.309 227.389 270.205 226.152C271.1 224.916 270.205 217.885 270.205 217.885L271.653 206.493C271.653 206.493 271.429 187.167 273.55 183.818C275.382 180.925 275.803 175.837 275.884 174.502C275.884 174.291 275.884 174.162 275.884 174.162L279.114 170.29C279.114 170.29 310.356 167.943 312.704 170.29C313.277 170.864 313.633 172.175 313.844 173.823C314.488 178.89 313.749 187.154 313.749 187.154C313.749 187.154 312.812 193.298 311.472 199.551C310.669 203.307 310.669 207.19 311.472 210.946C311.041 215.346 311.469 219.787 312.731 224.023Z" fill="#65617D"/>
<path d="M310.777 273C309.382 274.844 301.182 274.063 299.784 273.489C298.932 273.149 298.997 271.529 299.227 269.875C299.373 268.826 299.587 267.752 299.675 266.971C299.896 264.96 298.997 260.881 298.997 260.881C298.997 260.881 300.836 262.838 301.28 260.881C301.477 260.025 302.162 259.587 302.875 259.366C303.831 259.077 304.859 259.141 305.772 259.546C307.221 260.178 309.637 261.52 309.206 263.333C308.592 265.898 310.766 269.539 310.766 269.539C310.935 269.751 311.072 269.987 311.174 270.239C311.367 270.691 311.432 271.188 311.362 271.675C311.292 272.162 311.09 272.62 310.777 273Z" fill="#A27772"/>
<path opacity="0.1" d="M310.777 273C309.382 274.844 301.182 274.063 299.784 273.489C298.932 273.149 298.997 271.529 299.228 269.875C300.11 270.289 301.603 270.632 304.103 270.401C304.686 270.346 305.272 270.328 305.857 270.347C307.633 270.427 309.413 270.391 311.184 270.238C311.376 270.692 311.44 271.189 311.368 271.676C311.296 272.163 311.092 272.621 310.777 273Z" fill="black"/>
<path opacity="0.1" d="M282.158 226.257C282.714 233.516 282.042 244.687 279.813 250.712C278.459 254.542 277.89 258.606 278.141 262.661C277.36 263.34 276.274 263.435 275.087 263.245C275.765 258.534 278.629 238.237 280.465 222.199C282.558 203.936 292.34 191.372 292.34 191.372L294.291 193.522C288.964 196.321 282.158 226.257 282.158 226.257Z" fill="black"/>
<path d="M307.428 108.862L306.071 115.563L299.397 126.788L291.169 123.269C291.169 123.269 279.973 111.541 287.013 109.867C287.855 109.686 288.649 109.332 289.347 108.828C290.728 107.785 291.163 106.27 291.169 104.786C291.117 103.125 290.732 101.492 290.036 99.9831L304.429 95.459C303.841 97.3523 303.499 99.3135 303.411 101.294C303.299 105.221 304.768 107.153 305.952 108.087C306.389 108.439 306.89 108.702 307.428 108.862Z" fill="#FBBEBE"/>
<path opacity="0.1" d="M304.415 95.459C303.827 97.3523 303.485 99.3135 303.397 101.294C303.135 101.607 302.855 101.906 302.559 102.187C301.073 103.608 299.231 104.6 297.227 105.057C295.224 105.515 293.134 105.421 291.18 104.786C291.124 103.124 290.735 101.491 290.036 99.9831L304.415 95.459Z" fill="black"/>
<path d="M306.067 93.6146C306.068 95.8685 305.401 98.072 304.151 99.9464C302.9 101.821 301.123 103.282 299.043 104.145C296.963 105.008 294.674 105.234 292.466 104.795C290.257 104.355 288.229 103.27 286.636 101.677C285.044 100.083 283.96 98.0529 283.52 95.8424C283.081 93.6318 283.306 91.3404 284.167 89.258C285.029 87.1756 286.488 85.3957 288.36 84.1435C290.232 82.8912 292.433 82.2228 294.684 82.2228C296.181 82.2156 297.664 82.5053 299.048 83.0752C300.432 83.6451 301.69 84.4839 302.748 85.5431C303.807 86.6023 304.645 87.861 305.215 89.2464C305.784 90.6318 306.074 92.1165 306.067 93.6146Z" fill="#FBBEBE"/>
<path opacity="0.1" d="M307.428 108.861L306.071 115.562L299.397 126.787L291.169 123.269C291.169 123.269 279.973 111.541 287.013 109.866C287.855 109.685 288.649 109.331 289.347 108.827C288.078 112.318 293.317 119.583 293.317 119.583C293.928 120.484 295.326 119.923 295.326 119.923C298.701 119.41 304.914 109.693 305.928 108.076C306.372 108.434 306.881 108.701 307.428 108.861Z" fill="black"/>
<path opacity="0.1" d="M313.871 173.829C311.89 174.281 300.927 176.709 296.771 176.102C292.197 175.422 283.305 174.987 283.305 174.987C283.305 174.987 277.642 175.293 275.898 174.495C275.898 174.284 275.898 174.155 275.898 174.155L279.128 170.283C279.128 170.283 310.369 167.936 312.717 170.283C313.304 170.871 313.661 172.182 313.871 173.829Z" fill="black"/>
<path d="M293.314 119.92C293.314 119.92 287.427 111.768 289.646 108.576L279.701 112.651C279.701 112.651 273.716 111.925 271.559 120.868C271.214 122.354 271.089 123.883 271.189 125.405C271.27 126.764 271.087 129.141 269.55 132.198C267.097 137.113 267.653 148.396 272.675 149.52C277.696 150.645 279.478 150.077 279.478 150.077C279.478 150.077 278.799 170.518 275.908 172.864C273.018 175.211 283.305 174.651 283.305 174.651C283.305 174.651 292.197 175.099 296.774 175.768C301.351 176.438 314.18 173.421 314.18 173.421C314.18 173.421 312.283 164.822 311.611 159.35C310.94 153.878 309.376 142.221 309.376 142.221L320.755 126.788C320.755 126.788 322.764 117.461 315.734 113.327C308.704 109.194 306.061 108.182 306.061 108.182C306.061 108.182 298.997 119.696 295.315 120.253C295.322 120.253 293.924 120.817 293.314 119.92Z" fill="#6C63FF"/>
<path opacity="0.1" d="M280.258 123.157C280.258 123.157 280.149 126.846 280.818 128.296C281.486 129.746 283.943 137.806 283.943 137.806H278.361C278.361 137.806 281.374 134.566 281.154 133C280.933 131.434 280.258 123.157 280.258 123.157Z" fill="black"/>
<path d="M296.774 150.971C296.774 150.971 284.451 147.955 283.305 145.387C282.158 142.819 278.992 137.069 278.992 137.069L280.292 135.316L286.283 140.024C286.283 140.024 293.408 145.72 296.774 146.28C300.14 146.841 296.774 150.971 296.774 150.971Z" fill="#FBBEBE"/>
<path opacity="0.05" d="M296.774 150.971C296.774 150.971 284.451 147.955 283.305 145.387C282.158 142.819 278.992 137.069 278.992 137.069L280.292 135.316L286.283 140.024C286.283 140.024 293.408 145.72 296.774 146.28C300.14 146.841 296.774 150.971 296.774 150.971Z" fill="black"/>
<path d="M307.428 136.45V143.141H306.355C301.046 143.14 295.824 144.494 291.183 147.075L289.167 148.192L288.628 148.494L285.167 140.682L288.404 137.778H288.57C289.361 137.856 292.784 138.142 294.236 137.653C295.614 137.184 297.324 135.7 301.382 136.736C303.38 137.249 305.09 139.49 307.027 138.791L307.428 136.45Z" fill="#FBBEBE"/>
<path opacity="0.1" d="M318.197 124.264L320.426 126.778V132.868C320.426 132.868 318.529 152.078 312.507 154.201C306.485 156.324 295.726 152.972 295.726 152.972C295.726 152.972 292.947 145.601 294.246 145.16C295.546 144.718 305.731 142.021 305.731 142.021C305.731 142.021 305.589 130.752 307.818 127.399C307.818 127.399 306.369 116.901 311.391 116.677C316.412 116.452 318.197 124.264 318.197 124.264Z" fill="black"/>
<path d="M318.536 124.264L320.769 126.778V132.868C320.769 132.868 318.872 152.078 312.846 154.201C306.821 156.324 296.065 152.972 296.065 152.972C296.065 152.972 293.286 145.601 294.589 145.16C295.892 144.718 306.074 142.021 306.074 142.021C306.074 142.021 305.928 130.752 308.161 127.399C308.161 127.399 306.709 116.901 311.73 116.677C316.752 116.452 318.536 124.264 318.536 124.264Z" fill="#6C63FF"/>
<path opacity="0.1" d="M302.946 98.4506C303.042 97.7149 302.955 96.9669 302.692 96.2734C302.376 95.5941 301.64 95.0812 300.921 95.2544C299.967 95.4786 299.563 96.7217 298.62 97.0206C297.83 97.272 296.968 96.7115 296.584 95.9745C296.201 95.2375 296.198 94.3714 296.198 93.5426C296.198 92.612 296.198 91.6779 296.198 90.7439C296.198 89.7249 296.164 88.6313 295.539 87.8331C294.762 86.8413 292.934 86.4066 291.712 86.4473C290.9 86.4565 290.12 86.7704 289.527 87.327C288.876 87.8841 288.119 88.2916 287.23 88.1456C286.86 88.0902 286.512 87.9305 286.229 87.6852C285.945 87.4399 285.737 87.1189 285.629 86.7598V86.7258C286.576 85.4659 287.773 84.4164 289.146 83.6437C290.519 82.871 292.037 82.392 293.604 82.2369C295.171 82.0818 296.753 82.2541 298.251 82.7428C299.748 83.2315 301.128 84.026 302.302 85.0761C303.477 86.1261 304.421 87.4088 305.075 88.843C305.729 90.2772 306.079 91.8317 306.102 93.4081C306.125 94.9845 305.82 96.5485 305.208 98.0011C304.596 99.4537 303.69 100.763 302.546 101.847C302.742 100.723 302.876 99.5893 302.946 98.4506Z" fill="black"/>
<path d="M287.23 87.8164C286.859 87.7594 286.512 87.5988 286.228 87.3531C285.944 87.1073 285.735 86.7865 285.625 86.4272C285.533 86.0672 285.557 85.6834 285.452 85.3268C285.191 84.4471 284.254 83.9919 283.627 83.3228C282.371 81.988 282.453 79.7939 283.342 78.1873C284.061 76.8933 285.452 75.8098 286.911 76.0543C287.813 76.2106 288.607 76.8525 289.51 76.9137C290.412 76.9748 291.206 76.4755 291.997 76.1087C293.935 75.2277 296.115 75.0336 298.179 75.5585C298.811 75.6858 299.398 75.9828 299.875 76.4178C300.199 76.8261 300.502 77.2513 300.781 77.6915C301.819 79.0161 303.682 79.2776 305.341 79.5765C307 79.8754 308.876 80.5343 309.412 82.1307C309.775 83.1904 309.412 84.3384 309.216 85.4389C309.15 85.6635 309.166 85.9039 309.26 86.1182C309.521 86.5461 310.169 86.3661 310.658 86.4578C311.597 86.6582 311.838 87.8707 311.876 88.8354C311.914 89.9358 311.944 91.0374 311.964 92.1401C311.991 92.5503 311.958 92.9623 311.866 93.3629C311.662 93.9368 311.339 94.4612 310.919 94.9015L307.234 99.3339C305.599 101.297 303.865 103.586 304.181 106.127C303.407 106.467 302.484 105.804 302.233 104.992C301.982 104.181 302.182 103.294 302.355 102.476C302.656 101.037 302.853 99.5782 302.946 98.1112C303.042 97.3767 302.954 96.6298 302.691 95.9374C302.376 95.2581 301.639 94.7453 300.92 94.9185C299.963 95.1426 299.563 96.3858 298.62 96.6846C297.829 96.936 296.967 96.3756 296.584 95.6385C296.201 94.9015 296.197 94.0388 296.197 93.21V90.4079C296.197 89.389 296.163 88.2953 295.539 87.4971C294.762 86.5054 292.933 86.0706 291.712 86.1114C290.9 86.1214 290.122 86.4352 289.53 86.9911C288.875 87.5515 288.119 87.9625 287.23 87.8164Z" fill="#7C5C5C"/>
<path opacity="0.1" d="M289.798 122.879L293.293 137.249C293.293 137.249 296.048 137.232 289.798 122.879Z" fill="black"/>
<path opacity="0.1" d="M301.738 120.477C301.738 120.477 297.165 127.976 298.949 135.734L299.801 135.795C299.801 135.795 298.281 132.205 301.738 120.477Z" fill="black"/>
<path opacity="0.1" d="M304.625 162.923C304.625 162.923 310.244 161.062 310.651 165.379C310.665 165.379 309.606 162.421 304.625 162.923Z" fill="black"/>
<path opacity="0.1" d="M288.404 138.125C288.404 138.125 287.288 145.937 289.296 149.072C289.296 149.072 285.225 150.746 279.477 150.414L278.799 138.125H288.404Z" fill="black"/>
<path opacity="0.1" d="M289.167 148.193L288.628 148.495L285.167 140.683L288.404 137.779H288.57C288.519 138.166 287.617 144.881 289.167 148.193Z" fill="black"/>
<path d="M288.404 137.792C288.404 137.792 287.288 145.604 289.296 148.735C289.296 148.735 285.225 150.413 279.477 150.077L275.572 137.792H288.404Z" fill="#6C63FF"/>
<path d="M278.755 268.245C278.69 268.803 278.442 269.323 278.049 269.724C277.657 270.125 277.142 270.384 276.587 270.46C273.557 270.912 266.259 272.066 264.416 272.946C262.072 274.063 252.813 273.286 252.365 272.165C252.3 271.939 252.281 271.703 252.308 271.47C252.336 271.236 252.409 271.011 252.524 270.806C252.842 270.126 253.366 269.563 254.021 269.196C254.237 269.076 254.464 268.976 254.699 268.897C256.443 268.317 259.738 267.08 260.627 265.783C260.627 265.783 264.735 262.186 265.906 260.243C266.126 259.861 266.437 259.539 266.811 259.305C267.185 259.072 267.61 258.934 268.05 258.905C269.027 258.861 270.116 259.353 270.564 261.497C270.564 261.497 275.915 264.553 277.35 261.874C277.35 261.874 277.574 265.99 278.463 267.118C278.584 267.277 278.673 267.458 278.723 267.652C278.773 267.846 278.784 268.047 278.755 268.245Z" fill="#A27772"/>
<path opacity="0.1" d="M278.755 268.245C278.69 268.802 278.442 269.323 278.049 269.723C277.657 270.124 277.142 270.383 276.587 270.459C273.557 270.911 266.259 272.066 264.416 272.946C262.072 274.063 252.813 273.285 252.365 272.164C252.3 271.939 252.281 271.702 252.308 271.469C252.336 271.236 252.409 271.01 252.524 270.806C252.842 270.125 253.366 269.562 254.021 269.196C255.53 270.215 258.883 271.179 266.255 270.028C273.289 268.928 276.773 267.851 278.47 267.117C278.59 267.277 278.677 267.458 278.726 267.652C278.775 267.846 278.785 268.047 278.755 268.245Z" fill="black"/>
<g opacity="0.1">
<path opacity="0.1" d="M309.199 85.5945V85.5401C309.358 84.7046 309.599 83.8419 309.538 83.0029C309.467 83.6886 309.354 84.3692 309.199 85.0408C309.157 85.223 309.157 85.4123 309.199 85.5945Z" fill="black"/>
<path opacity="0.1" d="M302.688 96.049C302.866 96.4515 302.959 96.8861 302.963 97.3261C303.013 96.7194 302.919 96.1095 302.688 95.5463C302.376 94.867 301.64 94.3541 300.92 94.5274C299.964 94.7515 299.563 95.9946 298.617 96.2935C297.829 96.5449 296.968 95.9845 296.581 95.2474C296.194 94.5104 296.194 93.6443 296.194 92.8155C296.194 91.8815 296.194 90.9509 296.194 90.0168C296.194 88.9979 296.16 87.9042 295.536 87.106C294.755 86.1108 292.93 85.6795 291.709 85.7169C290.896 85.7273 290.116 86.0423 289.524 86.5999C288.869 87.157 288.116 87.5645 287.223 87.4185C286.853 87.3619 286.506 87.2019 286.223 86.9567C285.94 86.7115 285.731 86.3912 285.622 86.0327C285.53 85.6727 285.554 85.2855 285.449 84.9289C285.188 84.0526 284.251 83.594 283.623 82.9283C283.035 82.2748 282.701 81.4307 282.684 80.5508C282.637 81.0669 282.697 81.5871 282.859 82.0795C283.02 82.5718 283.28 83.0259 283.623 83.414C284.251 84.0933 285.188 84.5383 285.449 85.4146C285.554 85.7542 285.53 86.1584 285.622 86.5184C285.731 86.8769 285.94 87.1972 286.223 87.4424C286.506 87.6876 286.853 87.8476 287.223 87.9042C288.116 88.0502 288.869 87.6427 289.524 87.0856C290.116 86.5281 290.896 86.213 291.709 86.2026C292.93 86.1652 294.762 86.5965 295.536 87.5917C296.16 88.3899 296.191 89.487 296.194 90.5025C296.194 91.4365 296.194 92.3672 296.194 93.3012C296.194 94.13 296.194 94.9995 296.581 95.7297C296.968 96.46 297.819 97.0306 298.617 96.7792C299.553 96.4803 299.974 95.2372 300.92 95.0131C301.64 94.8568 302.376 95.3935 302.688 96.049Z" fill="black"/>
<path opacity="0.1" d="M311.859 92.9754C311.654 93.5488 311.331 94.0721 310.909 94.5106L307.224 98.9431C305.674 100.808 304.035 102.968 304.17 105.349C304.282 103.165 305.802 101.178 307.224 99.4457L310.909 95.0133C311.331 94.5748 311.654 94.0515 311.859 93.4781C311.951 93.0763 311.984 92.6633 311.957 92.252C311.952 92.4961 311.919 92.7388 311.859 92.9754Z" fill="black"/>
<path opacity="0.1" d="M302.25 104.602C302.19 104.407 302.152 104.207 302.138 104.004C302.107 104.375 302.145 104.748 302.25 105.104C302.501 105.913 303.421 106.582 304.198 106.235C304.176 106.073 304.162 105.91 304.157 105.746C303.384 106.055 302.488 105.396 302.25 104.602Z" fill="black"/>
</g>
<path opacity="0.1" d="M265.163 261.266C265.163 261.266 266.33 263.304 270.557 261.51L265.163 261.266Z" fill="black"/>
<path opacity="0.1" d="M300.894 261.761C300.894 261.761 304.538 266.057 309.131 263.17L300.894 261.761Z" fill="black"/>
<path opacity="0.1" d="M311.499 210.953C311.499 210.953 308.924 212.563 308.843 213.484C308.761 214.404 310.173 212.804 310.173 212.804L311.499 210.953Z" fill="black"/>
<path opacity="0.1" d="M312.517 223.303C311.622 224.049 310.509 224.484 309.345 224.542C307.418 224.627 307.581 227.141 308.839 226.387C310.098 225.633 312.517 223.303 312.517 223.303Z" fill="black"/>
<path opacity="0.1" d="M313.006 224.916C313.006 224.916 311.771 230.992 310.767 229.821L313.006 224.916Z" fill="black"/>
<path d="M74.4123 270.456C74.4123 270.456 82.165 272.586 85.8971 269.753C89.6293 266.92 91.2477 267.83 91.2477 267.83C91.2477 267.83 100.147 267.338 100.88 265.232C101.613 263.126 97.4668 255.477 97.4668 255.477C97.1716 254.798 96.7407 253.935 96.5474 253.935L96.5881 250.709L97.8774 237.208C100.853 229.569 97.9316 219.699 97.9316 219.699L97.399 217.25C97.0996 215.873 97.2779 214.436 97.9045 213.174L103.309 202.305C103.599 201.587 103.939 200.89 104.327 200.22C104.666 199.598 105.118 198.831 105.684 197.91C105.851 197.645 106.024 197.37 106.214 197.082C106.868 196.063 107.662 194.908 108.623 193.576C111.015 190.258 112.273 186.104 112.925 183.047L113.213 184.005H113.23H113.278L113.356 184.022H113.464H113.485L113.624 184.046H113.675L115.337 205.226C115.439 213.487 118.469 218.058 118.469 218.058L118.051 236.294C118.621 240.686 117.373 246.541 116.799 248.878L115.49 251.836C114.974 252.094 114.529 252.474 114.193 252.943C113.856 253.411 113.639 253.955 113.559 254.526C113.301 256.71 111.004 261.418 111.004 261.418C110.115 262.546 108.185 265.592 108.185 265.592C108.185 265.592 107.276 268.534 107.839 269.634C108.402 270.734 113.111 270.622 113.111 270.622C118.489 271.815 122.611 268.924 122.35 266.934C122.089 264.943 123.188 264.437 123.188 264.437C125.326 263.758 125.119 262.308 125.119 262.308C125.579 259.316 125.008 256.257 123.5 253.633L123.161 254.418C123.069 252.847 123.288 251.274 123.806 249.788L123.609 249.924L123.548 249.962H123.527C123.867 246.983 126.992 241.47 126.992 241.47C132.732 231.39 130.646 217.729 130.646 217.729L129.757 213.47L129.706 211.863C129.584 208.028 129.874 204.19 130.571 200.417C130.88 198.746 131.199 196.728 131.443 194.504C131.959 189.803 133.621 184.953 134.388 182.898L134.615 182.857H134.642C134.955 182.803 135.27 182.748 135.589 182.687H135.65C135.65 182.687 135.833 181.695 135.989 180.007C136.081 178.931 136.156 177.565 136.156 175.996C136.179 171.258 135.456 166.546 134.015 162.033L134.188 161.785C134.188 161.785 134.598 161.228 135.348 160.264C136.726 158.511 138.87 155.848 141.513 152.846C146.246 147.442 144.855 141.977 144.855 141.977C144.855 141.977 141.428 129.406 139.901 121.859C139.029 117.559 137.394 114.635 136.142 112.91C136.424 111.72 136.584 110.504 136.617 109.282C136.719 107.047 136.641 104.717 135.637 102.71C134.632 100.703 132.495 99.1164 130.262 99.3848C129.946 99.4612 129.615 99.4612 129.299 99.3848C129.038 99.2663 128.817 99.0738 128.664 98.8311C127.358 97.0276 127.273 94.6025 127.68 92.4152C128.087 90.2278 128.922 88.1356 129.295 85.9415C129.669 83.7473 129.499 81.312 128.104 79.573C126.466 77.5351 123.609 76.9611 121.478 75.4293C119.982 74.3526 118.859 72.8072 117.281 71.8528C115.703 70.8984 114.228 71.2618 112.514 71.6218C109.634 72.2298 106.896 72.5083 104.171 73.748C101.412 74.9986 98.9381 76.8005 96.9002 79.0432C96.1768 79.7661 95.6229 80.6408 95.2784 81.6041C94.5998 83.8492 95.9265 86.2403 95.6482 88.5635C95.4515 90.2108 94.4811 91.6442 93.7109 93.1148C92.9407 94.5855 92.3538 96.3313 92.9577 97.8699C93.9077 100.275 97.0054 100.784 99.2583 102.065C99.5593 102.212 99.8166 102.436 100.005 102.713C100.561 103.685 99.4245 104.693 98.7086 105.556C98.2989 106.06 98.0088 106.65 97.8604 107.282C96.9278 107.665 96.1037 108.272 95.4605 109.049C94.8174 109.826 94.375 110.749 94.1723 111.738C93.4089 115.158 94.5829 119.475 95.6177 122.328C94.4879 128.683 95.957 131.19 97.0393 132.151C98.135 133.09 98.8135 134.427 98.9258 135.867V135.985C98.997 137.14 99.1191 138.292 99.282 139.44C99.2447 139.171 99.2074 138.886 99.187 138.76C98.3015 140.401 96.6152 144.592 95.6652 151.643C95.4675 153.154 95.1809 154.653 94.8068 156.13C94.1272 158.746 93.8842 161.457 94.0875 164.153L94.2572 166.438C94.0903 166.443 93.9272 166.389 93.7957 166.286L94.9866 168.469V172.155C94.9853 173.816 94.6794 175.464 94.0841 177.015C93.9993 177.239 93.9077 177.463 93.8093 177.694C93.5033 178.315 93.3653 179.004 93.4089 179.695C90.8473 183.625 84.9743 205.647 84.9743 205.647C81.7884 212.868 85.2355 217.535 85.2355 217.535C85.2355 217.535 86.9048 237.639 87.217 238.678C87.5291 239.718 88.2212 251.972 88.2212 251.972C88.2212 252.295 88.2212 252.631 88.2212 252.947C88.0361 252.866 87.841 252.81 87.6411 252.781C84.8487 252.624 84.0921 257.04 84.0921 257.04L78.3785 262.501C78.3785 262.501 75.7694 262.06 71.9321 264.943C68.0947 267.827 74.4123 270.456 74.4123 270.456ZM131.463 154.265L131.446 154.204L131.29 154.296L131.226 154.333L131.195 154.354L128.562 145.051C127.858 142.557 127.791 139.925 128.369 137.398L130.405 128.472V126.326L136.875 143.587C137.289 145.913 133.445 151.548 131.463 154.265Z" fill="url(#paint3_linear)"/>
<path d="M134.304 182.344C134.304 182.344 131.691 188.705 131.026 194.809C130.785 197.01 130.473 199 130.168 200.651C129.49 204.377 129.21 208.165 129.333 211.951L129.384 213.537L130.232 217.739C130.232 217.739 132.268 231.233 126.646 241.174C126.646 241.174 123.314 247.128 123.212 249.948L120.956 250.82L116.396 249.54C116.396 249.54 118.598 241.636 117.882 236.097L118.293 218.095C118.293 218.095 115.331 213.591 115.229 205.44L113.488 183.071L134.304 182.344Z" fill="#65617D"/>
<path d="M113.488 179.158C113.488 179.158 112.928 187.88 108.619 193.892C104.31 199.904 103.394 202.513 103.394 202.513L98.0877 213.252C97.4733 214.497 97.2975 215.913 97.589 217.27L98.1115 219.689C98.1115 219.689 100.982 229.437 98.0606 236.98L96.6763 251.551H88.5809C88.5809 251.551 87.9023 239.443 87.6071 238.417C87.3119 237.391 85.6596 217.535 85.6596 217.535C85.6596 217.535 82.2667 212.916 85.4018 205.787C85.4018 205.787 92.4759 179.107 94.3691 179.569C96.2623 180.031 113.488 179.158 113.488 179.158Z" fill="#65617D"/>
<g opacity="0.1">
<path opacity="0.1" d="M97.2907 219.706L96.7715 217.287C96.472 215.925 96.6468 214.501 97.2669 213.252L102.573 202.502C102.573 202.502 103.493 199.887 107.798 193.882C111.934 188.108 112.616 179.834 112.664 179.199L113.488 179.158C113.488 179.158 112.928 187.88 108.619 193.892C104.31 199.904 103.394 202.513 103.394 202.513L98.088 213.252C97.4735 214.497 97.2978 215.913 97.5892 217.27L98.1117 219.689C98.1117 219.689 100.982 229.437 98.0608 236.98L96.6765 251.551H95.8555L97.2398 236.98C100.161 229.437 97.2907 219.706 97.2907 219.706Z" fill="black"/>
</g>
<path opacity="0.1" d="M122.405 249.958C122.506 247.139 125.838 241.185 125.838 241.185C131.477 231.233 129.425 217.749 129.425 217.749L128.556 213.544L128.505 211.958C128.382 208.172 128.662 204.384 129.34 200.658C129.642 199.007 129.954 197.017 130.195 194.816C130.836 188.94 133.282 182.826 133.462 182.378L134.304 182.344C134.304 182.344 131.691 188.705 131.026 194.809C130.785 197.01 130.473 199 130.168 200.651C129.49 204.377 129.21 208.165 129.333 211.951L129.384 213.537L130.232 217.739C130.232 217.739 132.268 231.233 126.646 241.174C126.646 241.174 123.314 247.128 123.212 249.948L120.956 250.82L120.481 250.688L122.405 249.958Z" fill="black"/>
<path d="M119.792 249.856C120.403 250.099 121.065 250.183 121.717 250.102C122.369 250.022 122.991 249.778 123.524 249.394C122.778 251.576 122.672 253.927 123.219 256.167C124.142 259.862 114.608 253.192 114.608 253.192L116.644 248.535C116.644 248.535 117.434 250.009 119.792 249.856Z" fill="#D39999"/>
<path opacity="0.1" d="M120.501 250.063C121.026 250.169 121.567 250.163 122.089 250.046C122.611 249.929 123.102 249.704 123.531 249.384C122.784 251.566 122.679 253.916 123.226 256.156C124.149 259.852 114.615 253.181 114.615 253.181L116.65 248.524C116.65 248.524 117.241 249.659 118.975 249.835C119.5 249.897 120.003 249.968 120.501 250.063Z" fill="black"/>
<path d="M98.1626 163.542H102.146V140.918L99.1567 140.381L98.1626 163.542Z" fill="#FDC2CC"/>
<path opacity="0.05" d="M98.1626 163.542H102.146V140.918L99.1567 140.381L98.1626 163.542Z" fill="black"/>
<path d="M117.536 251.602C117.536 251.602 120.046 251.446 121.173 253.705L122.557 254.781L123.236 253.192C124.708 255.79 125.261 258.809 124.803 261.761C124.803 261.761 125.007 263.194 122.907 263.863C122.907 263.863 121.831 264.376 122.086 266.326C122.34 268.275 118.296 271.149 113.016 269.967C113.016 269.967 108.402 270.072 107.839 268.992C107.276 267.912 108.199 265.042 108.199 265.042C108.199 265.042 110.095 262.033 110.964 260.922C110.964 260.922 113.22 256.269 113.478 254.129C113.736 251.989 116.202 250.42 117.536 251.602Z" fill="#7E5659"/>
<path d="M96.7545 253.5L96.7952 250.311C96.7952 250.311 92.2115 251.632 88.4997 250.138C88.4997 250.138 88.8118 253.344 88.2961 253.782C87.7804 254.22 90.0129 258.347 90.0129 258.347L92.5066 260.962L96.7952 259.4L97.959 255.732C97.959 255.732 97.0599 253.5 96.7545 253.5Z" fill="#D39999"/>
<path opacity="0.1" d="M96.7545 253.5L96.7952 250.311C96.7952 250.311 92.2115 251.632 88.4997 250.138C88.4997 250.138 88.8118 253.344 88.2961 253.782C87.7804 254.22 90.0129 258.347 90.0129 258.347L92.5066 260.962L96.7952 259.4L97.959 255.732C97.959 255.732 97.0599 253.5 96.7545 253.5Z" fill="black"/>
<path d="M88.0144 252.346C88.0144 252.346 90.4505 252.628 90.1417 255.742C89.833 258.857 90.2706 255.742 90.2706 255.742C90.2706 255.742 92.8594 256.792 93.7823 258.256C94.7051 259.72 96.371 256.948 96.4965 256.153C96.6221 255.359 97.6603 255.029 97.6603 255.029C97.6603 255.029 101.732 262.586 101.012 264.665C100.293 266.744 91.5531 267.223 91.5531 267.223C91.5531 267.223 89.9619 266.326 86.2976 269.121C82.6333 271.916 75.0231 269.8 75.0231 269.8C75.0231 269.8 68.8209 267.209 72.5904 264.366C76.3599 261.523 78.9181 261.955 78.9181 261.955L84.5299 256.541C84.5299 256.541 85.2729 252.19 88.0144 252.346Z" fill="#7E5659"/>
<path d="M117.108 73.6867C118.659 74.6275 119.761 76.1559 121.23 77.219C123.32 78.7305 126.126 79.2943 127.735 81.3118C129.092 83.0304 129.268 85.4318 128.902 87.5987C128.535 89.7657 127.714 91.8342 127.317 93.9943C126.92 96.1545 127.002 98.549 128.284 100.329C128.433 100.568 128.649 100.758 128.905 100.876C129.216 100.95 129.541 100.95 129.852 100.876C132.043 100.611 134.147 102.18 135.131 104.16C136.115 106.14 136.193 108.443 136.091 110.651C136.006 112.461 135.803 114.309 135.009 115.939C133.652 118.711 130.829 120.422 128.043 121.733C126.233 122.586 124.376 123.336 122.482 123.982C121.18 124.424 119.805 124.821 118.452 124.59C116.134 124.189 114.492 122.08 112.294 121.255C110.492 120.575 108.494 120.82 106.577 120.99C104.941 121.132 103.072 121.129 101.945 119.933C100.5 118.398 101.151 115.922 101.891 113.945C101.108 113.896 100.353 113.63 99.7112 113.178C99.0691 112.726 98.5642 112.105 98.2525 111.384C97.9408 110.663 97.8342 109.87 97.9446 109.092C98.055 108.314 98.3781 107.581 98.8782 106.976C99.5771 106.123 100.693 105.128 100.147 104.167C99.9637 103.893 99.7108 103.672 99.4143 103.528C97.2055 102.265 94.1621 101.759 93.2324 99.388C92.6353 97.8629 93.2121 96.1375 93.9687 94.6872C94.7253 93.2369 95.6651 91.8172 95.8721 90.1936C96.1435 87.8976 94.8542 85.5371 95.5091 83.3225C95.8476 82.3714 96.3908 81.5064 97.1003 80.7888C99.0948 78.5786 101.519 76.7998 104.225 75.5616C106.902 74.3354 109.586 74.0603 112.416 73.4625C114.112 73.1025 115.517 72.7221 117.108 73.6867Z" fill="#865A61"/>
<path d="M102.143 107.88C102.143 107.88 95.652 107.54 94.4238 113.08C93.1956 118.62 97.0872 126.554 97.0872 126.554L102.143 107.88Z" fill="#FDC2CC"/>
<path opacity="0.05" d="M102.143 107.88C102.143 107.88 95.652 107.54 94.4238 113.08C93.1956 118.62 97.0872 126.554 97.0872 126.554L102.143 107.88Z" fill="black"/>
<path d="M97.9995 124.366L100.459 126.315L111.937 126.828L119.103 121.903L126.391 109.384C121.936 108.246 120.135 105.165 119.463 102.285C119.035 100.336 118.987 98.3224 119.32 96.3548C119.32 96.3548 107.635 90.2988 109.07 99.7513C109.267 100.911 109.304 102.093 109.179 103.263C108.5 108.8 103.133 107.757 103.133 107.757L101.073 110.936L98.7154 118.748L97.9995 124.366Z" fill="#FDC2CC"/>
<path opacity="0.1" d="M109.081 99.7382C109.277 100.898 109.314 102.08 109.189 103.25C110.838 104.004 112.655 104.312 114.46 104.143C116.264 103.973 117.993 103.333 119.473 102.286C119.046 100.336 118.997 98.3228 119.331 96.3552C119.331 96.3552 107.645 90.2993 109.081 99.7382Z" fill="black"/>
<path d="M113.495 103.776C119.212 103.776 123.846 99.1367 123.846 93.4135C123.846 87.6903 119.212 83.0508 113.495 83.0508C107.778 83.0508 103.143 87.6903 103.143 93.4135C103.143 99.1367 107.778 103.776 113.495 103.776Z" fill="#FDC2CC"/>
<path d="M106.173 122.389C106.424 122.389 106.672 122.426 106.92 122.45C108.277 122.586 113.946 122.891 117.176 119.03C120.79 114.709 125.601 109.373 125.798 109.156L130.693 110.637C130.693 110.637 126.819 109.258 124.247 116.472C123.683 117.985 123.623 119.641 124.078 121.19C124.532 122.74 125.476 124.101 126.768 125.069C127.719 125.758 128.814 126.223 129.971 126.427C129.972 126.43 129.973 126.433 129.973 126.436C129.973 126.439 129.972 126.442 129.971 126.444V129.61L127.969 138.441C127.4 140.936 127.466 143.534 128.159 145.998L131.213 156.802C130.751 157.121 111.805 170.021 99.15 161.112C99.1975 160.725 100.762 148.046 99.6759 141.84C99.3971 140.254 99.2079 138.653 99.1093 137.045C99.1093 137.004 99.1093 136.966 99.1093 136.926C98.9973 135.506 98.3304 134.188 97.2534 133.258C96.1134 132.239 94.5696 129.521 96.0964 122.341C96.4821 120.563 97.0506 118.829 97.7928 117.168L102.037 107.566L105.949 107.645V107.672C105.61 108.093 101.074 113.765 100.582 117.42C100.1 120.894 99.5062 121.961 106.173 122.389Z" fill="#6C63FF"/>
<path d="M133.988 112.326C133.988 112.326 137.815 115.61 139.318 123.065C140.821 130.521 144.17 142.904 144.17 142.904C144.17 142.904 145.527 148.308 140.889 153.644C136.251 158.98 133.167 163.154 133.167 163.154L130.113 167.658C129.593 168.426 128.811 168.978 127.915 169.213C126.524 169.58 124.386 169.845 122.534 168.83C121.859 168.452 121.348 167.839 121.098 167.108C120.847 166.376 120.875 165.578 121.177 164.866L121.855 163.293C121.855 163.293 115.568 167.26 115.022 165.07C114.476 162.879 122.333 160.692 122.333 160.692C122.333 160.692 128.824 159.598 130.137 156.521C130.137 156.521 137.106 147.557 136.56 144.48L129.828 126.421C129.828 126.421 121.411 125.307 124.281 115.841C127.151 106.375 133.988 112.326 133.988 112.326Z" fill="#FDC2CC"/>
<path d="M93.7384 180.459C93.7384 180.459 109.115 183.536 112.738 183.125L113.129 184.426C113.129 184.426 118.964 185.734 132.159 183.638C133.021 183.502 133.916 183.35 134.843 183.18L135.152 183.125C135.152 183.125 135.332 182.147 135.474 180.48C135.79 176.693 135.902 169.359 133.238 161.853L131.019 155.013C131.019 155.013 117.305 163.242 108.226 162.485C107.415 162.417 106.611 162.353 105.8 162.325C103.937 162.254 101.05 162.325 99.1738 160.821L95.2381 161.5V172.708C95.2367 174.348 94.9354 175.973 94.3491 177.504C94.2643 177.728 94.1761 177.949 94.0777 178.184C93.7166 178.884 93.5973 179.684 93.7384 180.459Z" fill="#65617D"/>
<path opacity="0.1" d="M113.125 180.938V184.426C113.125 184.426 119.843 185.931 135.148 183.125C135.148 183.125 135.328 182.147 135.47 180.479C130.775 181.234 117.824 183.047 113.125 180.938Z" fill="#65617D"/>
<path opacity="0.1" d="M93.7381 180.459C93.7381 180.459 109.115 183.536 112.738 183.125L113.128 184.426V180.938C111.378 181.665 98.8783 178.649 94.3488 177.518C94.264 177.742 94.1757 177.963 94.0773 178.197C93.7192 178.893 93.6 179.688 93.7381 180.459Z" fill="#65617D"/>
<path d="M131.016 176.57L132.156 183.648C133.017 183.513 133.912 183.36 134.839 183.19C134.483 181.121 133.706 176.397 133.92 175.612L132.485 174.383L131.016 176.57Z" fill="#65617D"/>
<path opacity="0.1" d="M131.175 176.418L132.315 183.5C133.177 183.361 134.072 183.209 134.999 183.041C134.643 180.973 133.866 176.248 134.08 175.463L132.644 174.23L131.175 176.418Z" fill="black"/>
<g opacity="0.05">
<path opacity="0.05" d="M107.401 162.482C106.594 162.414 105.786 162.349 104.975 162.322C103.163 162.254 100.398 162.322 98.5117 160.933L99.1699 160.817C101.056 162.315 103.92 162.251 105.796 162.322C106.607 162.349 107.411 162.414 108.222 162.482C108.487 162.505 108.758 162.519 109.033 162.526C108.489 162.54 107.944 162.526 107.401 162.482Z" fill="black"/>
<path opacity="0.05" d="M131.334 183.639C132.196 183.503 133.091 183.351 134.018 183.184L134.33 183.126C134.33 183.126 134.51 182.148 134.649 180.48C134.968 176.693 135.08 169.36 132.413 161.854L130.323 155.4C130.768 155.149 131.002 155.003 131.002 155.003L133.221 161.843C135.884 169.35 135.772 176.683 135.457 180.47C135.314 182.137 135.134 183.116 135.134 183.116L134.826 183.173C133.901 183.341 133.006 183.493 132.142 183.629C125.977 184.607 121.424 184.845 118.316 184.817C122.679 184.751 127.03 184.357 131.334 183.639Z" fill="black"/>
<path opacity="0.05" d="M111.91 183.126V183.163H111.469C111.637 183.152 111.784 183.14 111.91 183.126Z" fill="black"/>
</g>
<path d="M95.8961 152.485C96.8325 145.523 98.4848 141.386 99.3568 139.766C99.3907 139.986 99.4789 140.703 99.5196 140.924C99.6961 141.943 99.54 143.227 99.5943 144.521L98.7257 160.267L99.8895 165.192C100.982 169.091 96.9343 166.01 96.9343 166.01C96.0962 167.858 94.5593 167.654 94.5593 167.654L94.3489 164.828C94.1497 162.166 94.3881 159.489 95.0546 156.904C95.4226 155.449 95.7035 153.974 95.8961 152.485Z" fill="#FDC2CC"/>
<path opacity="0.05" d="M95.8961 152.485C96.8325 145.523 98.4848 141.386 99.3568 139.766C99.3907 139.986 99.4789 140.703 99.5196 140.924C99.6961 141.943 99.54 143.227 99.5943 144.521L98.7257 160.267L99.8895 165.192C100.982 169.091 96.9343 166.01 96.9343 166.01C96.0962 167.858 94.5593 167.654 94.5593 167.654L94.3489 164.828C94.1497 162.166 94.3881 159.489 95.0546 156.904C95.4226 155.449 95.7035 153.974 95.8961 152.485Z" fill="black"/>
<path d="M131.016 168.524C131.016 168.524 123.582 167.801 121.227 163.545L120.148 167.06C120.148 167.06 127.952 172.454 129.733 171.754L131.016 168.524Z" fill="#65617D"/>
<path opacity="0.1" d="M130.751 168.489C130.751 168.489 123.32 167.766 120.962 163.507L119.887 167.012C119.887 167.012 127.69 172.406 129.468 171.706L130.751 168.489Z" fill="black"/>
<path d="M97.1786 166.537C97.1786 166.537 94.5763 167.461 94.064 166.948L95.2345 169.105L97.4467 167.407L97.1786 166.537Z" fill="#65617D"/>
<path opacity="0.1" d="M97.1786 166.537C97.1786 166.537 94.5763 167.461 94.064 166.948L95.2345 169.105L97.4467 167.407L97.1786 166.537Z" fill="black"/>
<path opacity="0.1" d="M113.125 180.938V176.438L112.056 181.047L113.125 180.938Z" fill="black"/>
<path opacity="0.1" d="M123.667 87.942C123.039 88.8251 121.95 89.2734 120.878 89.4127C119.806 89.5519 118.72 89.4331 117.638 89.4127C115.941 89.3855 114.136 89.647 112.749 90.6456C111.863 91.2807 111.198 92.174 110.506 93.0231C108.409 95.5875 105.498 97.9888 102.193 97.7205C101.906 97.7205 101.621 97.6628 101.356 97.5508C101.09 97.4388 100.85 97.2748 100.65 97.0684C100.38 96.6498 100.243 96.1599 100.256 95.6622C100.114 93.5482 100.181 91.4252 100.456 89.3244C100.589 88.0242 100.911 86.7506 101.413 85.5441C102.004 84.3348 102.78 83.2254 103.713 82.2563C104.842 80.9452 106.203 79.8537 107.727 79.0364C109.267 78.2187 111.052 77.9882 112.749 78.3877C114.727 78.9277 116.267 80.4765 118.153 81.2747C120.308 82.1815 126.028 84.6032 123.667 87.942Z" fill="black"/>
<path d="M123.667 87.5313C123.039 88.4144 121.95 88.8628 120.878 89.002C119.806 89.1413 118.72 89.0224 117.638 89.002C115.941 88.9714 114.136 89.233 112.749 90.2315C111.863 90.8667 111.198 91.76 110.506 92.6091C108.409 95.1734 105.498 97.5748 102.193 97.3064C101.905 97.3072 101.62 97.2499 101.355 97.1378C101.09 97.0258 100.85 96.8613 100.65 96.6543C100.38 96.236 100.243 95.7459 100.256 95.2482C100.114 93.1341 100.181 91.0112 100.456 88.9103C100.589 87.6102 100.911 86.3365 101.413 85.13C102.003 83.9211 102.779 82.8128 103.713 81.8456C104.841 80.5325 106.202 79.4397 107.727 78.6223C109.267 77.8046 111.052 77.5741 112.749 77.9736C114.727 78.5137 116.267 80.0624 118.153 80.8606C120.308 81.7709 126.028 84.1858 123.667 87.5313Z" fill="#865A61"/>
<path d="M99.1735 160.813L99.1464 162.053L98.8682 160.868L99.1735 160.813Z" fill="#FDC2CC"/>
<path opacity="0.05" d="M99.1735 160.813L99.1464 162.053L98.8682 160.868L99.1735 160.813Z" fill="black"/>
<g opacity="0.05">
<path opacity="0.05" d="M125.339 115.192C122.465 124.658 130.842 125.768 130.842 125.768L137.574 143.828C138.12 146.905 131.148 155.868 131.148 155.868C130.663 157.016 129.451 157.889 128.128 158.534C128.901 158.063 129.523 157.379 129.92 156.564C129.92 156.564 136.888 147.605 136.342 144.527L129.611 126.465C129.611 126.465 121.237 125.354 124.108 115.888C125.068 112.726 126.483 111.286 127.914 110.77C126.927 111.564 126.021 112.94 125.339 115.192Z" fill="black"/>
</g>
<g opacity="0.1">
<path opacity="0.1" d="M125.482 123.792C125.875 124.279 126.332 124.712 126.839 125.079C127.789 125.77 128.885 126.235 130.042 126.438C130.042 126.438 130.042 126.438 130.042 126.455V126.795C128.995 126.572 128.006 126.134 127.138 125.507C126.492 125.034 125.932 124.454 125.482 123.792Z" fill="black"/>
<path opacity="0.1" d="M99.452 137.334C99.452 137.372 99.452 137.412 99.452 137.453C99.5577 139.067 99.7525 140.674 100.036 142.266C101.053 148.121 99.72 159.748 99.53 161.354C99.4214 161.283 99.3129 161.215 99.1907 161.137C99.2416 160.75 100.806 148.07 99.72 141.869C99.4416 140.282 99.2525 138.681 99.1534 137.073C99.1534 137.032 99.1534 136.991 99.1534 136.954C99.086 136.022 98.7709 135.125 98.2407 134.355C98.944 135.198 99.3674 136.239 99.452 137.334Z" fill="black"/>
<path opacity="0.1" d="M105.698 108.029L102.38 107.964C102.377 107.963 102.375 107.962 102.372 107.962C102.369 107.962 102.366 107.963 102.363 107.964L98.122 117.563C97.3803 119.224 96.8119 120.958 96.4255 122.736C95.1905 128.544 95.9675 131.437 96.9107 132.867C95.8488 131.614 94.7529 128.758 96.1202 122.338C96.4989 120.559 97.0617 118.824 97.7997 117.162L102.071 107.563L105.983 107.642V107.665C105.953 107.706 105.848 107.835 105.698 108.029Z" fill="black"/>
<path opacity="0.1" d="M130.704 110.634L130.762 110.651L130.704 110.634Z" fill="black"/>
<path opacity="0.1" d="M129.486 110.58L126.161 109.578H126.144C125.947 109.795 121.139 115.131 117.526 119.452C114.296 123.313 108.633 123.011 107.269 122.875C107.021 122.848 106.77 122.828 106.523 122.811C102.814 122.573 101.355 122.131 100.867 121.194C101.562 121.873 103.092 122.213 106.214 122.403C106.465 122.403 106.713 122.44 106.96 122.464C108.317 122.6 113.987 122.902 117.217 119.044C120.83 114.72 125.641 109.384 125.838 109.167L130.676 110.634C130.287 110.537 129.882 110.519 129.486 110.58Z" fill="black"/>
</g>
<path opacity="0.1" d="M90.1178 257.281C90.1178 257.281 85.4357 258.562 84.5298 256.551L90.1178 257.281Z" fill="black"/>
<path opacity="0.1" d="M119.843 256.319C119.843 256.319 114.415 257.722 113.159 255.552L119.843 256.319Z" fill="black"/>
<path opacity="0.1" d="M65.3465 244.755C70.3927 244.755 74.4835 244.063 74.4835 243.209C74.4835 242.356 70.3927 241.664 65.3465 241.664C60.3002 241.664 56.2095 242.356 56.2095 243.209C56.2095 244.063 60.3002 244.755 65.3465 244.755Z" fill="#6C63FF"/>
<path opacity="0.1" d="M29.3518 266.672C34.3981 266.672 38.4888 265.98 38.4888 265.126C38.4888 264.273 34.3981 263.581 29.3518 263.581C24.3056 263.581 20.2148 264.273 20.2148 265.126C20.2148 265.98 24.3056 266.672 29.3518 266.672Z" fill="#6C63FF"/>
<path d="M19.838 247.828C27.3727 247.828 33.4808 246.794 33.4808 245.519C33.4808 244.243 27.3727 243.209 19.838 243.209C12.3034 243.209 6.19531 244.243 6.19531 245.519C6.19531 246.794 12.3034 247.828 19.838 247.828Z" fill="#6C63FF"/>
<path d="M14.1959 241.742C13.5722 241.236 13.1177 240.551 12.8931 239.779C12.7268 238.998 13.0593 238.064 13.8023 237.778C14.637 237.459 15.5293 238.036 16.2045 238.621C16.8797 239.205 17.6566 239.874 18.5422 239.752C18.0868 239.338 17.7461 238.814 17.5535 238.229C17.3608 237.644 17.3227 237.02 17.4429 236.416C17.4795 236.166 17.5852 235.931 17.7483 235.737C18.2097 235.241 19.0511 235.455 19.6075 235.846C21.3684 237.089 21.8638 239.487 21.8706 241.647C22.0504 240.866 21.9011 240.057 21.9045 239.269C21.9079 238.481 22.1284 237.571 22.8002 237.157C23.2152 236.927 23.6831 236.81 24.1574 236.817C24.9513 236.79 25.8335 236.868 26.3763 237.449C27.0549 238.169 26.8751 239.381 26.2881 240.166C25.7011 240.951 24.8122 241.457 23.9945 242.007C23.3359 242.398 22.7744 242.933 22.3524 243.573C22.3029 243.661 22.262 243.755 22.2302 243.851H17.2732C16.1564 243.292 15.121 242.582 14.1959 241.742Z" fill="#6C63FF"/>
<path opacity="0.1" d="M349.408 257.682C354.454 257.682 358.545 256.99 358.545 256.136C358.545 255.283 354.454 254.591 349.408 254.591C344.362 254.591 340.271 255.283 340.271 256.136C340.271 256.99 344.362 257.682 349.408 257.682Z" fill="#6C63FF"/>
<path d="M343.273 248.952C343.273 248.952 348.485 248.793 350.059 247.672C351.633 246.551 358.073 245.216 358.463 247.013C358.854 248.81 366.297 255.942 360.411 255.99C354.524 256.038 346.741 255.073 345.173 254.115C343.606 253.157 343.273 248.952 343.273 248.952Z" fill="#A8A8A8"/>
<path opacity="0.2" d="M360.513 255.369C354.629 255.416 346.843 254.452 345.275 253.494C344.081 252.767 343.606 250.155 343.446 248.949H343.273C343.273 248.949 343.613 253.157 345.17 254.112C346.727 255.066 354.524 256.034 360.407 255.987C362.104 255.987 362.694 255.369 362.66 254.472C362.426 255.029 361.778 255.369 360.513 255.369Z" fill="black"/>
<path d="M122.852 147.33L140.661 171.299C140.661 171.299 138 173 130 174.5L121.149 163.813L112 154L122.852 147.33Z" fill="#F6F8FB"/>
<path d="M134.84 160.98C134.103 161.935 133.7 162.482 133.7 162.482L130.646 166.982C130.126 167.751 129.345 168.304 128.447 168.538C127.056 168.904 124.919 169.173 123.066 168.154C122.392 167.778 121.88 167.165 121.629 166.434C121.379 165.703 121.407 164.905 121.709 164.193L122.388 162.617C122.388 162.617 116.101 166.585 115.555 164.397C115.008 162.21 122.866 160.019 122.866 160.019C122.866 160.019 129.357 158.925 130.67 155.845C130.67 155.845 131.236 155.118 132.027 154.004" fill="#FDC2CC"/>
</g>
<defs>
<linearGradient id="paint0_linear" x1="163.411" y1="241.256" x2="163.411" y2="40.493" gradientUnits="userSpaceOnUse">
<stop stop-color="#808080" stop-opacity="0.25"/>
<stop offset="0.54" stop-color="#808080" stop-opacity="0.12"/>
<stop offset="1" stop-color="#808080" stop-opacity="0.1"/>
</linearGradient>
<linearGradient id="paint1_linear" x1="46732" y1="162270" x2="46732" y2="35551.7" gradientUnits="userSpaceOnUse">
<stop stop-color="#808080" stop-opacity="0.25"/>
<stop offset="0.54" stop-color="#808080" stop-opacity="0.12"/>
<stop offset="1" stop-color="#808080" stop-opacity="0.1"/>
</linearGradient>
<linearGradient id="paint2_linear" x1="61952.6" y1="165193" x2="61952.6" y2="47923" gradientUnits="userSpaceOnUse">
<stop stop-color="#808080" stop-opacity="0.25"/>
<stop offset="0.54" stop-color="#808080" stop-opacity="0.12"/>
<stop offset="1" stop-color="#808080" stop-opacity="0.1"/>
</linearGradient>
<linearGradient id="paint3_linear" x1="-35483.9" y1="163792" x2="-35483.9" y2="46042.9" gradientUnits="userSpaceOnUse">
<stop stop-color="#808080" stop-opacity="0.25"/>
<stop offset="0.54" stop-color="#808080" stop-opacity="0.12"/>
<stop offset="1" stop-color="#808080" stop-opacity="0.1"/>
</linearGradient>
<clipPath id="clip0">
<rect width="386" height="292" fill="white"/>
</clipPath>
</defs>
</svg>
